<svg id="drink" xmlns="http://www.w3.org/2000/svg" viewBox="0 0 850.39 850.39"><defs><style>.cls-1{fill:#c63242;}.cls-2{fill:#d43c52;}</style></defs><title>background</title><rect class="cls-1" width="850.39" height="850.39"/><circle class="cls-2" cx="216.02" cy="202.63" r="38.26"/><circle class="cls-2" cx="549.35" cy="544.16" r="38.26"/><circle class="cls-2" cx="292.13" cy="704.85" r="67.28"/><circle class="cls-2" cx="432.61" cy="321.55" r="24.04"/><circle class="cls-2" cx="587.61" cy="202.63" r="38.26"/><circle class="cls-2" cx="264.48" cy="240.89" r="13.38"/><circle class="cls-2" cx="593.57" cy="330.99" r="13.38"/><circle class="cls-2" cx="346.02" cy="492.52" r="13.38"/><circle class="cls-2" cx="737.27" cy="575.66" r="24.04"/><circle class="cls-2" cx="650.68" cy="746.64" r="13.38"/><circle class="cls-2" cx="438.58" cy="97.07" r="13.38"/><circle class="cls-2" cx="370.79" cy="349.55" r="26.25"/><circle class="cls-2" cx="396.38" cy="644.63" r="19.92"/><circle class="cls-2" cx="102.85" cy="611.33" r="13.38"/><circle class="cls-2" cx="58.34" cy="344.38" r="13.38"/><circle class="cls-2" cx="56.4" cy="785.51" r="13.38"/><path class="cls-2" d="M38.26,0H0V38.26A38.26,38.26,0,0,0,38.26,0Z"/><path class="cls-2" d="M850.39,38.26V0H812.14A38.26,38.26,0,0,0,850.39,38.26Z"/><path class="cls-2" d="M0,812.14v38.25H38.26A38.26,38.26,0,0,0,0,812.14Z"/><path class="cls-2" d="M850.39,812.14a38.26,38.26,0,0,0-38.25,38.25h38.25Z"/></svg>