<svg id="F2BF58" xmlns="http://www.w3.org/2000/svg" viewBox="0 0 850.39 850.39"><defs><style>.cls-1{fill:#f2bf59;}.cls-2{fill:#d99b48;}.cls-2,.cls-3{opacity:0.62;}.cls-3{fill:#dfa24d;}</style></defs><title>background-fries</title><path class="cls-1" d="M197.12,371c-65.56-8-131.33-8.9-197.12-8.75v142c65.79.15,131.56-.71,197.12-8.75,144.2-17.68,287.35-5.93,430.39,14.35,74,10.5,147.85,22.56,222.88,26V330.67c-75,3.4-148.83,15.46-222.88,26C484.47,376.91,341.32,388.65,197.12,371Z"/><path class="cls-1" d="M698.61,42.48c50.44,2.64,101.15,4.09,151.78,6.85V0H0V80.21C83.42,72.12,166.53,61,250,53.93,399.72,41.35,549.41,34.68,698.61,42.48Z"/><path class="cls-1" d="M699.94,542C595,528.47,489.78,516.65,384,512.31c-94.43-3.86-188.18,8.52-282.25,14.27C67.91,528.65,34,529.36,0,529.44V733.55c30.7-2.35,61.38-4.91,92.1-7.11,22.54-1.62,52.72-17.9,70.27,14.16-4,6-9.83,9-16.62,10.65-36,8.16-73.25,17.2-108.74,6.35a114.92,114.92,0,0,0-37-4.83v28.47c46.34-23.27,99.06-10,147.52-21,27.17-3.46,53.87-3.81,78.14,11.92l166.24.09c67.87,5.67,136.07,8.87,203.56,17.57,85,10.95,169.71,16.54,254.93,13.35V735.76C772,751.21,692.7,758.86,611.87,757.11c-68.15-1.48-136.24-1.66-204.13-8.44-21.6-6.74-42.38-6-65.36-2.61-35.86,5.24-73.48,7.08-117.66-4.73,24.55-12.88,41.66-7,58-8.55,36.33-3.51,73.73,7.62,109.18-8,28.67,1.73,57.53,3.29,86,4.69,104.15,5.11,208.23,19.87,313.05-.68,19.65-3.86,39.46-7.83,59.41-11.08V554Q822,552,793.72,549.6C762.56,546.91,731.07,546,699.94,542Z"/><path class="cls-1" d="M595.46,165.32C528,174,459.77,177.22,391.9,182.89l-166.24.1c-24.27,15.72-51,15.38-78.14,11.91-48.46-11-101.18,2.28-147.52-21V337c34,.07,67.91.79,101.76,2.86C195.83,345.57,289.58,358,384,354.09c105.77-4.33,211-16.16,315.93-29.7,31.13-4,62.62-4.89,93.78-7.58q28.32-2.46,56.67-4.35v-75c-19.95-3.25-39.76-7.22-59.41-11.07-104.82-20.56-208.9-5.8-313-.69-28.5,1.4-57.36,3-86,4.69-35.45-15.62-72.85-4.49-109.18-8-16.34-1.58-33.45,4.32-58-8.56,44.18-11.81,81.8-10,117.66-4.72,23,3.36,43.76,4.12,65.36-2.62,67.89-6.78,136-7,204.13-8.44,80.83-1.75,160.17,5.9,238.52,21.35V152C765.17,148.78,680.46,154.37,595.46,165.32Z"/><path class="cls-1" d="M693.6,58.19c-40.71-5.42-81.31,5.07-121.4,4.56C470.84,61.49,369.9,68.75,269,73.3c-89.82,4-179.37,14.11-269,23.18v56c53.76,9.45,108.1,5.86,162.15,8.37q134.06,6.22,268,6.17c90.75.06,178.87-24.26,269.46-28.33,50.29-2.26,100.6-4.34,150.78-4V76.76C797.93,72,745.82,65.14,693.6,58.19Z"/><path class="cls-1" d="M699.61,816.46C609,812.39,520.9,788.07,430.15,788.13q-134.05.09-268,6.17C108.1,796.82,53.76,793.22,0,802.67v47.72H850.39V820.48C800.21,820.81,749.9,818.72,699.61,816.46Z"/><path class="cls-1" d="M699.94,324.39C595,337.93,489.78,349.76,384,354.09c-94.43,3.87-188.18-8.52-282.25-14.26C67.91,337.76,34,337,0,337v25.26c65.79-.15,131.56.71,197.12,8.75,144.2,17.67,287.35,5.93,430.39-14.35,74-10.5,147.85-22.56,222.88-26V312.46q-28.35,1.92-56.67,4.35C762.56,319.5,731.07,320.37,699.94,324.39Z"/><path class="cls-2" d="M699.94,324.39C595,337.93,489.78,349.76,384,354.09c-94.43,3.87-188.18-8.52-282.25-14.26C67.91,337.76,34,337,0,337v25.26c65.79-.15,131.56.71,197.12,8.75,144.2,17.67,287.35,5.93,430.39-14.35,74-10.5,147.85-22.56,222.88-26V312.46q-28.35,1.92-56.67,4.35C762.56,319.5,731.07,320.37,699.94,324.39Z"/><path class="cls-1" d="M572.2,62.75c40.09.51,80.69-10,121.4-4.56,52.22,7,104.33,13.77,156.79,18.57V49.33c-50.63-2.76-101.34-4.21-151.78-6.85-149.2-7.8-298.89-1.13-448.6,11.45C166.53,61,83.42,72.12,0,80.21V96.48C89.59,87.41,179.14,77.34,269,73.3,369.9,68.75,470.84,61.49,572.2,62.75Z"/><path class="cls-3" d="M572.2,62.75c40.09.51,80.69-10,121.4-4.56,52.22,7,104.33,13.77,156.79,18.57V49.33c-50.63-2.76-101.34-4.21-151.78-6.85-149.2-7.8-298.89-1.13-448.6,11.45C166.53,61,83.42,72.12,0,80.21V96.48C89.59,87.41,179.14,77.34,269,73.3,369.9,68.75,470.84,61.49,572.2,62.75Z"/><path class="cls-1" d="M699.61,138.68C609,142.75,520.9,167.07,430.15,167q-134.05-.09-268-6.17C108.1,158.33,53.76,161.92,0,152.47V173.9c46.34,23.28,99.06,10,147.52,21,27.17,3.47,53.87,3.81,78.14-11.91l166.24-.1C459.77,177.22,528,174,595.46,165.32c85-10.95,169.71-16.54,254.93-13.35V134.66C800.21,134.34,749.9,136.42,699.61,138.68Z"/><path class="cls-2" d="M699.61,138.68C609,142.75,520.9,167.07,430.15,167q-134.05-.09-268-6.17C108.1,158.33,53.76,161.92,0,152.47V173.9c46.34,23.28,99.06,10,147.52,21,27.17,3.47,53.87,3.81,78.14-11.91l166.24-.1C459.77,177.22,528,174,595.46,165.32c85-10.95,169.71-16.54,254.93-13.35V134.66C800.21,134.34,749.9,136.42,699.61,138.68Z"/><path class="cls-1" d="M611.87,198c-68.15,1.48-136.24,1.66-204.13,8.44-21.6,6.74-42.38,6-65.36,2.62-35.86-5.25-73.48-7.09-117.66,4.72,24.55,12.88,41.66,7,58,8.56,36.33,3.5,73.73-7.63,109.18,8,28.67-1.73,57.53-3.29,86-4.69,104.15-5.11,208.23-19.87,313.05.69,19.65,3.85,39.46,7.82,59.41,11.07V219.38C772,203.93,692.7,196.28,611.87,198Z"/><path class="cls-2" d="M611.87,198c-68.15,1.48-136.24,1.66-204.13,8.44-21.6,6.74-42.38,6-65.36,2.62-35.86-5.25-73.48-7.09-117.66,4.72,24.55,12.88,41.66,7,58,8.56,36.33,3.5,73.73-7.63,109.18,8,28.67-1.73,57.53-3.29,86-4.69,104.15-5.11,208.23-19.87,313.05.69,19.65,3.85,39.46,7.82,59.41,11.07V219.38C772,203.93,692.7,196.28,611.87,198Z"/><path class="cls-1" d="M197.12,495.43c-65.56,8-131.33,8.9-197.12,8.75v25.26c34-.08,67.91-.79,101.76-2.86,94.07-5.75,187.82-18.13,282.25-14.27,105.77,4.34,211,16.16,315.93,29.71,31.13,4,62.62,4.89,93.78,7.58Q822,552,850.39,554V535.73c-75-3.39-148.83-15.45-222.88-26C484.47,489.5,341.32,477.75,197.12,495.43Z"/><path class="cls-2" d="M197.12,495.43c-65.56,8-131.33,8.9-197.12,8.75v25.26c34-.08,67.91-.79,101.76-2.86,94.07-5.75,187.82-18.13,282.25-14.27,105.77,4.34,211,16.16,315.93,29.71,31.13,4,62.62,4.89,93.78,7.58Q822,552,850.39,554V535.73c-75-3.39-148.83-15.45-222.88-26C484.47,489.5,341.32,477.75,197.12,495.43Z"/><path class="cls-1" d="M595.46,789.82c-67.49-8.7-135.69-11.9-203.56-17.57l-166.24-.09c-24.27-15.73-51-15.38-78.14-11.92C99.06,771.28,46.34,758,0,781.24v21.43c53.76-9.45,108.1-5.85,162.15-8.37q134.06-6.22,268-6.17c90.75-.06,178.87,24.26,269.46,28.33,50.29,2.26,100.6,4.35,150.78,4V803.17C765.17,806.36,680.46,800.77,595.46,789.82Z"/><path class="cls-2" d="M595.46,789.82c-67.49-8.7-135.69-11.9-203.56-17.57l-166.24-.09c-24.27-15.73-51-15.38-78.14-11.92C99.06,771.28,46.34,758,0,781.24v21.43c53.76-9.45,108.1-5.85,162.15-8.37q134.06-6.22,268-6.17c90.75-.06,178.87,24.26,269.46,28.33,50.29,2.26,100.6,4.35,150.78,4V803.17C765.17,806.36,680.46,800.77,595.46,789.82Z"/><path class="cls-1" d="M477.93,729.47c-28.5-1.4-57.36-3-86-4.69-35.45,15.62-72.85,4.49-109.18,8-16.34,1.57-33.45-4.33-58,8.55,44.18,11.81,81.8,10,117.66,4.73,23-3.37,43.76-4.13,65.36,2.61,67.89,6.78,136,7,204.13,8.44,80.83,1.75,160.17-5.9,238.52-21.35v-18c-19.95,3.25-39.76,7.22-59.41,11.08C686.16,749.34,582.08,734.58,477.93,729.47Z"/><path class="cls-2" d="M477.93,729.47c-28.5-1.4-57.36-3-86-4.69-35.45,15.62-72.85,4.49-109.18,8-16.34,1.57-33.45-4.33-58,8.55,44.18,11.81,81.8,10,117.66,4.73,23-3.37,43.76-4.13,65.36,2.61,67.89,6.78,136,7,204.13,8.44,80.83,1.75,160.17-5.9,238.52-21.35v-18c-19.95,3.25-39.76,7.22-59.41,11.08C686.16,749.34,582.08,734.58,477.93,729.47Z"/><path class="cls-1" d="M37,757.6c35.49,10.85,72.75,1.81,108.74-6.35,6.79-1.61,12.64-4.69,16.62-10.65-17.55-32.06-47.73-15.78-70.27-14.16-30.72,2.2-61.4,4.76-92.1,7.11v19.22A114.92,114.92,0,0,1,37,757.6Z"/><path class="cls-2" d="M37,757.6c35.49,10.85,72.75,1.81,108.74-6.35,6.79-1.61,12.64-4.69,16.62-10.65-17.55-32.06-47.73-15.78-70.27-14.16-30.72,2.2-61.4,4.76-92.1,7.11v19.22A114.92,114.92,0,0,1,37,757.6Z"/></svg>