<svg xmlns="http://www.w3.org/2000/svg" viewBox="0 0 850.39 850.39"><defs><style>.cls-1,.cls-18{fill:#f2f2f2;}.cls-2{fill:#14642e;}.cls-3{fill:#3e8132;}.cls-4{fill:#67b55d;}.cls-5{fill:#90c159;}.cls-6{fill:#4a8947;}.cls-7{fill:#f8fbf7;}.cls-8{fill:#619954;}.cls-9{fill:#547129;}.cls-10{fill:#6d8d2c;}.cls-11{fill:#f8e48d;}.cls-12{fill:#f2cc24;}.cls-13{fill:none;}.cls-14{fill:#8e9f4d;}.cls-15{fill:#a1b944;}.cls-16{fill:#c22761;}.cls-17{fill:#dc3669;}.cls-18{opacity:0.5;}</style></defs><title>background-salad</title><g id="salad-bottom"><rect class="cls-1" width="850.39" height="850.39"/></g><g id="salads"><path class="cls-2" d="M636.93,391.14c-8.17,5.73-15.83,2.75-17.53-7-.33-1.92-1.27-2.21-2.67-2.8-8.26-3.44-9.54-13-2.27-18.12,2.2-1.56,2.06-2.59,1.06-4.65-4.07-8.41,1-15.91,10.31-15.34,1.69.1,3.15.79,3-2.05-.24-5,1.13-9.5,6.3-11.56,5.45-2.16,10.2-.87,14.3,4.21,1.83-5.23,4.32-9.31,10.26-8.81,5,.43,8.5,2.92,9.85,8,1.67,2.18,1.34,4.59.79,7-1.26,5.55-2.47,11.12-3.86,16.64-2,8.52-3.87,17.05-5.88,25.55-.6,2.52-1.07,5.09-2.6,7.27a7.36,7.36,0,0,1-5.62,3.22c-3.31-.42-6.72-.77-9.48-2.84S639,390.86,636.93,391.14Z"/><path class="cls-3" d="M708.56,391.49c.85-3.76-2.45-6.53-2.49-9.46s5.85-3.5,6.06-7.72a18,18,0,0,1,.6-2.86c-1.75-1.61-2.54-.07-3.3,1.1s-1.35.85-1.87.33c2-2.76-1.62-4.3-1.94-6.48,1.71-.31,4.14,2.56,4.61-1.39-.61-.51-1.15-1.28-1.85-1.51-4.39-1.42-5.09-3.63-3.25-8.09,2.44-5.89-.89-11.39-6.9-13.52-3.11-1.11-6-.47-9.06.89a7.73,7.73,0,0,1-.26-1.8c.75-4.32-.53-7.9-4.43-10a10.27,10.27,0,0,0-11.54.63c-1,.71-1.82,2-3.39,1.35-.13,8.07-3.18,15.59-4.54,23.42h0q-3.1,13.46-6.22,26.9c-.51,2.18-.72,4.49-2.46,6.19a8.83,8.83,0,0,0,4.62,5.26c2.32.51,4.59,2.5,6.78,1.85,3.74-1.11,5.52.63,7.16,3.33,4.68,8.47,13.11,9.35,18.57,1.77a3.62,3.62,0,0,1,3.89-1.77C703.24,400.39,707.28,397.13,708.56,391.49Z"/><path class="cls-4" d="M636.93,391.14c.93-1.12,1.85-2.25,2.79-3.36.6-.72,1.53-1.9,2.22-.64,2.19,4,6.47,3.25,9.79,4.63-1.79,1.21-3.21,2.28-1.38,4.82,1.57,2.18,2.51,4.82,3.83,7.22a8,8,0,0,1,.23,4.78c-1.78,8.38-3.64,16.75-5.82,25-.64,2.4-1.35,5.51-5.17,3.28-4.84-.28-6-2.76-4.61-7.19,2-6.17,3.78-12.39,5.56-18.62C646.11,405.06,642.36,395.15,636.93,391.14Z"/><path class="cls-5" d="M643.42,436.9c1.88.43,3-.07,3.5-2.17q3.12-14,6.47-27.93c.41-1.68-.41-2.76-1.07-4,2.56-1.29,5.27-2.17,7.65-4,1.93-1.47,2.19-2.81,1.44-4.77,3.62.41,7.18,3.09,10.9.08.78-.63,1.31.41,1.5,1.22l1.08,4.58c-7,.79-14.71,8.17-15.67,14.77-.76,5.31-1.76,10.57-2.54,15.87C655.35,439.56,652.18,441.1,643.42,436.9Z"/><path class="cls-6" d="M707.29,373.23c.6-3.89-3.19-5.42-4.8-8,2.82-2.74,5.24,2.63,7.74-.27a6.89,6.89,0,0,1,2.5,6.44c-2.5-.3-2.09,1.93-2.79,3.2-.49.89-1.23,1.74-2.27,1.2S707.21,374.14,707.29,373.23Z"/><path class="cls-7" d="M661.41,394c.58,1.39,2.32,1,3.5,2.48-4.16,2.3-6.64,7.43-12.59,6.26-1.77-3.5-3.54-7-5.32-10.52,1.7-.87,3.34.61,4.74-.49a5.33,5.33,0,0,0,4.59-2.29C659,389.86,658.94,393.38,661.41,394Z"/><path class="cls-8" d="M701.38,355.54c-.41,1.29-.48,3.54-2.64,3.12s-1.54-2.51-1.12-4c.94-3.27-.13-5.68-2.9-7.46-.8-.51-1.89-1-1.17-2.17.6-1,1.69-.73,2.65-.46C699.86,345.58,702.49,351,701.38,355.54Z"/><path class="cls-9" d="M368.84,383.88a13.38,13.38,0,0,1-.09,9.17c-3.14,9.25-9.19,15.49-19.07,17.41a11.72,11.72,0,0,1-6.44-.55c-.78-1.31.28-2,1-2.67,5.61-5.16,10.79-10.76,16.32-16,2.16-2.05,4.18-4.24,6.21-6.44A2.12,2.12,0,0,1,368.84,383.88Z"/><path class="cls-10" d="M368.84,383.88c-2.11,1-3.4,2.95-4.89,4.54-3,3.17-6.21,6.11-9.29,9.19-2.5,2.51-4.91,5.11-7.41,7.63-.93.94-2,1.76-3,2.63a2.33,2.33,0,0,0-1,2c-1.35-.35-1-1.58-1.12-2.43-1-6.8,1.6-12.38,6.23-17.1,4.17-4.24,9.16-7,15.21-7.4C365.33,382.87,367.25,382.58,368.84,383.88Z"/><path class="cls-9" d="M584.93,491.56c3,7.78,2.32,15.77-.22,23.25-8,23.46-23.3,39.3-48.37,44.16a29.62,29.62,0,0,1-16.33-1.4c-2-3.32.71-5.07,2.57-6.77,14.23-13.09,27.36-27.29,41.38-40.59,5.48-5.19,10.61-10.77,15.74-16.33C581.12,492.34,582.63,491.09,584.93,491.56Z"/><path class="cls-10" d="M584.93,491.56c-5.34,2.5-8.62,7.49-12.4,11.51-7.59,8.06-15.75,15.49-23.55,23.31-6.36,6.37-12.47,13-18.8,19.36-2.35,2.37-5,4.44-7.54,6.66-1.56,1.37-2.86,2.88-2.63,5.17-3.42-.88-2.54-4-2.85-6.16C514.69,534.18,521.23,520,533,508c10.55-10.75,23.22-17.81,38.56-18.75C576,489,580.91,488.28,584.93,491.56Z"/><path class="cls-9" d="M378.49,59.34c8.62-3.27,17.48-2.58,25.78.24,26,8.83,43.59,25.85,49,53.64a32.81,32.81,0,0,1-1.55,18.11c-3.68,2.19-5.62-.79-7.51-2.84-14.52-15.78-30.26-30.35-45-45.9-5.76-6.07-11.94-11.76-18.11-17.45C379.36,63.57,378,61.89,378.49,59.34Z"/><path class="cls-10" d="M378.49,59.34c2.77,5.93,8.31,9.56,12.76,13.75,8.94,8.42,17.18,17.47,25.85,26.12,7.06,7.05,14.38,13.83,21.47,20.84,2.63,2.62,4.93,5.57,7.38,8.37,1.53,1.73,3.2,3.17,5.74,2.91-1,3.8-4.45,2.82-6.83,3.16C425.75,137.24,410,130,396.76,117,384.85,105.25,377,91.21,376,74.18,375.66,69.2,374.85,63.8,378.49,59.34Z"/><path class="cls-11" d="M540.17,309.57c-.62-.6-1.79-1-1.36-2a3.08,3.08,0,0,1,2.16-1.36c8-.88,13.9-5,18.76-11.27,4.68-6,5.64-12.89,4.1-19.81-3.08-13.9-12.93-20.72-26.08-21.24a22.46,22.46,0,0,0-18.33,8.13,13.85,13.85,0,0,1-1.66.76,12.9,12.9,0,0,1-1.13-1.43,22.49,22.49,0,0,0-12.72-15.5c-12-5.45-23.84-3.79-32.85,7.25-4.48,5.49-6.71,12-5.24,19.54,1.52,7.78,4.93,14.12,11.69,18.5a3,3,0,0,1,1.31,2.18c0,1-1.27.9-2.1,1.15a25.24,25.24,0,0,0-16.12,14c-6.18,12.83,3.72,32.6,20.76,32.62,8,0,14.43-3.54,19.95-9,2.46,7.38,6.61,13.44,13.77,17,15.22,7.64,32.95-5.56,33.21-19.81A25.21,25.21,0,0,0,540.17,309.57Zm-19.54,30.69c-1.86-.16-4,.17-4.91-2.19-.29-1-.27-2.13-1.45-2.6-2,1.53-3.66,1.18-5.35-.68a20.78,20.78,0,0,1-3.86-5.92c-.46-1.11-.93-2.65-2.4-2.45-1.23-.84-2.34.33-3.26,1.11a20.89,20.89,0,0,1-6.11,3.55c-2.33.9-4,.47-5.08-1.8-1.26-.11-1.76.93-2.46,1.67-1.87,1.7-3.64.44-5.37-.25-10.08-4-15.48-19.31-6.95-28.41,2.55-3.63,6.3-5.31,10.43-6.39,1-.26,2.29-.23,2.61-1.39.38-1.39-.94-2-1.79-2.8-.33-.3-.72-.53-1.08-.8-6.34-4.6-9.07-11-8.63-18.62.71-12.24,14-20.93,23.11-17.72,7.83.54,12.44,5.52,16.18,11.67a2.5,2.5,0,0,0,1.35,2.59,1.75,1.75,0,0,0,.67.22,1.7,1.7,0,0,0,.7.1,2.5,2.5,0,0,0,2.37-1.7c6.11-3.81,12.46-6.19,19.7-3.15,9.56,1.23,17.55,15,12.68,26.22-3,7-8.36,11.5-16.09,12.75a11.75,11.75,0,0,0-1.32.23c-1.11.31-2.57.28-2.86,1.69-.24,1.19,1,1.75,1.71,2.42,3.2,2.82,5.8,6,6.44,10.4C543.14,330,531.43,341.23,520.63,340.26Z"/><path class="cls-12" d="M451.68,323.23a30.45,30.45,0,0,0,2.67,7.92,31.22,31.22,0,0,1-2.49-7.18C451.8,323.72,451.73,323.48,451.68,323.23Z"/><path class="cls-12" d="M451.32,314.38a33,33,0,0,0-.17,3.39A11.63,11.63,0,0,0,451.32,314.38Z"/><path class="cls-12" d="M453.69,305.35h0a27.3,27.3,0,0,0-2.21,7.74A35.28,35.28,0,0,1,453.69,305.35Z"/><path class="cls-12" d="M455.82,333.81a20.48,20.48,0,0,0,2.44,3.37,29.88,29.88,0,0,1-2.44-3.38Z"/><path class="cls-13" d="M553.45,339.65a8.93,8.93,0,0,0-.75,1.56Q553.11,340.42,553.45,339.65Z"/><path class="cls-13" d="M541.89,313.3c-5.19-6.56-5.2-6.55,2.81-9,14.35-4.45,21.31-17.16,17.25-31.56-3.4-12.07-18.4-20.13-29.38-16.75-4.39,1.35-8.13,3.72-12,5.82a2.92,2.92,0,0,1-4.79-1.14c-2.54-3.63-4.82-7.42-8.13-10.6-8.29-8-25.31-7.51-33.78,1.74-10.1,11-9.6,25.52,1.23,36,6,5.81,6,5.81-1.56,9.33-8.51,4-13.32,10.66-13.41,20-.11,10.11,5,17.44,14.19,21.47,7.37,3.23,14.32.9,20.9-3,2.07-1.21,3.49-3.29,5.79-4.15a2.64,2.64,0,0,1,.45.15l.46.06c1.67,1.81,2,4.31,3.31,6.32,4.15,6.4,9.3,11.61,17.34,12,10,.53,17.88-3.72,22.33-12.8C549,328.81,547.71,320.67,541.89,313.3Z"/><path class="cls-12" d="M455.82,333.8c-.55-.89-1-1.77-1.47-2.65C454.8,332.06,455.29,333,455.82,333.8Z"/><path class="cls-12" d="M451.38,313.64a4.52,4.52,0,0,0-.06.74c0-.44.1-.87.16-1.29C451.44,313.28,451.41,313.46,451.38,313.64Z"/><path class="cls-13" d="M501.49,347.92c.08.09.38.43.9.94C502.1,348.54,501.8,348.22,501.49,347.92Z"/><path class="cls-13" d="M541.89,313.3c-5.19-6.56-5.2-6.55,2.81-9,14.35-4.45,21.31-17.16,17.25-31.56-3.4-12.07-18.4-20.13-29.38-16.75-4.39,1.35-8.13,3.72-12,5.82a2.92,2.92,0,0,1-4.79-1.14c-2.54-3.63-4.82-7.42-8.13-10.6-8.29-8-25.31-7.51-33.78,1.74-10.1,11-9.6,25.52,1.23,36,6,5.81,6,5.81-1.56,9.33-8.51,4-13.32,10.66-13.41,20-.11,10.11,5,17.44,14.19,21.47,7.37,3.23,14.32.9,20.9-3,2.07-1.21,3.49-3.29,5.79-4.15a2.64,2.64,0,0,1,.45.15l.46.06c1.67,1.81,2,4.31,3.31,6.32,4.15,6.4,9.3,11.61,17.34,12,10,.53,17.88-3.72,22.33-12.8C549,328.81,547.71,320.67,541.89,313.3Z"/><path class="cls-12" d="M493.53,346.31l-1.32.51C492.66,346.66,493.1,346.5,493.53,346.31Z"/><path class="cls-12" d="M474.93,347.64l.54.1-.53-.12Z"/><path class="cls-12" d="M501.47,347.89h0l0,0Z"/><path class="cls-12" d="M554.47,309.46c11.56-6.76,17-17.11,17.41-30.35-.93-10.75-5.3-19.66-14-26.26-5.38-4.08-11.6-5.81-18.2-6.44a21.73,21.73,0,0,0-12.08,1.83c-2.42,1.13-4.65,1.71-6.68,1.33a11.24,11.24,0,0,1-5.37-4.19,21.76,21.76,0,0,0-10-7.07c-6.18-2.4-12.51-3.66-19.15-2.43-10.74,2-18.66,8-24.32,17.16-5.62,12-5.38,23.69,1.9,34.94,1.35,2.07,1.18,3.22-.73,4.75a31.65,31.65,0,0,0-9.58,12.62,35.28,35.28,0,0,0-2.21,7.74c-.06.42-.12.85-.16,1.29a11.63,11.63,0,0,1-.17,3.39,29.71,29.71,0,0,0,.53,5.46c.05.25.12.49.18.74a31.22,31.22,0,0,0,2.49,7.18c.44.88.92,1.76,1.47,2.65a29.88,29.88,0,0,0,2.44,3.38,36.72,36.72,0,0,0,6.85,6.39,26.51,26.51,0,0,0,9.83,4.05l.53.12c2.12.35,10,1.41,16.74-.92l1.32-.51a9.33,9.33,0,0,1,4.55-.6,8.9,8.9,0,0,1,3.39,2.19h0l0,0c.31.3.61.62.9.94A38.17,38.17,0,0,0,518.6,358a25.14,25.14,0,0,0,9.88.64A35.67,35.67,0,0,0,539.6,355a34.79,34.79,0,0,0,13.1-13.75,8.93,8.93,0,0,1,.75-1.56,31.42,31.42,0,0,0,1.36-3.69A32,32,0,0,0,553,314C552,311.81,552.33,310.71,554.47,309.46Zm-39.39,39.66c-7.16-3.59-11.31-9.65-13.77-17-5.52,5.48-11.95,9-19.95,9-17,0-26.94-19.79-20.76-32.62a25.24,25.24,0,0,1,16.12-14c.83-.25,2.07-.12,2.1-1.15a3,3,0,0,0-1.31-2.18c-6.76-4.38-10.17-10.72-11.69-18.5-1.47-7.5.76-14.05,5.24-19.54,9-11,20.87-12.7,32.85-7.25a22.49,22.49,0,0,1,12.27,13.87,12.87,12.87,0,0,0,.36,1.28l.09.35a.76.76,0,0,0,.08.11c.26.64.61,1.22,1,1.32s1-.25,1.53-.7l.13-.06.25-.29c.45-.44.81-.88.94-1a22.48,22.48,0,0,1,17.14-6.81c13.15.52,23,7.34,26.08,21.24,1.54,6.92.58,13.77-4.1,19.81-4.86,6.27-10.75,10.39-18.76,11.27a3.08,3.08,0,0,0-2.16,1.36c-.43.94.74,1.37,1.36,2a25.21,25.21,0,0,1,8.12,19.74C548,343.56,530.3,356.76,515.08,349.12Z"/><path class="cls-11" d="M229.6,438c-.83-.8-2.39-1.38-1.81-2.63a4,4,0,0,1,2.87-1.81c10.68-1.17,18.54-6.68,25-15,6.24-8.06,7.52-17.19,5.47-26.42-4.11-18.54-17.25-27.63-34.77-28.33a30,30,0,0,0-24.45,10.85,21.12,21.12,0,0,1-2.21,1,19.47,19.47,0,0,1-1.51-1.91,30,30,0,0,0-17-20.67c-16-7.27-31.79-5-43.8,9.66-6,7.32-8.95,16.06-7,26.06,2,10.37,6.57,18.82,15.58,24.67a4,4,0,0,1,1.75,2.91c0,1.38-1.69,1.19-2.79,1.53-9.9,3-16.87,9-21.51,18.65-8.24,17.12,5,43.47,27.68,43.5,10.67,0,19.25-4.72,26.61-12,3.28,9.83,8.82,17.91,18.36,22.7,20.3,10.19,44-7.42,44.28-26.41C240.61,453.57,237.07,445.12,229.6,438Zm-26.06,40.92c-2.48-.22-5.34.22-6.54-2.92-.39-1.3-.36-2.84-1.93-3.47-2.68,2-4.89,1.57-7.13-.91a27.35,27.35,0,0,1-5.15-7.89c-.62-1.48-1.25-3.53-3.21-3.27-1.64-1.11-3.12.44-4.34,1.48a27.51,27.51,0,0,1-8.15,4.73c-3.11,1.21-5.3.63-6.77-2.4-1.69-.14-2.36,1.25-3.29,2.23-2.49,2.27-4.85.59-7.16-.33-13.44-5.32-20.64-25.75-9.27-37.88,3.41-4.85,8.4-7.09,13.91-8.53,1.3-.34,3.06-.3,3.48-1.85.51-1.86-1.25-2.7-2.38-3.73a16.67,16.67,0,0,0-1.44-1.06c-8.46-6.14-12.1-14.72-11.51-24.83.94-16.32,18.69-27.91,30.82-23.63,10.44.72,16.58,7.36,21.57,15.55a3.35,3.35,0,0,0,1.8,3.46,2.6,2.6,0,0,0,.89.3,2.47,2.47,0,0,0,.93.13,3.33,3.33,0,0,0,3.17-2.28c8.14-5.07,16.61-8.24,26.26-4.19,12.76,1.63,23.4,20,16.91,35-4,9.3-11.14,15.33-21.45,17a14.7,14.7,0,0,0-1.76.3c-1.48.41-3.43.37-3.81,2.26-.32,1.57,1.27,2.33,2.28,3.22,4.27,3.76,7.72,8,8.58,13.87C233.56,465.15,217.94,480.16,203.54,478.87Z"/><path class="cls-12" d="M111.6,456.16a41.11,41.11,0,0,0,3.56,10.56,42.58,42.58,0,0,1-3.32-9.57Z"/><path class="cls-12" d="M111.12,444.36a40.5,40.5,0,0,0-.22,4.52C111.38,447.44,111.09,445.87,111.12,444.36Z"/><path class="cls-12" d="M114.29,432.32h0a36.55,36.55,0,0,0-3,10.32A47.7,47.7,0,0,1,114.29,432.32Z"/><path class="cls-12" d="M117.13,470.26a26.87,26.87,0,0,0,3.24,4.5,41.26,41.26,0,0,1-3.25-4.51Z"/><path class="cls-13" d="M247.31,478.05a12.13,12.13,0,0,0-1,2.09C246.67,479.43,247,478.73,247.31,478.05Z"/><path class="cls-13" d="M231.89,442.92c-6.92-8.75-6.93-8.74,3.75-12.05,19.14-5.93,28.42-22.88,23-42.08-4.53-16.09-24.53-26.83-39.18-22.33-5.85,1.8-10.84,5-16,7.76a3.9,3.9,0,0,1-6.39-1.51c-3.38-4.85-6.41-9.91-10.83-14.15-11.06-10.61-33.76-10-45,2.32-13.47,14.72-12.8,34,1.63,47.94,8,7.75,8,7.74-2.07,12.45-11.36,5.27-17.77,14.21-17.9,26.68-.13,13.49,6.69,23.27,18.93,28.63,9.83,4.31,19.09,1.2,27.87-3.94,2.75-1.62,4.66-4.39,7.72-5.54a5.26,5.26,0,0,1,.6.2l.62.09c2.22,2.41,2.68,5.74,4.41,8.42,5.53,8.54,12.41,15.48,23.12,16.05,13.35.72,23.84-4.95,29.78-17.06C241.37,463.6,239.66,452.74,231.89,442.92Z"/><path class="cls-12" d="M117.12,470.25c-.73-1.18-1.38-2.36-2-3.53A40.28,40.28,0,0,0,117.12,470.25Z"/><path class="cls-12" d="M111.2,443.37a7.93,7.93,0,0,0-.08,1c.06-.59.13-1.16.21-1.72C111.29,442.89,111.24,443.12,111.2,443.37Z"/><path class="cls-13" d="M178,489.08c.11.12.51.57,1.21,1.26C178.84,489.9,178.44,489.48,178,489.08Z"/><path class="cls-13" d="M231.89,442.92c-6.92-8.75-6.93-8.74,3.75-12.05,19.14-5.93,28.42-22.88,23-42.08-4.53-16.09-24.53-26.83-39.18-22.33-5.85,1.8-10.84,5-16,7.76a3.9,3.9,0,0,1-6.39-1.51c-3.38-4.85-6.41-9.91-10.83-14.15-11.06-10.61-33.76-10-45,2.32-13.47,14.72-12.8,34,1.63,47.94,8,7.75,8,7.74-2.07,12.45-11.36,5.27-17.77,14.21-17.9,26.68-.13,13.49,6.69,23.27,18.93,28.63,9.83,4.31,19.09,1.2,27.87-3.94,2.75-1.62,4.66-4.39,7.72-5.54a5.26,5.26,0,0,1,.6.2l.62.09c2.22,2.41,2.68,5.74,4.41,8.42,5.53,8.54,12.41,15.48,23.12,16.05,13.35.72,23.84-4.95,29.78-17.06C241.37,463.6,239.66,452.74,231.89,442.92Z"/><path class="cls-12" d="M167.41,486.93c-.59.21-1.18.44-1.76.68C166.24,487.41,166.83,487.18,167.41,486.93Z"/><path class="cls-12" d="M142.6,488.71l.73.13-.71-.16Z"/><path class="cls-12" d="M178,489h0l0,0Z"/><path class="cls-12" d="M248.67,437.8c15.41-9,22.71-22.82,23.21-40.47-1.24-14.33-7.07-26.22-18.68-35-7.18-5.44-15.47-7.74-24.27-8.58a28.88,28.88,0,0,0-16.11,2.44c-3.22,1.51-6.2,2.27-8.91,1.77-2.64-.77-5-2.79-7.16-5.59a29,29,0,0,0-13.29-9.42c-8.24-3.21-16.67-4.88-25.53-3.25-14.33,2.65-24.88,10.64-32.43,22.89-7.49,16-7.18,31.59,2.53,46.58,1.8,2.77,1.57,4.29-1,6.34a42.29,42.29,0,0,0-12.76,16.83,47.7,47.7,0,0,0-3,10.32c-.08.56-.15,1.13-.21,1.72,0,1.51.26,3.08-.22,4.52a39.57,39.57,0,0,0,.7,7.28l.24,1a42.58,42.58,0,0,0,3.32,9.57c.58,1.17,1.23,2.35,2,3.53a41.26,41.26,0,0,0,3.25,4.51,50.11,50.11,0,0,0,9.15,8.53c4,2.93,8.51,4.3,13.1,5.39l.71.16c2.82.47,13.34,1.88,22.32-1.23.58-.24,1.17-.47,1.76-.68a12.65,12.65,0,0,1,6.06-.8,11.81,11.81,0,0,1,4.52,2.92h0l0,0c.42.4.82.82,1.21,1.26a50.9,50.9,0,0,0,21.61,12.16,33.58,33.58,0,0,0,13.17.85,47.75,47.75,0,0,0,14.83-4.88c9.08-5.6,14.38-12.29,17.47-18.33a12.13,12.13,0,0,1,1-2.09,40.47,40.47,0,0,0-.62-34.14C245.33,440.93,245.82,439.47,248.67,437.8Zm-52.53,52.88c-9.54-4.79-15.08-12.87-18.36-22.7-7.36,7.3-15.94,12-26.61,12-22.71,0-35.92-26.38-27.68-43.5,4.64-9.64,11.61-15.6,21.51-18.65,1.1-.34,2.75-.15,2.79-1.53a4,4,0,0,0-1.75-2.91c-9-5.85-13.55-14.3-15.58-24.67-2-10,1-18.74,7-26.06,12-14.71,27.83-16.93,43.8-9.66a30,30,0,0,1,16.36,18.49,15.59,15.59,0,0,0,.48,1.72c0,.15.08.3.12.46l.1.14c.35.85.82,1.63,1.41,1.77s1.33-.34,2-.94l.18-.08c.11-.14.22-.26.33-.38a17,17,0,0,0,1.25-1.38,30.07,30.07,0,0,1,22.87-9.09c17.52.7,30.66,9.79,34.77,28.33,2.05,9.23.77,18.36-5.47,26.42-6.48,8.35-14.34,13.86-25,15a4,4,0,0,0-2.87,1.81c-.58,1.25,1,1.83,1.81,2.63,7.47,7.17,11,15.62,10.82,26.32C240.09,483.26,216.44,500.87,196.14,490.68Z"/><path class="cls-11" d="M521.4,709c-.25-.24-.72-.42-.55-.8a1.3,1.3,0,0,1,.87-.55,10.82,10.82,0,0,0,7.59-4.55,9.3,9.3,0,0,0,1.66-8c-1.25-5.62-5.23-8.38-10.55-8.59a9.09,9.09,0,0,0-7.41,3.29,6.85,6.85,0,0,1-.67.31c-.16-.19-.32-.38-.46-.58a9.06,9.06,0,0,0-5.14-6.27c-4.84-2.2-9.63-1.53-13.28,2.93a9.29,9.29,0,0,0-2.12,7.9,10.83,10.83,0,0,0,4.73,7.48,1.22,1.22,0,0,1,.53.88c0,.42-.51.36-.85.47a10.2,10.2,0,0,0-6.52,5.65c-2.49,5.19,1.51,13.18,8.4,13.19a11.17,11.17,0,0,0,8.06-3.65,11.22,11.22,0,0,0,5.57,6.89c6.15,3.09,13.32-2.25,13.42-8A10.17,10.17,0,0,0,521.4,709Zm-7.9,12.41c-.75-.07-1.62.06-2-.89-.12-.39-.11-.86-.59-1a1.41,1.41,0,0,1-2.16-.28,8.29,8.29,0,0,1-1.56-2.39c-.19-.45-.38-1.07-1-1-.5-.34-.95.13-1.32.45a8.35,8.35,0,0,1-2.47,1.43,1.4,1.4,0,0,1-2.05-.72c-.51-.05-.72.37-1,.67-.75.69-1.47.18-2.17-.1-4.07-1.61-6.26-7.81-2.81-11.48a7,7,0,0,1,4.22-2.59c.39-.1.92-.09,1.05-.56s-.38-.82-.72-1.13a3.54,3.54,0,0,0-.44-.32,8.26,8.26,0,0,1-3.49-7.53c.29-4.95,5.67-8.46,9.35-7.17,3.16.22,5,2.23,6.54,4.72a1,1,0,0,0,.54,1,.85.85,0,0,0,.27.09.88.88,0,0,0,.29,0,1,1,0,0,0,1-.69c2.47-1.54,5-2.5,8-1.27,3.86.49,7.09,6,5.12,10.6a8.23,8.23,0,0,1-6.5,5.15c-.18,0-.36,0-.53.09-.45.13-1,.12-1.16.69s.39.71.69,1a7,7,0,0,1,2.61,4.2C522.6,717.25,517.87,721.8,513.5,721.41Z"/><path class="cls-12" d="M485.63,714.52a12.09,12.09,0,0,0,1.08,3.2,12.74,12.74,0,0,1-1-2.9C485.68,714.72,485.65,714.62,485.63,714.52Z"/><path class="cls-12" d="M485.48,710.94a12,12,0,0,0-.06,1.37A4.8,4.8,0,0,0,485.48,710.94Z"/><path class="cls-12" d="M486.44,707.29h0a10.9,10.9,0,0,0-.89,3.13A14.48,14.48,0,0,1,486.44,707.29Z"/><path class="cls-12" d="M487.3,718.8a8.29,8.29,0,0,0,1,1.36,12.24,12.24,0,0,1-1-1.37Z"/><path class="cls-13" d="M526.77,721.16a3,3,0,0,0-.3.63C526.58,721.58,526.68,721.36,526.77,721.16Z"/><path class="cls-13" d="M522.1,710.51c-2.1-2.66-2.1-2.65,1.13-3.66,5.81-1.79,8.62-6.93,7-12.76-1.38-4.87-7.44-8.13-11.88-6.76a26.29,26.29,0,0,0-4.86,2.35.89.89,0,0,1-1.1.3.87.87,0,0,1-.84-.76,27.47,27.47,0,0,0-3.29-4.29c-3.35-3.22-10.23-3-13.65.7-4.08,4.47-3.88,10.32.49,14.54,2.44,2.35,2.44,2.35-.63,3.77A8.58,8.58,0,0,0,489,712a8.88,8.88,0,0,0,5.74,8.68c3,1.31,5.79.37,8.45-1.19.83-.49,1.41-1.33,2.34-1.68l.18.06.19,0a17.2,17.2,0,0,1,1.34,2.55c1.67,2.59,3.76,4.69,7,4.86a8.87,8.87,0,0,0,9-5.17A8.57,8.57,0,0,0,522.1,710.51Z"/><path class="cls-12" d="M487.3,718.79a11.37,11.37,0,0,1-.59-1.07A12.22,12.22,0,0,0,487.3,718.79Z"/><path class="cls-12" d="M485.51,710.64a1.53,1.53,0,0,0,0,.3c0-.18,0-.35.07-.52A2.07,2.07,0,0,0,485.51,710.64Z"/><path class="cls-13" d="M505.77,724.5s.15.17.36.38Z"/><path class="cls-13" d="M522.1,710.51c-2.1-2.66-2.1-2.65,1.13-3.66,5.81-1.79,8.62-6.93,7-12.76-1.38-4.87-7.44-8.13-11.88-6.76a26.29,26.29,0,0,0-4.86,2.35.89.89,0,0,1-1.1.3.87.87,0,0,1-.84-.76,27.47,27.47,0,0,0-3.29-4.29c-3.35-3.22-10.23-3-13.65.7-4.08,4.47-3.88,10.32.49,14.54,2.44,2.35,2.44,2.35-.63,3.77A8.58,8.58,0,0,0,489,712a8.88,8.88,0,0,0,5.74,8.68c3,1.31,5.79.37,8.45-1.19.83-.49,1.41-1.33,2.34-1.68l.18.06.19,0a17.2,17.2,0,0,1,1.34,2.55c1.67,2.59,3.76,4.69,7,4.86a8.87,8.87,0,0,0,9-5.17A8.57,8.57,0,0,0,522.1,710.51Z"/><path class="cls-12" d="M502.55,723.85l-.54.21Z"/><path class="cls-12" d="M495,724.39l.22,0-.22,0Z"/><path class="cls-12" d="M505.76,724.49Z"/><path class="cls-12" d="M527.18,709c4.68-2.73,6.89-6.92,7-12.26a14.22,14.22,0,0,0-5.66-10.62,14.07,14.07,0,0,0-7.36-2.61,8.78,8.78,0,0,0-4.88.75,4.62,4.62,0,0,1-2.71.53,4.51,4.51,0,0,1-2.17-1.69,8.72,8.72,0,0,0-4-2.86,14,14,0,0,0-7.75-1,14.2,14.2,0,0,0-9.83,6.94c-2.27,4.84-2.17,9.57.77,14.12.54.84.48,1.3-.3,1.92a12.84,12.84,0,0,0-3.87,5.1,14.48,14.48,0,0,0-.89,3.13c0,.17-.05.34-.07.52a4.8,4.8,0,0,1-.06,1.37,11.68,11.68,0,0,0,.21,2.21c0,.1.05.2.07.3a12.74,12.74,0,0,0,1,2.9,11.37,11.37,0,0,0,.59,1.07,12.24,12.24,0,0,0,1,1.37,14.86,14.86,0,0,0,2.77,2.58,10.67,10.67,0,0,0,4,1.64l.22,0a15.14,15.14,0,0,0,6.76-.37l.54-.21a3.65,3.65,0,0,1,1.83-.24,3.55,3.55,0,0,1,1.38.88h0l.36.38a15.41,15.41,0,0,0,6.55,3.69,10.27,10.27,0,0,0,4,.26,14.36,14.36,0,0,0,4.5-1.48,14.07,14.07,0,0,0,5.3-5.56,3,3,0,0,1,.3-.63,14,14,0,0,0,.55-1.49,12.86,12.86,0,0,0-.74-8.86C526.17,709.9,526.32,709.46,527.18,709Zm-15.92,16a11.22,11.22,0,0,1-5.57-6.89,11.17,11.17,0,0,1-8.06,3.65c-6.89,0-10.89-8-8.4-13.19a10.2,10.2,0,0,1,6.52-5.65c.34-.11.84,0,.85-.47a1.22,1.22,0,0,0-.53-.88,10.83,10.83,0,0,1-4.73-7.48,9.29,9.29,0,0,1,2.12-7.9c3.65-4.46,8.44-5.13,13.28-2.93a9,9,0,0,1,5,5.61c0,.07.07.28.15.52l0,.14,0,0c.1.26.25.49.42.54s.41-.11.62-.29l0,0,.1-.12a3.38,3.38,0,0,0,.38-.42,9.12,9.12,0,0,1,6.93-2.75c5.32.21,9.3,3,10.55,8.59a9.3,9.3,0,0,1-1.66,8,10.82,10.82,0,0,1-7.59,4.55,1.3,1.3,0,0,0-.87.55c-.17.38.3.56.55.8a10.17,10.17,0,0,1,3.28,8C524.58,722.74,517.41,728.08,511.26,725Z"/><path class="cls-14" d="M172.49,205.6c8.46,1.17,16.8,1.45,25.23-.93,3.39-1,5.9-4.28,9.83-3.44L200.09,214c-5.57,2.66-10.91,5.8-17.4,6.09-4,.18-8.12,1.12-10.94-2.49C168.59,213.59,170.35,209.5,172.49,205.6Z"/><path class="cls-15" d="M216.74,165.64c-.35-1.55-.56-3.2-2-4.3-2.55-2.94,0-6.19-.53-9.31-.78-5.14-3.81-8.41-8.26-8.14a6.63,6.63,0,0,0-5.7,3.49c-1.13,2-2.27,4-3.52,6.18-2.36-3.9-5.45-7.05-7.41-11.05-1.74-3.55-4.61-4.72-8.51-3s-4.1,4.78-3.37,8.08c.59,2.7,2.51,5,2.72,8a7.52,7.52,0,0,1-7.58-3.07,65.87,65.87,0,0,0-7.82-8.11c-4.17-3.62-8.81-3.52-12.16-.14h0c-3.22,3.5-3.11,8.15.7,12.15a65.69,65.69,0,0,0,8.45,7.44,7.52,7.52,0,0,1,3.41,7.44c-3-.08-5.44-1.9-8.16-2.36-3.33-.57-6.43-.14-7.92,3.74s-.23,6.79,3.4,8.36c4.08,1.78,7.37,4.72,11.37,6.9l-6,3.8a6.59,6.59,0,0,0-3.22,5.85c-.08,4.46,3.33,7.33,8.5,7.88,3.14.34,6.27-2.31,9.33.1,1.16,1.34,2.82,1.48,4.38,1.76a40.74,40.74,0,0,0,30.68-6.13,3.17,3.17,0,0,1,1.56-1.95,4.25,4.25,0,0,1,.89-.12s0,0,0-.06h0a5.37,5.37,0,0,1,0-.7,3,3,0,0,1,1.93-1.84A40.65,40.65,0,0,0,216.74,165.64Z"/><path class="cls-14" d="M214.89,161.34c1.55,8.4,2.22,16.71.22,25.25-.8,3.43-4,6.09-3,10q6.23-4,12.43-8c2.41-5.69,5.29-11.16,5.29-17.66,0-4,.74-8.16-3-10.82C222.69,157.08,218.68,159,214.89,161.34Z"/><path class="cls-16" d="M287,275.56l12,2.87c-4.51-11.72-5.8-23.52-7.83-35.16-4-23-11.32-43.78-34.57-54.87q-2.48-1.18-4.92-2.16a31,31,0,0,0-4.17-1.49h0l-.07,0h0a33.53,33.53,0,0,0-13.64-1.58,31.83,31.83,0,0,0-23.13,12.4h0c-.26.32-.52.64-.75,1a2.4,2.4,0,0,0-.07,2.86c1.76,1.23,4,1.56,5.55,3.26,4.8,5.41,10.56,9.79,15.82,14.72,20.42,19.15,40.41,38.77,61.87,57C290.81,274,288.42,272.53,287,275.56Z"/><path class="cls-17" d="M290.48,270.26c-11.13-9.88-22.55-19.47-33.09-29.95-13.5-13.42-28.22-25.53-41.51-39.17a7.08,7.08,0,0,0-1.65-1.28l-4.29-3.34-1.15,2.09c-.89,0-1.49.79-2.07,1.66-.94,1.63-2.07,3.16-3.14,4.73l0,.05h0a21.4,21.4,0,0,0-2.85,5.41A33.63,33.63,0,0,0,198.51,228h0a34,34,0,0,0,6.58,15.42c9.49,13.11,22.52,20.86,37.87,24.85,14.43,3.74,29.21,5.59,44,7.28,2.17-1.61,4.74,0,7.1-.6A17.36,17.36,0,0,0,290.48,270.26Z"/><path class="cls-14" d="M645.18,633.6c-.74,5.41-.93,10.74.6,16.14.61,2.17,2.73,3.77,2.2,6.28l-8.18-4.77c-1.7-3.56-3.71-7-3.89-11.13-.12-2.55-.72-5.19,1.59-7C640.07,631.1,642.69,632.23,645.18,633.6Z"/><path class="cls-15" d="M670.75,661.91a4.38,4.38,0,0,0,2.74-1.25c1.89-1.64,4,0,6-.34,3.29-.5,5.39-2.44,5.21-5.29a4.22,4.22,0,0,0-2.23-3.64l-4-2.25c2.5-1.52,4.51-3.49,7.07-4.74,2.27-1.12,3-3,1.93-5.45s-3.06-2.62-5.17-2.16c-1.73.38-3.21,1.61-5.15,1.75a4.79,4.79,0,0,1,2-4.85,42.27,42.27,0,0,0,5.18-5c2.31-2.66,2.25-5.63.09-7.77h0c-2.23-2.06-5.2-2-7.76.45a41.34,41.34,0,0,0-4.76,5.4,4.81,4.81,0,0,1-4.76,2.18c0-1.93,1.21-3.48,1.51-5.22.36-2.13.09-4.11-2.4-5.06s-4.34-.15-5.35,2.17c-1.13,2.61-3,4.72-4.41,7.28L654,624.25a4.24,4.24,0,0,0-3.74-2.06c-2.86-.05-4.69,2.13-5,5.44-.22,2,1.48,4-.07,6a4.35,4.35,0,0,0-1.12,2.8A26,26,0,0,0,648,656a2.06,2.06,0,0,1,1.25,1,3.54,3.54,0,0,1,.07.58h0v0a2.26,2.26,0,0,1,.45,0,1.91,1.91,0,0,1,1.17,1.23A26.06,26.06,0,0,0,670.75,661.91Z"/><path class="cls-14" d="M673.49,660.72c-5.37,1-10.69,1.42-16.15.14-2.19-.51-3.89-2.56-6.38-1.91q2.58,4,5.14,7.95c3.64,1.54,7.14,3.39,11.3,3.39,2.56,0,5.22.47,6.92-1.91C676.22,665.71,675,663.15,673.49,660.72Z"/><path class="cls-16" d="M600.43,706.83c-.59,2.48-1.18,5-1.84,7.71,7.5-2.88,15-3.71,22.5-5,14.71-2.56,28-7.24,35.1-22.12.5-1,1-2.1,1.38-3.14a22.47,22.47,0,0,0,.95-2.67h0l0,0h0a21.48,21.48,0,0,0,1-8.72,20.38,20.38,0,0,0-7.93-14.8h0c-.21-.16-.41-.33-.63-.48a1.55,1.55,0,0,0-1.83,0c-.79,1.13-1,2.58-2.08,3.55-3.47,3.07-6.27,6.76-9.42,10.12-12.25,13.07-24.8,25.85-36.46,39.58C601.43,709.29,602.36,707.76,600.43,706.83Z"/><path class="cls-17" d="M603.82,709.08c6.32-7.12,12.46-14.43,19.16-21.17,8.58-8.64,16.33-18.06,25.06-26.55a5.22,5.22,0,0,0,.82-1.06l2.13-2.75-1.34-.73c0-.57-.5-1-1-1.32-1.05-.6-2-1.33-3-2l0,0h0a14,14,0,0,0-3.46-1.82,21.61,21.61,0,0,0-11.23-1.4h0a21.9,21.9,0,0,0-9.86,4.21c-8.38,6.07-13.34,14.41-15.89,24.23-2.4,9.22-3.58,18.68-4.66,28.14,1,1.39,0,3,.38,4.54A11.18,11.18,0,0,0,603.82,709.08Z"/><path class="cls-14" d="M712.36,139.4c-.74,5.42-.93,10.75.6,16.14.61,2.17,2.73,3.78,2.2,6.29L707,157.06c-1.7-3.56-3.71-7-3.9-11.13-.11-2.56-.71-5.19,1.6-7C707.25,136.91,709.87,138,712.36,139.4Z"/><path class="cls-15" d="M737.93,167.71a4.28,4.28,0,0,0,2.74-1.25c1.89-1.63,4,0,6-.33,3.29-.51,5.38-2.44,5.21-5.29a4.21,4.21,0,0,0-2.23-3.64l-4-2.26c2.5-1.51,4.51-3.48,7.07-4.74,2.27-1.11,3-2.95,1.93-5.44s-3.06-2.62-5.17-2.16c-1.73.38-3.22,1.61-5.15,1.75a4.82,4.82,0,0,1,2-4.86,41.57,41.57,0,0,0,5.19-5c2.31-2.67,2.25-5.64.09-7.78h0c-2.23-2.07-5.21-2-7.77.44a42.27,42.27,0,0,0-4.76,5.41,4.8,4.8,0,0,1-4.75,2.18c.05-1.94,1.21-3.48,1.5-5.22.37-2.13.1-4.11-2.39-5.07s-4.34-.14-5.35,2.18c-1.13,2.61-3,4.71-4.41,7.27l-2.43-3.84a4.19,4.19,0,0,0-3.74-2.06c-2.86,0-4.7,2.13-5.05,5.43-.21,2,1.48,4-.06,6a4.28,4.28,0,0,0-1.12,2.81,26,26,0,0,0,3.92,19.62,2.05,2.05,0,0,1,1.25,1,3.42,3.42,0,0,1,.07.57h0v0a3.15,3.15,0,0,1,.44,0,1.91,1.91,0,0,1,1.18,1.23A26,26,0,0,0,737.93,167.71Z"/><path class="cls-14" d="M740.67,166.53c-5.37,1-10.69,1.42-16.15.14-2.19-.51-3.89-2.56-6.38-1.91l5.14,8c3.64,1.54,7.14,3.38,11.3,3.38,2.56,0,5.22.48,6.92-1.91C743.4,171.52,742.15,169,740.67,166.53Z"/><path class="cls-16" d="M667.6,212.64c-.59,2.48-1.18,5-1.83,7.71,7.5-2.89,15-3.72,22.49-5,14.72-2.56,28-7.25,35.1-22.12.51-1.05,1-2.1,1.39-3.14a22.47,22.47,0,0,0,1-2.67h0l0,0h0a21.53,21.53,0,0,0,1-8.73,20.35,20.35,0,0,0-7.93-14.79h0c-.2-.17-.41-.33-.62-.48a1.53,1.53,0,0,0-1.83,0c-.79,1.12-1,2.58-2.09,3.55-3.46,3.07-6.26,6.75-9.41,10.11-12.25,13.07-24.8,25.86-36.46,39.59C668.61,215.09,669.54,213.57,667.6,212.64Z"/><path class="cls-17" d="M671,214.88c6.32-7.11,12.45-14.42,19.15-21.16,8.59-8.64,16.34-18.06,25.06-26.56a4.9,4.9,0,0,0,.83-1l2.13-2.75-1.34-.74c0-.56-.5-1-1.06-1.32-1-.6-2-1.32-3-2l0,0h0a13.64,13.64,0,0,0-3.46-1.82,21.61,21.61,0,0,0-11.23-1.4h0a21.73,21.73,0,0,0-9.86,4.2c-8.39,6.08-13.34,14.41-15.89,24.23-2.4,9.23-3.58,18.69-4.67,28.15,1,1.38,0,3,.39,4.54A11,11,0,0,0,671,214.88Z"/><path class="cls-14" d="M264.88,674.34c-12.74-2.41-25.35-3.48-38.33-.51-5.21,1.2-9.27,6-15.16,4.48l12.28-18.83c8.65-3.61,17-8,26.85-7.91,6.07,0,12.4-1.07,16.41,4.61C271.41,662.53,268.42,668.6,264.88,674.34Z"/><path class="cls-15" d="M194.73,731.57c.42,2.38.62,4.9,2.64,6.66,3.64,4.67-.4,9.4.09,14.17.8,7.85,5.13,13.05,11.91,13a10,10,0,0,0,8.9-4.85c1.87-2.95,3.75-5.88,5.81-9.11,3.29,6.1,7.73,11.1,10.4,17.32,2.36,5.52,6.64,7.51,12.67,5.22s6.58-6.94,5.74-12c-.69-4.14-3.43-7.81-3.53-12.41,5-.48,8.39,1.3,11.27,5.23a99.85,99.85,0,0,0,11.24,12.88c6.05,5.81,13.1,6,18.42,1.15h0c5.16-5.06,5.35-12.11-.13-18.47a100.7,100.7,0,0,0-12.24-11.93c-3.78-3.09-5.37-6.55-4.61-11.54,4.59.35,8.1,3.29,12.19,4.2,5,1.12,9.74.71,12.3-5.07s.87-10.27-4.52-12.94c-6.06-3-10.81-7.71-16.72-11.33,3.33-1.88,6.36-3.6,9.41-5.3a10,10,0,0,0,5.33-8.62c.45-6.76-4.5-11.38-12.29-12.61-4.74-.74-9.69,3-14.15-.86-1.65-2.12-4.15-2.45-6.5-3-16.57-3.83-32.27-1.73-47,7a4.83,4.83,0,0,1-2.52,2.83,6,6,0,0,1-1.36.11s0,.06,0,.09h-.07a8.88,8.88,0,0,1-.11,1c-.44,1.38-1.66,2.1-3.06,2.65C194.77,699.26,191.81,714.82,194.73,731.57Z"/><path class="cls-14" d="M197.21,738.23c-1.71-12.86-2.09-25.51,1.59-38.31,1.48-5.14,6.53-8.93,5.3-14.89l-19.47,11.23c-4.08,8.44-8.87,16.53-9.36,26.38-.31,6.07-1.75,12.32,3.7,16.64C185.06,744.09,191.28,741.44,197.21,738.23Z"/><path class="cls-16" d="M96.61,559.53l-18-5.27c5.94,18.12,7,36.11,9.19,53.92C92.07,643.37,101.59,675.42,136,694q3.65,2,7.29,3.65a49.31,49.31,0,0,0,6.21,2.58h0l.1,0h0a50.77,50.77,0,0,0,20.56,3.44,48.34,48.34,0,0,0,36-17h0c.42-.46.84-.93,1.22-1.42a3.67,3.67,0,0,0,.32-4.33c-2.59-2-6-2.67-8.17-5.37-6.87-8.58-15.28-15.65-22.87-23.52-29.51-30.6-58.33-61.88-89.49-91.14C90.67,561.62,94.17,564,96.61,559.53Z"/><path class="cls-17" d="M90.88,567.31c16.12,15.82,32.71,31.24,47.9,47.93,19.46,21.38,40.85,40.87,60,62.56a11.22,11.22,0,0,0,2.41,2.08l6.26,5.38,1.9-3.09c1.34.09,2.31-1.07,3.25-2.34,1.55-2.41,3.39-4.65,5.13-6.94l.06-.08h0a33,33,0,0,0,4.73-8,51.18,51.18,0,0,0,4.65-26.45h0c-.7-8.21-3.77-16.14-8.8-23.88-13.4-20.6-32.57-33.34-55.55-40.56-21.58-6.78-43.86-10.72-66.16-14.4-3.41,2.28-7.19-.31-10.81.37A26.63,26.63,0,0,0,90.88,567.31Z"/><path class="cls-14" d="M396.73,517.09a26.33,26.33,0,0,0-1.5,10.87c.15,1.53,1.38,2.86.73,4.47l-4.91-4.16c-.72-2.58-1.66-5.11-1.3-7.91.23-1.73.14-3.56,1.9-4.5C393.61,514.81,395.23,515.88,396.73,517.09Z"/><path class="cls-15" d="M410.51,539.06a3,3,0,0,0,2-.51c1.45-.87,2.65.45,4,.48,2.26.05,3.89-1,4.11-2.93a2.86,2.86,0,0,0-1.07-2.7l-2.38-2c1.85-.71,3.43-1.8,5.29-2.34a2.53,2.53,0,0,0,1.94-3.41c-.43-1.76-1.74-2.12-3.21-2.06-1.2,0-2.34.7-3.65.56a3.28,3.28,0,0,1,1.89-3,29.11,29.11,0,0,0,4.06-2.73c1.86-1.52,2.17-3.51,1-5.2h0c-1.25-1.65-3.25-2-5.25-.62a28.17,28.17,0,0,0-3.83,3,3.23,3.23,0,0,1-3.44.9c.26-1.29,1.22-2.18,1.62-3.31.5-1.39.55-2.75-1-3.68a2.55,2.55,0,0,0-3.84.82c-1.07,1.62-2.58,2.8-3.81,4.36l-1.18-2.87a2.85,2.85,0,0,0-2.26-1.82c-1.9-.37-3.39.88-4,3.05-.38,1.32.52,2.86-.75,4a2.92,2.92,0,0,0-1.08,1.74,17.67,17.67,0,0,0,.31,13.6,1.47,1.47,0,0,1,.72.82,2.55,2.55,0,0,1,0,.39h0v0a1.63,1.63,0,0,1,.3.07,1.31,1.31,0,0,1,.64,1A17.67,17.67,0,0,0,410.51,539.06Z"/><path class="cls-14" d="M412.49,538.59a26.3,26.3,0,0,1-10.83-1.81c-1.41-.6-2.31-2.17-4.05-2q1.26,3,2.5,5.94c2.26,1.46,4.38,3.11,7.17,3.6,1.71.3,3.44.93,4.86-.46C413.72,542.26,413.19,540.39,412.49,538.59Z"/><path class="cls-16" d="M358.11,560.84c-.68,1.59-1.37,3.18-2.13,4.94,5.36-1,10.51-.71,15.65-.69,10.16,0,19.61-1.55,26.12-10.67.46-.64.89-1.29,1.29-1.94a13.75,13.75,0,0,0,1-1.67h0v0h0a14.43,14.43,0,0,0,1.71-5.72,13.84,13.84,0,0,0-3.56-10.84h0c-.12-.14-.24-.27-.37-.4a1,1,0,0,0-1.21-.24c-.67.66-1,1.61-1.82,2.13-2.68,1.65-5,3.78-7.5,5.66-9.75,7.31-19.66,14.39-29.09,22.2C358.5,562.6,359.3,561.69,358.11,560.84Z"/><path class="cls-17" d="M360.12,562.74c5.07-4,10.05-8.18,15.33-11.91,6.77-4.77,13.07-10.16,19.92-14.82a3,3,0,0,0,.67-.61l1.75-1.59-.81-.65c.08-.38-.22-.69-.55-1-.62-.52-1.2-1.12-1.79-1.7l0,0h0a9.47,9.47,0,0,0-2.1-1.63,14.62,14.62,0,0,0-7.35-2.26h0a14.87,14.87,0,0,0-7.11,1.66c-6.33,3.07-10.63,8.07-13.5,14.34a140.34,140.34,0,0,0-6.45,18.3c.53,1-.34,2-.27,3.08A7.25,7.25,0,0,0,360.12,562.74Z"/></g><g id="Laag_18" data-name="Laag 18"><path class="cls-18" d="M803.61,831.55c2.21-1.56,2.06-2.59,1.07-4.65-4.08-8.4,1-15.91,10.31-15.34,1.68.11,3.14.79,3-2-.25-5,1.12-9.5,6.3-11.55,5.44-2.17,10.19-.87,14.29,4.2,1.84-5.23,4.33-9.31,10.27-8.81q.79.07,1.53.21V27.44a14,14,0,0,0-2,5.2c-.77,5.31-1.77,10.57-2.55,15.87-1.26,8.53-4.18,10.35-11.93,7a6.3,6.3,0,0,1-1.32-.61c-4.85-.28-6-2.76-4.62-7.19,2-6.17,3.78-12.39,5.57-18.62,1.73-6-2-15.94-7.44-19.95-8.18,5.73-15.84,2.75-17.53-7A2.85,2.85,0,0,0,807.37,0H44.83c.06,2.92,3.34,5.69,2.49,9.44-1.27,5.64-5.32,8.9-11.21,8.43a3.62,3.62,0,0,0-3.89,1.77c-5.46,7.58-13.89,6.7-18.56-1.77h0C8.51,18.45,3,22.63,0,27.44V793.56a10,10,0,0,1,8.32,7.75c1.57.69,2.4-.64,3.38-1.34a10.25,10.25,0,0,1,11.54-.63c3.9,2.09,5.18,5.66,4.43,10a7.87,7.87,0,0,0,.26,1.8c3-1.37,6-2,9.07-.9,6,2.13,9.33,7.64,6.89,13.53-1.84,4.45-1.14,6.66,3.25,8.09.71.23,1.24,1,1.85,1.51h0a6.83,6.83,0,0,1,2.5,6.44,17.85,17.85,0,0,0-.6,2.85c-.21,4.22-6.1,4.78-6.06,7.72v0H807.37a9,9,0,0,0-1.49-.71C797.62,846.23,796.34,836.69,803.61,831.55Z"/><path class="cls-2" d="M3.77,824.74h0c1.37-7.84,4.41-15.35,4.55-23.43h0A10,10,0,0,0,0,793.56V841Q1.89,832.88,3.77,824.74Z"/><path class="cls-18" d="M3.77,824.74h0c1.37-7.84,4.41-15.35,4.55-23.43h0A10,10,0,0,0,0,793.56V841Q1.89,832.88,3.77,824.74Z"/><path class="cls-3" d="M50.89,842.65a17.85,17.85,0,0,1,.6-2.85c-2.5-.3-2.09,1.92-2.79,3.19-.49.9-1.23,1.74-2.27,1.2s-.46-1.7-.38-2.62c.6-3.89-3.18-5.41-4.8-8,2.82-2.74,5.24,2.64,7.74-.26h0c-.61-.52-1.14-1.28-1.85-1.51-4.39-1.43-5.09-3.64-3.25-8.09,2.44-5.89-.89-11.4-6.89-13.53-3.12-1.11-6.05-.47-9.07.9a7.87,7.87,0,0,1-.26-1.8c.75-4.33-.53-7.9-4.43-10A10.25,10.25,0,0,0,11.7,800c-1,.7-1.81,2-3.38,1.34h0c1.66,2.18,1.33,4.59.78,7C7.84,813.88,6.63,819.44,5.24,825,3.49,832.56,1.77,840.16,0,847.75v2.64H44.83v0C44.79,847.43,50.68,846.87,50.89,842.65ZM40.14,823.88c-.41,1.3-.47,3.54-2.64,3.12s-1.54-2.51-1.11-4c.93-3.27-.14-5.67-2.91-7.45-.8-.51-1.89-1-1.17-2.17.6-1,1.7-.73,2.65-.47C38.62,813.92,41.25,819.36,40.14,823.88Z"/><path class="cls-18" d="M50.89,842.65a17.85,17.85,0,0,1,.6-2.85c-2.5-.3-2.09,1.92-2.79,3.19-.49.9-1.23,1.74-2.27,1.2s-.46-1.7-.38-2.62c.6-3.89-3.18-5.41-4.8-8,2.82-2.74,5.24,2.64,7.74-.26h0c-.61-.52-1.14-1.28-1.85-1.51-4.39-1.43-5.09-3.64-3.25-8.09,2.44-5.89-.89-11.4-6.89-13.53-3.12-1.11-6.05-.47-9.07.9a7.87,7.87,0,0,1-.26-1.8c.75-4.33-.53-7.9-4.43-10A10.25,10.25,0,0,0,11.7,800c-1,.7-1.81,2-3.38,1.34h0c1.66,2.18,1.33,4.59.78,7C7.84,813.88,6.63,819.44,5.24,825,3.49,832.56,1.77,840.16,0,847.75v2.64H44.83v0C44.79,847.43,50.68,846.87,50.89,842.65ZM40.14,823.88c-.41,1.3-.47,3.54-2.64,3.12s-1.54-2.51-1.11-4c.93-3.27-.14-5.67-2.91-7.45-.8-.51-1.89-1-1.17-2.17.6-1,1.7-.73,2.65-.47C38.62,813.92,41.25,819.36,40.14,823.88Z"/><path class="cls-3" d="M3.77,824.74h0Q1.88,832.89,0,841v6.71c1.77-7.59,3.49-15.19,5.24-22.78,1.39-5.53,2.6-11.09,3.86-16.65.55-2.42.88-4.83-.78-7h0C8.18,809.39,5.14,816.9,3.77,824.74Z"/><path class="cls-18" d="M3.77,824.74h0Q1.88,832.89,0,841v6.71c1.77-7.59,3.49-15.19,5.24-22.78,1.39-5.53,2.6-11.09,3.86-16.65.55-2.42.88-4.83-.78-7h0C8.18,809.39,5.14,816.9,3.77,824.74Z"/><path class="cls-6" d="M44.38,834.74c.32,2.18,3.93,3.72,1.94,6.48.52.52,1.06.92,1.87-.32s1.55-2.71,3.3-1.1a6.83,6.83,0,0,0-2.5-6.44C48.52,837.31,46.09,834.44,44.38,834.74Z"/><path class="cls-18" d="M44.38,834.74c.32,2.18,3.93,3.72,1.94,6.48.52.52,1.06.92,1.87-.32s1.55-2.71,3.3-1.1a6.83,6.83,0,0,0-2.5-6.44C48.52,837.31,46.09,834.44,44.38,834.74Z"/><path class="cls-6" d="M41.25,833.62c1.62,2.54,5.4,4.06,4.8,8-.08.92-.69,2.07.38,2.62s1.78-.3,2.27-1.2c.7-1.27.29-3.49,2.79-3.19-1.75-1.61-2.54-.07-3.3,1.1s-1.35.84-1.87.32c2-2.76-1.62-4.3-1.94-6.48,1.71-.3,4.14,2.57,4.61-1.38h0C46.49,836.26,44.07,830.88,41.25,833.62Z"/><path class="cls-18" d="M41.25,833.62c1.62,2.54,5.4,4.06,4.8,8-.08.92-.69,2.07.38,2.62s1.78-.3,2.27-1.2c.7-1.27.29-3.49,2.79-3.19-1.75-1.61-2.54-.07-3.3,1.1s-1.35.84-1.87.32c2-2.76-1.62-4.3-1.94-6.48,1.71-.3,4.14,2.57,4.61-1.38h0C46.49,836.26,44.07,830.88,41.25,833.62Z"/><path class="cls-8" d="M35,812.89c-1-.26-2.05-.51-2.65.47-.72,1.17.37,1.66,1.17,2.17,2.77,1.78,3.84,4.18,2.91,7.45-.43,1.51-1.08,3.6,1.11,4s2.23-1.82,2.64-3.12C41.25,819.36,38.62,813.92,35,812.89Z"/><path class="cls-18" d="M35,812.89c-1-.26-2.05-.51-2.65.47-.72,1.17.37,1.66,1.17,2.17,2.77,1.78,3.84,4.18,2.91,7.45-.43,1.51-1.08,3.6,1.11,4s2.23-1.82,2.64-3.12C41.25,819.36,38.62,813.92,35,812.89Z"/><path class="cls-3" d="M0,11.93A1.15,1.15,0,0,0,.17,12c3.62.41,7.18,3.09,10.9.08.78-.63,1.31.41,1.5,1.22.36,1.53.72,3.05,1.09,4.58,4.67,8.47,13.1,9.35,18.56,1.77a3.62,3.62,0,0,1,3.89-1.77c5.89.47,9.94-2.79,11.21-8.43.85-3.75-2.43-6.52-2.49-9.44H0Z"/><path class="cls-18" d="M0,11.93A1.15,1.15,0,0,0,.17,12c3.62.41,7.18,3.09,10.9.08.78-.63,1.31.41,1.5,1.22.36,1.53.72,3.05,1.09,4.58,4.67,8.47,13.1,9.35,18.56,1.77a3.62,3.62,0,0,1,3.89-1.77c5.89.47,9.94-2.79,11.21-8.43.85-3.75-2.43-6.52-2.49-9.44H0Z"/><path class="cls-5" d="M13.66,17.87h0c-1.64-2.69-3.42-4.44-7.16-3.33a4.75,4.75,0,0,1-3.15-.41,2.67,2.67,0,0,1,.33.34A21,21,0,0,0,0,17.27V27.44C3,22.63,8.51,18.45,13.66,17.87Z"/><path class="cls-18" d="M13.66,17.87h0c-1.64-2.69-3.42-4.44-7.16-3.33a4.75,4.75,0,0,1-3.15-.41,2.67,2.67,0,0,1,.33.34A21,21,0,0,0,0,17.27V27.44C3,22.63,8.51,18.45,13.66,17.87Z"/><path class="cls-5" d="M11.07,12.07c-3.72,3-7.28.33-10.9-.08.53,1.27,2,1.07,3.17,2.14a4.75,4.75,0,0,0,3.15.41c3.74-1.11,5.52.64,7.16,3.33h0c-.37-1.53-.73-3.05-1.09-4.58C12.38,12.48,11.85,11.44,11.07,12.07Z"/><path class="cls-18" d="M11.07,12.07c-3.72,3-7.28.33-10.9-.08.53,1.27,2,1.07,3.17,2.14a4.75,4.75,0,0,0,3.15.41c3.74-1.11,5.52.64,7.16,3.33h0c-.37-1.53-.73-3.05-1.09-4.58C12.38,12.48,11.85,11.44,11.07,12.07Z"/><path class="cls-7" d="M0,15.48A3,3,0,0,0,.44,12.9L0,12.76Z"/><path class="cls-18" d="M0,15.48A3,3,0,0,0,.44,12.9L0,12.76Z"/><path class="cls-7" d="M.44,12.9A6.13,6.13,0,0,0,.17,12,1.15,1.15,0,0,1,0,11.93v.83Z"/><path class="cls-18" d="M.44,12.9A6.13,6.13,0,0,0,.17,12,1.15,1.15,0,0,1,0,11.93v.83Z"/><path class="cls-7" d="M0,15.48v1.79a21,21,0,0,1,3.67-2.8,2.67,2.67,0,0,0-.33-.34c-.95-.39-1.92-.9-2.9-1.23A3,3,0,0,1,0,15.48Z"/><path class="cls-18" d="M0,15.48v1.79a21,21,0,0,1,3.67-2.8,2.67,2.67,0,0,0-.33-.34c-.95-.39-1.92-.9-2.9-1.23A3,3,0,0,1,0,15.48Z"/><path class="cls-7" d="M.17,12a6.13,6.13,0,0,1,.27.91c1,.33,2,.84,2.9,1.23C2.18,13.06.7,13.26.17,12Z"/><path class="cls-18" d="M.17,12a6.13,6.13,0,0,1,.27.91c1,.33,2,.84,2.9,1.23C2.18,13.06.7,13.26.17,12Z"/><path class="cls-2" d="M808.56,2.08c1.69,9.76,9.35,12.74,17.53,7,.93-1.12,1.84-2.25,2.78-3.36.61-.72,1.53-1.9,2.22-.64,2.19,4,6.47,3.25,9.8,4.63l-.12.08.12-.08a5.33,5.33,0,0,0,4.59-2.29h0c1.75-1.7,2-4,2.46-6.19.1-.41.2-.83.29-1.24H807.37A2.85,2.85,0,0,1,808.56,2.08Z"/><path class="cls-18" d="M808.56,2.08c1.69,9.76,9.35,12.74,17.53,7,.93-1.12,1.84-2.25,2.78-3.36.61-.72,1.53-1.9,2.22-.64,2.19,4,6.47,3.25,9.8,4.63l-.12.08.12-.08a5.33,5.33,0,0,0,4.59-2.29h0c1.75-1.7,2-4,2.46-6.19.1-.41.2-.83.29-1.24H807.37A2.85,2.85,0,0,1,808.56,2.08Z"/><path class="cls-3" d="M847.15,7.39c-.14.18-.28.35-.43.52,1.48,1.06,1.81,3.39,3.67,4V0h-.61l0,.12C849.16,2.64,848.69,5.21,847.15,7.39Z"/><path class="cls-18" d="M847.15,7.39c-.14.18-.28.35-.43.52,1.48,1.06,1.81,3.39,3.67,4V0h-.61l0,.12C849.16,2.64,848.69,5.21,847.15,7.39Z"/><path class="cls-3" d="M847.15,7.39c1.54-2.18,2-4.75,2.6-7.27l0-.12h-1.55c-.09.41-.19.83-.29,1.24-.5,2.18-.71,4.49-2.46,6.19h0a2.76,2.76,0,0,1,1.24.48C846.87,7.74,847,7.57,847.15,7.39Z"/><path class="cls-18" d="M847.15,7.39c1.54-2.18,2-4.75,2.6-7.27l0-.12h-1.55c-.09.41-.19.83-.29,1.24-.5,2.18-.71,4.49-2.46,6.19h0a2.76,2.76,0,0,1,1.24.48C846.87,7.74,847,7.57,847.15,7.39Z"/><path class="cls-4" d="M833.9,55.46c-.43-.19-.87-.39-1.32-.61A6.3,6.3,0,0,0,833.9,55.46Z"/><path class="cls-18" d="M833.9,55.46c-.43-.19-.87-.39-1.32-.61A6.3,6.3,0,0,0,833.9,55.46Z"/><path class="cls-4" d="M836.07,52.68c2.09-9.32,4.23-18.64,6.48-27.93.41-1.68-.41-2.76-1.08-4h0l-5.32-10.52a2.79,2.79,0,0,1,1-.28,12.81,12.81,0,0,1-5.11-2.16c-2.66-2-3.95,1-6,1.32,5.42,4,9.17,13.92,7.44,20-1.79,6.23-3.59,12.45-5.57,18.62-1.42,4.43-.23,6.91,4.62,7.19C834.45,55.28,835.6,54.78,836.07,52.68Z"/><path class="cls-18" d="M836.07,52.68c2.09-9.32,4.23-18.64,6.48-27.93.41-1.68-.41-2.76-1.08-4h0l-5.32-10.52a2.79,2.79,0,0,1,1-.28,12.81,12.81,0,0,1-5.11-2.16c-2.66-2-3.95,1-6,1.32,5.42,4,9.17,13.92,7.44,20-1.79,6.23-3.59,12.45-5.57,18.62-1.42,4.43-.23,6.91,4.62,7.19C834.45,55.28,835.6,54.78,836.07,52.68Z"/><path class="cls-4" d="M832.05,7.77a12.81,12.81,0,0,0,5.11,2.16c1.29-.1,2.52.61,3.61-.13l.12-.08c-3.33-1.38-7.61-.6-9.8-4.63-.69-1.26-1.61-.08-2.22.64C827.93,6.84,827,8,826.09,9.09,828.1,8.81,829.39,5.78,832.05,7.77Z"/><path class="cls-18" d="M832.05,7.77a12.81,12.81,0,0,0,5.11,2.16c1.29-.1,2.52.61,3.61-.13l.12-.08c-3.33-1.38-7.61-.6-9.8-4.63-.69-1.26-1.61-.08-2.22.64C827.93,6.84,827,8,826.09,9.09,828.1,8.81,829.39,5.78,832.05,7.77Z"/><path class="cls-5" d="M842.87,20.88c.15.3.31.59.47.88a8,8,0,0,1,.22,4.79c-1.77,8.37-3.64,16.74-5.82,25-.55,2.09-1.17,4.72-3.84,3.89,7.75,3.4,10.67,1.58,11.93-7,.78-5.3,1.78-10.56,2.55-15.87a14,14,0,0,1,2-5.2V17.27C848.24,19.16,846.09,21,842.87,20.88Z"/><path class="cls-18" d="M842.87,20.88c.15.3.31.59.47.88a8,8,0,0,1,.22,4.79c-1.77,8.37-3.64,16.74-5.82,25-.55,2.09-1.17,4.72-3.84,3.89,7.75,3.4,10.67,1.58,11.93-7,.78-5.3,1.78-10.56,2.55-15.87a14,14,0,0,1,2-5.2V17.27C848.24,19.16,846.09,21,842.87,20.88Z"/><path class="cls-5" d="M837.74,51.57c2.18-8.28,4-16.65,5.82-25a8,8,0,0,0-.22-4.79c-.16-.29-.32-.58-.47-.88a7.75,7.75,0,0,1-1.39-.15h0c.67,1.26,1.49,2.34,1.08,4-2.25,9.29-4.39,18.61-6.48,27.93-.47,2.1-1.62,2.6-3.49,2.17.45.22.89.42,1.32.61C836.57,56.29,837.19,53.66,837.74,51.57Z"/><path class="cls-18" d="M837.74,51.57c2.18-8.28,4-16.65,5.82-25a8,8,0,0,0-.22-4.79c-.16-.29-.32-.58-.47-.88a7.75,7.75,0,0,1-1.39-.15h0c.67,1.26,1.49,2.34,1.08,4-2.25,9.29-4.39,18.61-6.48,27.93-.47,2.1-1.62,2.6-3.49,2.17.45.22.89.42,1.32.61C836.57,56.29,837.19,53.66,837.74,51.57Z"/><path class="cls-7" d="M839.5,14.54a38.05,38.05,0,0,1,3,5.68,34.23,34.23,0,0,0,6.58-3.46,5.86,5.86,0,0,0,1.27-1.28V12.76l-.29-.07a8.23,8.23,0,0,1-4.07-4,6.77,6.77,0,0,1-4.5,2l-1.6-.21C838.67,11.39,838,12.48,839.5,14.54Z"/><path class="cls-18" d="M839.5,14.54a38.05,38.05,0,0,1,3,5.68,34.23,34.23,0,0,0,6.58-3.46,5.86,5.86,0,0,0,1.27-1.28V12.76l-.29-.07a8.23,8.23,0,0,1-4.07-4,6.77,6.77,0,0,1-4.5,2l-1.6-.21C838.67,11.39,838,12.48,839.5,14.54Z"/><path class="cls-7" d="M841.53,10.61a6.77,6.77,0,0,0,4.5-2c-.2-.39-.38-.79-.55-1.21h0a5.33,5.33,0,0,1-4.59,2.29l-.12.08q-.45.3-.84.6Z"/><path class="cls-18" d="M841.53,10.61a6.77,6.77,0,0,0,4.5-2c-.2-.39-.38-.79-.55-1.21h0a5.33,5.33,0,0,1-4.59,2.29l-.12.08q-.45.3-.84.6Z"/><path class="cls-7" d="M846.72,7.91a9.58,9.58,0,0,1-.69.73,8.23,8.23,0,0,0,4.07,4l.29.07v-.83C848.53,11.3,848.2,9,846.72,7.91Z"/><path class="cls-18" d="M846.72,7.91a9.58,9.58,0,0,1-.69.73,8.23,8.23,0,0,0,4.07,4l.29.07v-.83C848.53,11.3,848.2,9,846.72,7.91Z"/><path class="cls-7" d="M846.72,7.91a2.76,2.76,0,0,0-1.24-.48c.17.42.35.82.55,1.21A9.58,9.58,0,0,0,846.72,7.91Z"/><path class="cls-18" d="M846.72,7.91a2.76,2.76,0,0,0-1.24-.48c.17.42.35.82.55,1.21A9.58,9.58,0,0,0,846.72,7.91Z"/><path class="cls-7" d="M839.5,14.54c-1.48-2.06-.83-3.15.43-4.14-.93-.12-1.86-.27-2.77-.47a2.79,2.79,0,0,0-1,.28l5.32,10.52h0c.35-.18.71-.35,1.06-.51A38.05,38.05,0,0,0,839.5,14.54Z"/><path class="cls-18" d="M839.5,14.54c-1.48-2.06-.83-3.15.43-4.14-.93-.12-1.86-.27-2.77-.47a2.79,2.79,0,0,0-1,.28l5.32,10.52h0c.35-.18.71-.35,1.06-.51A38.05,38.05,0,0,0,839.5,14.54Z"/><path class="cls-7" d="M837.16,9.93c.91.2,1.84.35,2.77.47q.39-.3.84-.6C839.68,10.54,838.45,9.83,837.16,9.93Z"/><path class="cls-18" d="M837.16,9.93c.91.2,1.84.35,2.77.47q.39-.3.84-.6C839.68,10.54,838.45,9.83,837.16,9.93Z"/><path class="cls-7" d="M849.12,16.76a34.23,34.23,0,0,1-6.58,3.46l.33.66c3.22.12,5.37-1.72,7.52-3.61V15.48A5.86,5.86,0,0,1,849.12,16.76Z"/><path class="cls-18" d="M849.12,16.76a34.23,34.23,0,0,1-6.58,3.46l.33.66c3.22.12,5.37-1.72,7.52-3.61V15.48A5.86,5.86,0,0,1,849.12,16.76Z"/><path class="cls-7" d="M841.48,20.73a7.75,7.75,0,0,0,1.39.15l-.33-.66C842.19,20.38,841.83,20.55,841.48,20.73Z"/><path class="cls-18" d="M841.48,20.73a7.75,7.75,0,0,0,1.39.15l-.33-.66C842.19,20.38,841.83,20.55,841.48,20.73Z"/><path class="cls-2" d="M850.39,841V793.56q-.74-.13-1.53-.21c-5.94-.5-8.43,3.58-10.27,8.81-4.1-5.07-8.85-6.37-14.29-4.2-5.18,2-6.55,6.53-6.3,11.55.13,2.84-1.33,2.16-3,2-9.32-.57-14.39,6.94-10.31,15.34,1,2.06,1.14,3.09-1.07,4.65-7.27,5.14-6,14.68,2.27,18.13a9,9,0,0,1,1.49.71h40.86Z"/><path class="cls-18" d="M850.39,841V793.56q-.74-.13-1.53-.21c-5.94-.5-8.43,3.58-10.27,8.81-4.1-5.07-8.85-6.37-14.29-4.2-5.18,2-6.55,6.53-6.3,11.55.13,2.84-1.33,2.16-3,2-9.32-.57-14.39,6.94-10.31,15.34,1,2.06,1.14,3.09-1.07,4.65-7.27,5.14-6,14.68,2.27,18.13a9,9,0,0,1,1.49.71h40.86Z"/><path class="cls-3" d="M850.39,850.39v-2.64c-.2.88-.4,1.76-.61,2.64Z"/><path class="cls-18" d="M850.39,850.39v-2.64c-.2.88-.4,1.76-.61,2.64Z"/><path class="cls-3" d="M848.23,850.39h1.55c.21-.88.41-1.76.61-2.64V841Z"/><path class="cls-18" d="M848.23,850.39h1.55c.21-.88.41-1.76.61-2.64V841Z"/></g></svg>