<svg class="blob" xmlns="http://www.w3.org/2000/svg" viewBox="0 0 789.41 447.9"><path class="cls-1" d="M815.22,176.91l.09-.56a28.34,28.34,0,0,0,.33-5h-.14c-.21-5.57-2.22-9.2-6.17-20.18-2.55-7.08-.86-16.83,1.41-24.69a34.64,34.64,0,0,0,4.57-12.89,28.34,28.34,0,0,0,.33-5h-.14c0-.41,0-.81-.08-1.21s0-.79,0-.92c-.61-7.08-2.35-12.18-5.3-15.9-.25-.68-.51-1.39-.78-2.15-3.41-9.46.76-23.7,3.76-31.8,2.49-7.7,2.35-12.34,2.32-13-1.83-21.31-13.92-24.68-38.17-26.52-26.6-2-30,3-50.79,6s-19.12-6-44.12-6-33.34,5-45.8,6a32.31,32.31,0,0,1-8.72-.53c-6.24-3.36-15-4.59-26.62-5.47-26.59-2-30,3-50.78,6s-19.13-6-44.12-6-33.35,5-45.8,6c-5.21.41-9.56-.57-14.26-1.86a49.78,49.78,0,0,0-10.51-2.69,69.14,69.14,0,0,0-13.08-1.44h-.18c-26.6-2-30,3-50.79,6s-19.12-6-44.12-6-33.34,5-45.8,6a32.31,32.31,0,0,1-8.72-.53c-6.24-3.36-15-4.59-26.62-5.47-26.59-2-30,3-50.78,6s-19.13-6-44.12-6-33.35,5-45.8,6-20-6-39.14-6c-39.14,0-37.68,33.2-37.68,33.2-.28,14.31,4.45,14.13-.56,32.73-4,14.9-1.24,22.3,0,24.66s.43.81.56,3.65h0a2.09,2.09,0,0,1,0,.25c0,1,0,1.5,0,1.5-.28,14.31,4.45,14.13-.56,32.73-4,14.9-1.24,22.3,0,24.66s.43.81.56,3.65h0c0,.93.08,1.82.13,2.69a24.67,24.67,0,0,0-.13,3.21c-.28,14.31,4.45,14.13-.56,32.73-4,14.9-1.24,22.3,0,24.66s.43.81.56,3.65h0a2.09,2.09,0,0,1,0,.25c0,.95,0,1.5,0,1.5-.28,14.31,4.45,14.13-.56,32.73-4,14.9-1.24,22.3,0,24.66s.43.81.56,3.65h0c0,.93.08,1.82.13,2.69a24.81,24.81,0,0,0-.13,3.22c-.28,14.3,4.45,14.13-.56,32.72-4,14.9-1.24,22.3,0,24.66s.43.81.56,3.65h0a2.09,2.09,0,0,1,0,.25c0,.95,0,1.5,0,1.5-.28,14.31,4.45,14.13-.56,32.73-4,14.9-1.24,22.3,0,24.66s.43.81.56,3.65h0c.69,24.8,12.74,28.46,38.42,30.41,26.59,2,30-3,50.78-6s19.13,6,44.12,6,33.35-5,45.81-6a32.26,32.26,0,0,1,8.71.53c6.24,3.36,15,4.59,26.62,5.47,26.6,2,30-3,50.78-6s19.13,6,44.13,6,33.34-5,45.8-6c5.21-.41,9.57.58,14.27,1.86A50.7,50.7,0,0,0,409,462.6,70.45,70.45,0,0,0,421.9,464h.19c26.59,2,30-3,50.78-6S492,464,517,464s33.35-5,45.81-6a32.26,32.26,0,0,1,8.71.53c6.24,3.36,15,4.59,26.62,5.47,26.6,2,30-3,50.78-6S668,464,693,464s33.34-5,45.8-6,20,6,39.15,6c29.52,0,35.94-18.88,37.32-28.17a28.34,28.34,0,0,0,.33-5h-.14c-.21-5.57-2.22-9.2-6.17-20.18-2.55-7.08-.86-16.83,1.41-24.69a34.64,34.64,0,0,0,4.57-12.89,28.34,28.34,0,0,0,.33-5h-.14c0-.41,0-.81-.08-1.21s0-.79,0-.92c-.61-7.08-2.35-12.18-5.3-15.9l-.78-2.14c-3.41-9.47.76-23.71,3.76-31.81a49.57,49.57,0,0,0,2.13-9.37l.09-.56a28.34,28.34,0,0,0,.33-5h-.14c-.21-5.57-2.22-9.2-6.17-20.18-2.55-7.08-.86-16.83,1.41-24.69a34.64,34.64,0,0,0,4.57-12.89,28.34,28.34,0,0,0,.33-5h-.14c0-.41,0-.81-.08-1.21s0-.79,0-.92c-.61-7.08-2.35-12.18-5.3-15.9-.25-.68-.51-1.39-.78-2.15-3.41-9.46.76-23.7,3.76-31.8A49.57,49.57,0,0,0,815.22,176.91Z" transform="translate(-26.24 -16.59)"/></svg>
