<svg id="Laag_1" data-name="Laag 1" xmlns="http://www.w3.org/2000/svg" viewBox="0 0 155.59 116.26"><defs><style>.cls-1{fill:#913d6e;}.cls-2{fill:#833765;}.cls-3{fill:#658e22;}.cls-4{fill:#bca1b1;}.cls-5{fill:#843765;}.cls-6{fill:#81ae31;}.cls-7{fill:#658f22;}.cls-8{fill:#e94a21;}.cls-9{fill:#fc7516;}.cls-10{fill:#e84a21;}.cls-11{fill:#658f21;}.cls-12{fill:#e84a20;}.cls-13{fill:#d3b2c4;}.cls-14{fill:#81ae32;}.cls-15{fill:#93406f;}.cls-16{fill:#80ae32;}.cls-17{fill:#92406e;}.cls-18{fill:#b1d166;}.cls-19{fill:#b2d167;}.cls-20{fill:#669022;}.cls-21{fill:#81ae34;}.cls-22{fill:#b1d068;}.cls-23{fill:#b1d063;}.cls-24{fill:#83b036;}.cls-25{fill:#b2d166;}.cls-26{fill:#b3d268;}.cls-27{fill:#81af33;}.cls-28{fill:#82b036;}.cls-29{fill:#679122;}.cls-30{fill:#689123;}.cls-31{fill:#679123;}.cls-32{fill:#85b03b;}.cls-33{fill:#84b033;}.cls-34{fill:#9d517e;}.cls-35{fill:#fd7415;}.cls-36{fill:#b1d165;}.cls-37{fill:#fd7147;}.cls-38{fill:#7ea928;}.cls-39{fill:#fe8736;}.cls-40{fill:#fd8736;}.cls-41{fill:#f8dff0;}.cls-42{fill:#7ea927;}.cls-43{fill:#fe944f;}.cls-44{fill:#fd9550;}.cls-45{fill:#699228;}.cls-46{fill:#e74a21;}.cls-47{fill:#fc7046;}.cls-48{fill:#fa7146;}.cls-49{fill:#e94b21;}.cls-50{fill:#699123;}.cls-51{fill:#e15023;}.cls-52{fill:#699326;}.cls-53{fill:#fd7146;}.cls-54{fill:#7da928;}.cls-55{fill:#f7dfef;}.cls-56{fill:#94406e;}.cls-57{fill:#e25326;}.cls-58{fill:#f57348;}.cls-59{fill:#d6bacb;}.cls-60{fill:#688d20;}.cls-61{fill:#e84f25;}.cls-62{fill:#e84b21;}.cls-63{fill:#80ad31;}.cls-64{fill:#afd063;}.cls-65{fill:#f8e0f0;}.cls-66{fill:#93416f;}.cls-67{fill:#94506e;}.cls-68{fill:#eaccd4;}.cls-69{fill:#7fae31;}.cls-70{fill:#b2d164;}.cls-71{fill:#668f20;}.cls-72{fill:#6a9223;}.cls-73{fill:#699022;}.cls-74{fill:#689122;}.cls-75{fill:#6b8f22;}.cls-76{fill:#e84b22;}.cls-77{fill:#e15123;}.cls-78{fill:#6b9224;}.cls-79{fill:#689222;}.cls-80{fill:#679222;}.cls-81{fill:#699223;}.cls-82{fill:#699122;}.cls-83{fill:#6f8f24;}.cls-84{fill:#f6dced;}.cls-85{fill:#944371;}.cls-86{fill:#f7def0;}.cls-87{fill:#934f6f;}.cls-88{fill:#954270;}.cls-89{fill:#f6ddee;}</style></defs><title>bowl</title><path class="cls-1" d="M87.34,115.87a62.69,62.69,0,0,1-11.94.22,71.13,71.13,0,0,1-24.66-5.29c-15.21-6.41-25.59-17.59-32-32.63-1-2.34-1.86-4.73-2.79-7.1a1.77,1.77,0,0,1,.47-.34,34,34,0,0,1,6.46,0c.93.38,1,1.31,1.29,2.08A55.38,55.38,0,0,0,35,91.14a65.06,65.06,0,0,0,14,11.85A87.12,87.12,0,0,0,67,111.62a2.64,2.64,0,0,0,1.69.3c.07-.56-.39-.73-.71-1-6.31-4.62-11.26-10.54-15.75-16.85A150.09,150.09,0,0,1,41,75.38a20.94,20.94,0,0,1-1.74-3.23c-.21-.68-.28-1.28.61-1.5a14.51,14.51,0,0,1,2.08-.07h75.66a13,13,0,0,1,2.07.07c1.34.51,1,1.65.84,2.59a54.71,54.71,0,0,1-1.79,7.27A64.5,64.5,0,0,1,111.55,96a44.13,44.13,0,0,1-13.9,14A70.78,70.78,0,0,1,86,115.57C86.63,115.47,87.05,115.44,87.34,115.87Z" transform="translate(0 0)"/><path class="cls-2" d="M87.34,115.87l-2.45-.15c3-1.22,5.83-2.41,8.61-3.83a46,46,0,0,0,9.06-5.89,51.37,51.37,0,0,0,10.62-13.52,56.25,56.25,0,0,0,5.12-12.15c.9-3,2.08-6,1.9-9.3a1.91,1.91,0,0,1,1.47-.5c7,0,14.07-.06,21.1,0,.83,0,1.86.07,1.43,1.45-4.4,13.4-11.73,24.77-23.49,32.86a62.46,62.46,0,0,1-24.71,10A46.64,46.64,0,0,1,87.34,115.87Z" transform="translate(0 0)"/><path class="cls-1" d="M14.6,65a42.05,42.05,0,0,1-1.14-6c-.17-1,.4-1.26,1.27-1.35,1.12-.12,2.31.4,3.36-.36,1.62-.46,3.27,0,4.9-.14s3.13,0,4.69,0,3,0,4.5,0c3.19.06,3.67-.38,4.1-3.6a11.47,11.47,0,0,0-4.52-11.34,4.91,4.91,0,0,1-1.16-1.07c-.07-1.31.67-1.42,1.61-1A7.69,7.69,0,0,1,34.58,42a8,8,0,0,1,1.18,1.42,13.48,13.48,0,0,1,1.58,2.82,14.76,14.76,0,0,1,1.06,3.58c.06,1,0,1.92,0,2.88a7.86,7.86,0,0,1-.72,3.54c-.33.7-.11,1,.63.95.9,0,1.8,0,2.7,0,1.13,0,2.25,0,3.38,0,1.67,0,3.34,0,5,0,1.18-.06,2.35,0,3.53,0,.6,0,1.19,0,1.79,0,2.94-.09,5.89,0,8.83,0q5.1,0,10.2,0c3,0,5.94-.07,8.9,0,1.22,0,2.44,0,3.66,0,3.87-.07,7.74-.08,11.61,0,1.07-.07,2.14,0,3.21,0a13.47,13.47,0,0,1,1.42,0c.56.06,1.13,0,1.69,0,.85,0,1.71,0,2.56,0,1.37-.06,2.73,0,4.1,0,1.68-.1,3.35,0,5,0,.89,0,1.77,0,2.66,0,1.47,0,2.94-.07,4.42,0s2.72-.25,4,.29c.41.84-.3.82-.74.89a17,17,0,0,1-2.86.08c-1,0-1.43.42-1.47,1.42a20.15,20.15,0,0,1-.35,4c-.13.56-.13,1.18-.76,1.49a8.74,8.74,0,0,1-2.7.17H36.09q-9.45,0-18.89.06A3.82,3.82,0,0,1,14.6,65Z" transform="translate(0 0)"/><path class="cls-3" d="M134.34,29.41c3.36,0,5.82,1.81,8,4A15.38,15.38,0,0,0,145.75,36a10.7,10.7,0,0,1,4,3.82c1.55,2.52,1.42,4.24-.5,6.5-.28.32-.58.62-.88.92-1.22,1.21-2.36,1.5-3.46.54-2.68-2.36-5.43-2.61-8.4-.65a.66.66,0,0,1-.46,0c-.67-.48-.32-1.09-.12-1.58a29.81,29.81,0,0,1,5.55-8.83,42.62,42.62,0,0,0-11.12,15.55A26.24,26.24,0,0,0,128.89,56c-.12.51-.28,1.25-.86,1.19s-.5-.82-.57-1.34a11.55,11.55,0,0,0-3.3-9.26,2.16,2.16,0,0,1-.63-1.09,2.54,2.54,0,0,1,2.09-2.21A15.74,15.74,0,0,1,131,44.69c.32-.64-.18-1.1-.36-1.62s-.6-1.21-.28-1.91c.79-.86,1.76-.54,2.69-.4,1.85.29,1.89.26,2.45-1.55.28-.78-.29-.89-.81-1a14.23,14.23,0,0,0-3.32-.33c-.73,0-1.51,0-2-.71-.06-2.37-.14-4.74,1.79-6.56C132.17,30.07,133,29,134.34,29.41Z" transform="translate(0 0)"/><path class="cls-4" d="M36.05,65c1.54,0,3.08,0,4.63,0h78.73c.58,0,1.17,0,1.75,0a3,3,0,0,1,2.13-.47H144a2.91,2.91,0,0,1,2.12.49A50.82,50.82,0,0,1,144.2,72c.12-.91-.4-1-1.15-1-7.62,0-15.24.05-22.85.07L94.66,71H41c-.59,0-1.17,0-1.76,0a2.71,2.71,0,0,1-1.95.5q-6,0-12.09,0a2.79,2.79,0,0,1-2-.49l-7-.09c.24-.83,1-.7,1.56-.72q2.44-.09,4.89,0,8-.1,15.93,0c.85-.08,1.7,0,2.56,0h75.64l1.92,0a1.48,1.48,0,0,0,1.57-1.44c.5-2.76.38-2.94-2.41-2.94H40.18a27.86,27.86,0,0,1-3-.06,2.3,2.3,0,0,1-.89-.23A.4.4,0,0,1,36.05,65Z" transform="translate(0 0)"/><path class="cls-5" d="M146.09,64.93l-24.93,0c.14-2.06.31-4.11.42-6.17,0-.9.68-.77,1.24-.83,1.47-.15,3,.33,4.4-.26a.75.75,0,0,1,.49-.28,19.2,19.2,0,0,1,4.28-.25c.68.05,1.35,0,2,0,1.28,0,2.55-.06,3.83,0,2.38,0,4.77,0,7.16,0,.84,0,1.73,0,2.25.86A51.3,51.3,0,0,1,146.09,64.93Z" transform="translate(0 0)"/><path class="cls-3" d="M8.22,48.6a77.78,77.78,0,0,0,3.83-8,7.31,7.31,0,0,1,2.34-3c2-1.52,4.13-1.29,6.44.66,1.24.56,1.49,1.78,2,2.87A14.72,14.72,0,0,1,24,46.24c0,.31,0,.69.32.83s.59-.17.8-.38A15.49,15.49,0,0,1,28,44.23a4.42,4.42,0,0,1,2.3-.74,5.38,5.38,0,0,1,3.22,3.65,4.78,4.78,0,0,1-.34,1.71,15.85,15.85,0,0,0-.43,8,.8.8,0,0,1-.17.45c-1,.11-1.47-.75-2-1.32a34.24,34.24,0,0,0-9.69-7.2c-1.3-1.32-2.61-2.59-4.59-2.88-2.5-.38-4.38.68-6.09,2.33C9.66,48.75,9.13,49.83,8.22,48.6Z" transform="translate(0 0)"/><path class="cls-6" d="M42.51,31.58a5.71,5.71,0,0,0,3.92-2.42,14.21,14.21,0,0,1,3.72-3.89c3-2,6.07-.9,7.18,2.52a17.22,17.22,0,0,1,.47,5.05c-.18,1.7-1.43,2.69-2.51,3.81A1.65,1.65,0,0,1,54.07,36a20.67,20.67,0,0,0-3-2.58c-1.1-.76-2.06-1.67-3.15-2.44a28.82,28.82,0,0,1,6.28,7.11,2.74,2.74,0,0,1,.5,1.49,1.43,1.43,0,0,1-.39,1.17,1,1,0,0,1-.63,0A22.2,22.2,0,0,0,44.7,39c-.14-.07-.34-.12-.39-.26C43.51,36.4,42.51,34.12,42.51,31.58Z" transform="translate(0 0)"/><path class="cls-7" d="M42.51,31.58a40.76,40.76,0,0,1,1.61,5.77,1.82,1.82,0,0,0,.65,1.4,10,10,0,0,1,.9,2.76,15.51,15.51,0,0,0,.7,2.32c.67,2.22,1.08,4.51,1.81,6.72.23,1.66.92,3.2,1.3,4.82.09.74.57,1.48,0,2.22H44.37c-.75-.4-.75-1.19-1-1.87s-.46-1.54-.65-2.32c-.22-1.54-.91-3-1.23-4.48-.22-1.81-1-3.48-1.35-5.26a21.81,21.81,0,0,0-.88-3.09c-.69-2.74-1.46-5.46-2.1-8.21a4.21,4.21,0,0,1-.2-1.73l-1-4.05a1,1,0,0,1,.75-.47c.63.08.8.63,1.11,1.05a1.33,1.33,0,0,0,1.7.44c.61-.28.47-.87.33-1.4-.28-1,0-1.35,1-.79.18.24.09.58.3.81Z" transform="translate(0 0)"/><path class="cls-8" d="M134.34,29.41c-1.1.14-1.91,1-2.94,1.27-1.34-.33-2.53-1.06-3.89-1.39A11.45,11.45,0,0,0,114.31,36a11.27,11.27,0,0,0-.56,7.8,2.83,2.83,0,0,1-2.82,1.71,1.27,1.27,0,0,1-.44-.63,15.56,15.56,0,0,1-.64-3c0-.61,0-1.21,0-1.82a13.65,13.65,0,0,1,1.34-5.68,11.8,11.8,0,0,0,.79-1.69c.61-.83,1.28-1.62,1.93-2.42.36-.36.72-.72,1.09-1.07,1.09-.69,2-1.82,3.42-1.81C124.11,24.93,129.46,25.31,134.34,29.41Z" transform="translate(0 0)"/><path class="cls-9" d="M37,30.63a81.94,81.94,0,0,1,2.65,10,1.09,1.09,0,0,1-1.4.71,2.22,2.22,0,0,1-.59-1.75c-.25-3.91-2.31-5-5-5.75A5.71,5.71,0,0,0,26,37.28a2.4,2.4,0,0,1-.16.27c-.72,1.15-1.81,2-2.35,3.32-.17.4-.54.85-1.11.37a8.51,8.51,0,0,0-1.51-2.93,11.27,11.27,0,0,1,5.1-7.56A10.6,10.6,0,0,1,37,30.63Z" transform="translate(0 0)"/><path class="cls-10" d="M8.22,48.6c.64.56,1,.15,1.44-.33,3.56-4.31,8.84-3.57,11.42.36,1.28.86,1,2.19,1,3.41a4.73,4.73,0,0,1-.05,1.25,3,3,0,0,0,.74,3.29.92.92,0,0,1,.21,1c-1.64,0-3.3.26-4.91-.33-.74-.42-.46-1-.3-1.62-.2-.71.32-1.2.55-1.78.78-2,.39-3.65-1.13-4.68-1.68-1.13-3-.94-4.72.66a8.11,8.11,0,0,0-.93,1.09c-1.38,1.89-1.93,2-3.89.61a4.08,4.08,0,0,0-5,1.1c-1,1.19-1.59-.06-2.25-.4-.91-.47-.1-1,.19-1.37a6.33,6.33,0,0,1,5.72-2.44C7,48.46,7.59,48.55,8.22,48.6Z" transform="translate(0 0)"/><path class="cls-10" d="M137.89,57.59H134c.59-1.92-.6-3.64-.64-5.5,0-2.1.48-4,2.51-5.08,1.47-.77,2.79-1.78,4.65-1.63a5.22,5.22,0,0,1,3.5,1.26,3.17,3.17,0,0,0,4.33.62c3-.38,5.16,1.14,6.92,3.39.36.46.55.91-.07,1.14s-1,1.44-2,.63a7.45,7.45,0,0,1-.52-.6c-2.1-2.34-3.74-2.51-6.12-.51-.76.64-1.2.64-1.77-.16a5.09,5.09,0,0,0-1.63-1.7,2.74,2.74,0,0,1-.88-.37,3,3,0,0,0-3.82,0,3.73,3.73,0,0,0-1.38,4.23,10.81,10.81,0,0,0,1.23,2.39C138.78,56.44,139,57.17,137.89,57.59Z" transform="translate(0 0)"/><path class="cls-11" d="M75.09,23.06a10.54,10.54,0,0,1,17.25-1.54,2.14,2.14,0,0,1-1,3.54,3.85,3.85,0,0,1-.83-1,7.68,7.68,0,0,0-13.17,1.09c-.76,1.47-.55,3-.5,4.53A7.46,7.46,0,0,1,77,31.28a1.07,1.07,0,0,1-.8.86c-1.53-.29-2.46-1.6-3.77-2.27-1.3-1.9-2.33-4-4.1-5.57-.35-.31-.94-.78-.44-1.3s1-.07,1.4.25.79.53,1.15.83c.89.8,1.64,1.73,2.59,2.6C73.92,25.53,73.71,23.82,75.09,23.06Z" transform="translate(0 0)"/><path class="cls-3" d="M7.67,51.54c1.9,1,2.95.22,4.09-1.47,1.77-2.63,4.12-2.72,6.46-.62,1.18,1.06,1,2.45.75,3.8a5.65,5.65,0,0,1-1.18,2.39,13.11,13.11,0,0,1-6.4.44C8.86,55.45,7.62,53.93,7.67,51.54Z" transform="translate(0 0)"/><path class="cls-3" d="M137.89,57.59c.84-.54.53-1.19.08-1.75a7.59,7.59,0,0,1-1.2-2.22,4.16,4.16,0,0,1,1.71-5.12c1.39-.91,3.18-.56,4.7.94l-4.67.55a23.6,23.6,0,0,1,6.25,3.13c1.52,1.21,3.2,2.44,2.49,4.85-1.65-.67-3.37-.25-5.05-.33C140.76,57.56,139.32,57.6,137.89,57.59Z" transform="translate(0 0)"/><path class="cls-12" d="M59.7,31.07a4.19,4.19,0,0,0-1.28-3.62c-.7-.71-.57-1.22.23-1.75a8.41,8.41,0,0,0,2.26-2c1.51-2.09,1.36-4.26-.77-5.68-1.39-.92-.65-1.82-.24-2.55.59-1.05,1.32-.07,1.82.28a6.47,6.47,0,0,1,1.85,8.88,8.25,8.25,0,0,0-1.24,5.09A2.32,2.32,0,0,1,59.7,31.07Z" transform="translate(0 0)"/><path class="cls-13" d="M22.63,70.68c-2.12.19-4.28-.29-6.39.28a1.33,1.33,0,0,1-.3.11c-.44-2-.89-4-1.34-6.08H36.05c0,.09,0,.18,0,.27-.61.6-1.39.47-2.12.48-3.3,0-6.61,0-9.91,0-1.77,0-1.91.26-1.61,2C22.59,68.73,23.35,69.66,22.63,70.68Z" transform="translate(0 0)"/><path class="cls-14" d="M91.45,24.94a2.89,2.89,0,0,0,.89-3.42c.64.47,1,.2,1.34-.41a12.48,12.48,0,0,1,4.66-4.23c.93-.53,1.45-.52,1.35.75-.13,1.58-.22,3.16-.33,4.74a.94.94,0,0,1-.75.74A14.92,14.92,0,0,0,92.85,27c-.33.32-.64.95-1.3.44A3.14,3.14,0,0,1,91.45,24.94Z" transform="translate(0 0)"/><path class="cls-15" d="M91.77,27.57a16.26,16.26,0,0,1,7.6-5.2c1.74-.55,3.58-.28,5.35-.59a9.88,9.88,0,0,1,4.7,1.41c.94,1.3,2.61,1.8,3.5,3.16a3.37,3.37,0,0,1,2.17,3.1l-.91.93c-.75-.14-.92-.83-1.25-1.34a11.31,11.31,0,0,0-10.52-5.46,11.57,11.57,0,0,0-10.59,7.69c-.22.53-.29,1.15-.79,1.54a1,1,0,0,1-1.37-.31A6.42,6.42,0,0,1,91.77,27.57Z" transform="translate(0 0)"/><path class="cls-16" d="M70.28,24.34c-.85-.21-1.3-1.22-2.71-1.28a18.52,18.52,0,0,1,5,6.63,9.5,9.5,0,0,1-5.24-1c0-.88.95-1.21,1.27-2.1a15.29,15.29,0,0,1-1.93,0c-1.71-.21-2.41-1.47-1.55-3a20.25,20.25,0,0,1,2.31-3.21c1-1.15,2-1,2.94.28.3.91.36,1.68-1.19,1.61C71,22.83,71.13,23,70.28,24.34Z" transform="translate(0 0)"/><path class="cls-17" d="M67.29,28.71a20.81,20.81,0,0,1,5.24,1A12.13,12.13,0,0,1,76.05,32a1.14,1.14,0,0,1-1.42.72c-5.79-3.54-11.58-2.93-15.93,1.72a13.06,13.06,0,0,0-2.64,5,4.07,4.07,0,0,1-.79,1.89c-.64.16-1,0-1-.75l.06-1.25c.1-1,0-2.13.91-2.89l2.57-3.64a7.45,7.45,0,0,0,1.9-1.77,10.36,10.36,0,0,0,2.63-1.34Z" transform="translate(0 0)"/><path class="cls-18" d="M114.48,1.23a4.21,4.21,0,0,1,.52,5.5c-.65.73-1,1.25.39,1.32-.18.77-.72.76-1.33.63a3.05,3.05,0,0,0-3-2.35,1.9,1.9,0,0,1-1.44-.58A4.53,4.53,0,0,1,111.45.9c.54-.38.9.09,1.34,0,.49.5-.14,1.22.35,1.75C113.88,2.45,113.88,1.54,114.48,1.23Z" transform="translate(0 0)"/><path class="cls-19" d="M35.11,9.6c1.69-.13,3.82,2.49,3.35,4.2a7.57,7.57,0,0,0-.2,1.55,4.89,4.89,0,0,0-3.61.46,1.17,1.17,0,0,1-1.47-.11,3.74,3.74,0,0,1,.22-5.45c.19-.15.24-.46.36-.7.68.45.32,1.44,1,2C35.3,10.92,34.68,10.16,35.11,9.6Z" transform="translate(0 0)"/><path class="cls-20" d="M109.42,23.19a18.87,18.87,0,0,1-4.7-1.41c.48-1.61,1-3.22,1.45-4.83.14-.47.29-.95,1-.81s.44.86.43,1.36,0,.87.46,1.09a1.19,1.19,0,0,0,1.31-.24c.49-.39.8-1.23,1.68-.75a.69.69,0,0,1,0,.67Z" transform="translate(0 0)"/><path class="cls-6" d="M115.09,29.45a12.9,12.9,0,0,0-2.17-3.1c.86-.68.92-1.81,1.49-2.66a6,6,0,0,1,1.48-1.88,16.71,16.71,0,0,1,2.51,5.58Z" transform="translate(0 0)"/><path class="cls-21" d="M70.28,24.34c.34-.75.79-1.4-.71-1.38-.91,0-.87-.91-.81-1.64.7-.08.55,1,1.19.65s.26-.84.38-1.27c.89.92.43,2.13.73,3.46a5.56,5.56,0,0,1,4-1.1,18.14,18.14,0,0,0-1.51,3.68c-.17.5-.4,1.09-.89.35C72,26,70.94,25.38,70.28,24.34Z" transform="translate(0 0)"/><path class="cls-22" d="M107.07,16.32c-.5-.08-.62.39-.9.63a5.94,5.94,0,0,1-1-4.64c0-.41-.12-1,.31-1.18s.85.23,1.18.55.53.53,1,.48l.21.1a4.94,4.94,0,0,1,.87,2.21A1.73,1.73,0,0,1,107.07,16.32Z" transform="translate(0 0)"/><path class="cls-23" d="M36.75,26.3a.83.83,0,0,1-.73.28c-1.32-.11-3.42-2.58-3.17-3.74.12-.54.54-.41.88-.36s1,.37,1.1-.38a5.41,5.41,0,0,1,2.76,2.09C37.83,25.09,37.82,25.91,36.75,26.3Z" transform="translate(0 0)"/><path class="cls-24" d="M38.31,15.68a.79.79,0,0,0,.8-.38c.33-.4.63-1.13,1.1-1,.64.21.53,1,.6,1.64.19,1.58.26,3.15-1.29,4.2a2.11,2.11,0,0,1-1.1-.43c-.31-.94-1.19-1.65-1.19-2.73A4.44,4.44,0,0,1,38.31,15.68Z" transform="translate(0 0)"/><path class="cls-25" d="M41.16,26.22l-.35-.63c-.61-.67-1.93-.63-1.9-1.93a3,3,0,0,1,1-2.21c.85.05,1.08-.77,1.6-1.17.68-.5,1-.35.94.43-.1,1.65.8,3.55-1.17,4.76C41.14,25.55,41.2,26,41.16,26.22Z" transform="translate(0 0)"/><path class="cls-26" d="M111,18.27l-.09-.65A1.65,1.65,0,0,1,110.3,15a4.51,4.51,0,0,1,2.17-1.29c.09.06.17.16.26.18.71.08,1.7-.63,2,0s-.55,1.45-.88,2.2A4,4,0,0,1,111,18.27Z" transform="translate(0 0)"/><path class="cls-27" d="M34.77,21.78c-2.15-.47-2.41-2.42-3.1-4-.2-.46.06-.65.57-.56s.93.47,1.21-.22a7.6,7.6,0,0,1,2.17,1.08A29.46,29.46,0,0,1,36.17,21,1.49,1.49,0,0,1,34.77,21.78Z" transform="translate(0 0)"/><path class="cls-28" d="M107.63,12.16a1.11,1.11,0,0,0-.29-1.11c-.75-.86-.77-3.74-.19-4.7.28-.46.58-.38.89-.08s.56,1,1.25.74c.36.53.42,1.2.84,1.7a5.08,5.08,0,0,1-.93,2.48c-.44.36-.74.93-1.4,1h-.09Z" transform="translate(0 0)"/><path class="cls-24" d="M114.14,8.65l1.25-.6c.35.06,1-.63,1,.38a5.11,5.11,0,0,1-3.52,4c-.46-.14-.91-.29-1.1-.8A7.59,7.59,0,0,1,112,8.74,2.05,2.05,0,0,1,114.14,8.65Z" transform="translate(0 0)"/><path class="cls-29" d="M111.89,11.86c.45,0,.9,0,.94.6l-.36,1.29a5.09,5.09,0,0,1-1.87,1.3c-.86.2-1.39-.71-2.21-.66,0-.79-.93-1.35-.59-2.24.34-.38.5-1,1.19-.93A8.48,8.48,0,0,0,111.89,11.86Z" transform="translate(0 0)"/><path class="cls-20" d="M34.77,21.78a1.87,1.87,0,0,1,1.31-.67c.81-.51,1.85-.52,2.55-1.26.46-.36.63.1.89.31l.39,1.29c.08.83-.73,1.39-.7,2.21a6.26,6.26,0,0,0-1.91.4c-.86-.62-1.9-1-2.47-2Z" transform="translate(0 0)"/><path class="cls-30" d="M114.14,8.65c-.64.06-1.28.58-1.91,0-.39-.62-.81-1-1.43-.21a.7.7,0,0,1-.82.25c-1-.23-.86-.94-.69-1.66a1.89,1.89,0,0,1,.33-1.26c1.08.38,2.22.11,3.38.71S114.07,7.76,114.14,8.65Z" transform="translate(0 0)"/><path class="cls-31" d="M35.43,17.93c-1,.5-1.46-.33-2-.94-.45-.36-.17-.86-.27-1.29a3.87,3.87,0,0,0,2.1-.62,2.25,2.25,0,0,1,3,.27l.05.33c-.14.58-.21,1.21-1,1.31C36.09,16.11,35.8,17.11,35.43,17.93Z" transform="translate(0 0)"/><path class="cls-32" d="M114.48,1.23c-.12,1-.67,2.3-1.6,2.07s-.3-1.55-.09-2.4c.37-.37.68-1,1.22-.89S114.36.8,114.48,1.23Z" transform="translate(0 0)"/><path class="cls-33" d="M35.11,9.6a1.26,1.26,0,0,1,.19.43c.07.8.51,2.09-.28,2.21s-1.22-1.1-1.21-2.06c0-.21,0-.42-.05-.63C34.3,7.28,34.64,10,35.11,9.6Z" transform="translate(0 0)"/><path class="cls-34" d="M23.26,71.05h16a44.46,44.46,0,0,0,3.87,7.63,148.44,148.44,0,0,0,9.14,14.76C57,100,62,106.17,68.63,110.87c.42.3,1.18.64.81,1.35s-1,.23-1.56.07A77.11,77.11,0,0,1,42.05,98.53,56.64,56.64,0,0,1,24.54,74.76,18.09,18.09,0,0,1,23.26,71.05Z" transform="translate(0 0)"/><path class="cls-35" d="M111,45.43c.84-.52,1.87-.73,2.51-1.57a9.73,9.73,0,0,1,6.43-.41c.57.14,1,.51,1.61.68.76.39,1.71.51,2.13,1.43A11.81,11.81,0,0,1,127.83,56c-.36.48.2,1.17-.37,1.6a.5.5,0,0,0-.24.1l-4.14-.09c-.2-1.32.3-2.6.23-3.94a6.31,6.31,0,0,0-5.8-5.54c-3.51-.28-6.44,2.84-6.46,5.14a13.58,13.58,0,0,0,.13,2.7,1.74,1.74,0,0,1-.26,1.66h-4.17a2.74,2.74,0,0,1-.3-.43,9.68,9.68,0,0,1-.11-5.54,3.53,3.53,0,0,1,.15-.46,17.82,17.82,0,0,1,2.3-4.19C109.41,46.3,109.9,45.47,111,45.43Z" transform="translate(0 0)"/><path class="cls-36" d="M73.76,57.57H63.58c-1.92-1.12-2.13-1.6-1.64-3.72a3.84,3.84,0,0,1,.11-.46c.43-1.17.27-2.09-1.07-2.52a3.09,3.09,0,0,1-.35-2c1.13-5.1,7.2-7.27,10.78-5.6a3.23,3.23,0,0,1,1.65,1.19,6.15,6.15,0,0,1-.28,3.29c-.29.58-1,.56-1.41.93s-.63.61-.5,1.08.56.4.92.4a1.92,1.92,0,0,1,1.49.33,1.14,1.14,0,0,1,.19.67c-.08.83-.71.94-1.36,1-.5.07-1.16,0-1.22.71s.49.88,1,1.1A5.33,5.33,0,0,1,74,55.87C74.45,56.48,74.66,57.12,73.76,57.57Z" transform="translate(0 0)"/><path class="cls-37" d="M49.07,55.41a24.52,24.52,0,0,1-1.22-4.84,1.63,1.63,0,0,1,.23-1.49c1.34-2.57.89-3.85-1.7-5a1.7,1.7,0,0,1-.39-.27,5,5,0,0,1-.61-2.26A1.42,1.42,0,0,1,46.77,41,12.3,12.3,0,0,1,59.05,52a1.57,1.57,0,0,1-.67,1.2,15.77,15.77,0,0,0-3.79,4.39L53,57.6C51.82,56.64,50.29,56.31,49.07,55.41Z" transform="translate(0 0)"/><path class="cls-38" d="M73.76,57.57c.4-1.08-.54-2.6-2-3.1a2.46,2.46,0,0,1-1.11-.54,1.49,1.49,0,0,1-.34-1.47c.15-.57.66-.57,1.14-.64s1.44.4,1.73-.6c.81-.78,1.92-.63,2.88-1a7.05,7.05,0,0,1,5.3.28,7.62,7.62,0,0,1,2.18,1.64,5.4,5.4,0,0,1,.4,1.37c.73,2.48.73,2.48-1.2,4Z" transform="translate(0 0)"/><path class="cls-39" d="M110.92,57.58c0-1.38-.42-2.7-.35-4.1.16-2.9,1.93-4.6,4.36-5.49a5.6,5.6,0,0,1,6.16,1.12c2.93,2.84,3.43,4.85,2,8.45H118.6c-.11-.63.45-.92.73-1.33,1.12-1.64,1-3.36-.4-4.4a3.22,3.22,0,0,0-4.19.52,3.28,3.28,0,0,0,.64,4.43c.25.23.74.27.65.79Z" transform="translate(0 0)"/><path class="cls-36" d="M109,47.07q-1.1,2.07-2.2,4.12a2.43,2.43,0,0,1-.5-1c-.2-.44-.41-1-1-.74a1.12,1.12,0,0,0-.47,1.64c.26.58.7.77,1.27.32.21-.16.4-.36.7-.24a17.85,17.85,0,0,0-.06,6.1c-.87-.26-1.75-.63-2.47.29h-1.64c-.13-.43.24-.65.4-1s.55-.91,0-1.26-1.06,0-1.49.44-.09,1.19-.18,1.78H98.13c-.75-.35-.74-1.11-1-1.75-.67-3.94,1-6.81,4.19-8.9,2-1.26,4.14-1.15,6.32-.71A1.64,1.64,0,0,1,109,47.07Z" transform="translate(0 0)"/><path class="cls-40" d="M25.5,37.38a5.94,5.94,0,0,1,7.17-4c2.76.64,5.11,1.91,5.38,6,0,.62.16,1.24.25,1.85-.7,1.07-1.23,2.33-2.83,2.27l-1-1.3c-.19-1,0-1.93-.15-2.86s-.33-1.94-1.51-2.2-2.52-.4-3.44.59a2.73,2.73,0,0,0-.57,3.12,18.16,18.16,0,0,0,1.33,2.35.87.87,0,0,1,.13.44c-.78.09-1.34.8-2.17.77C27.18,42.11,26.36,39.74,25.5,37.38Z" transform="translate(0 0)"/><path class="cls-41" d="M30.25,43.68,30,43.5c-1-1.18-.3-1.91.69-2.55a12.13,12.13,0,0,1,5.85,13.73c-.83,3.07-.83,3.07-4,2.9-.09-.06-.13-.12-.11-.2s0-.11.06-.11l0,0c.3-.78.54-1.57.86-2.34a8.13,8.13,0,0,0,.34-5.44,11.53,11.53,0,0,1-.43-2.33A7.72,7.72,0,0,0,30.25,43.68Z" transform="translate(0 0)"/><path class="cls-42" d="M97.52,56c.2.53.4,1.07.61,1.61H86.29c-1.43-1.41-1.47-1.65.07-3,.79-.67.66-1.63,1.07-2.4.63-.43.92.71,1.54.34a6.5,6.5,0,0,1,4.91.81c.34.19.7.33,1,.53A16.84,16.84,0,0,0,97.52,56Z" transform="translate(0 0)"/><path class="cls-43" d="M116,57.58a3.74,3.74,0,0,1-2.19-4.45,3.58,3.58,0,0,1,4.25-2.23,3.5,3.5,0,0,1,2.42,3.68,4.74,4.74,0,0,1-1.91,3Z" transform="translate(0 0)"/><path class="cls-6" d="M54.59,57.58c.28-1.82,1.59-2.95,2.82-4.1a8.15,8.15,0,0,0,1.38-1.31,3.5,3.5,0,0,1,2.51-1.25c1.28-.32,1.83,0,1.33,1.41-.09.24,0,.56-.08.79a3.35,3.35,0,0,0,1,4.46Z" transform="translate(0 0)"/><path class="cls-42" d="M32.47,57.27c0,.1,0,.21.05.31H27.74q-2-1.81-3.81-3.81a10.22,10.22,0,0,0-2.1-1.67,8.3,8.3,0,0,0-.75-3.47c1.2,0,2,.84,2.94,1.43A52.81,52.81,0,0,1,32.47,57.27Z" transform="translate(0 0)"/><path class="cls-44" d="M30.66,41c-.26.84-1.5,1.42-.69,2.55-2-1.76-2.41-4.25-.91-6.19.7-.91,1.92-.81,2.88-.72,2.56.24,3.6,2.71,2.52,5.65l-2.24-1.76C31.47,39.89,31,40.12,30.66,41Z" transform="translate(0 0)"/><path class="cls-45" d="M87.61,52.1A3.11,3.11,0,0,1,86,55.37c-1.36.77.47,1.42.28,2.2H82.76c1.48-1.4,1.49-3,.66-4.73a1.65,1.65,0,0,1,0-.63,4.66,4.66,0,0,1,2.77-3.46C87.74,49.41,88.16,50.4,87.61,52.1Z" transform="translate(0 0)"/><path class="cls-46" d="M41.89,49A15.28,15.28,0,0,1,43,53.46a3.25,3.25,0,0,1-5-.62L38,49.6C39.18,48.28,40.05,48.14,41.89,49Z" transform="translate(0 0)"/><path class="cls-47" d="M38.07,52.84a4.68,4.68,0,0,0,5,.62,3.49,3.49,0,0,1,.66,2.21c-1,.54-1.85,1.34-2.84,1.92-1,0-1.92-.05-2.87,0-1.23.12-1.17-.48-.8-1.28A9.81,9.81,0,0,0,38.07,52.84Z" transform="translate(0 0)"/><path class="cls-7" d="M21.83,52.1c.2,0,.47-.12.59,0a21.9,21.9,0,0,1,5.32,5.5H23s0-.1-.08-.13C21.07,56,21.27,54.07,21.83,52.1Z" transform="translate(0 0)"/><path class="cls-48" d="M41.89,49c-1.33,0-2.73-.42-3.88.65l-1-3.52c.43-1.56,1.8-2.17,3-2.92.18-.11.36.16.48.33A30.13,30.13,0,0,1,41.89,49Z" transform="translate(0 0)"/><path class="cls-49" d="M40.51,43.49c-1.62.25-2.37,1.66-3.49,2.59-.51-.85-1-1.69-1.55-2.54,1.25-.38,1.75-1.68,2.83-2.27l1.34-.66C40.38,41.43,40.14,42.55,40.51,43.49Z" transform="translate(0 0)"/><path class="cls-50" d="M101.34,57.59c-1-.65-.75-1.35-.12-2.11a1.55,1.55,0,0,1,2.24-.43c.88.63.09,1.31-.18,1.92-.11.26-.46.42-.7.62Z" transform="translate(0 0)"/><path class="cls-51" d="M49.07,55.41c1.52.36,3.06.67,3.93,2.19H49.49Z" transform="translate(0 0)"/><path class="cls-8" d="M40.86,57.59c.75-.93,1.38-2.05,2.84-1.92.23.64.45,1.28.67,1.92Z" transform="translate(0 0)"/><path class="cls-52" d="M104.22,57.59c.94-1.65,1-1.66,2.47-.29a.46.46,0,0,1,.06.28Z" transform="translate(0 0)"/><path class="cls-53" d="M120.22,43.79c-2.25-.47-4.5,0-6.75.07-2-4.42,1-11.67,5.75-13.92a12.31,12.31,0,0,1,11.57.1c.3.16.56.28.61.64-1.61,1.89-1.7,4.2-1.81,6.51-.3.93-1.2,1-1.9,1.23A13.13,13.13,0,0,0,121.34,43,1.92,1.92,0,0,1,120.22,43.79Z" transform="translate(0 0)"/><path class="cls-54" d="M127.46,57.55c.14-.53-.06-1.14.37-1.6l.12,1a63,63,0,0,1,3.55-8.14,35.85,35.85,0,0,1,5-7.53c2-2.18,3.83-4.5,6.5-6-3,3.52-5.84,7.11-7.17,11.63a7.53,7.53,0,0,0-2.23,5.18,8.41,8.41,0,0,1-1.59,5.4Z" transform="translate(0 0)"/><path class="cls-55" d="M123.64,45.56l-2.21-1.15c-.33-.75.22-1.22.6-1.67a12.53,12.53,0,0,1,12.56-4.27,1.63,1.63,0,0,1,1.28.84c-.61,2.16-.61,2.18-2.74,1.87a5,5,0,0,0-2.66.09c-1.06.61-2.31.79-3.34,1.47-.55.23-1,.72-1.58.81A4.06,4.06,0,0,0,123.64,45.56Z" transform="translate(0 0)"/><path class="cls-56" d="M135.87,39.31a12,12,0,0,0-14.44,5.1c-.61.2-.87-.28-1.21-.61a14.23,14.23,0,0,1,8.08-6,9.33,9.33,0,0,0,1.29-.59c1.78.53,3.65,0,5.45.54C136.07,38,136.48,38.32,135.87,39.31Z" transform="translate(0 0)"/><path class="cls-57" d="M125.55,43.55a2,2,0,0,1,1.3-1c2.24-.5,3.76.36,4.53,2.59Z" transform="translate(0 0)"/><path class="cls-58" d="M131.38,45.11c-1.13-1.54-2.43-2.78-4.53-2.59a5.67,5.67,0,0,1,3.62-1.25c.41,1.25.82,2.49,1.22,3.74,0,0,0,.13-.05.13A2.06,2.06,0,0,1,131.38,45.11Z" transform="translate(0 0)"/><path class="cls-13" d="M36.7,65.27h82.63c1.9,0,2.1.26,1.7,2.14,0,.16-.12.31-.15.46-.5,2.83-.5,2.83-3.47,2.83H38.61C37.8,68.94,36.52,67.37,36.7,65.27Z" transform="translate(0 0)"/><path class="cls-59" d="M36.7,65.27c.42,1.88,1.74,3.45,1.91,5.42h-16c0-1.3-.69-2.43-.9-3.68s0-1.77,1.39-1.75c4.31.07,8.63,0,13,0Z" transform="translate(0 0)"/><path class="cls-60" d="M132,57.58l1.59-5.4c.52,1.18.36,2.55,1.16,3.69.49.7-.57,1.11-.8,1.71Z" transform="translate(0 0)"/><path class="cls-6" d="M25.5,37.38a14,14,0,0,1,2.58,7.07c-.87.82-1.73,1.67-2.63,2.46-.41.36-.72,1.18-1.35.87s-.5-1.08-.52-1.72a12.07,12.07,0,0,0-1.24-4.82c.35,0,.67,0,.77-.39C23.51,39.41,24.64,38.49,25.5,37.38Z" transform="translate(0 0)"/><path class="cls-61" d="M33.28,47.14a9.05,9.05,0,0,1-.77,10.11A16,16,0,0,1,33.28,47.14Z" transform="translate(0 0)"/><path class="cls-62" d="M61.3,50.92a7.68,7.68,0,0,1-2.51,1.25,12.63,12.63,0,0,0-4.18-7.83,11.35,11.35,0,0,0-9.23-2.75,5.26,5.26,0,0,1-.61-2.84,16.9,16.9,0,0,1,9.49,1.87,1,1,0,0,0,1,.62A6.89,6.89,0,0,1,58,43.37a14.41,14.41,0,0,1,1.68,2.28A10.22,10.22,0,0,1,60.92,49Z" transform="translate(0 0)"/><path class="cls-29" d="M55.23,36.48a14.49,14.49,0,0,1-.91,2.89,23.27,23.27,0,0,0-6.2-7.73c-.4-.33-.85-.61-1.52-1.09a2.13,2.13,0,0,1,2.14.56A77.34,77.34,0,0,1,55.23,36.48Z" transform="translate(0 0)"/><path class="cls-63" d="M37.3,24.06c.63-1.27.63-1.27,1.91-.4,0,1.11,1.36,1,1.6,1.93-.25,0-1-.48-.64.18.46,1,.5,1.75-.44,2.19a1.63,1.63,0,0,1-2.52-1.26c0-.16-.3-.27-.46-.4A2.48,2.48,0,0,0,37.3,24.06Z" transform="translate(0 0)"/><path class="cls-62" d="M46,43.85c2.92,0,4.2,2.47,2.72,5.1-.31.53-1,.89-.86,1.62A47.44,47.44,0,0,1,46,43.85Z" transform="translate(0 0)"/><path class="cls-64" d="M41.83,43.24c.23-.74-.12-2.13.7-2.38s1.3,1,1.79,1.77,1,1.31.3,2.13a1.56,1.56,0,0,1-1.82.6C41.91,45,41.86,44.19,41.83,43.24Z" transform="translate(0 0)"/><path class="cls-65" d="M111.55,34.19A19.92,19.92,0,0,0,110.21,40c-.69,2.29-2.7,3-4.58,3.94a7,7,0,0,1-3.64.16,2.72,2.72,0,0,1-1.13-2.77c.41-.52,1-.3,1.48-.27a5.8,5.8,0,0,0,6.2-4.79A5.68,5.68,0,0,0,97.42,34c-.18.59-.09,1.32-.8,1.65a3.23,3.23,0,0,1-2.23-1.48c-.35-1.69.5-3,1.44-4.22a8.63,8.63,0,0,1,8.57-3.4A8.52,8.52,0,0,1,111.3,32,3.71,3.71,0,0,1,111.55,34.19Z" transform="translate(0 0)"/><path class="cls-55" d="M91,32.65a12.28,12.28,0,0,1,23.16-2.26,7,7,0,0,1-1.9,2.2c-1.11-1.26-1.69-2.87-3-4.06a9.45,9.45,0,0,0-15.21,3.63c-.19.54-.25,1.15-.77,1.53C92.41,33.7,91.48,33.7,91,32.65Z" transform="translate(0 0)"/><path class="cls-11" d="M101.93,44a25.38,25.38,0,0,0,3.89-.39,6.19,6.19,0,0,1,2.64.13,4.59,4.59,0,0,1,2.37,1.15c0,.2.09.39.13.59l-2,1.64c-5.11-1.85-9.29,0-11.18,4.82-.52,1.33-.23,2.71-.25,4.08-1.49.16-1.93-1.1-2.66-2a3.09,3.09,0,0,1-.11-2.73,10.55,10.55,0,0,1,4-5.71C99.81,45.08,100.6,44,101.93,44Z" transform="translate(0 0)"/><path class="cls-66" d="M93.27,33.56a9.83,9.83,0,0,1,13.8-7,9.1,9.1,0,0,1,5.21,6.08,2.17,2.17,0,0,1-.73,1.6,10.68,10.68,0,0,0-2.31-4.65,8.29,8.29,0,0,0-8.93-2.27,8,8,0,0,0-5.79,6.94C93.8,34.58,93.5,34.14,93.27,33.56Z" transform="translate(0 0)"/><path class="cls-67" d="M108.27,44.06c-.76-.44-1.71.06-2.45-.5A10.74,10.74,0,0,0,110.21,40c0,.67,0,1.33,0,2A5.17,5.17,0,0,1,108.27,44.06Z" transform="translate(0 0)"/><path class="cls-68" d="M108.27,44.06c.36-1,1.24-1.42,2-2l.6,2.81Z" transform="translate(0 0)"/><path class="cls-36" d="M91.77,27.57c-.64,1.61-1.72,3.05-1.93,4.84-1.22.66-2.5.38-3.77.26a1.08,1.08,0,0,1-.43-.21c-1.72-1.71-1.72-1.71-2.46.64a7.32,7.32,0,0,1-4.1,1.6,2.93,2.93,0,0,1,.41-3.52c.71-.09,1.52.26,2.11-.41.25-.27.61-.55.4-1s-.65-.28-1-.23c-.76.09-1,.77-1.31,1.28-.93.52-1.75,1.73-3,.48-.85-3.48-.57-6.67,2.46-9.09a7.94,7.94,0,0,1,12.28,2.69C91.88,25.78,91.63,26.7,91.77,27.57Z" transform="translate(0 0)"/><path class="cls-16" d="M79.88,31.39c-1.08.91-.69,2.09-.6,3.21l-5.87,7.28A6.55,6.55,0,0,1,70,40.76c-.47-.84.11-1.55.28-2.31.19-.5.44-1,.67-1.45A19.88,19.88,0,0,1,72,35.11a8.41,8.41,0,0,1,1.09-1.37c.64-.33,1-1.11,1.84-1.1L76.05,32a1.14,1.14,0,0,0,.66-.65c1.11.51,1.93-.21,2.8-.67C79.85,30.8,80,31,79.88,31.39Z" transform="translate(0 0)"/><path class="cls-8" d="M73.54,41.63a19,19,0,0,1,5.74-7l3.8-1.74a2.65,2.65,0,0,1,2.53-.54l4.23.09c.34.33.77.25,1.18.24l2.25.91,1.25.65,2.17,1.49c.76-.08,1.08.63,1.64.9a31.46,31.46,0,0,1,1.93,2.65c.31.65.88,1.22.73,2a10.54,10.54,0,0,0,.94,2.66L99.1,45.63c-.47-.37-.43-1-.54-1.45a11.58,11.58,0,0,0-10.91-8.62c-5.24.11-8.74,2.46-11,7-1,2.1-.91,4.33-.73,6.56a4,4,0,0,1,.1,1.42,6.77,6.77,0,0,1-2.83.65c-.06-.25-.13-.5-.19-.75A2.28,2.28,0,0,1,72.57,48c.08-1.18.15-2.37.23-3.55A2.84,2.84,0,0,1,73.54,41.63Z" transform="translate(0 0)"/><path class="cls-55" d="M74.94,32.64l-1.86,1.53c-1.92-.31-3.71-1.07-5.73-1.17-4.2-.2-8.77,3.66-9.1,8.52,0,.67.13,1.41-.46,1.95a14.56,14.56,0,0,1-2.54-2.23c1-5.58,3.91-9.49,9.54-10.87A11,11,0,0,1,74.94,32.64Z" transform="translate(0 0)"/><path class="cls-69" d="M108.39,14.39c1-.38,1-.38,2.21.66a2.09,2.09,0,0,0,.29,2.57.92.92,0,0,0-.89.55,1.58,1.58,0,0,1-2.23.88c-1-.43-.75-1.27-.54-2,.08-.29.09-.51-.16-.69C107.68,15.79,108.49,15.4,108.39,14.39Z" transform="translate(0 0)"/><path class="cls-70" d="M35.43,17.93c0-.1,0-.21,0-.32,0-.64-.1-1.48.51-1.71s.88.74,1.37,1.09c.43,1,1.36,1.69,1.31,2.86-.3,1.54-1.48,1.29-2.55,1.26A4.41,4.41,0,0,1,35.43,17.93Z" transform="translate(0 0)"/><path class="cls-36" d="M110,8.67a8,8,0,0,1,.7-.61c.4-.3.56-1.1,1.13-.93s.26,1,.42,1.5c-.13,1.07.22,2.2-.34,3.23a1.93,1.93,0,0,1-2.9-.64A11.62,11.62,0,0,1,110,8.67Z" transform="translate(0 0)"/><path class="cls-71" d="M73.54,41.63c-.25.95-.5,1.9-.74,2.85-4-2.82-10.3-.77-11.88,4.5a20.34,20.34,0,0,1-1.54-3.23,1,1,0,0,1,.17-.81A11.15,11.15,0,0,1,61.1,43.2a10.78,10.78,0,0,1,1.49-1.29,10.52,10.52,0,0,1,2.39-1,8.13,8.13,0,0,1,4.3-.61,1.6,1.6,0,0,1,.69.37C71.24,40.66,72.25,41.65,73.54,41.63Z" transform="translate(0 0)"/><path class="cls-72" d="M67.4,55.33c0-1.19.47-2,1.24-2s1.26.91,1.28,1.71-.41,1.74-1.24,1.74A1.4,1.4,0,0,1,67.4,55.33Z" transform="translate(0 0)"/><path class="cls-73" d="M68.62,45.81a1.9,1.9,0,0,1,1.3,1.87,1.47,1.47,0,0,1-1.33,1.53c-.85,0-1.18-.73-1.21-1.57A2,2,0,0,1,68.62,45.81Z" transform="translate(0 0)"/><path class="cls-74" d="M65.63,50.81c-1.17-.06-1.55-.82-1.72-1.67s.7-1,1.24-1c1.17,0,1.7.88,1.81,1.84S65.93,50.35,65.63,50.81Z" transform="translate(0 0)"/><path class="cls-50" d="M65.11,54.42c-.57,0-1.29.06-1.22-.81a1.68,1.68,0,0,1,1.8-1.76c.55,0,1.32,0,1.23.83C66.82,53.69,66.33,54.49,65.11,54.42Z" transform="translate(0 0)"/><path class="cls-75" d="M72.57,48c.15.82.29,1.63.44,2.45a1.56,1.56,0,0,1-.46.07c-.78-.16-2.09.83-2.2-.75C70.27,48.44,71.3,48,72.57,48Z" transform="translate(0 0)"/><path class="cls-76" d="M52.41,53.76c-1.36,0-2.75-.16-3-1.24s.57-2.3,1.74-2.93a6.67,6.67,0,0,1,1.84-.9,2.54,2.54,0,0,1,2.89,1.47,2.63,2.63,0,0,1-1.46,3.18A3.12,3.12,0,0,1,52.41,53.76Z" transform="translate(0 0)"/><path class="cls-37" d="M76,50.57c-1.53-3.47-.49-8.18,2.13-11.25a12.07,12.07,0,0,1,14-3.32c3.83,1.52,6.93,5.42,6.95,9.63-2.59,2.19-4.37,4.8-4.23,8.38-.37.11-.69.11-.91-.27a2,2,0,0,1-.43-1.17,3.93,3.93,0,0,0-3.68-3c-.76,0-.85.45-.91,1A8.65,8.65,0,0,1,88.8,53c-1,.46-.85-.52-1.19-.89-.16-1.26,0-2.71-1.67-3.13-1.4.84-3.07,1.07-4.46,1.93A9.38,9.38,0,0,0,76,50.57Z" transform="translate(0 0)"/><path class="cls-77" d="M81.48,50.9c1.08-1.59,2.84-1.59,4.46-1.93a19.83,19.83,0,0,0-2.53,3.25A6.75,6.75,0,0,1,81.48,50.9Z" transform="translate(0 0)"/><path class="cls-72" d="M106.75,51.2c-.5.3-.55,1.27-1.39,1a1.51,1.51,0,0,1-1.15-1.35c-.12-1,.32-2.08,1.23-2,1.15,0,1.32,1.28,1.31,2.33Z" transform="translate(0 0)"/><path class="cls-78" d="M102.24,51.14c1-.17,1.33.73,1.49,1.73s-.58.86-1.16.87A1.68,1.68,0,0,1,100.7,52C100.61,51.12,101.33,51.23,102.24,51.14Z" transform="translate(0 0)"/><path class="cls-62" d="M88.8,53c-.53-1-.25-2.08-.25-3.12,0-.62.39-.9,1.07-.83,2.94.29,4.36,1.81,4.34,4.7A7.7,7.7,0,0,0,88.8,53Z" transform="translate(0 0)"/><path class="cls-10" d="M119.58,41a4.13,4.13,0,0,1-2.61-.5,2.29,2.29,0,0,1-1.09-3,2.36,2.36,0,0,1,3-1.45,5.37,5.37,0,0,1,3.67,3.25c.27.51,0,.8-.39,1A3.55,3.55,0,0,1,119.58,41Z" transform="translate(0 0)"/><path class="cls-10" d="M127.5,33.93a5.6,5.6,0,0,1-2.11,3.9.6.6,0,0,1-.73.06c-1.35-.63-2.59-3.44-2.08-4.85s1.23-2.24,2.83-2A2.89,2.89,0,0,1,127.5,33.93Z" transform="translate(0 0)"/><path class="cls-56" d="M59.71,45.24l-.33.51-1.59-2.28c0-5.49,2.06-8.84,6.62-10.43a9.46,9.46,0,0,1,8.67,1.13l-.78,1a3.49,3.49,0,0,1-1.67-.43c-6.2-2.24-11.82,2.2-11,8.74A7.76,7.76,0,0,1,59.71,45.24Z" transform="translate(0 0)"/><path class="cls-15" d="M98.16,36.82c-.73-.06-.91-.85-1.47-1.12.71-4,2.13-5.73,5.22-6.33a6.09,6.09,0,0,1,6.1,9.44,6,6,0,0,1-6.08,2.62l-.94-.14-.91-1.82c.6-.37,1.12,0,1.66.17a4.37,4.37,0,0,0,5.47-3c.64-3-.93-5.29-3.82-5.69A4.65,4.65,0,0,0,98.55,35C98.48,35.62,98.66,36.29,98.16,36.82Z" transform="translate(0 0)"/><path class="cls-78" d="M81.39,27.85c-1.21.11-1.78-.5-1.85-1.65-.06-.85.53-.88,1.14-.93a1.75,1.75,0,0,1,2,1.64C82.84,27.86,82,27.81,81.39,27.85Z" transform="translate(0 0)"/><path class="cls-79" d="M87.07,27.85c-.63,0-1.24-.09-1.1-1s.63-1.66,1.77-1.58c.63.05,1.45,0,1.32.91A1.72,1.72,0,0,1,87.07,27.85Z" transform="translate(0 0)"/><path class="cls-80" d="M83.05,24.83c0-.95.31-1.72,1.16-1.74a1.44,1.44,0,0,1,1.36,1.5c0,.83-.34,1.76-1.2,1.8S83.1,25.59,83.05,24.83Z" transform="translate(0 0)"/><path class="cls-81" d="M79.88,31.39l-.37-.71a.76.76,0,0,1,0-.16,2,2,0,0,1,2.68-1.37c.59.21.49.56.35,1A1.89,1.89,0,0,1,79.88,31.39Z" transform="translate(0 0)"/><path class="cls-82" d="M87.21,29.08a1.68,1.68,0,0,1,1.85,1.61c.14.94-.83.89-1.36.93-1.13.09-1.58-.79-1.71-1.73S86.65,29.13,87.21,29.08Z" transform="translate(0 0)"/><path class="cls-83" d="M85.61,32.32a8.06,8.06,0,0,1-2.53.54s0-.1,0-.15c-.06-.93-.09-2,1-2.19S85.43,31.42,85.61,32.32Z" transform="translate(0 0)"/><path class="cls-55" d="M59.71,45.24c-2.13-4.5.9-10.28,5.93-11.3A8.28,8.28,0,0,1,72.3,35.2l-1.12,2c-.62.32-1.14-.06-1.68-.23A5.68,5.68,0,0,0,62,41.1c-.19.77-.32,1.56-.58,2.32Z" transform="translate(0 0)"/><path class="cls-84" d="M70,40.64l-.7,0c-1.36-1.27-2.32-1.29-3.68-.07a3.29,3.29,0,0,1-.83.7l-2.09,1c-.75-1.54.25-2.64,1.06-3.67,1.17-1.48,4.19-2,5.89-1.17a1.58,1.58,0,0,1,.94,1Z" transform="translate(0 0)"/><path class="cls-85" d="M70.56,38.38c-3.7-2.28-7.4-.48-7.89,3.84l-1.27,1.2c-.66-4.78,4.13-9.37,9.78-6.25Z" transform="translate(0 0)"/><path class="cls-86" d="M98.16,36.82c-.25-3.36,1-5.46,3.5-6.15A5,5,0,0,1,107,32.59a5.09,5.09,0,0,1-.18,5.82A4.85,4.85,0,0,1,101.24,40c-.39-.15-.78-.34-1.16-.5Z" transform="translate(0 0)"/><path class="cls-87" d="M64.76,41.23c.83-1.69,2.21-2.37,3.78-1.86.59.2,1.08.46.73,1.23A18.58,18.58,0,0,0,64.76,41.23Z" transform="translate(0 0)"/><path class="cls-62" d="M81.57,47.77c-1-.37-2.07-.51-2.76-1.28a2.26,2.26,0,0,1-.24-3.05c.92-1.29,2.25-1,3.49-.7a2.5,2.5,0,0,1,1.17.78c.74.78,2,1.57,1.57,2.7C84.29,47.5,82.64,47.28,81.57,47.77Z" transform="translate(0 0)"/><path class="cls-12" d="M89.79,40.52A3.24,3.24,0,0,1,89,42.91c-1.37,2-2,2-3.39.11a4.78,4.78,0,0,1-.07-4.69,2,2,0,0,1,2.24-.84,2.67,2.67,0,0,1,2,2.1A3.21,3.21,0,0,1,89.79,40.52Z" transform="translate(0 0)"/><path class="cls-62" d="M93.2,47.42c-1.45-.12-2.75,0-3.25-1.22s.64-1.89,1.3-2.67c1.09-1.29,2.6-1.15,4-.87,1,.19,1.31,1.18,1.28,2.15A2.15,2.15,0,0,1,95,47C94.34,47.21,93.64,47.56,93.2,47.42Z" transform="translate(0 0)"/><path class="cls-88" d="M102.94,38.42a3,3,0,0,1-3-3,3,3,0,0,1,3-3.07,3.13,3.13,0,0,1,3.14,3.12A3.05,3.05,0,0,1,102.94,38.42Z" transform="translate(0 0)"/><path class="cls-89" d="M103.07,37.17a1.71,1.71,0,0,1-1.93-1.73,1.67,1.67,0,0,1,1.76-1.84,1.69,1.69,0,0,1,1.87,1.74C104.85,36.49,104.13,37.05,103.07,37.17Z" transform="translate(0 0)"/></svg>