<svg id="Laag_1" data-name="Laag 1" xmlns="http://www.w3.org/2000/svg" viewBox="0 0 841.89 11.17"><defs><style>.cls-1{fill:#fff;}</style></defs><title>chalk-line</title><path class="cls-1" d="M840.91,2.08c1.24,0,.79-.56,1-.67C839.81,1.55,841,2.23,840.91,2.08Z" transform="translate(0 -0.01)"/><polygon class="cls-1" points="820.39 3.44 820.75 3.19 817.73 3.8 820.39 3.44"/><path class="cls-1" d="M801.2,3.44c1.81,1,6.95-.17,10.37.2l.56.24,1.55-.83C809.52,3.18,804.13,3.73,801.2,3.44Z" transform="translate(0 -0.01)"/><path class="cls-1" d="M791,1.21c.63.4-2.21.34,2.39.12-.24,0-.3-.07-.44-.1C792.51,1.24,791.94,1.23,791,1.21Z" transform="translate(0 -0.01)"/><path class="cls-1" d="M792.92,1.23c2,0-1.32-.34,0,0Z" transform="translate(0 -0.01)"/><path class="cls-1" d="M783.59,1.46l2.66-.36c-.55-.24-2.92-.29-2-.46C781.48.83,782,1.07,783.59,1.46Z" transform="translate(0 -0.01)"/><path class="cls-1" d="M781.07,2.21l1.38-.15A1.89,1.89,0,0,0,781.07,2.21Z" transform="translate(0 -0.01)"/><path class="cls-1" d="M785.37,1.74l-2.92.32c.38.17.42.5,1.34-.11C783.55,2.25,784.13,2,785.37,1.74Z" transform="translate(0 -0.01)"/><path class="cls-1" d="M787,1.9c1.49.22,3.42.37.75.72C792.87,2.48,792.12,1.75,787,1.9Z" transform="translate(0 -0.01)"/><path class="cls-1" d="M800.22,4.51l2,.3,1.72-.34C803.08,4.64,800.1,4.19,800.22,4.51Z" transform="translate(0 -0.01)"/><path class="cls-1" d="M767,.92c-.16.22.9.59,1.1.87l2-.25C769.06,1.39,767.15,1.25,767,.92Z" transform="translate(0 -0.01)"/><path class="cls-1" d="M768.11,1.79l-3,.38C767.79,2.21,768.27,2,768.11,1.79Z" transform="translate(0 -0.01)"/><polygon class="cls-1" points="780.59 3.35 785.43 2.56 779.66 3.36 780.59 3.35"/><polygon class="cls-1" points="755.78 0.88 757.45 0.38 754.48 1.14 755.78 0.88"/><path class="cls-1" d="M748.33,1c1.23-.42-1.7-.72-.39-1a30.43,30.43,0,0,0-5.31.77A20.94,20.94,0,0,1,748.33,1Z" transform="translate(0 -0.01)"/><path class="cls-1" d="M740,1.25c.82-.1,1.68-.28,2.61-.47A15.72,15.72,0,0,0,740,1.25Z" transform="translate(0 -0.01)"/><path class="cls-1" d="M760.15,2.06a4.44,4.44,0,0,0-2.31-.63l1.15.62Z" transform="translate(0 -0.01)"/><path class="cls-1" d="M759,2.07l0,0L756.5,2Z" transform="translate(0 -0.01)"/><path class="cls-1" d="M760.44,2.06h-.29A.23.23,0,0,0,760.44,2.06Z" transform="translate(0 -0.01)"/><path class="cls-1" d="M772.88,2.8c-1.73.35-5.33.72-1.84,1.25C772.28,3.62,770.28,3.32,772.88,2.8Z" transform="translate(0 -0.01)"/><path class="cls-1" d="M761.88,2.84,765,3c-.07-.16-.63-.4.23-.57Z" transform="translate(0 -0.01)"/><polygon class="cls-1" points="760.35 3.02 761.88 2.82 760.72 2.77 760.35 3.02"/><path class="cls-1" d="M745.37,1.83a26.83,26.83,0,0,1-4.5.33c1.79.13,3.64.19,5.39.19C746.51,2.16,747.28,1.81,745.37,1.83Z" transform="translate(0 -0.01)"/><path class="cls-1" d="M752,2l-.3,0C751.89,2.09,752,2.11,752,2Z" transform="translate(0 -0.01)"/><path class="cls-1" d="M724.46,2.16l.26.11.06-.1Z" transform="translate(0 -0.01)"/><path class="cls-1" d="M746.56,2.47a8,8,0,0,0,2.92-.23c-1,.07-2.07.11-3.22.11C746.15,2.44,746.13,2.5,746.56,2.47Z" transform="translate(0 -0.01)"/><path class="cls-1" d="M735.44,1.54c.7.13,1.49.24,2.32.34A6.17,6.17,0,0,0,735.44,1.54Z" transform="translate(0 -0.01)"/><path class="cls-1" d="M751.26,1.87a1.2,1.2,0,0,1,.2,0C751,1.71,751.07,1.77,751.26,1.87Z" transform="translate(0 -0.01)"/><path class="cls-1" d="M751.26,1.87a13.83,13.83,0,0,0-1.78.37c.81-.05,1.57-.11,2.23-.2A2.85,2.85,0,0,1,751.26,1.87Z" transform="translate(0 -0.01)"/><path class="cls-1" d="M719.48,6.13c.24-.57,3.77-1.1,6.82-.49,3-.43,1-2.31-1.58-3.37-.09.25-.09.48-3.18.82,1.08.32,6.85.74,4.25,1.25-4.09.3-3.36-.2-5.34-.5,1.69.71-5.21,1-4.32,2.09l3.59-.37C719.79,5.72,718.49,6,719.48,6.13Z" transform="translate(0 -0.01)"/><path class="cls-1" d="M730.6,2.33l1.27-.07a25.11,25.11,0,0,1-4.39-.78c-2.11.28-2.55.5-2.7.69l6.26.08Z" transform="translate(0 -0.01)"/><path class="cls-1" d="M737.58,2.26c-1,.62-4,.89-2.18,1.56,3.73,0,2.62-.52,4.84-.79-6,.16,1.73-.35-2.62-.7,1.19-.11,2.25-.14,3.25-.17-1.08-.07-2.12-.16-3.11-.28l.14,0h0a0,0,0,0,0,0,0c.26.07.35.12.06.08h-.13a.63.63,0,0,1-.27.23c-1.74-.12-.28-.16.27-.23,0,0,.07-.06.07-.09s0,0,0,0l-6,.34C733.15,2.35,734.75,2.33,737.58,2.26Z" transform="translate(0 -0.01)"/><path class="cls-1" d="M767.82,5.39c-.18-.06-.18-.1-.19-.15C767.24,5.32,767.09,5.37,767.82,5.39Z" transform="translate(0 -0.01)"/><path class="cls-1" d="M765.34,5a5.53,5.53,0,0,1,2.23-.27c1.24.19,0,.3.06.5.86-.16,3-.44.31-.75l-.42.09c-2.43-.22-5.55-1-5.12-1.08A8.37,8.37,0,0,0,765.34,5Z" transform="translate(0 -0.01)"/><path class="cls-1" d="M751.29,3.79l-5,.31,2.56.54-.13-.32C751.55,4.44,750.93,4,751.29,3.79Z" transform="translate(0 -0.01)"/><polygon class="cls-1" points="723.88 1.84 724.55 1.18 721.65 2.11 723.88 1.84"/><polygon class="cls-1" points="717.36 1.92 717.6 1.34 715.88 1.69 717.36 1.92"/><path class="cls-1" d="M349.31,9l-1.47.16A14.43,14.43,0,0,0,349.31,9Z" transform="translate(0 -0.01)"/><path class="cls-1" d="M360,9.08l.26-.28C359.75,9,359.55,9.07,360,9.08Z" transform="translate(0 -0.01)"/><path class="cls-1" d="M557.18,2c-2.15-.53-4.55-1.36-4.29-.72l.66.63A17.24,17.24,0,0,1,557.18,2Z" transform="translate(0 -0.01)"/><path class="cls-1" d="M447.48,5.74l.62.2,1.45-.61Z" transform="translate(0 -0.01)"/><path class="cls-1" d="M446,8.34l-2.83-.4A23.91,23.91,0,0,0,446,8.34Z" transform="translate(0 -0.01)"/><path class="cls-1" d="M291,9.71l-1.72.64C292,10.34,290.79,10,291,9.71Z" transform="translate(0 -0.01)"/><path class="cls-1" d="M650.56,2.16a43.49,43.49,0,0,0-4.62-.38C648.17,2.14,650,2.68,650.56,2.16Z" transform="translate(0 -0.01)"/><path class="cls-1" d="M353.51,2.37c-.9.12-1.29.24-1.26.38C353.18,2.65,353.7,2.53,353.51,2.37Z" transform="translate(0 -0.01)"/><path class="cls-1" d="M640.58,1.78c.33.07.65.1,1,.15a42.55,42.55,0,0,1,4.38-.15A13.8,13.8,0,0,0,640.58,1.78Z" transform="translate(0 -0.01)"/><path class="cls-1" d="M79.52,9.18,79,9.11C79,9.19,79.21,9.2,79.52,9.18Z" transform="translate(0 -0.01)"/><path class="cls-1" d="M17.91,2.85c.61,0,1.6,0,2.53-.05A16.25,16.25,0,0,0,17.91,2.85Z" transform="translate(0 -0.01)"/><path class="cls-1" d="M691.12,1.66c1.38,0,.22-.07,0,0Z" transform="translate(0 -0.01)"/><path class="cls-1" d="M697.85,4.14c-.3.07-.52.16-.56.31A.93.93,0,0,1,697.85,4.14Z" transform="translate(0 -0.01)"/><path class="cls-1" d="M626.8,5.69h-.12C627.1,5.81,627,5.79,626.8,5.69Z" transform="translate(0 -0.01)"/><path class="cls-1" d="M693.2,1.94c-.52-.08-1.12-.14-1.77-.19C691.72,1.8,692.25,1.86,693.2,1.94Z" transform="translate(0 -0.01)"/><path class="cls-1" d="M692.92,1.64l1.21.06C694.3,1.6,694.15,1.53,692.92,1.64Z" transform="translate(0 -0.01)"/><path class="cls-1" d="M689.19,1.69c.79,0,1.53,0,2.24.06-.27,0-.38-.07-.31-.09Z" transform="translate(0 -0.01)"/><path class="cls-1" d="M192.83,7.5l-.29-.06C191.14,7.7,191.75,7.66,192.83,7.5Z" transform="translate(0 -0.01)"/><path class="cls-1" d="M521.18,8.52a1,1,0,0,1,.15,0l-.2,0Z" transform="translate(0 -0.01)"/><path class="cls-1" d="M516.21,9a9.26,9.26,0,0,1,4.92-.53l-1.64-1.81Z" transform="translate(0 -0.01)"/><path class="cls-1" d="M323.75,9.22l3.49.56c-4.22.93-7.26.61-4,1.41.5-2,13.56-.2,14.05-2.17l2.3.41c-.66,0-.76.1-1.42.08,4.48.94,3.33-1.42,9.09-1.14,2,.15,3.41.44,2,.67l4.48-.49c1.3,0,1,.38-.32.34l6.83-.15-.05.06c1-.31,3.18-.79,4.26-1,1.73.28-.87.21-.43.45l3.78-.48c1.54.51-1.59,1-4.2.94,3.53,2,3.13-.5,10.75.65l-3.57.25c2.3,1.11,5.09.71,9.12,1.4-.95-.36-8.07-1.75-4-2.24a15.54,15.54,0,0,0,4.89-.17c0,.69,2.18.52,4.89.48l-.19.93c2.92-.27,2.69-.74,4.41-1.16,3.26.09,3.94.81,4.7,1.42,5.22.14-3.6-1.15,2.58-1.33,4.34.36,7.38,0,12.57-.58,3,.32-.53.57.56.83l2.69-.73c.66,0,.45.24.34.35,2.27-.28.19-.92,3.76-1.17,1-1,7.32,1.49,11.73.33,1.09.26-.52.57-.19.93a83,83,0,0,0,10.16-1.58l4.24.61c-3.11-.7.86-1.52,4.35-2.2-1.11-.33-2.05-.63-2.68-.77l5.55-.49c.68.15.12.47-.8.85.38-.07.74-.15,1-.22,2,.34,1,.88-.46,1.4l-2-.57c-1.37.56-2.65,1.18-2.37,1.72a10.57,10.57,0,0,1,1.82-.25c-.35.16-.58.29-.42.38s.77-.1,1.68-.34l1.26,1,.31-.41,7.27.65c5.21-1,9.73-2.57,18-3-2.05.76-.44,1.24-.55,2.14-2.25-1-6.4.4-10.68.21,2.24.1,1.75.53,1.18.68l7.63-.87c-.17.73,1.62.55,3.62.85-1.51-1.45,5.69-1,8.79-1.41.2.49-.55,1-4.34.87,4.18,1.09,5.4-1.7,9.51-.77-.93,0-1.43-.07-1.79.18,2.16-.43,7.44-.09,6.2.33h-.92c6.14.18,18.7,0,19.61-1.22a4.78,4.78,0,0,1-1.17,1.74l11-4.15c-1,1.06,2.74,3.58-2.36,4.18a25.72,25.72,0,0,0,6.36-.05c-1-.15-2.49-1.53-1.12-1.63,3.74,1.18,2.59.63,7.21,1.64-1.5-.23.16-1.89,2.53-1.83-.37.24.19,1.63-.67,1.81l5.88-1.63c-1.46.29-.26,1.38,1.06,1.84-.61-.32,5.09,0,6.65-.13l-2.49-.38c6.64.24,6.56-2.29,13.15-2.21-.8.34-2,2.07,1.38,2.28,1.54-.84,6.8-4,12.63-4.65L575,4l4.47-.54A120.43,120.43,0,0,1,564.62,8.4c2.49.38.7.56,4.42.52,1.31.45-2,.68-3.13.71l8.67.28c-.39-1,6.63-1,6.3-1.78l-9.42,1c-.38-1,5.45-2.77,11.59-2.6,1.56.39-1.17,1.74-1,2.06a24.72,24.72,0,0,1,6.39-.4l-2.61.52c3.42.37,5.58-1.29,9.69-.36,1.42.06,4.24,1.25,4.48.68-2.31-1.12-2.76-4.55-1.22-5.39.49.08,7.44,1.07,9.06,1.62,2.34.87-3.5,2.07-1.52,2.82.09-.27,1.38-.59,1.92-.7,1.49.23-.62.82,2.62.7.54-1,6.58.09,1.53-.83,3.16-.28,3.36.2,7.08.16-1.19-.64,3.33-2.17,6.5-2.45-.18.25.53.57.87.72,6.49.09,10,.54,16,.55.56.24,3.48.53,2.24,1a13.86,13.86,0,0,1,3.53-.53c3.61.85-4.16.13-1.4,1.16.23-.58,4.82-.79,7.48-1.15-.82-.89-6.14-.17-8.8.19,0-1.23,4.62-2.51,10.94-3.07,5-.3,2.18.79,3.05.62,9.44.21,8-2.14,15.88-1.26,3.11.78.14,1.55.83,2.11-4.09.3-6.28-.49-9.06-.46l3.42.37a21,21,0,0,1-5.52.23c2.6.7,15.94.13,23.23.78,1.29-.26,3.52-.53,2.47-.85l-2.31.11c-2.12-.62,4.34-.86,1.42-1.16a45.29,45.29,0,0,1,10.91-.78l.82.89c-.1-.26-2.85-.53-4.07-.26,1.81-.39,6.67,1.2,8.66,0l-3-.61c3.1-.45,6.94-1.39,10.8-1.11-1.76-.88-.89.1-3.63-.93,2.37,1.28-9.87-.05-6,1.29-2.82-1.19-4.87-.51-8.55-1.52.12.29,1.31.56-1.93.41a3.65,3.65,0,0,1-.71.26l-.22,0,.18,0c-.14,0-.15,0,.06,0a5.62,5.62,0,0,1,1.65.44c-1.6.68-6.75.65-8.49,1-1.92-.14.8-.33-.25-.65l-2.6.52c-.26-.65-5.1-1.08-.58-1.46l-4.07,0a31.78,31.78,0,0,0-7.73-.23c-1.92-.14-4.85.72-3.18.21l-6.39.4L661.74,2c-6.3-.08-13,1.08-20.18-.1a51.59,51.59,0,0,1-7.86.18L633,1.55c-2.73.2-8.19-.56-9.36,0-2.94-1.51-13.22-.33-18-.6l-.18.74c-3.3,0-6.46.16-10.56.46l.26.65c-3.53.53-9.08-.46-14.66-.4a6.48,6.48,0,0,1,2.8,0c-6.67-1.47-14.08,1.07-20.13,0a11.05,11.05,0,0,1-3.65,0,2.05,2.05,0,0,0,.37,0h-.62c-.66-.11-1.35-.24-2.09-.35a13.64,13.64,0,0,0,1.76.35c-1.16,0-2.93.1-4.65.26l-.74-.7-.4,0c-1.7-.26-1.36.33-.46.86a16.8,16.8,0,0,0-2.28.42c-1.38-1.13-4.54.38-6.42-.83-1.16.59-8.69.45-9.61,1.68-.06-.16-.57-.24.37-.25a21.23,21.23,0,0,0-5.59.07L528.35,3l-4.21,1.19c-2.56-.54-3.62-.85-1.08-1.53-6.13,1-5,.39-10.18,1.43l.25-.57c-1.86,0-4.84.79-6,.31-4.17-1.09-20.62-.15-31.32-1.16,2.08,1.69-5-.76-5.39.55-.63-.4-2.12-.62-.39-1-5.45.39-8.2-.63-12,.47-.62-.4,1.17-.58.62-.82a5.53,5.53,0,0,1-2.31.11c-.55-.24.8-.34,1.67-.51-5.58.07-6.14,1.3-6.55,2.45-2.83-.55-4.24-.47-6.28.29-1-.38-2.62-.77.84-.91-1.95-.06-11.9-.55-12.1.37a10.32,10.32,0,0,0-3.24,0c-4.37-.06-4.76-.14-9.05-.05l1.19.15c-1.7,1.12-3.57.25-7,.38l.1-.11c-7.94-.81-3.43.38-11.26-.53l.43.69c-.73,1.49-6.94-.88-11.49-.31l1.64.4c-2.48.51-6.94-2-9.43-2.22-.54-.13.86-.21,1.62-.31-6.53-.88-.85.91-5.71,1.13-.9-.5,1.15-1.25-2.12-1.34-1.63-.4-9.5,1.59-14,.65,1,.38,2,.75-.29,1-3.47.13-9.37-1.43-12.49-.24-.44-.1-.61-.2-.63-.3-2.65.31-8.6.52-10.2,1.16-2.44-2.4-16.46,1.17-16.4-1L317.51,3l.21-.22c-5.2-.15-7,.38-8.87.91-1.21-.15-.33-.35-.23-.47-7.6-.45-8.36-.35-14.74.75l-.66-.72c-1.73.42-11-1.12-18.45-.29.07-.08.22-.22.82-.32-8.4.85-20.1-2-23.17.63l-5.54.64c7.17.2-1.07,1.13,1.88,1.57-2.82.15-7.28-.79-3.82-.92l.54.13c1.27-1.37-8.9-.49-8.71-1.41-14.1.06-27.84-.69-41.05-.75l1.52,1.06-4.6-.06c-1.21-.25-1.63-.83,1.66-.79-1.73-.6-5.51.51-5.61.74-6.43-.43,2.52-1.24.54-1.26l-2.68.08.61.12c-2.17.43-2.37.89-6.32.84-2.5-.21-1.28-.65-2.26-.7,0-.07-.33-.11-1.51,0l-5.81-.09,2.33.84c-2.58.41-5.46,0-2.78.9-3.94-1.46-21.65-.52-24.07-1a62.38,62.38,0,0,1-11.56.52c1.09.17,1.75,1.12-2.05,1,1.39-1.94-7-.84-10-2.24,2.74.93-10.8.23-6.5,1.55-3.17-.16-.19-.73-2.6-1.19-7.54.75-16.63-.49-25.95-.23-.15.25,1.41.64-.59,1L82.54,2.35c-1.85.12-1.7,1.47-5.07.58.48.22,1.19.54,0,.62-18.27-1.24-37.34,1-55.9-1.31,2.52.49.84.54-1.08.56,1.25.12,0,.63.22,1l-7.77-1c-1.42,1-8.33.07-9.14,1l2.46-.16C2.94,4.71,10.79,6,10.31,7.42,14,6.19,20,9.24,26,7.48c1.33.28-1.13.45-.42.77,1.52-.6,3.36-.72,6.77-.45L32,7.94c9.58-.14,13.68.44,24.45.83l-.8-.68a21,21,0,0,1,3.88.48c2.66-1-6.49-.06-4.08-1.21,3.07,1.4,16.31,0,18.39,1.61,3.55,0-1.05-.79,2.51-.79l.94.43.9-.55c2.33.09,3.51.63,3.6,1-.57,0-1.61.1-2.22.13,3,.51,8.53-.17,9.57,0l-3.42-.27c9.71-.4,21.57.16,31-.71l-.72-.32c7.17-.6,5.74.35,13.61.08l-.29.07a28.23,28.23,0,0,1,5.83-.44c-2,.37,3.74.73,1.13,1.15,7.77-.64,3.84-.5,9-1.71l1.19.54a16.1,16.1,0,0,1,5.82-.88c-3.22.46,2.51.82-1.1,1.43,8.24,1.17,12.24-1.19,16,.53,3.78-1.49-7.14-.83-5-1.14-1.77-.49,3.13-1.12,5.72-1s4.47,1.91,11.1,1.88c-.66,0-.71.1-1.36.1,2.47.37,4.85-.52,7.89.1,1.71-.9,4,.05,4.44-1.1l-6.07.27c3.44-.3,6.67-1.64,12.34-1a17.7,17.7,0,0,1-3.29.7c1.66.34,3.2-.22,4.92.13-.49,1.14-7.39.25-11.08,1.12,1.79.49,7-.83,5.13.41,2.67-1.58,6.53.2,11-1l-.29.68A20.39,20.39,0,0,1,206,8.43l-2.36.89c3.63-.76,7,.66,10.48.25-7.29,0-1.64-.83-4.72-1.33,9-.92,5.17,1.8,15.24,1.47-1.36.09-5.11-.41-3-.73a33.42,33.42,0,0,1,5.62.76c6.68-.14-1-.7,1.82-1.13,2.27.84,3.28-.34,6.2-.61l0,.7c7.6.45,2-1.45,8.86-.91l-2.89,1,3.57-.25-.74.79a32.84,32.84,0,0,1,8.9-.21c-.89-.49.49-1.27,3.86-1.29,2.3.41-1.28.66,3.49.56A5.52,5.52,0,0,1,256,8.7c-.21.23-1.06.44-1.28.67,2.47.48,6.22.11,7.95.1a12.66,12.66,0,0,1-1.87-.16l6.92-1c1.09.26.22.47-.63.68,1.4-.08,2.37-.4,4.43-.46-.53.57-.41,1.16-3.32,1.42l6.59-.63c.44.25,3.38.68,2.53.89,3.65.33,9-1.1,13.81-.66a6.27,6.27,0,0,1,1.79-.3c4.55.13,8.59.83,14,.05l3.07,1c4.23-.23-4.15-1.29,2.89-1.67,5-.32,1.86.87,3.61,1.15,2.48-.51,6.79-1.56,11.37-.73C326.35,9.3,325.16,9.14,323.75,9.22Zm52.14-.45c-1,.15-3,.6-3.77.19C373.28,8.16,374.17,8.54,375.89,8.77Zm79.26-1.68a7.43,7.43,0,0,1-3.22-.15A15.14,15.14,0,0,1,455.15,7.09ZM676,2.22l-.11,0C673.59,2,674.39,2.09,676,2.22Zm4.68.31c.47-.1.43-.2.24-.3a7.6,7.6,0,0,1-2.58.14A4,4,0,0,0,680.64,2.53ZM178.06,2.8,179,3C176.91,3.19,177.49,3,178.06,2.8Z" transform="translate(0 -0.01)"/><path class="cls-1" d="M446.16,8a.75.75,0,0,1-.43-.38C445.34,7.78,445.33,7.92,446.16,8Z" transform="translate(0 -0.01)"/><path class="cls-1" d="M291.32,9.59h-.16a.31.31,0,0,0-.16.13Z" transform="translate(0 -0.01)"/><path class="cls-1" d="M608.14,8.45a7.92,7.92,0,0,1-1.86-.36C606.23,8.26,606.67,8.4,608.14,8.45Z" transform="translate(0 -0.01)"/><path class="cls-1" d="M705.44,1.34l-3,.18a11.78,11.78,0,0,1,2.7.23C705.07,1.59,704.5,1.35,705.44,1.34Z" transform="translate(0 -0.01)"/><path class="cls-1" d="M731.46,5.66c.43-.08.93,0,1.36-.09l-.12-.33C730.83,5.26,729.53,5.52,731.46,5.66Z" transform="translate(0 -0.01)"/><path class="cls-1" d="M708.21,3.66c.24.59,2.12.39,4.22.28-.13,0-.25,0-.37,0C712.68,3.12,710.44,3.39,708.21,3.66Z" transform="translate(0 -0.01)"/><path class="cls-1" d="M712.92,3.92c.64,0,1.3,0,1.94,0C715.1,3.58,714.07,3.84,712.92,3.92Z" transform="translate(0 -0.01)"/><path class="cls-1" d="M686.57,2.14c1,.15.63-.75,1.19-.51C688.87.88,681.12,2.53,686.57,2.14Z" transform="translate(0 -0.01)"/><polygon class="cls-1" points="709.91 5.58 709.16 4.86 707.98 5.44 709.91 5.58"/><path class="cls-1" d="M693.33,5.06l3.36.21c-.05-.13.37-.2.9-.25C695.52,5,693.25,4.85,693.33,5.06Z" transform="translate(0 -0.01)"/><path class="cls-1" d="M697.59,5a15.91,15.91,0,0,0,2.7-.12C699.7,4.91,698.45,4.93,697.59,5Z" transform="translate(0 -0.01)"/><polygon class="cls-1" points="705.33 5.8 704.33 5.65 701.96 5.6 705.33 5.8"/><path class="cls-1" d="M657.26,4.92l-3.66.21c-.37.25.62.4,2,.3C656.47,5.26,657.82,5.16,657.26,4.92Z" transform="translate(0 -0.01)"/><path class="cls-1" d="M668.34,6.91a4.29,4.29,0,0,1-1.62-.55l-.11.9Z" transform="translate(0 -0.01)"/><path class="cls-1" d="M657.66,7.12c-.37.25-5.32.72-.68.66C657.36,7.53,661,7.33,657.66,7.12Z" transform="translate(0 -0.01)"/><polygon class="cls-1" points="602.48 5.97 603.41 5.96 603.28 4.48 602.48 5.97"/><path class="cls-1" d="M553.85,9.51c4.34.35,1-.91,4.95-.47,1-.35-3.21-.36-2.16-.66C554,8.75,552.64,8.54,553.85,9.51Z" transform="translate(0 -0.01)"/><path class="cls-1" d="M556.64,8.38c.42-.06.86-.13,1.34-.22A9.7,9.7,0,0,0,556.64,8.38Z" transform="translate(0 -0.01)"/><polygon class="cls-1" points="7.69 2.04 4.9 1.73 6.7 2.23 7.69 2.04"/><path class="cls-1" d="M2.33,3.15l-.65-.94L0,3.06A7.12,7.12,0,0,1,2.33,3.15Z" transform="translate(0 -0.01)"/><path class="cls-1" d="M383.64,10.66l.21-.22a5.67,5.67,0,0,0-2.39-.31Z" transform="translate(0 -0.01)"/><polygon class="cls-1" points="345.8 9.95 346.45 9.96 345.23 9.12 345.8 9.95"/><path class="cls-1" d="M314,11c1.3,0,2.82-.15,4.12-.12C315.33,11.08,313.68,10,314,11Z" transform="translate(0 -0.01)"/></svg>