<svg id="curtain-right" xmlns="http://www.w3.org/2000/svg" viewBox="0 0 268 275.09"><defs><style>.cls-1{fill:#871633;}</style></defs><title>curtain-right</title><path class="cls-1" d="M2,173.37c-.77-12.33-4-70.14,0-100.94,4.53-34.6,0-54.34,0-54.34V7.71H7.42V0H18.3V7.71H48.23V0H59.11V7.71h49V0H119V7.71h29.92V0h10.89V7.71h47.16V0h10.88V7.71h29.93V0h10.88V7.71h5.74V18.19s8.16,134.65,0,167.39,0,87.07,0,87.07-52.9,5.5-85.56,0-73.35,0-73.35,0-30.93,5.06-44.39,0-59.09,0-59.09,0c5.74-22.91.15-96.93.15-96.93S2.07,174.89,2,173.37Z" transform="translate(0 0)"/></svg>