<svg id="bottle" xmlns="http://www.w3.org/2000/svg" viewBox="0 0 122.49 251.63">
  <defs>
    <style>
      .cls-1{fill:#d4d4d4}.cls-2{fill:#ececec}.cls-3{fill:#ca0610}.cls-4{fill:#e30713}.cls-5{fill:#c60510}.cls-7{fill:#af0a0f}.cls-11{fill:#e20813}.cls-12{fill:gray}.cls-23{fill:#ab080f}
    </style>
  </defs>
  <path class="cls-1" d="M116.62 131.49c-.12 4.14-.71 8.24-.92 12.37-.14 2.79-.35 5.57-.54 8.35-.28 4-.62 8-.92 12-.18 2.46-.33 4.92-.51 7.38-.31 4.2-.71 8.4-.91 12.61q-.19 3.71-.54 7.38a64.57 64.57 0 0 0-.23 6.81.9.9 0 0 1-.24.78.9.9 0 0 1-.33-.74c0-1.15-.55-1.34-1.57-1.33H85.26a6.37 6.37 0 0 1-1.31-.09 6 6 0 0 0-1.89-.2h-13.1a8.24 8.24 0 0 1-1.79-.09 5.33 5.33 0 0 0-1.78-.14H49.8c-.53 0-1.44.26-1.46-.5 0-.51.91-.44 1.44-.44h15.23c1.78 0 1.77 0 1.77-1.82v-60c0-1.75 0-1.76-1.78-1.76H19.55c-.71 0-1.64.39-2.07-.64a3.24 3.24 0 0 1 2.2-.35c15.29-.05 30.58.08 45.87 0h1.8c3.27-.08 6.53 0 9.8 0a7.46 7.46 0 0 0 1.16 0q9.61-.1 19.22 0h.71c5.68-.08 11.37 0 17 0a1.86 1.86 0 0 1 1.38.42z"/>
  <path class="cls-2" d="M17.53 131.43c.35.52.88.28 1.32.28h47c1.06 0 1.31.22 1.31 1.32q-.08 30.6 0 61.2a2.4 2.4 0 0 0 0 .6c.28 1-.18 1.24-1.11 1.23H48.23a2.28 2.28 0 0 0 1.39.23h16.2c.45 0 1-.18 1.36.25l-.18.15a3.7 3.7 0 0 1-1.65.17H24.16c-.46 0-1-.17-1.37.22a21.82 21.82 0 0 0 .21 4.12c0 .93.36 1.89-.28 2.75a20.84 20.84 0 0 1-.87-8.21 22.1 22.1 0 0 0-.14-5.81c-.26-1.7-.25-3.41-.36-5.1-.29-4.44-.7-8.86-1-13.3-.13-1.9-.25-3.81-.23-5.72 0-1.07-.7-2.07-.27-3.16a6.65 6.65 0 0 0 .06-2.63c0-2.3-.71-4.51-.76-6.78-.09-3.64-.74-7.24-.78-10.89 0-3.09-.44-6.17-.68-9.26 0-.15 0-.41-.11-.44-1.9-.68-.51-2-.6-3.05a33.48 33.48 0 0 1 0-3.47c.11 0 .27.06.29.18.32 1.69.94 3.39.26 5.12z"/>
  <path class="cls-3" d="M83.93 196.75c3.19-.23 6.39-.06 9.58-.08h17.5c.73 0 .9.23.84.88s0 1.12 0 1.67c-.31 4.18-.64 8.35-1 12.52q-1 14.37-2.08 28.75c-.13 1.83-.23 3.66-.35 5.49a18.21 18.21 0 0 1 .12 3.54c-.19 1.83-.5 2.15-2.3 2.15H39.75a3.79 3.79 0 0 1-1.42-.16.82.82 0 0 1-.51-.9 4.71 4.71 0 0 1 3.59-.2 11.6 11.6 0 0 0 2.48.3h15a8.27 8.27 0 0 0 3-.35 3.93 3.93 0 0 1 2.25-.1c1.85.49 3-.4 4.06-1.7.19-.25.46-.45.67-.68.6-.63 1.13-.59 1.72 0s1.46 1.48 2.2 2.21c-.76-.76-1.51-1.53-2.28-2.28-.55-.52-.6-1 0-1.51s1.08-1.07 1.62-1.61c-.55.54-1.1 1.07-1.63 1.63a.92.92 0 0 1-1.46.05c-.67-.63-1.32-1.27-1.94-2a1.17 1.17 0 0 1-.39-1.09c.57-1.77.17-3.57.19-5.36.06-5.59 0-11.18 0-16.78a18.6 18.6 0 0 0-.56-6.17 1.73 1.73 0 0 1 .71-1.32c5.58-5.6 11.22-11.27 16.88-16.9z"/>
  <path class="cls-4" d="M17.53 131.43a39.24 39.24 0 0 0-.48-5.3 25.38 25.38 0 0 0-.3-4.69 5.12 5.12 0 0 1 .06-1.29 4 4 0 0 1 .94-1.23l14.67-14.67c1.32-1.31 1.4-1.31 2.67 0L46.88 116l-12.13-12.15c-1-1-1-1 0-2 2.92-2.9 5.83-5.82 8.75-8.73A4.36 4.36 0 0 1 45.13 92a5 5 0 0 1 2.57-.41c5.66.14 11.29.8 17 .71 2.23 0 2.85.65 2.87 2.85v3.11c0 .5 0 1.06-.47 1.4a1 1 0 0 1-.89-.14c.91.89 1.66 1.64 2.4 2.4 1.08 1.09 1.09 1.24 0 2.31-3 3-6 5.95-9 9-.91.92-1.85 1.84-2.76 2.77 2.83-2.82 5.65-5.65 8.48-8.46.47-.47.91-1.08 1.73-.71a2.1 2.1 0 0 1 .52 1.78c0 7-.05 14.07.06 21.1 0 1.18-.69 1.14-1.49 1.14H44.53a2.67 2.67 0 0 0-1.21.07c.23-.15.57-.07.9-.07h21.94c.45 0 1.31-.42 1.24.68H18.74c-.41-.05-.81-.08-1.21-.1zM22.75 204c.08-2.4-.36-4.78-.46-7.17.32-.25.69-.14 1-.14h43.6a.33.33 0 0 1 .35.23c-.07.84-.73.59-1.19.59H56.7h9.53c1.66 0 1.67 0 1.29 1.59a8.6 8.6 0 0 0-.22 2.14 95.18 95.18 0 0 0 .22 9.7 4.63 4.63 0 0 1-.17 2 5.31 5.31 0 0 1-1.67 2.14Q50.35 230.42 35 245.74c-1.07 1.07-1.41 1.16-2.38.14-2.22-2.34-4.56-4.58-6.81-6.9-.19-.2-.2-.53-.48-.66q-.75-8.06-1.12-16.12c.31-.2.28-.46.09-.71a1.43 1.43 0 0 1-.23-1c0-.3-.15-.72.15-.89s.64.19.92.41a2.18 2.18 0 0 0 .61.44c-.19-.55-.63-.78-.9-1.15s-.48-.68-.15-1.07a.94.94 0 0 1 1.2-.19c.44.2.71.63 1.13.85-.73-.77-1.28-1.83-2.7-1-.68.39-.37-.46-.59-.68q-.49-6.66-.99-13.21z"/>
  <path class="cls-5" d="M67.4 131.46c-.21-.78-.86-.45-1.3-.45H43.66a2 2 0 0 1-1.31-.17c.4-.47.91-.3 1.35-.3h22c1.18 0 1.6-.08 1.57-1.52-.13-7 0-13.91-.06-20.87 0-.57.2-1.27-.7-1.41 0-.89.78-1.23 1.28-1.73 2.2-2.21 1.65-2.24 3.87 0l11 11L71 104.32c-1.29-1.28-1.29-1.29 0-2.61l1.35-1.36c-.67.65-1.32 1.3-2 2-.48.5-1 .57-1.41 0-.74-.95-2-1.45-2.31-2.76.47-.15.5-.48.49-.91V94.6c0-1.36-.46-1.93-1.94-2s-2.95.05-4.43 0c-4.35-.2-8.7-.45-13-.71a6.41 6.41 0 0 0-2.91.49.59.59 0 0 1 .28-.71c-.5.39-.89 1.06-1.69.66a11.86 11.86 0 0 0-4.9-.8c-5.18 0-10.36.08-15.53 0-1 0-1.29-1-2-1.35-.05.45 1.62.43.39 1.3a36.43 36.43 0 0 1-4.67.08c-.93 0-1.27.35-1.29 1.27s.31 1.92-.37 2.77l-.19-.08a13.92 13.92 0 0 1-.51-4.67c-.06-2.38-.06-2.38 2.33-2.39h40.8q10.44 0 20.88-.1a2.06 2.06 0 0 1 .82.11 1.57 1.57 0 0 1 .66.82c1.25 2.8 3.57 3.89 6.49 4h1.43a7.49 7.49 0 0 0 3.41-.47 1.46 1.46 0 0 1 .83-.08 131.61 131.61 0 0 0 18.41.76 5.36 5.36 0 0 1 3.39.91c.35.75-.12 1.21-.59 1.66-3.42 3.29-6.74 6.67-10.09 10-6.77 6.77-13.48 13.59-20.25 20.34-1.41 1.41-2.86 2.78-4.23 4.24a4.57 4.57 0 0 1-1.41.86z"/>
  <path d="M61.43 71.2q-.91-8.58-1.82-17.15-1.52-13.94-3-27.86c0-.28-.09-.56-.13-.83-.42-2.66-.42-2.64-3.08-3.3l-29.18-7.25c-.4-.38-.3-.89-.37-1.35-.51-3.74-2.85-6.6-5.94-7.36a9.27 9.27 0 0 0-9.68 3.11 8.06 8.06 0 0 1-.83 1.31C5 10.23 2.75 9.43.41 8.91 0 8.82 0 8.57 0 8.21.68 5.65 1.33 3.1 1.93.53 2.11-.27 2.55 0 3 .16l24.77 6.15 33.36 8.27a4.52 4.52 0 0 1 3.79 4.22c.68 6.07 1.32 12.15 2 18.23q1.75 16.15 3.53 32.3c.11 1 .23 2.06.35 3.1.23.59 0 1-.6 1a59 59 0 0 1-8.41-.11c-.58-.63-.02-1.45-.36-2.12z" fill="#3c3c3c"/>
  <path class="cls-3" d="M116.62 131.49H98.13a8.09 8.09 0 0 1-1.63-1.57q-3.8-3.75-7.56-7.55c-.94-1-.93-1.1 0-2 5.06-5.37 10.33-10.49 15.54-15.66 1.36-1.35 1.37-1.34 2.84 0 1.88 1.78 3.65 3.68 5.19 5.12-1.42-1.44-3.23-3.16-5-5-.17-.17-.36-.32-.52-.5-1.12-1.22-1.11-1.2 0-2.37 2.35-2.44 4.88-4.71 7.13-7.25a1.5 1.5 0 0 1 .94-.5 6.16 6.16 0 0 1 2.59-.3c1 .08 1.34.49 1.29 1.47-.16 3.24-.56 6.45-.84 9.68-.07.84.25 1.63.15 2.46-.08 4.48-.57 8.92-.87 13.38-.18 3.59-.49 7.1-.76 10.59z"/>
  <path class="cls-1" d="M79.4 88.77a2.75 2.75 0 0 0-1.4-.11H16.82c-2.22 0-2.22 0-2.25 2.23a2.16 2.16 0 0 1-.24-2.27c.19-.56.87-.46 1.37-.49s1 0 1.56 0H64c3.06 0 2.73.23 2.75-2.8v-7.32a3 3 0 0 1 .29-1.74 2.82 2.82 0 0 1 2-.37h19.31a6.07 6.07 0 0 0 2.35-.34c.24.7.78.73 1.42.73h21a9.13 9.13 0 0 1 8.8 7.75c.2 1.17.41 2.34.59 3.52s-.34 1.34-1.12 1.13-1.25.14-1.57.81a2.83 2.83 0 0 0-1.91-.42c-3.59.17-7.18 0-10.77.07-4.22 0-8.44 0-12.66-.09-1.19-.42-2.35.27-3.54.07h-2.16a27.84 27.84 0 0 1-4-.08A6 6 0 0 0 82 89a3.42 3.42 0 0 1-2.6-.23z"/>
  <path class="cls-2" d="M67.15 76.29V87.2c0 1.1-.33 1.31-1.36 1.31H16.14c-2 0-2.26.36-1.61 2.41a33.2 33.2 0 0 1 .3 4.57c-1.23-1-.79-2.53-.8-3.79a13 13 0 0 1-.03-2.6c.08-.45-.52-.53-.75-.31s-.4.9-.82.56a1.63 1.63 0 0 1-.69-1.44c.52-2.69.61-5.5 2.28-7.87a9.5 9.5 0 0 1 3.77-3c.55-.27 1.09-.49.48-1.26a.94.94 0 0 1 .08-1c.51.06.28.48.33.74.17.77.5 1.1 1.18.45.14-.13.18-.39.42-.17 1 .9 2 .63 3.1 0 .45-.25.86.3 1.36.38a19.18 19.18 0 0 0 3.12 0c4.68.06 9.36 0 14 0 .55 0 1.13.07 1.51-.48 1.78.18 3.56.07 5.35.09h16.94c.55.13 1.09.06 1.49.5z"/>
  <path class="cls-4" d="M15.06 95.55c0-1.12.07-2.23 0-3.34 0-.86.29-1.09 1.1-1.07h5.61a2 2 0 0 1 1 .75q4.92 4.91 9.83 9.82c1.09 1.09 1.08 1.23 0 2.31q-7.37 7.38-14.75 14.74c-.32.31-.55.83-1.15.71-.21-2.41-.45-4.83-.63-7.25q-.57-7.86-1.1-15.74c.03-.3.08-.62.09-.93z"/>
  <path class="cls-7" d="M94.28 88.72c1.59 0 3.18-.07 4.77-.07 6.56 0 13.11 0 19.67-.05.67 0 1.06.13 1 .87-.3 3.88-.44 7.79-1 11.64-.3 2.17.14 4.37-.49 6.49a3.07 3.07 0 0 1-.07-3.33.31.31 0 0 0 0-.23c-.74-2.9.81-5.65.53-8.53-.09-1-.48-1.28-1.33-1.23s-1.69.15-2.54.23c.18-.93 1.06-1.3 1.6-2a17.05 17.05 0 0 1 1.41-1.41c-1 1-1.94 1.94-2.93 2.9-.35.34-.65.83-1.27.72a3.79 3.79 0 0 0-2.44-1c-2.55 0-5.11-.05-7.66 0a81 81 0 0 1-10.45-.61c-2-.19-3.74.91-5.65.34 0-.55.54-.5.88-.64a7.53 7.53 0 0 0 4-3.36 1.38 1.38 0 0 1 1.97-.73z"/>
  <path d="M67.15 76.29h-6c-.2-.92.54-.93 1.07-1a23.2 23.2 0 0 1 3.23-.06c.7 0 1.26-.13 1.38-1a.77.77 0 0 1 .92-.71h1.86c-1.79-.2-3.83.43-5.89.25a11.41 11.41 0 0 1-1.43-.07c-.31-.07-.76-.06-.65-.61 2.85.24 5.71.1 8.57.16.64 0 .51-.45.55-.82.22.71.76.76 1.4.76 5 0 10 .1 14.94-.07 2-.06 3.16.45 3.56 2.43 0 .93-.64.72-1.16.72H67.15z" fill="#c1c1c1"/>
  <path d="M61.67 73.09c.28.54.78.3 1.17.3 2.54 0 5.09 0 7.63.24H68.2c-.76 0-1.15.18-1 1s-.24 1-1 1h-3.7c-.55 0-1.16 0-1.32.7H44.45c-.4 0-.93.21-1-.47 0 0 .08 0 .08-.08.34-2.42 1.89-2.69 4-2.6 3.93.16 7.88 0 11.83 0 2 0 2 0 2.1-2a4.65 4.65 0 0 1 .21 1.91z" fill="#d9d9d9"/>
  <path d="M38.1 251.15h-.44a2.29 2.29 0 0 1-.95-.61c-.71-.7-1.44-1.37-2.09-2.1s-1.09-.61-1.66 0-1.22 1.24-1.84 1.85a3 3 0 0 1-1.17.83h-.66c-.13-.4.18-.6.38-.86l2.44-2.45c.89-.91.9-1 0-1.9-1.88-1.89-3.76-3.78-5.65-5.65a4.78 4.78 0 0 1-1-1.32l-.06-.66a7.5 7.5 0 0 1 2.1 1.91c1.7 1.74 3.53 3.35 5.09 5.23 1 1.18 1.23 1.13 2.33 0l28.21-28.22c1.3-1.3 2.57-2.63 3.84-3.94a11.08 11.08 0 0 1 1.76-2.11q6.61-6.58 13.21-13.2a5.09 5.09 0 0 1 1.2-1.06c-.2.17-.62.11-1 .11H68.49a1.87 1.87 0 0 1-1.26-.27v-.09c-.07-.05-.09-.09-.06-.13s.06-.06.08-.06c4.51 0 9 0 13.54.07a10.47 10.47 0 0 1 3.21.15c0 .58-.45.82-.77 1.15L67.9 213.17c-.51.51-1 1.05-1.46 1.58a3.59 3.59 0 0 1-1.11 1.39L35.78 245.7c-1.21 1.21-1.19 1.19 0 2.42a9.3 9.3 0 0 1 2.12 2.39z" fill="#f1262d"/>
  <path class="cls-11" d="M25.41 239c2.5 2.47 5 4.94 7.5 7.39.41.4.42.7 0 1.09-1.07 1-2.12 2-3.18 3.06a3.81 3.81 0 0 1-2.44.27c-.36 0-.7-.18-.95.21a33.07 33.07 0 0 1-.44-4.43c-.06-.46.07-.95-.22-1.38.17-2.1-.45-4.15-.27-6.21z"/>
  <path class="cls-12" d="M7.4 10.52c0-1.28.88-2 1.7-2.73C12.31 5 17.36 4.54 20.69 7.1a9 9 0 0 1 3.53 7.71l-1.71-.48a2.32 2.32 0 0 1-.51-1.18 6.3 6.3 0 0 0-5.11-4.83 6 6 0 0 0-6.42 2.19 6.32 6.32 0 0 1-.64.72 9.68 9.68 0 0 1-2.43-.71z"/>
  <path d="M16.77 119.49c2.27-2.24 4.56-4.47 6.82-6.72 3-3 6-6.06 9.08-9 .64-.62.65-1 0-1.61-3.36-3.3-6.68-6.64-10-10-.3-.31-.58-.65-.88-1-.4-.67-1.33-.86-1.62-1.88 1.1.39 1.52 1.43 2.36 1.9a4 4 0 0 1 1.32 1c2.95 3 6.05 5.91 8.91 9 .82.88 1.11.87 2 0 2.66-2.65 5.31-5.31 8-8 .36-.36.65-.82 1.21-.93.66-.34 1-1.15 1.89-1.33-.14.63-.75.84-.94 1.32l-9.38 9.26c-1.29 1.29-1.29 1.29 0 2.56l11.36 11.37c.28.28.54.57.88.92-.71.25-.94-.29-1.24-.58-3.94-3.92-7.88-7.84-11.78-11.8-.66-.67-1-.67-1.7 0-5.06 5.12-10.16 10.19-15.25 15.28-.28.28-.59.52-.89.78-.12-.1-.14-.32-.15-.54z" fill="#f6252e"/>
  <path d="M9.81 11.23a5.16 5.16 0 0 1 4.54-3.33c4.33-.49 7.78 2.17 8.16 6.43a3.71 3.71 0 0 1-1.69-.42 6.51 6.51 0 0 1-.91-1.55 4.7 4.7 0 0 0-7-1.54c-.65.49-1.27 1-2.16.66z" fill="#3d3d3d"/>
  <path class="cls-12" d="M10.75 11.48a2.06 2.06 0 0 0 1.59-.59 5.08 5.08 0 0 1 8.48 3 17.65 17.65 0 0 1-3.14-.72.32.32 0 0 1 .52 0c-2.32-1.29-2.32-1.29-3.82-.75z"/>
  <path d="M23.76 217.15c.23.14.16.93.77.31a1.06 1.06 0 0 1 1.52 0 4.16 4.16 0 0 1 1.64 1.82c.12.38-.38.32-.59.14-.4-.33-.74-.73-1.14-1.06a.74.74 0 0 0-1.08 0c-.36.4.12.6.29.89.35.55 1.57.94 1 1.59s-.95-.68-1.52-1l-.34-.14a2.08 2.08 0 0 0 .38 1.92c.36.41.43.9-.42.58a27.59 27.59 0 0 1-.51-5.05z" fill="#f35159"/>
  <path d="M14.38 12.39c.7-1 1.59-.75 2.5-.4a5.64 5.64 0 0 1 1.48 1.09l-.68.11z" fill="#3f3f3f"/>
  <path class="cls-3" d="M97.64 131.46H78.2c-.09-.77.58-1.13 1-1.52 2.66-2.52 5.2-5.16 7.79-7.75.68-.68 1.15-.76 1.86 0 2.67 2.73 5.39 5.42 8.09 8.13.31.3.73.59.7 1.14z"/>
  <path d="M97.64 131.46q-4.64-4.68-9.25-9.37c-.29-.29-.51-.45-.87-.07-3.07 3.19-6.35 6.17-9.32 9.45h-1q7.91-7.65 15.59-15.55c2.29-2.37 4.7-4.62 7-7 2.78-2.78 5.51-5.6 8.28-8.38 1.57-1.58 3.19-3.11 4.77-4.68.33-.33.78-.59.82-1.13 1.84-1.15 3.07-3 4.91-4.17l-3.72 3.91c-2.75 2.72-5.49 5.44-8.25 8.14-.44.43-.32.71 0 1.08 1.64 1.62 3.23 3.27 4.88 4.87a15.32 15.32 0 0 1 2 2.35c-.49.11-.62-.25-.82-.45-2.1-2.08-4.2-4.17-6.27-6.28-.52-.52-.75-.61-1.36 0-2 2.2-4.08 4.36-6.3 6.35-3.58 3.19-6.65 6.87-10.12 10.16-.57.54-.18.79.17 1.13l7.88 7.89a5.89 5.89 0 0 1 1.33 1.65z" fill="#de282f"/>
  <path class="cls-1" d="M67.17 196.52a.4.4 0 0 1 0 .19H23.74c-.48 0-1 .06-1.43.1 0-.22.07-.35.35-.35l44.3.07z"/>
  <path class="cls-4" d="M37.88 250.51c-1-1-2.05-2-3.11-3-.51-.47-.48-.8 0-1.26 1.15-1.1 2.27-2.25 3.4-3.38l27.28-27.28c.31-.31.65-.58 1-.87a11.78 11.78 0 0 1 .74 4v21c0 1.22.6 2.51-.29 3.7-.16.21.18.57.39.82 2.23 2.65 2.23 2.65 4.69.21.3-.3.53-.71 1.11-.83-.07.84-.77 1.16-1.22 1.62-1.76 1.82-1.78 1.81 0 3.59l2 2c-.53.31-.75 0-1-.24-.78-.76-1.58-1.48-2.28-2.3s-1.08-.88-1.75 0a19.54 19.54 0 0 1-2 2c-.39.37-.58.77-1.47.38a5.45 5.45 0 0 0-3.63 0 4.56 4.56 0 0 1-1.49.31c-5.76 0-11.52.08-17.28-.05-1.71-.03-3.38-.55-5.09-.42z"/>
  <path d="M78.69 229.45c0-4.22 3.31-7.62 7.87-8.2a8.69 8.69 0 0 1 9.88 8.84 8.43 8.43 0 0 1-1.79 5c-.29.38-.71.89-1.15.65s0-.78.11-1.17a11.69 11.69 0 0 0 1.16-4.11 6.91 6.91 0 0 0-4.23-6.26c-3-1.17-5.8-.62-7.8 1.54a6.08 6.08 0 0 0-.43 7.34 5.09 5.09 0 0 0 5.88 2.07 4.09 4.09 0 0 0 1.9-6.77 3.24 3.24 0 0 0-4-.18 2.64 2.64 0 0 0-.38 3.48 1.29 1.29 0 0 0 1.56.58c.61-.2.5-.67.38-1.18a.87.87 0 0 1 .75-1.15c.67-.1 1 .3 1.13 1a2.64 2.64 0 0 1-3.2 2.76 3.55 3.55 0 0 1-2.89-2.55 4.09 4.09 0 0 1 1-4.22 5.11 5.11 0 0 1 8.49 1.92 5.73 5.73 0 0 1-1.21 6.42 7.09 7.09 0 0 1-6.72 2.2c-4.1-.77-6.35-3.67-6.31-8.01z" fill="#de5c61"/>
  <path d="M66.68 99.56c.86.89 1.73 1.77 2.56 2.69.4.44.65.24 1-.09.64-.66 1.29-1.31 2-1.94a1.06 1.06 0 0 1 1.18-.5c-1 1-1.72 1.82-2.59 2.58-.64.57-.57.91 0 1.49 4 3.9 7.87 7.84 11.8 11.77l.86.92c-.71.23-.94-.3-1.24-.6-3.86-3.83-7.73-7.65-11.52-11.55-.84-.86-1.31-.82-2 .06s-1.46 1.57-2.2 2.35q-4.6 4.55-9.21 9.07c-.32.31-.54.82-1.36.7l.93-1c3.92-3.92 7.84-7.86 11.79-11.76.59-.59.62-.92 0-1.49-1.1-1-2.11-2.09-3.27-3.25.74-.18.86.46 1.27.55z" fill="#de252d"/>
  <path d="M67.17 196.8h16.06c.16.23 0 .36-.16.49l-15.85 15.84a2.23 2.23 0 0 1-.3.2c.48-1.46.08-2.91 0-4.37-.09-2.4 0-4.8 0-7.2a7.92 7.92 0 0 1 .66-4H47.31c.42-.73.95-.52 1.38-.53h17.27c.42-.01 1.04.26 1.21-.43z" fill="#cc0611"/>
  <path d="M28 215.16c-.59.51-.28 1 .1 1.41a.87.87 0 0 0 1.36 0c.26-.23.58-.64.89-.23s-.15.72-.46.93a1.81 1.81 0 0 1-2.41-.19 1.64 1.64 0 0 1-.36-2.16 1.1 1.1 0 0 1 1.49-.61c.74.35.45 1.14.37 1.71s-.43.18-.6-.05 0-.62-.38-.81z" fill="#f8535b"/>
  <path class="cls-4" d="M43.88 92.37l-9.6 9.71c-.37.38-.61.26-1 0a14.73 14.73 0 0 1-1.91-2c-3-3-5.9-6-8.85-8.93 6.15 0 12.31-.06 18.46 0a3.93 3.93 0 0 1 2.9 1.22z"/>
  <path d="M94.28 88.72a1.47 1.47 0 0 0-1.61 1c-1 2.13-3 3.11-5.14 3.81a8.21 8.21 0 0 1-6.31-1.82 5 5 0 0 1-1.82-3c1.76.11 3.51-.61 5.27 0a.7.7 0 0 1-.26.19c-.45.16-.94 0-1.5.2a2.92 2.92 0 0 0 1.26 1.27l.3.16a4.59 4.59 0 0 0 5.65-1.13 3.85 3.85 0 0 1 .82-.69c1.12.17 2.22-.46 3.34.01z" fill="#d15a5f"/>
  <path class="cls-23" d="M90.94 88.76a4.76 4.76 0 0 1-6.76 1.94 47.11 47.11 0 0 1 4.58-1.92 6.14 6.14 0 0 1 2.18-.02z"/>
  <path class="cls-7" d="M88.76 88.78c0 .11-.06.31-.12.33-1.54.39-2.76 1.68-4.46 1.59-.14-.19-.32-.35-.48-.53s-.52-.56-.22-.92.56-.2.87-.06c0 0 .16.3.17 0 0-.1-.08-.22 0-.34a.42.42 0 0 0 .19-.09z"/>
  <path class="cls-3" d="M30 251.18l1-.91c.16 0 .32-.1.46-.07a15.21 15.21 0 0 0 5.54.31l.74.67c-2.65.11-5.22.1-7.74 0zM26.34 251c.13-.24-.32-.87.59-.57a10.39 10.39 0 0 0 2.8.09l-.44.64c-.99.02-1.99.34-2.95-.16z"/>
  <path class="cls-5" d="M114.52 91.51H95.4v-.21h19.11zM93.17 92l.7-2.11a.79.79 0 0 1 .9-.61c.23 0 .52 0 .62.23.17.44-.17.69-.44.89-.6.38-.79 1.23-1.78 1.6z"/>
  <path class="cls-11" d="M36.92 250.51c-2 1-4 .4-6-.24.8-.84 1.6-1.66 2.38-2.5.35-.37.64-.39 1 0 .86.92 1.7 1.83 2.62 2.74z"/>
  <path class="cls-3" d="M66.87 244.64l.59.53c2.12 2.07 2.12 2.14-.55 4 .95-1.56.45-3.02-.04-4.53z"/>
  <path class="cls-23" d="M84.48 88.85l.79.69a2.16 2.16 0 0 1-.22.16c-.55.2-1-.79-1.38-.31s.67.72.52 1.31a1.69 1.69 0 0 1-.34-.1c-.58-.46-1.59-1-1.39-1.58s1.31-.24 2.02-.17z"/>
</svg>
