<svg xmlns="http://www.w3.org/2000/svg" viewBox="0 0 850.39 850.87"><defs><style>.cls-1,.cls-11{fill:#f2f2f2;}.cls-2{fill:#353535;}.cls-3{fill:#dd2929;}.cls-4{fill:#bc2321;}.cls-5{fill:#dbdbdb;}.cls-6{fill:#c7c6c6;}.cls-7{fill:#e2e1e1;}.cls-8{fill:#cfcece;}.cls-9{fill:#f4f3f4;}.cls-10{fill:#5898d2;}.cls-11{opacity:0.5;}</style></defs><title>drink-back</title><g id="Laag_10" data-name="Laag 10"><rect class="cls-1" y="0.27" width="850.39" height="850.39"/></g><g id="Laag_9" data-name="Laag 9"><path class="cls-2" d="M477.84,321.54,434,344.37a2.26,2.26,0,0,0-1.39,2.89l1.14,3.27a2.26,2.26,0,0,0,2.89,1.4l41.75-22a2.27,2.27,0,0,1,2.89,1.4L531.34,475a2.27,2.27,0,0,0,2.89,1.4l3.36-1.17a2.27,2.27,0,0,0,1.4-2.89L488.16,326.52l-.11-.3a7.78,7.78,0,0,0-9.91-4.79Z" transform="translate(0 0.27)"/><path class="cls-3" d="M573,500.44l-59.69,20.8a4.26,4.26,0,0,1-5.32-2.35l-52.86-124a4.26,4.26,0,0,1,2.51-5.69l75.69-26.38a4.26,4.26,0,0,1,5.5,2.85l36.86,129.58A4.26,4.26,0,0,1,573,500.44Z" transform="translate(0 0.27)"/><path class="cls-4" d="M575.72,495.25,538.86,365.67a4.26,4.26,0,0,0-5.5-2.85l-37.64,13.12,47.06,135L573,500.44A4.26,4.26,0,0,0,575.72,495.25Z" transform="translate(0 0.27)"/><path class="cls-5" d="M453.55,364.95h80.92a6.22,6.22,0,0,1,6.22,6.22v9a0,0,0,0,1,0,0H447.33a0,0,0,0,1,0,0v-9A6.22,6.22,0,0,1,453.55,364.95Z" transform="translate(-95.09 183.61) rotate(-19.22)"/><path class="cls-6" d="M474.12,359.07h33.63a2.58,2.58,0,0,1,2.58,2.58v3.72a0,0,0,0,1,0,0h-38.8a0,0,0,0,1,0,0v-3.72A2.58,2.58,0,0,1,474.12,359.07Z" transform="translate(-91.87 182.03) rotate(-19.22)"/><circle class="cls-7" cx="519.05" cy="443.8" r="26.72"/><path class="cls-8" d="M510.26,418.3l17.58,50.46a26.72,26.72,0,1,0-17.58-50.46Z" transform="translate(0 0.27)"/><circle class="cls-9" cx="519.05" cy="443.8" r="22.27"/><path class="cls-10" d="M533.83,426.87S519,436.84,509,437.93a66.7,66.7,0,0,0-12.11,3.17,22.27,22.27,0,1,0,36.92-14.23Z" transform="translate(0 0.27)"/><path class="cls-2" d="M556,99.39l-27.75-8.75a1.34,1.34,0,0,0-1.79.62l-.88,1.83a1.33,1.33,0,0,0,.62,1.79l26.52,8.22a1.33,1.33,0,0,1,.63,1.78l-39,80.64a1.34,1.34,0,0,0,.62,1.79l1.89.91a1.34,1.34,0,0,0,1.78-.62l39.54-81.85.08-.17a4.57,4.57,0,0,0-2.13-6.11Z" transform="translate(0 0.27)"/><path class="cls-3" d="M521.14,213.44l-33.5-16.18a2.51,2.51,0,0,1-1.23-3.19l29.6-73.6a2.51,2.51,0,0,1,3.41-1.32l42.48,20.52a2.51,2.51,0,0,1,1.1,3.47L524.42,212.4A2.51,2.51,0,0,1,521.14,213.44Z" transform="translate(0 0.27)"/><path class="cls-4" d="M524.42,212.4,563,143.14a2.51,2.51,0,0,0-1.1-3.47l-21.13-10.2-36.6,75.77,17,8.2A2.51,2.51,0,0,0,524.42,212.4Z" transform="translate(0 0.27)"/><path class="cls-5" d="M517.67,122.87h47.62a3.66,3.66,0,0,1,3.66,3.66v5.27a0,0,0,0,1,0,0H514a0,0,0,0,1,0,0v-5.27A3.66,3.66,0,0,1,517.67,122.87Z" transform="translate(109.3 -222.59) rotate(25.78)"/><path class="cls-6" d="M534.59,119.91h19.79a1.52,1.52,0,0,1,1.52,1.52v2.19a0,0,0,0,1,0,0H533.07a0,0,0,0,1,0,0v-2.19A1.52,1.52,0,0,1,534.59,119.91Z" transform="translate(107.18 -224.45) rotate(25.78)"/><circle class="cls-7" cx="522.36" cy="167.57" r="15.72"/><path class="cls-8" d="M529.2,153.14l-13.68,28.31a15.72,15.72,0,0,0,13.68-28.31Z" transform="translate(0 0.27)"/><circle class="cls-9" cx="522.36" cy="167.57" r="13.11"/><path class="cls-10" d="M535.44,166.52s-10.32-2-14.92-5.73a39.67,39.67,0,0,0-6.37-3.71,13,13,0,0,0-3.59,4.52,13.1,13.1,0,1,0,24.88,4.92Z" transform="translate(0 0.27)"/><path class="cls-2" d="M567,623.34l-29,1.78a1.34,1.34,0,0,0-1.45,1.22l-.17,2a1.33,1.33,0,0,0,1.22,1.44L565.24,628a1.33,1.33,0,0,1,1.22,1.44L559,718.66a1.34,1.34,0,0,0,1.22,1.45l2.08.17a1.34,1.34,0,0,0,1.45-1.22l7.56-90.58v-.19a4.58,4.58,0,0,0-4.18-4.94Z" transform="translate(0 0.27)"/><path class="cls-3" d="M575.34,742.29l-37.07-3.09a2.51,2.51,0,0,1-2.29-2.54l1.24-79.31a2.51,2.51,0,0,1,2.71-2.46l47,3.93a2.5,2.5,0,0,1,2.27,2.84L578,740.15A2.5,2.5,0,0,1,575.34,742.29Z" transform="translate(0 0.27)"/><path class="cls-4" d="M578,740.15l11.18-78.49a2.5,2.5,0,0,0-2.27-2.84l-23.38-2-7,83.86,18.78,1.57A2.5,2.5,0,0,0,578,740.15Z" transform="translate(0 0.27)"/><path class="cls-5" d="M539.65,650.16h47.62a3.66,3.66,0,0,1,3.66,3.66v5.27a0,0,0,0,1,0,0H536a0,0,0,0,1,0,0v-5.27A3.66,3.66,0,0,1,539.65,650.16Z" transform="translate(56.41 -44.34) rotate(4.77)"/><path class="cls-6" d="M554.37,646.49h19.79a1.52,1.52,0,0,1,1.52,1.52v2.19a0,0,0,0,1,0,0H552.85a0,0,0,0,1,0,0V648A1.52,1.52,0,0,1,554.37,646.49Z" transform="translate(55.89 -44.43) rotate(4.77)"/><circle class="cls-7" cx="559.94" cy="699.05" r="15.72"/><path class="cls-8" d="M561.24,683.12l-2.61,31.33a15.72,15.72,0,0,0,2.61-31.33Z" transform="translate(0 0.27)"/><circle class="cls-9" cx="559.94" cy="699.05" r="13.11"/><path class="cls-10" d="M571.87,693.36s-10.36,1.82-16,0a40,40,0,0,0-7.27-1.19,13.11,13.11,0,1,0,23.26,1.18Z" transform="translate(0 0.27)"/><path class="cls-2" d="M732.2,45.55,687,48.32a2.09,2.09,0,0,0-2.25,1.9l-.26,3.17a2.08,2.08,0,0,0,1.9,2.25l43.17-2.87a2.1,2.1,0,0,1,1.9,2.25L719.8,194a2.08,2.08,0,0,0,1.9,2.24l3.25.27a2.07,2.07,0,0,0,2.25-1.9L739,53.57l0-.3a7.14,7.14,0,0,0-6.52-7.7Z" transform="translate(0 0.27)"/><path class="cls-3" d="M745.25,230.84,687.51,226a3.9,3.9,0,0,1-3.58-3.94l1.94-123.55a3.89,3.89,0,0,1,4.22-3.83l73.22,6.11a3.9,3.9,0,0,1,3.54,4.44L749.44,227.51A3.9,3.9,0,0,1,745.25,230.84Z" transform="translate(0 0.27)"/><path class="cls-4" d="M749.44,227.51l17.41-122.26a3.9,3.9,0,0,0-3.54-4.44l-36.41-3L716,228.4l29.26,2.44A3.9,3.9,0,0,0,749.44,227.51Z" transform="translate(0 0.27)"/><path class="cls-5" d="M689.65,87.33h74.18a5.7,5.7,0,0,1,5.7,5.7v8.21a0,0,0,0,1,0,0H683.95a0,0,0,0,1,0,0V93A5.7,5.7,0,0,1,689.65,87.33Z" transform="translate(10.36 -59.86) rotate(4.77)"/><path class="cls-6" d="M712.59,81.62h30.83A2.37,2.37,0,0,1,745.79,84V87.4a0,0,0,0,1,0,0H710.22a0,0,0,0,1,0,0V84A2.37,2.37,0,0,1,712.59,81.62Z" transform="translate(9.55 -60) rotate(4.77)"/><circle class="cls-7" cx="721.25" cy="163.34" r="24.49"/><path class="cls-8" d="M723.29,138.67l-4.08,48.81a24.49,24.49,0,1,0,4.08-48.81Z" transform="translate(0 0.27)"/><circle class="cls-9" cx="721.25" cy="163.34" r="20.42"/><path class="cls-10" d="M739.84,154.63s-16.13,2.82-24.9,0a61.65,61.65,0,0,0-11.33-1.85,20.42,20.42,0,1,0,36.23,1.84Z" transform="translate(0 0.27)"/><path class="cls-2" d="M725.75,550l-45.25,2.77a2.08,2.08,0,0,0-2.24,1.9l-.27,3.17a2.1,2.1,0,0,0,1.9,2.25l43.17-2.87a2.08,2.08,0,0,1,1.9,2.25l-11.6,139a2.07,2.07,0,0,0,1.9,2.25l3.25.27a2.08,2.08,0,0,0,2.25-1.9L732.53,558l0-.29a7.13,7.13,0,0,0-6.51-7.7Z" transform="translate(0 0.27)"/><path class="cls-3" d="M738.81,735.27l-57.75-4.82a3.89,3.89,0,0,1-3.57-4L679.42,603a3.91,3.91,0,0,1,4.23-3.82l73.22,6.11a3.9,3.9,0,0,1,3.53,4.44L743,731.94A3.89,3.89,0,0,1,738.81,735.27Z" transform="translate(0 0.27)"/><path class="cls-4" d="M743,731.94,760.4,609.68a3.9,3.9,0,0,0-3.53-4.44l-36.42-3-10.9,130.63,29.26,2.44A3.89,3.89,0,0,0,743,731.94Z" transform="translate(0 0.27)"/><path class="cls-5" d="M683.2,591.76h74.18a5.7,5.7,0,0,1,5.7,5.7v8.21a0,0,0,0,1,0,0H677.5a0,0,0,0,1,0,0v-8.21A5.7,5.7,0,0,1,683.2,591.76Z" transform="translate(52.3 -57.58) rotate(4.77)"/><path class="cls-6" d="M706.14,586H737a2.37,2.37,0,0,1,2.37,2.37v3.41a0,0,0,0,1,0,0H703.77a0,0,0,0,1,0,0v-3.41A2.37,2.37,0,0,1,706.14,586Z" transform="translate(51.49 -57.72) rotate(4.77)"/><circle class="cls-7" cx="714.81" cy="667.77" r="24.49"/><path class="cls-8" d="M716.84,643.1l-4.07,48.8a24.48,24.48,0,1,0,4.07-48.8Z" transform="translate(0 0.27)"/><circle class="cls-9" cx="714.81" cy="667.77" r="20.42"/><path class="cls-10" d="M733.39,659.05s-16.13,2.83-24.9,0a61.36,61.36,0,0,0-11.32-1.85,20.41,20.41,0,1,0,36.22,1.83Z" transform="translate(0 0.27)"/><path class="cls-2" d="M83.53,608.52,47.05,635.43a2.08,2.08,0,0,0-.86,2.82l1.5,2.8a2.09,2.09,0,0,0,2.82.85l34.68-25.85a2.08,2.08,0,0,1,2.82.85l65.78,123a2.09,2.09,0,0,0,2.82.85l2.87-1.54a2.07,2.07,0,0,0,.86-2.81L93.58,611.56l-.14-.26a7.13,7.13,0,0,0-9.65-2.92Z" transform="translate(0 0.27)"/><path class="cls-3" d="M195.15,757l-51.1,27.33a3.9,3.9,0,0,1-5.14-1.37L73.41,678.16a3.9,3.9,0,0,1,1.47-5.5L139.68,638a3.9,3.9,0,0,1,5.38,1.81l51.79,112.1A3.88,3.88,0,0,1,195.15,757Z" transform="translate(0 0.27)"/><path class="cls-4" d="M196.85,751.92l-51.79-112.1a3.9,3.9,0,0,0-5.38-1.81l-32.23,17.23,61.81,115.6L195.15,757A3.88,3.88,0,0,0,196.85,751.92Z" transform="translate(0 0.27)"/><path class="cls-5" d="M68.33,645.44h74.18a5.7,5.7,0,0,1,5.7,5.7v8.21a0,0,0,0,1,0,0H62.63a0,0,0,0,1,0,0v-8.21A5.7,5.7,0,0,1,68.33,645.44Z" transform="translate(-295.17 127.06) rotate(-28.13)"/><path class="cls-6" d="M85.76,640.61h30.83A2.37,2.37,0,0,1,119,643v3.41a0,0,0,0,1,0,0H83.39a0,0,0,0,1,0,0V643a2.37,2.37,0,0,1,2.37-2.37Z" transform="translate(-291.48 124.01) rotate(-28.13)"/><circle class="cls-7" cx="138.18" cy="713.4" r="24.49"/><path class="cls-8" d="M126.64,691.54l23.09,43.19a24.49,24.49,0,1,0-23.09-43.19Z" transform="translate(0 0.27)"/><circle class="cls-9" cx="138.18" cy="713.4" r="20.42"/><path class="cls-10" d="M149.2,696s-12,11.13-20.89,13.54a61,61,0,0,0-10.52,4.59A20.42,20.42,0,1,0,149.2,696Z" transform="translate(0 0.27)"/><path class="cls-2" d="M94.36,289l50.79,3.12a2.33,2.33,0,0,1,2.52,2.13l.29,3.55a2.33,2.33,0,0,1-2.13,2.53l-48.45-3.22a2.33,2.33,0,0,0-2.13,2.52l13,156a2.33,2.33,0,0,1-2.13,2.52l-3.65.31a2.34,2.34,0,0,1-2.53-2.14L86.74,298l0-.33A8,8,0,0,1,94,289Z" transform="translate(0 0.27)"/><path class="cls-3" d="M79.7,497l64.82-5.41a4.39,4.39,0,0,0,4-4.44l-2.17-138.67a4.38,4.38,0,0,0-4.74-4.3L59.43,351a4.38,4.38,0,0,0-4,5L75,493.22A4.37,4.37,0,0,0,79.7,497Z" transform="translate(0 0.27)"/><path class="cls-4" d="M75,493.22,55.46,356a4.38,4.38,0,0,1,4-5l40.88-3.41,12.24,146.62L79.7,497A4.37,4.37,0,0,1,75,493.22Z" transform="translate(0 0.27)"/><path class="cls-5" d="M52.46,335.88h96.06a0,0,0,0,1,0,0v9.22a6.4,6.4,0,0,1-6.4,6.4H58.86a6.4,6.4,0,0,1-6.4-6.4v-9.22A0,0,0,0,1,52.46,335.88Z" transform="translate(229.21 678.09) rotate(175.23)"/><path class="cls-6" d="M79.1,329.46H119a0,0,0,0,1,0,0v3.83a2.66,2.66,0,0,1-2.66,2.66H81.76a2.66,2.66,0,0,1-2.66-2.66v-3.83a0,0,0,0,1,0,0Z" transform="translate(225.47 656.3) rotate(175.23)"/><circle class="cls-7" cx="106.64" cy="421.16" r="27.49"/><path class="cls-8" d="M104.36,393.5l4.57,54.79a27.49,27.49,0,0,1-4.57-54.79Z" transform="translate(0 0.27)"/><circle class="cls-9" cx="106.64" cy="421.16" r="22.92"/><path class="cls-10" d="M85.78,411.42s18.11,3.17,28,0a69.6,69.6,0,0,1,12.71-2.08,22.91,22.91,0,1,1-40.66,2.07Z" transform="translate(0 0.27)"/><path class="cls-2" d="M776.58,337.11l21.4,24.2a1.48,1.48,0,0,1,.17,2.09l-1.46,1.73a1.49,1.49,0,0,1-2.09.17l-20.31-23.19a1.49,1.49,0,0,0-2.09.17L708,418.18a1.48,1.48,0,0,1-2.09.18l-1.78-1.51a1.49,1.49,0,0,1-.17-2.09l65.16-77,.14-.16a5.08,5.08,0,0,1,7.16-.6Z" transform="translate(0 0.27)"/><path class="cls-3" d="M676.62,423.91l31.53,26.67a2.78,2.78,0,0,0,3.79-.19l61.29-63.24a2.78,2.78,0,0,0-.2-4l-40-33.82a2.78,2.78,0,0,0-4,.45L676.2,420.12A2.78,2.78,0,0,0,676.62,423.91Z" transform="translate(0 0.27)"/><path class="cls-4" d="M676.2,420.12,729,349.73a2.78,2.78,0,0,1,4-.45l19.88,16.82L692.6,437.42l-16-13.51A2.78,2.78,0,0,1,676.2,420.12Z" transform="translate(0 0.27)"/><path class="cls-5" d="M724.28,359.46h61a0,0,0,0,1,0,0v5.85a4.06,4.06,0,0,1-4.06,4.06H728.34a4.06,4.06,0,0,1-4.06-4.06v-5.85a0,0,0,0,1,0,0Z" transform="translate(1095.67 1130.37) rotate(-139.77)"/><path class="cls-6" d="M746.39,356.8h25.35a0,0,0,0,1,0,0v2.43a1.69,1.69,0,0,1-1.69,1.69h-22a1.69,1.69,0,0,1-1.69-1.69V356.8A0,0,0,0,1,746.39,356.8Z" transform="translate(1106.83 1123.33) rotate(-139.77)"/><circle class="cls-7" cx="722.87" cy="402.12" r="17.45"/><path class="cls-8" d="M734.14,388.52,711.6,415.17a17.45,17.45,0,0,1,22.54-26.65Z" transform="translate(0 0.27)"/><circle class="cls-9" cx="722.87" cy="402.12" r="14.55"/><path class="cls-10" d="M717.76,388.23s6.71,9.55,12.54,12.55a43.62,43.62,0,0,1,6.64,4.78,14.37,14.37,0,0,1-3,5.68,14.55,14.55,0,1,1-16.22-23Z" transform="translate(0 0.27)"/><path class="cls-2" d="M301.65,473l-45.59,1.44a2.1,2.1,0,0,0-2.32,1.85l-.36,3.17a2.09,2.09,0,0,0,1.84,2.32l43.5-1.59a2.1,2.1,0,0,1,1.85,2.32L284.75,621.93a2.1,2.1,0,0,0,1.85,2.32l3.26.37a2.1,2.1,0,0,0,2.32-1.85l16.05-141.54,0-.3a7.17,7.17,0,0,0-6.32-7.94Z" transform="translate(0 0.27)"/><path class="cls-3" d="M309.25,659.71l-57.93-6.57a3.93,3.93,0,0,1-3.48-4.08l5.63-124.2a3.93,3.93,0,0,1,4.37-3.72l73.45,8.33a3.92,3.92,0,0,1,3.43,4.57L313.56,656.48A3.92,3.92,0,0,1,309.25,659.71Z" transform="translate(0 0.27)"/><path class="cls-4" d="M313.56,656.48,334.72,534a3.92,3.92,0,0,0-3.43-4.57l-36.53-4.14-14.86,131,29.35,3.33A3.92,3.92,0,0,0,313.56,656.48Z" transform="translate(0 0.27)"/><path class="cls-5" d="M257.38,514.81H332a5.74,5.74,0,0,1,5.74,5.74v8.27a0,0,0,0,1,0,0H251.65a0,0,0,0,1,0,0v-8.27A5.74,5.74,0,0,1,257.38,514.81Z" transform="translate(60.66 -29.61) rotate(6.47)"/><path class="cls-6" d="M280.76,509.11h31a2.38,2.38,0,0,1,2.38,2.38v3.44a0,0,0,0,1,0,0H278.37a0,0,0,0,1,0,0v-3.44A2.38,2.38,0,0,1,280.76,509.11Z" transform="translate(59.57 -29.85) rotate(6.47)"/><circle class="cls-7" cx="287.13" cy="591.1" r="24.64"/><path class="cls-8" d="M289.91,566.35l-5.55,49a24.64,24.64,0,1,0,5.55-49Z" transform="translate(0 0.27)"/><circle class="cls-9" cx="287.13" cy="591.1" r="20.54"/><path class="cls-10" d="M306.08,582.89s-16.31,2.36-25-.72A61.92,61.92,0,0,0,269.7,580a20.55,20.55,0,1,0,36.38,2.93Z" transform="translate(0 0.27)"/><path class="cls-2" d="M232.18,91.08l-39.87,22.14a2.09,2.09,0,0,0-1.22,2.7l1.13,3a2.09,2.09,0,0,0,2.7,1.21l38-21.31a2.09,2.09,0,0,1,2.7,1.21l49.76,131.25a2.09,2.09,0,0,0,2.7,1.21l3.07-1.16a2.09,2.09,0,0,0,1.21-2.7L241.82,95.41l-.11-.27A7.17,7.17,0,0,0,232.46,91Z" transform="translate(0 0.27)"/><path class="cls-3" d="M324.4,253.65l-54.52,20.67a3.93,3.93,0,0,1-5-2l-51.82-113a3.93,3.93,0,0,1,2.17-5.31l69.13-26.2a3.93,3.93,0,0,1,5.14,2.49l37.21,118.56A3.93,3.93,0,0,1,324.4,253.65Z" transform="translate(0 0.27)"/><path class="cls-4" d="M326.75,248.81,289.54,130.25a3.93,3.93,0,0,0-5.14-2.49l-34.38,13,46.75,123.33,27.63-10.47A3.93,3.93,0,0,0,326.75,248.81Z" transform="translate(0 0.27)"/><path class="cls-5" d="M211,130.69h74.64a5.74,5.74,0,0,1,5.74,5.74v8.27a0,0,0,0,1,0,0H205.31a0,0,0,0,1,0,0v-8.27A5.74,5.74,0,0,1,211,130.69Z" transform="translate(-32.68 97.24) rotate(-20.76)"/><path class="cls-6" d="M229.76,125.36h31a2.38,2.38,0,0,1,2.38,2.38v3.44a0,0,0,0,1,0,0H227.38a0,0,0,0,1,0,0v-3.44A2.38,2.38,0,0,1,229.76,125.36Z" transform="translate(-29.54 95.53) rotate(-20.76)"/><circle class="cls-7" cx="273.21" cy="202.8" r="24.64"/><path class="cls-8" d="M264.48,179.49,282,225.57a24.64,24.64,0,0,0-17.47-46.08Z" transform="translate(0 0.27)"/><circle class="cls-9" cx="273.21" cy="202.8" r="20.54"/><path class="cls-10" d="M286.42,186.8s-13.42,9.56-22.59,10.81a61.16,61.16,0,0,0-11.09,3.23,20.54,20.54,0,1,0,33.68-14Z" transform="translate(0 0.27)"/></g><g id="Laag_10_kopie" data-name="Laag 10 kopie"><path class="cls-9" d="M377.27,850.39l-.27.21c.09-.07.19-.13.28-.21Z" transform="translate(0 0.27)"/><path class="cls-10" d="M833.33-.27h0c0,.09,0,.17,0,.26h0A2.45,2.45,0,0,1,833.33-.27Z" transform="translate(0 0.27)"/><path class="cls-11" d="M793.42,808l-2.29.87-2.93-7.73a5.73,5.73,0,0,1,3.33-7.39L827.73,780h0l-17.62,6.67-1.21-3.21a2.37,2.37,0,0,1,1.38-3.07l15.39-5.84-9.55-25.19a2.09,2.09,0,0,0-2.7-1.21l-37.95,21.32a2.09,2.09,0,0,1-2.7-1.22l-1.14-3a2.1,2.1,0,0,1,1.22-2.7l39.88-22.14.27-.11a7.19,7.19,0,0,1,9.26,4.17l.1.28,10.29,27.15,6.64-2.52a2.39,2.39,0,0,1,3.07,1.39l1.22,3.21-8.86,3.36h0l15.67-6V73.23a3.91,3.91,0,0,1-4.9-2L812.85,0H438.41a3.66,3.66,0,0,1-.87,4.51l-4,3.41-.8-1a2.61,2.61,0,0,1-.3.27L369,54.84a2.51,2.51,0,0,1-3.41-.39l-24-28.4a2.49,2.49,0,0,1,.17-3.41L365.1,0H41.91l15,47.78a3.91,3.91,0,0,1-1.08,4.06,3.84,3.84,0,0,1-1.27.79L0,73.29l0,0V771.43l11-4.15a5.72,5.72,0,0,1,7.39,3.33l2.93,7.72-1.82.69a3.91,3.91,0,0,1,.26.59l22.21,70.78H362.44l36.27-35.14A2.06,2.06,0,0,1,399,815l-1-1.2,4-3.4a3.66,3.66,0,0,1,5.16.43l15.95,18.86h0l-7.77-9.18,1.68-1.41a1.51,1.51,0,0,1,2.14.17l6.78,8,13.13-11.1a1.33,1.33,0,0,0,.15-1.88L418.39,796a1.32,1.32,0,0,1,.16-1.88l1.55-1.32A1.32,1.32,0,0,1,422,793l21.81,19.28.12.14a4.58,4.58,0,0,1-.54,6.45l-.15.13-14.14,12,2.92,3.45a1.51,1.51,0,0,1-.18,2.15l-1.67,1.41,7.82,9.25a3.63,3.63,0,0,1,.75,3.22H812.79l-19.15-41.76A3.72,3.72,0,0,1,793.42,808Z" transform="translate(0 0.27)"/><path class="cls-2" d="M443.22,819l.15-.13a4.58,4.58,0,0,0,.54-6.45l-.12-.14L422,793a1.32,1.32,0,0,0-1.88-.16l-1.55,1.32a1.32,1.32,0,0,0-.16,1.88l20.89,18.3a1.33,1.33,0,0,1-.15,1.88L426,827.27l3.08,3.64Z" transform="translate(0 0.27)"/><path class="cls-11" d="M443.22,819l.15-.13a4.58,4.58,0,0,0,.54-6.45l-.12-.14L422,793a1.32,1.32,0,0,0-1.88-.16l-1.55,1.32a1.32,1.32,0,0,0-.16,1.88l20.89,18.3a1.33,1.33,0,0,1-.15,1.88L426,827.27l3.08,3.64Z" transform="translate(0 0.27)"/><polygon class="cls-2" points="423.17 829.94 423.17 829.94 424.58 831.61 423.17 829.94"/><polygon class="cls-11" points="423.17 829.94 423.17 829.94 424.58 831.61 423.17 829.94"/><path class="cls-3" d="M375.31,848.6a15.72,15.72,0,0,1,22.1,1.79h.32L416,835,399,815a2.06,2.06,0,0,0-.33.27l-36.27,35.14h11.1A16.6,16.6,0,0,1,375.31,848.6Z" transform="translate(0 0.27)"/><path class="cls-11" d="M375.31,848.6a15.72,15.72,0,0,1,22.1,1.79h.32L416,835,399,815a2.06,2.06,0,0,0-.33.27l-36.27,35.14h11.1A16.6,16.6,0,0,1,375.31,848.6Z" transform="translate(0 0.27)"/><polygon class="cls-4" points="406.05 850.66 429 850.66 419.43 839.35 406.05 850.66"/><polygon class="cls-11" points="406.05 850.66 429 850.66 419.43 839.35 406.05 850.66"/><polygon class="cls-4" points="416.35 835.71 415.96 835.25 397.73 850.66 398.67 850.66 416.35 835.71"/><polygon class="cls-11" points="416.35 835.71 415.96 835.25 397.73 850.66 398.67 850.66 416.35 835.71"/><polygon class="cls-4" points="416.35 835.71 398.67 850.66 406.05 850.66 419.43 839.35 416.35 835.71"/><polygon class="cls-11" points="416.35 835.71 398.67 850.66 406.05 850.66 419.43 839.35 416.35 835.71"/><path class="cls-5" d="M402.36,815.43l15.31,18.1h0l.39.46,5.11-4.32-15.95-18.86a3.66,3.66,0,0,0-5.16-.43l-4,3.4,1,1.2A2.5,2.5,0,0,1,402.36,815.43Z" transform="translate(0 0.27)"/><path class="cls-11" d="M402.36,815.43l15.31,18.1h0l.39.46,5.11-4.32-15.95-18.86a3.66,3.66,0,0,0-5.16-.43l-4,3.4,1,1.2A2.5,2.5,0,0,1,402.36,815.43Z" transform="translate(0 0.27)"/><path class="cls-5" d="M438,847.17l-7.82-9.25h0l-3.9-4.61-5.11,4.32L429,847l2.91,3.44h6.78A3.63,3.63,0,0,0,438,847.17Z" transform="translate(0 0.27)"/><path class="cls-11" d="M438,847.17l-7.82-9.25h0l-3.9-4.61-5.11,4.32L429,847l2.91,3.44h6.78A3.63,3.63,0,0,0,438,847.17Z" transform="translate(0 0.27)"/><polygon class="cls-5" points="421.14 837.9 426.25 833.58 424.58 831.61 423.17 829.94 418.06 834.26 421.14 837.9"/><polygon class="cls-11" points="421.14 837.9 426.25 833.58 424.58 831.61 423.17 829.94 418.06 834.26 421.14 837.9"/><polygon class="cls-5" points="431.94 850.66 429.03 847.22 431.94 850.66 431.94 850.66"/><polygon class="cls-11" points="431.94 850.66 429.03 847.22 431.94 850.66 431.94 850.66"/><path class="cls-5" d="M417.67,833.53l-15.31-18.1A2.5,2.5,0,0,0,399,815L416,835Z" transform="translate(0 0.27)"/><path class="cls-11" d="M417.67,833.53l-15.31-18.1A2.5,2.5,0,0,0,399,815L416,835Z" transform="translate(0 0.27)"/><polygon class="cls-5" points="429.03 847.22 421.14 837.9 421.14 837.9 429.03 847.22"/><polygon class="cls-11" points="429.03 847.22 421.14 837.9 421.14 837.9 429.03 847.22"/><polygon class="cls-5" points="418.06 834.26 417.67 833.8 417.67 833.8 418.06 834.26 418.06 834.26"/><polygon class="cls-11" points="418.06 834.26 417.67 833.8 417.67 833.8 418.06 834.26 418.06 834.26"/><polygon class="cls-5" points="418.06 834.26 421.14 837.9 421.14 837.9 418.06 834.26 418.06 834.26"/><polygon class="cls-11" points="418.06 834.26 421.14 837.9 421.14 837.9 418.06 834.26 418.06 834.26"/><polygon class="cls-5" points="419.43 839.35 429 850.66 431.94 850.66 429.03 847.22 421.14 837.9 419.43 839.35"/><polygon class="cls-11" points="419.43 839.35 429 850.66 431.94 850.66 429.03 847.22 421.14 837.9 419.43 839.35"/><rect class="cls-5" x="415.89" y="834.18" width="2.24" height="0.6" transform="translate(-440.3 466.96) rotate(-40.23)"/><rect class="cls-11" x="415.89" y="834.18" width="2.24" height="0.6" transform="translate(-440.3 466.96) rotate(-40.23)"/><rect class="cls-5" x="417.62" y="834.15" width="2.24" height="4.77" transform="translate(-441.22 468.57) rotate(-40.23)"/><rect class="cls-11" x="417.62" y="834.15" width="2.24" height="4.77" transform="translate(-441.22 468.57) rotate(-40.23)"/><path class="cls-6" d="M430.15,837.92l1.67-1.41a1.51,1.51,0,0,0,.18-2.15l-2.92-3.45-2.83,2.4Z" transform="translate(0 0.27)"/><path class="cls-11" d="M430.15,837.92l1.67-1.41a1.51,1.51,0,0,0,.18-2.15l-2.92-3.45-2.83,2.4Z" transform="translate(0 0.27)"/><path class="cls-6" d="M419.22,819.25a1.51,1.51,0,0,0-2.14-.17l-1.68,1.41,7.77,9.18,2.83-2.4Z" transform="translate(0 0.27)"/><path class="cls-11" d="M419.22,819.25a1.51,1.51,0,0,0-2.14-.17l-1.68,1.41,7.77,9.18,2.83-2.4Z" transform="translate(0 0.27)"/><polygon class="cls-6" points="426.25 833.58 429.08 831.18 426 827.54 423.17 829.94 424.58 831.61 426.25 833.58"/><polygon class="cls-11" points="426.25 833.58 429.08 831.18 426 827.54 423.17 829.94 424.58 831.61 426.25 833.58"/><polygon class="cls-6" points="426.25 833.58 430.15 838.19 430.15 838.19 426.25 833.58 426.25 833.58"/><polygon class="cls-11" points="426.25 833.58 430.15 838.19 430.15 838.19 426.25 833.58 426.25 833.58"/><polygon class="cls-6" points="424.58 831.61 426.25 833.58 426.25 833.58 424.58 831.61"/><polygon class="cls-11" points="424.58 831.61 426.25 833.58 426.25 833.58 424.58 831.61"/><path class="cls-7" d="M378.14,849.74l.38-.23c.27-.17.54-.34.82-.48s.31-.15.46-.23.53-.25.8-.35l.49-.19c.27-.09.53-.18.8-.25l.24-.08h0a13.14,13.14,0,0,1,11.53,2.45h3.74a15.72,15.72,0,0,0-22.1-1.79,16.6,16.6,0,0,0-1.77,1.79h3.73C377.56,850.17,377.84,849.94,378.14,849.74Z" transform="translate(0 0.27)"/><path class="cls-11" d="M378.14,849.74l.38-.23c.27-.17.54-.34.82-.48s.31-.15.46-.23.53-.25.8-.35l.49-.19c.27-.09.53-.18.8-.25l.24-.08h0a13.14,13.14,0,0,1,11.53,2.45h3.74a15.72,15.72,0,0,0-22.1-1.79,16.6,16.6,0,0,0-1.77,1.79h3.73C377.56,850.17,377.84,849.94,378.14,849.74Z" transform="translate(0 0.27)"/><path class="cls-9" d="M381.09,848.26c.27-.09.53-.18.8-.25C381.62,848.08,381.36,848.17,381.09,848.26Z" transform="translate(0 0.27)"/><path class="cls-11" d="M381.09,848.26c.27-.09.53-.18.8-.25C381.62,848.08,381.36,848.17,381.09,848.26Z" transform="translate(0 0.27)"/><path class="cls-9" d="M379.8,848.8c.27-.12.53-.25.8-.35C380.33,848.55,380.07,848.68,379.8,848.8Z" transform="translate(0 0.27)"/><path class="cls-11" d="M379.8,848.8c.27-.12.53-.25.8-.35C380.33,848.55,380.07,848.68,379.8,848.8Z" transform="translate(0 0.27)"/><path class="cls-9" d="M378.52,849.51c.27-.17.54-.34.82-.48C379.06,849.17,378.79,849.34,378.52,849.51Z" transform="translate(0 0.27)"/><path class="cls-11" d="M378.52,849.51c.27-.17.54-.34.82-.48C379.06,849.17,378.79,849.34,378.52,849.51Z" transform="translate(0 0.27)"/><path class="cls-9" d="M393.67,850.39a13.14,13.14,0,0,0-11.53-2.45c.69.85,1.35,1.67,1.94,2.45Z" transform="translate(0 0.27)"/><path class="cls-11" d="M393.67,850.39a13.14,13.14,0,0,0-11.53-2.45c.69.85,1.35,1.67,1.94,2.45Z" transform="translate(0 0.27)"/><path class="cls-9" d="M378.14,849.74c-.3.2-.58.43-.87.65h0C377.56,850.17,377.84,849.94,378.14,849.74Z" transform="translate(0 0.27)"/><path class="cls-11" d="M378.14,849.74c-.3.2-.58.43-.87.65h0C377.56,850.17,377.84,849.94,378.14,849.74Z" transform="translate(0 0.27)"/><path class="cls-10" d="M379.34,849c.15-.09.31-.15.46-.23C379.65,848.88,379.49,848.94,379.34,849Z" transform="translate(0 0.27)"/><path class="cls-11" d="M379.34,849c.15-.09.31-.15.46-.23C379.65,848.88,379.49,848.94,379.34,849Z" transform="translate(0 0.27)"/><path class="cls-10" d="M380.6,848.45l.49-.19Z" transform="translate(0 0.27)"/><path class="cls-11" d="M380.6,848.45l.49-.19Z" transform="translate(0 0.27)"/><path class="cls-10" d="M382.13,847.93l-.24.08.25-.07Z" transform="translate(0 0.27)"/><path class="cls-11" d="M382.13,847.93l-.24.08.25-.07Z" transform="translate(0 0.27)"/><path class="cls-10" d="M378.14,849.74l.38-.23Z" transform="translate(0 0.27)"/><path class="cls-11" d="M378.14,849.74l.38-.23Z" transform="translate(0 0.27)"/><path class="cls-10" d="M384.08,850.39c-.59-.78-1.25-1.6-1.94-2.45l-.25.07c-.27.07-.53.16-.8.25l-.49.19c-.27.1-.53.23-.8.35s-.31.14-.46.23-.55.31-.82.48l-.38.23c-.3.2-.58.43-.86.65Z" transform="translate(0 0.27)"/><path class="cls-11" d="M384.08,850.39c-.59-.78-1.25-1.6-1.94-2.45l-.25.07c-.27.07-.53.16-.8.25l-.49.19c-.27.1-.53.23-.8.35s-.31.14-.46.23-.55.31-.82.48l-.38.23c-.3.2-.58.43-.86.65Z" transform="translate(0 0.27)"/><path class="cls-3" d="M341.57,26.05l24,28.4a2.46,2.46,0,0,0,2.09.88,2.46,2.46,0,0,1-2.09-.88L353.42,40.06l20.13-17-.09-.09A15.73,15.73,0,0,1,375.31.79c.34-.28.69-.54,1-.79H365.1L341.74,22.64A2.49,2.49,0,0,0,341.57,26.05Z" transform="translate(0 0.27)"/><path class="cls-11" d="M341.57,26.05l24,28.4a2.46,2.46,0,0,0,2.09.88,2.46,2.46,0,0,1-2.09-.88L353.42,40.06l20.13-17-.09-.09A15.73,15.73,0,0,1,375.31.79c.34-.28.69-.54,1-.79H365.1L341.74,22.64A2.49,2.49,0,0,0,341.57,26.05Z" transform="translate(0 0.27)"/><path class="cls-3" d="M397.47,2.64a.61.61,0,0,1,.07.1L400.78,0h-6.2A16,16,0,0,1,397.47,2.64Z" transform="translate(0 0.27)"/><path class="cls-11" d="M397.47,2.64a.61.61,0,0,1,.07.1L400.78,0h-6.2A16,16,0,0,1,397.47,2.64Z" transform="translate(0 0.27)"/><path class="cls-4" d="M397.91,3.22,401.71,0h-.93l-3.24,2.74C397.67,2.89,397.79,3.06,397.91,3.22Z" transform="translate(0 0.27)"/><path class="cls-11" d="M397.91,3.22,401.71,0h-.93l-3.24,2.74C397.67,2.89,397.79,3.06,397.91,3.22Z" transform="translate(0 0.27)"/><path class="cls-4" d="M409.1,0l-8.85,7.48c.07.21.16.42.23.63a16,16,0,0,1,.62,3,15.25,15.25,0,0,1,0,3,15.7,15.7,0,0,1-23.35,12.39l-3.95,3.34a1.32,1.32,0,0,1-1.88-.16l-1.35-1.6a1.33,1.33,0,0,1,.15-1.88L374,23.48c-.14-.15-.28-.29-.41-.44l-20.13,17L365.6,54.45a2.51,2.51,0,0,0,3.41.39l63.4-47.6a2.61,2.61,0,0,0,.3-.27l-5.89-7Z" transform="translate(0 0.27)"/><path class="cls-11" d="M409.1,0l-8.85,7.48c.07.21.16.42.23.63a16,16,0,0,1,.62,3,15.25,15.25,0,0,1,0,3,15.7,15.7,0,0,1-23.35,12.39l-3.95,3.34a1.32,1.32,0,0,1-1.88-.16l-1.35-1.6a1.33,1.33,0,0,1,.15-1.88L374,23.48c-.14-.15-.28-.29-.41-.44l-20.13,17L365.6,54.45a2.51,2.51,0,0,0,3.41.39l63.4-47.6a2.61,2.61,0,0,0,.3-.27l-5.89-7Z" transform="translate(0 0.27)"/><path class="cls-4" d="M374,23.48l-3.21,2.71a1.33,1.33,0,0,0-.15,1.88l1.35,1.6a1.32,1.32,0,0,0,1.88.16l3.95-3.34A15.85,15.85,0,0,1,374,23.48Z" transform="translate(0 0.27)"/><path class="cls-11" d="M374,23.48l-3.21,2.71a1.33,1.33,0,0,0-.15,1.88l1.35,1.6a1.32,1.32,0,0,0,1.88.16l3.95-3.34A15.85,15.85,0,0,1,374,23.48Z" transform="translate(0 0.27)"/><path class="cls-4" d="M397.91,3.22a16.44,16.44,0,0,1,1.36,2,16.13,16.13,0,0,1,1,2.22L409.1,0h-7.39Z" transform="translate(0 0.27)"/><path class="cls-11" d="M397.91,3.22a16.44,16.44,0,0,1,1.36,2,16.13,16.13,0,0,1,1,2.22L409.1,0h-7.39Z" transform="translate(0 0.27)"/><path class="cls-5" d="M432.82,3.62a2.38,2.38,0,0,1,.49.91,2.77,2.77,0,0,1,.1.5,2.52,2.52,0,0,1-.12,1,2.45,2.45,0,0,1-.58,1l.8,1,4-3.41A3.66,3.66,0,0,0,438.41,0h-8.65Z" transform="translate(0 0.27)"/><path class="cls-11" d="M432.82,3.62a2.38,2.38,0,0,1,.49.91,2.77,2.77,0,0,1,.1.5,2.52,2.52,0,0,1-.12,1,2.45,2.45,0,0,1-.58,1l.8,1,4-3.41A3.66,3.66,0,0,0,438.41,0h-8.65Z" transform="translate(0 0.27)"/><path class="cls-5" d="M432.82,3.62a2.38,2.38,0,0,1,.49.91,2.38,2.38,0,0,0-.49-.91L429.76,0h0Z" transform="translate(0 0.27)"/><path class="cls-11" d="M432.82,3.62a2.38,2.38,0,0,1,.49.91,2.38,2.38,0,0,0-.49-.91L429.76,0h0Z" transform="translate(0 0.27)"/><path class="cls-5" d="M433.41,5a2.52,2.52,0,0,1-.12,1A2.52,2.52,0,0,0,433.41,5Z" transform="translate(0 0.27)"/><path class="cls-11" d="M433.41,5a2.52,2.52,0,0,1-.12,1A2.52,2.52,0,0,0,433.41,5Z" transform="translate(0 0.27)"/><path class="cls-5" d="M433.29,6a2.52,2.52,0,0,0,.12-1,2.77,2.77,0,0,0-.1-.5,2.38,2.38,0,0,0-.49-.91L429.76,0h-2.94l5.89,7A2.45,2.45,0,0,0,433.29,6Z" transform="translate(0 0.27)"/><path class="cls-11" d="M433.29,6a2.52,2.52,0,0,0,.12-1,2.77,2.77,0,0,0-.1-.5,2.38,2.38,0,0,0-.49-.91L429.76,0h-2.94l5.89,7A2.45,2.45,0,0,0,433.29,6Z" transform="translate(0 0.27)"/><path class="cls-7" d="M375.46,21.26a13.09,13.09,0,0,1,2.68-19.33l.38-.23c.27-.17.54-.34.82-.49L379.8,1c.27-.13.53-.25.8-.36l.49-.18.8-.26.24-.07h0l.5-.13h-6.29c-.35.25-.7.51-1,.79A15.73,15.73,0,0,0,373.46,23l2-1.69Z" transform="translate(0 0.27)"/><path class="cls-11" d="M375.46,21.26a13.09,13.09,0,0,1,2.68-19.33l.38-.23c.27-.17.54-.34.82-.49L379.8,1c.27-.13.53-.25.8-.36l.49-.18.8-.26.24-.07h0l.5-.13h-6.29c-.35.25-.7.51-1,.79A15.73,15.73,0,0,0,373.46,23l2-1.69Z" transform="translate(0 0.27)"/><path class="cls-7" d="M395.47,4.33l2-1.69a.61.61,0,0,1,.07.1h0a.61.61,0,0,0-.07-.1A16,16,0,0,0,394.58,0h-6.33A13,13,0,0,1,395.47,4.33Z" transform="translate(0 0.27)"/><path class="cls-11" d="M395.47,4.33l2-1.69a.61.61,0,0,1,.07.1h0a.61.61,0,0,0-.07-.1A16,16,0,0,0,394.58,0h-6.33A13,13,0,0,1,395.47,4.33Z" transform="translate(0 0.27)"/><path class="cls-7" d="M401.13,14.1a15.81,15.81,0,0,1-.53,3A15.81,15.81,0,0,0,401.13,14.1Z" transform="translate(0 0.27)"/><path class="cls-11" d="M401.13,14.1a15.81,15.81,0,0,1-.53,3A15.81,15.81,0,0,0,401.13,14.1Z" transform="translate(0 0.27)"/><path class="cls-7" d="M400.48,8.11a16,16,0,0,1,.62,3A16,16,0,0,0,400.48,8.11Z" transform="translate(0 0.27)"/><path class="cls-11" d="M400.48,8.11a16,16,0,0,1,.62,3A16,16,0,0,0,400.48,8.11Z" transform="translate(0 0.27)"/><path class="cls-7" d="M397.91,3.22c-.12-.16-.24-.33-.37-.48h0c.13.15.25.32.37.48Z" transform="translate(0 0.27)"/><path class="cls-11" d="M397.91,3.22c-.12-.16-.24-.33-.37-.48h0c.13.15.25.32.37.48Z" transform="translate(0 0.27)"/><path class="cls-7" d="M399.27,5.26a16.44,16.44,0,0,0-1.36-2h0A16.44,16.44,0,0,1,399.27,5.26Z" transform="translate(0 0.27)"/><path class="cls-11" d="M399.27,5.26a16.44,16.44,0,0,0-1.36-2h0A16.44,16.44,0,0,1,399.27,5.26Z" transform="translate(0 0.27)"/><path class="cls-8" d="M375.46,21.26l-2,1.69.09.09,2-1.69Z" transform="translate(0 0.27)"/><path class="cls-11" d="M375.46,21.26l-2,1.69.09.09,2-1.69Z" transform="translate(0 0.27)"/><path class="cls-8" d="M395.55,4.43l2-1.69a.61.61,0,0,0-.07-.1l-2,1.69h0Z" transform="translate(0 0.27)"/><path class="cls-11" d="M395.55,4.43l2-1.69a.61.61,0,0,0-.07-.1l-2,1.69h0Z" transform="translate(0 0.27)"/><path class="cls-8" d="M395.91,4.91l2-1.69c-.12-.16-.24-.33-.37-.48l-2,1.69C395.68,4.58,395.79,4.75,395.91,4.91Z" transform="translate(0 0.27)"/><path class="cls-11" d="M395.91,4.91l2-1.69c-.12-.16-.24-.33-.37-.48l-2,1.69C395.68,4.58,395.79,4.75,395.91,4.91Z" transform="translate(0 0.27)"/><path class="cls-8" d="M376,21.79l-.42-.44-2,1.69c.13.15.27.29.41.44Z" transform="translate(0 0.27)"/><path class="cls-11" d="M376,21.79l-.42-.44-2,1.69c.13.15.27.29.41.44Z" transform="translate(0 0.27)"/><path class="cls-8" d="M397.73,17.39h0l0,0a12.64,12.64,0,0,1-.63,1.41,2.25,2.25,0,0,1-.12.21,11.73,11.73,0,0,1-.65,1.07l-.26.37c-.22.31-.46.6-.7.88l-.3.34a11.68,11.68,0,0,1-1.13,1.09,13.25,13.25,0,0,1-4.56,2.51c-.41.12-.82.23-1.23.32a13.29,13.29,0,0,1-2.51.27,13.12,13.12,0,0,1-2.5-.21,12.92,12.92,0,0,1-3.19-1l-2.16,1.83A15.68,15.68,0,0,0,401.13,14.1a15.25,15.25,0,0,0,0-3,16,16,0,0,0-.62-3c-.07-.21-.16-.42-.23-.63l-2.16,1.83A13.13,13.13,0,0,1,397.73,17.39Z" transform="translate(0 0.27)"/><path class="cls-11" d="M397.73,17.39h0l0,0a12.64,12.64,0,0,1-.63,1.41,2.25,2.25,0,0,1-.12.21,11.73,11.73,0,0,1-.65,1.07l-.26.37c-.22.31-.46.6-.7.88l-.3.34a11.68,11.68,0,0,1-1.13,1.09,13.25,13.25,0,0,1-4.56,2.51c-.41.12-.82.23-1.23.32a13.29,13.29,0,0,1-2.51.27,13.12,13.12,0,0,1-2.5-.21,12.92,12.92,0,0,1-3.19-1l-2.16,1.83A15.68,15.68,0,0,0,401.13,14.1a15.25,15.25,0,0,0,0-3,16,16,0,0,0-.62-3c-.07-.21-.16-.42-.23-.63l-2.16,1.83A13.13,13.13,0,0,1,397.73,17.39Z" transform="translate(0 0.27)"/><path class="cls-8" d="M376,21.79l-2,1.69a15.85,15.85,0,0,0,3.82,3l2.16-1.83A13,13,0,0,1,376,21.79Z" transform="translate(0 0.27)"/><path class="cls-11" d="M376,21.79l-2,1.69a15.85,15.85,0,0,0,3.82,3l2.16-1.83A13,13,0,0,1,376,21.79Z" transform="translate(0 0.27)"/><path class="cls-8" d="M397.91,3.22l-2,1.69a12.86,12.86,0,0,1,2.18,4.4l2.16-1.83a16.13,16.13,0,0,0-1-2.22A16.44,16.44,0,0,0,397.91,3.22Z" transform="translate(0 0.27)"/><path class="cls-11" d="M397.91,3.22l-2,1.69a12.86,12.86,0,0,1,2.18,4.4l2.16-1.83a16.13,16.13,0,0,0-1-2.22A16.44,16.44,0,0,0,397.91,3.22Z" transform="translate(0 0.27)"/><path class="cls-9" d="M378.52,1.7c.27-.17.54-.34.82-.49C379.06,1.36,378.79,1.53,378.52,1.7Z" transform="translate(0 0.27)"/><path class="cls-11" d="M378.52,1.7c.27-.17.54-.34.82-.49C379.06,1.36,378.79,1.53,378.52,1.7Z" transform="translate(0 0.27)"/><path class="cls-9" d="M381.09.45l.8-.26Z" transform="translate(0 0.27)"/><path class="cls-11" d="M381.09.45l.8-.26Z" transform="translate(0 0.27)"/><path class="cls-9" d="M379.8,1c.27-.13.53-.25.8-.36C380.33.74,380.07.86,379.8,1Z" transform="translate(0 0.27)"/><path class="cls-11" d="M379.8,1c.27-.13.53-.25.8-.36C380.33.74,380.07.86,379.8,1Z" transform="translate(0 0.27)"/><path class="cls-9" d="M389.05,9.76l6.42-5.43A13,13,0,0,0,388.25,0h-5.61l-.5.13a39.77,39.77,0,0,1,4.29,6A18.91,18.91,0,0,0,389.05,9.76Z" transform="translate(0 0.27)"/><path class="cls-11" d="M389.05,9.76l6.42-5.43A13,13,0,0,0,388.25,0h-5.61l-.5.13a39.77,39.77,0,0,1,4.29,6A18.91,18.91,0,0,0,389.05,9.76Z" transform="translate(0 0.27)"/><path class="cls-9" d="M377,2.79a13.09,13.09,0,0,1,1.14-.86A13.09,13.09,0,0,0,377,2.79Z" transform="translate(0 0.27)"/><path class="cls-11" d="M377,2.79a13.09,13.09,0,0,1,1.14-.86A13.09,13.09,0,0,0,377,2.79Z" transform="translate(0 0.27)"/><path class="cls-9" d="M389.13,9.85l6.42-5.42-.08-.1h0l-6.42,5.43Z" transform="translate(0 0.27)"/><path class="cls-11" d="M389.13,9.85l6.42-5.42-.08-.1h0l-6.42,5.43Z" transform="translate(0 0.27)"/><path class="cls-9" d="M397.73,17.39a13.13,13.13,0,0,0,.36-8.08L393,13.62C395.51,15.83,397.71,17.38,397.73,17.39Z" transform="translate(0 0.27)"/><path class="cls-11" d="M397.73,17.39a13.13,13.13,0,0,0,.36-8.08L393,13.62C395.51,15.83,397.71,17.38,397.73,17.39Z" transform="translate(0 0.27)"/><path class="cls-9" d="M388.14,25.63a13.29,13.29,0,0,1-2.51.27A13.29,13.29,0,0,0,388.14,25.63Z" transform="translate(0 0.27)"/><path class="cls-11" d="M388.14,25.63a13.29,13.29,0,0,1-2.51.27A13.29,13.29,0,0,0,388.14,25.63Z" transform="translate(0 0.27)"/><path class="cls-9" d="M396.06,20.49c-.22.3-.46.6-.7.88C395.6,21.09,395.84,20.8,396.06,20.49Z" transform="translate(0 0.27)"/><path class="cls-11" d="M396.06,20.49c-.22.3-.46.6-.7.88C395.6,21.09,395.84,20.8,396.06,20.49Z" transform="translate(0 0.27)"/><path class="cls-9" d="M391.74,24.3a13.29,13.29,0,0,0,2.19-1.5,11.68,11.68,0,0,0,1.13-1.09,11.68,11.68,0,0,1-1.13,1.09A13.29,13.29,0,0,1,391.74,24.3Z" transform="translate(0 0.27)"/><path class="cls-11" d="M391.74,24.3a13.29,13.29,0,0,0,2.19-1.5,11.68,11.68,0,0,0,1.13-1.09,11.68,11.68,0,0,1-1.13,1.09A13.29,13.29,0,0,1,391.74,24.3Z" transform="translate(0 0.27)"/><path class="cls-9" d="M389.13,9.85l.41.45,6.37-5.39c-.12-.16-.23-.33-.36-.48Z" transform="translate(0 0.27)"/><path class="cls-11" d="M389.13,9.85l.41.45,6.37-5.39c-.12-.16-.23-.33-.36-.48Z" transform="translate(0 0.27)"/><path class="cls-9" d="M391.74,24.3a13.29,13.29,0,0,1-2.37,1A13.29,13.29,0,0,0,391.74,24.3Z" transform="translate(0 0.27)"/><path class="cls-11" d="M391.74,24.3a13.29,13.29,0,0,1-2.37,1A13.29,13.29,0,0,0,391.74,24.3Z" transform="translate(0 0.27)"/><path class="cls-9" d="M397.72,17.43a12.64,12.64,0,0,1-.63,1.41A12.64,12.64,0,0,0,397.72,17.43Z" transform="translate(0 0.27)"/><path class="cls-11" d="M397.72,17.43a12.64,12.64,0,0,1-.63,1.41A12.64,12.64,0,0,0,397.72,17.43Z" transform="translate(0 0.27)"/><path class="cls-9" d="M397,19.05c-.2.37-.42.72-.65,1.07A11.73,11.73,0,0,0,397,19.05Z" transform="translate(0 0.27)"/><path class="cls-11" d="M397,19.05c-.2.37-.42.72-.65,1.07A11.73,11.73,0,0,0,397,19.05Z" transform="translate(0 0.27)"/><path class="cls-9" d="M393,13.62l5.1-4.31a12.86,12.86,0,0,0-2.18-4.4l-6.37,5.39A46.43,46.43,0,0,0,393,13.62Z" transform="translate(0 0.27)"/><path class="cls-11" d="M393,13.62l5.1-4.31a12.86,12.86,0,0,0-2.18-4.4l-6.37,5.39A46.43,46.43,0,0,0,393,13.62Z" transform="translate(0 0.27)"/><path class="cls-10" d="M379.34,1.21,379.8,1Z" transform="translate(0 0.27)"/><path class="cls-11" d="M379.34,1.21,379.8,1Z" transform="translate(0 0.27)"/><path class="cls-10" d="M380.6.63l.49-.18Z" transform="translate(0 0.27)"/><path class="cls-11" d="M380.6.63l.49-.18Z" transform="translate(0 0.27)"/><path class="cls-10" d="M378.14,1.93l.38-.23Z" transform="translate(0 0.27)"/><path class="cls-11" d="M378.14,1.93l.38-.23Z" transform="translate(0 0.27)"/><path class="cls-10" d="M382.13.12l-.24.07.25-.06Z" transform="translate(0 0.27)"/><path class="cls-11" d="M382.13.12l-.24.07.25-.06Z" transform="translate(0 0.27)"/><path class="cls-10" d="M385.63,25.9a13.12,13.12,0,0,1-2.5-.21A13.12,13.12,0,0,0,385.63,25.9Z" transform="translate(0 0.27)"/><path class="cls-11" d="M385.63,25.9a13.12,13.12,0,0,1-2.5-.21A13.12,13.12,0,0,0,385.63,25.9Z" transform="translate(0 0.27)"/><path class="cls-10" d="M396.32,20.12l-.26.37Z" transform="translate(0 0.27)"/><path class="cls-11" d="M396.32,20.12l-.26.37Z" transform="translate(0 0.27)"/><path class="cls-10" d="M397.09,18.84a2.25,2.25,0,0,1-.12.21A2.25,2.25,0,0,0,397.09,18.84Z" transform="translate(0 0.27)"/><path class="cls-11" d="M397.09,18.84a2.25,2.25,0,0,1-.12.21A2.25,2.25,0,0,0,397.09,18.84Z" transform="translate(0 0.27)"/><path class="cls-10" d="M397.74,17.4h0s0,0,0,0Z" transform="translate(0 0.27)"/><path class="cls-11" d="M397.74,17.4h0s0,0,0,0Z" transform="translate(0 0.27)"/><path class="cls-10" d="M395.36,21.37l-.3.34Z" transform="translate(0 0.27)"/><path class="cls-11" d="M395.36,21.37l-.3.34Z" transform="translate(0 0.27)"/><path class="cls-10" d="M386.43,6.1a39.77,39.77,0,0,0-4.29-6l-.25.06-.8.26-.49.18c-.27.11-.53.23-.8.36l-.46.22c-.28.15-.55.32-.82.49l-.38.23a13.09,13.09,0,0,0-2.68,19.33h0l13.59-11.5A18.91,18.91,0,0,1,386.43,6.1Z" transform="translate(0 0.27)"/><path class="cls-11" d="M386.43,6.1a39.77,39.77,0,0,0-4.29-6l-.25.06-.8.26-.49.18c-.27.11-.53.23-.8.36l-.46.22c-.28.15-.55.32-.82.49l-.38.23a13.09,13.09,0,0,0-2.68,19.33h0l13.59-11.5A18.91,18.91,0,0,1,386.43,6.1Z" transform="translate(0 0.27)"/><path class="cls-10" d="M389.05,9.76l-13.59,11.5.08.09,13.59-11.5Z" transform="translate(0 0.27)"/><path class="cls-11" d="M389.05,9.76l-13.59,11.5.08.09,13.59-11.5Z" transform="translate(0 0.27)"/><path class="cls-10" d="M389.13,9.85l-13.59,11.5.42.44L389.54,10.3Z" transform="translate(0 0.27)"/><path class="cls-11" d="M389.13,9.85l-13.59,11.5.42.44L389.54,10.3Z" transform="translate(0 0.27)"/><path class="cls-10" d="M379.94,24.66a12.92,12.92,0,0,0,3.19,1,13.12,13.12,0,0,0,2.5.21,13.29,13.29,0,0,0,2.51-.27c.41-.09.82-.2,1.23-.32a13.25,13.25,0,0,0,4.56-2.51,11.68,11.68,0,0,0,1.13-1.09l.3-.34c.24-.28.48-.58.7-.88l.26-.37c.23-.35.45-.7.65-1.07a2.25,2.25,0,0,0,.12-.21,12.64,12.64,0,0,0,.63-1.41s0,0,0,0-2.22-1.56-4.74-3.77Z" transform="translate(0 0.27)"/><path class="cls-11" d="M379.94,24.66a12.92,12.92,0,0,0,3.19,1,13.12,13.12,0,0,0,2.5.21,13.29,13.29,0,0,0,2.51-.27c.41-.09.82-.2,1.23-.32a13.25,13.25,0,0,0,4.56-2.51,11.68,11.68,0,0,0,1.13-1.09l.3-.34c.24-.28.48-.58.7-.88l.26-.37c.23-.35.45-.7.65-1.07a2.25,2.25,0,0,0,.12-.21,12.64,12.64,0,0,0,.63-1.41s0,0,0,0-2.22-1.56-4.74-3.77Z" transform="translate(0 0.27)"/><path class="cls-10" d="M379.94,24.66l13.05-11a46.43,46.43,0,0,1-3.45-3.32L376,21.79A13,13,0,0,0,379.94,24.66Z" transform="translate(0 0.27)"/><path class="cls-11" d="M379.94,24.66l13.05-11a46.43,46.43,0,0,1-3.45-3.32L376,21.79A13,13,0,0,0,379.94,24.66Z" transform="translate(0 0.27)"/><path class="cls-3" d="M850.39,73.23V25.83A24.64,24.64,0,0,1,829.18,0H812.85l32.64,71.18A3.91,3.91,0,0,0,850.39,73.23Z" transform="translate(0 0.27)"/><path class="cls-11" d="M850.39,73.23V25.83A24.64,24.64,0,0,1,829.18,0H812.85l32.64,71.18A3.91,3.91,0,0,0,850.39,73.23Z" transform="translate(0 0.27)"/><path class="cls-7" d="M845.35,20.16a20.61,20.61,0,0,1-5-3.18,20.52,20.52,0,0,1-3.93-4.55,20.48,20.48,0,0,1-1.85-3.72,19,19,0,0,1-.6-1.85c0-.08-.05-.16-.07-.24-.15-.58-.27-1.17-.37-1.75l-.06-.34c-.09-.57-.15-1.14-.19-1.71,0-.12,0-.24,0-.36,0-.57,0-1.14,0-1.71a2.83,2.83,0,0,1,0-.29c0-.15,0-.31,0-.46h-4.11a24.64,24.64,0,0,0,21.21,25.83V21.67A20.93,20.93,0,0,1,845.35,20.16Z" transform="translate(0 0.27)"/><path class="cls-11" d="M845.35,20.16a20.61,20.61,0,0,1-5-3.18,20.52,20.52,0,0,1-3.93-4.55,20.48,20.48,0,0,1-1.85-3.72,19,19,0,0,1-.6-1.85c0-.08-.05-.16-.07-.24-.15-.58-.27-1.17-.37-1.75l-.06-.34c-.09-.57-.15-1.14-.19-1.71,0-.12,0-.24,0-.36,0-.57,0-1.14,0-1.71a2.83,2.83,0,0,1,0-.29c0-.15,0-.31,0-.46h-4.11a24.64,24.64,0,0,0,21.21,25.83V21.67A20.93,20.93,0,0,1,845.35,20.16Z" transform="translate(0 0.27)"/><path class="cls-9" d="M834,6.86c0-.08-.05-.16-.07-.24C833.93,6.7,834,6.78,834,6.86Z" transform="translate(0 0.27)"/><path class="cls-11" d="M834,6.86c0-.08-.05-.16-.07-.24C833.93,6.7,834,6.78,834,6.86Z" transform="translate(0 0.27)"/><path class="cls-9" d="M833.25.75a2.83,2.83,0,0,1,0-.29A2.83,2.83,0,0,0,833.25.75Z" transform="translate(0 0.27)"/><path class="cls-11" d="M833.25.75a2.83,2.83,0,0,1,0-.29A2.83,2.83,0,0,0,833.25.75Z" transform="translate(0 0.27)"/><path class="cls-9" d="M833.54,4.87l-.06-.34Z" transform="translate(0 0.27)"/><path class="cls-11" d="M833.54,4.87l-.06-.34Z" transform="translate(0 0.27)"/><path class="cls-9" d="M833.29,2.82c0-.12,0-.24,0-.36C833.28,2.58,833.28,2.7,833.29,2.82Z" transform="translate(0 0.27)"/><path class="cls-11" d="M833.29,2.82c0-.12,0-.24,0-.36C833.28,2.58,833.28,2.7,833.29,2.82Z" transform="translate(0 0.27)"/><path class="cls-9" d="M845.35,20.16a20.93,20.93,0,0,0,5,1.51h0A20.93,20.93,0,0,1,845.35,20.16Z" transform="translate(0 0.27)"/><path class="cls-11" d="M845.35,20.16a20.93,20.93,0,0,0,5,1.51h0A20.93,20.93,0,0,1,845.35,20.16Z" transform="translate(0 0.27)"/><path class="cls-9" d="M836.43,12.43a20.48,20.48,0,0,1-1.85-3.72A20.48,20.48,0,0,0,836.43,12.43Z" transform="translate(0 0.27)"/><path class="cls-11" d="M836.43,12.43a20.48,20.48,0,0,1-1.85-3.72A20.48,20.48,0,0,0,836.43,12.43Z" transform="translate(0 0.27)"/><path class="cls-9" d="M845.35,20.16a20.61,20.61,0,0,1-5-3.18A20.61,20.61,0,0,0,845.35,20.16Z" transform="translate(0 0.27)"/><path class="cls-11" d="M845.35,20.16a20.61,20.61,0,0,1-5-3.18A20.61,20.61,0,0,0,845.35,20.16Z" transform="translate(0 0.27)"/><path class="cls-10" d="M833.91,6.62c-.15-.58-.27-1.17-.37-1.75C833.64,5.45,833.76,6,833.91,6.62Z" transform="translate(0 0.27)"/><path class="cls-11" d="M833.91,6.62c-.15-.58-.27-1.17-.37-1.75C833.64,5.45,833.76,6,833.91,6.62Z" transform="translate(0 0.27)"/><path class="cls-10" d="M833.48,4.53c-.09-.57-.15-1.14-.19-1.71C833.33,3.39,833.39,4,833.48,4.53Z" transform="translate(0 0.27)"/><path class="cls-11" d="M833.48,4.53c-.09-.57-.15-1.14-.19-1.71C833.33,3.39,833.39,4,833.48,4.53Z" transform="translate(0 0.27)"/><path class="cls-10" d="M834.58,8.71a19,19,0,0,1-.6-1.85A19,19,0,0,0,834.58,8.71Z" transform="translate(0 0.27)"/><path class="cls-11" d="M834.58,8.71a19,19,0,0,1-.6-1.85A19,19,0,0,0,834.58,8.71Z" transform="translate(0 0.27)"/><path class="cls-10" d="M833.29,0c0,.15,0,.31,0,.46,0-.15,0-.31,0-.46Z" transform="translate(0 0.27)"/><path class="cls-11" d="M833.29,0c0,.15,0,.31,0,.46,0-.15,0-.31,0-.46Z" transform="translate(0 0.27)"/><path class="cls-10" d="M833.27,2.46c0-.57,0-1.14,0-1.71C833.23,1.32,833.24,1.89,833.27,2.46Z" transform="translate(0 0.27)"/><path class="cls-11" d="M833.27,2.46c0-.57,0-1.14,0-1.71C833.23,1.32,833.24,1.89,833.27,2.46Z" transform="translate(0 0.27)"/><path class="cls-10" d="M850.39,0H833.31c0,.15,0,.31,0,.46a2.83,2.83,0,0,0,0,.29c0,.57,0,1.14,0,1.71,0,.12,0,.24,0,.36,0,.57.1,1.14.19,1.71l.06.34c.1.58.22,1.17.37,1.75,0,.08.05.16.07.24a19,19,0,0,0,.6,1.85,20.48,20.48,0,0,0,1.85,3.72A20.52,20.52,0,0,0,840.36,17a20.61,20.61,0,0,0,5,3.18,20.93,20.93,0,0,0,5,1.51Z" transform="translate(0 0.27)"/><path class="cls-11" d="M850.39,0H833.31c0,.15,0,.31,0,.46a2.83,2.83,0,0,0,0,.29c0,.57,0,1.14,0,1.71,0,.12,0,.24,0,.36,0,.57.1,1.14.19,1.71l.06.34c.1.58.22,1.17.37,1.75,0,.08.05.16.07.24a19,19,0,0,0,.6,1.85,20.48,20.48,0,0,0,1.85,3.72A20.52,20.52,0,0,0,840.36,17a20.61,20.61,0,0,0,5,3.18,20.93,20.93,0,0,0,5,1.51Z" transform="translate(0 0.27)"/><path class="cls-3" d="M54.56,52.63a3.84,3.84,0,0,0,1.27-.79,3.84,3.84,0,0,1-1.27.79L26.93,63.1,12.29,24.47l-.18.07h0A24.51,24.51,0,0,1,0,25.92V73.31l0,0Z" transform="translate(0 0.27)"/><path class="cls-11" d="M54.56,52.63a3.84,3.84,0,0,0,1.27-.79,3.84,3.84,0,0,1-1.27.79L26.93,63.1,12.29,24.47l-.18.07h0A24.51,24.51,0,0,1,0,25.92V73.31l0,0Z" transform="translate(0 0.27)"/><path class="cls-4" d="M28,0c0,.41,0,.81,0,1.21A24.36,24.36,0,0,1,27.61,6c-.14.78-.33,1.55-.54,2.31s-.48,1.51-.77,2.24a24.06,24.06,0,0,1-1.53,3.2,24.12,24.12,0,0,1-2,2.95c-.24.31-.49.62-.75.92A24.33,24.33,0,0,1,19.61,20l2.87,7.56a2.1,2.1,0,0,1-1.22,2.7l-3.07,1.16a2.09,2.09,0,0,1-2.7-1.21l-2.32-6.14c-.29.13-.58.25-.88.36L26.93,63.1,54.56,52.63a3.84,3.84,0,0,0,1.27-.79,3.91,3.91,0,0,0,1.08-4.06L41.91,0H28Z" transform="translate(0 0.27)"/><path class="cls-11" d="M28,0c0,.41,0,.81,0,1.21A24.36,24.36,0,0,1,27.61,6c-.14.78-.33,1.55-.54,2.31s-.48,1.51-.77,2.24a24.06,24.06,0,0,1-1.53,3.2,24.12,24.12,0,0,1-2,2.95c-.24.31-.49.62-.75.92A24.33,24.33,0,0,1,19.61,20l2.87,7.56a2.1,2.1,0,0,1-1.22,2.7l-3.07,1.16a2.09,2.09,0,0,1-2.7-1.21l-2.32-6.14c-.29.13-.58.25-.88.36L26.93,63.1,54.56,52.63a3.84,3.84,0,0,0,1.27-.79,3.91,3.91,0,0,0,1.08-4.06L41.91,0H28Z" transform="translate(0 0.27)"/><path class="cls-4" d="M14.42,23.53c-.41.21-.83.4-1.25.58l2.32,6.14a2.09,2.09,0,0,0,2.7,1.21l3.07-1.16a2.1,2.1,0,0,0,1.22-2.7L19.61,20a.52.52,0,0,1-.11.1A24.32,24.32,0,0,1,14.42,23.53Z" transform="translate(0 0.27)"/><path class="cls-11" d="M14.42,23.53c-.41.21-.83.4-1.25.58l2.32,6.14a2.09,2.09,0,0,0,2.7,1.21l3.07-1.16a2.1,2.1,0,0,0,1.22-2.7L19.61,20a.52.52,0,0,1-.11.1A24.32,24.32,0,0,1,14.42,23.53Z" transform="translate(0 0.27)"/><path class="cls-7" d="M4.62,22q-1,.06-2,0c-.67,0-1.33-.09-2-.18-.21,0-.41-.08-.62-.11v4.17a24.51,24.51,0,0,0,12.11-1.38l-1.45-3.83A20.25,20.25,0,0,1,4.62,22Z" transform="translate(0 0.27)"/><path class="cls-11" d="M4.62,22q-1,.06-2,0c-.67,0-1.33-.09-2-.18-.21,0-.41-.08-.62-.11v4.17a24.51,24.51,0,0,0,12.11-1.38l-1.45-3.83A20.25,20.25,0,0,1,4.62,22Z" transform="translate(0 0.27)"/><path class="cls-7" d="M28,0h0Z" transform="translate(0 0.27)"/><path class="cls-11" d="M28,0h0Z" transform="translate(0 0.27)"/><path class="cls-7" d="M28,0c0,.41,0,.81,0,1.21C28,.82,28,.42,28,0Z" transform="translate(0 0.27)"/><path class="cls-11" d="M28,0c0,.41,0,.81,0,1.21C28,.82,28,.42,28,0Z" transform="translate(0 0.27)"/><path class="cls-8" d="M12.11,24.54h0l.18-.07h0Z" transform="translate(0 0.27)"/><path class="cls-11" d="M12.11,24.54h0l.18-.07h0Z" transform="translate(0 0.27)"/><path class="cls-8" d="M19.61,20h0A24.33,24.33,0,0,0,22,17.6,24.33,24.33,0,0,1,19.61,20Z" transform="translate(0 0.27)"/><path class="cls-11" d="M19.61,20h0A24.33,24.33,0,0,0,22,17.6,24.33,24.33,0,0,1,19.61,20Z" transform="translate(0 0.27)"/><path class="cls-8" d="M13.17,24.11c-.29.13-.58.25-.88.36h0c.3-.11.59-.23.88-.36Z" transform="translate(0 0.27)"/><path class="cls-11" d="M13.17,24.11c-.29.13-.58.25-.88.36h0c.3-.11.59-.23.88-.36Z" transform="translate(0 0.27)"/><path class="cls-8" d="M24.77,13.73a24.12,24.12,0,0,1-2,2.95A24.12,24.12,0,0,0,24.77,13.73Z" transform="translate(0 0.27)"/><path class="cls-11" d="M24.77,13.73a24.12,24.12,0,0,1-2,2.95A24.12,24.12,0,0,0,24.77,13.73Z" transform="translate(0 0.27)"/><path class="cls-8" d="M27.61,6c-.14.78-.33,1.55-.54,2.31C27.28,7.53,27.47,6.76,27.61,6Z" transform="translate(0 0.27)"/><path class="cls-11" d="M27.61,6c-.14.78-.33,1.55-.54,2.31C27.28,7.53,27.47,6.76,27.61,6Z" transform="translate(0 0.27)"/><path class="cls-8" d="M28,1.22A24.36,24.36,0,0,1,27.61,6,24.36,24.36,0,0,0,28,1.22Z" transform="translate(0 0.27)"/><path class="cls-11" d="M28,1.22A24.36,24.36,0,0,1,27.61,6,24.36,24.36,0,0,0,28,1.22Z" transform="translate(0 0.27)"/><path class="cls-8" d="M27.07,8.29c-.22.76-.48,1.51-.77,2.24C26.59,9.8,26.85,9.05,27.07,8.29Z" transform="translate(0 0.27)"/><path class="cls-11" d="M27.07,8.29c-.22.76-.48,1.51-.77,2.24C26.59,9.8,26.85,9.05,27.07,8.29Z" transform="translate(0 0.27)"/><path class="cls-8" d="M26.3,10.53a24.06,24.06,0,0,1-1.53,3.2A24.06,24.06,0,0,0,26.3,10.53Z" transform="translate(0 0.27)"/><path class="cls-11" d="M26.3,10.53a24.06,24.06,0,0,1-1.53,3.2A24.06,24.06,0,0,0,26.3,10.53Z" transform="translate(0 0.27)"/><path class="cls-8" d="M19.5,20.14a24.32,24.32,0,0,1-5.08,3.39A24.32,24.32,0,0,0,19.5,20.14Z" transform="translate(0 0.27)"/><path class="cls-11" d="M19.5,20.14a24.32,24.32,0,0,1-5.08,3.39A24.32,24.32,0,0,0,19.5,20.14Z" transform="translate(0 0.27)"/><path class="cls-8" d="M13.17,24.11h0c.42-.18.84-.37,1.25-.58C14,23.74,13.59,23.93,13.17,24.11Z" transform="translate(0 0.27)"/><path class="cls-11" d="M13.17,24.11h0c.42-.18.84-.37,1.25-.58C14,23.74,13.59,23.93,13.17,24.11Z" transform="translate(0 0.27)"/><path class="cls-8" d="M19.5,20.14a.52.52,0,0,0,.11-.1h0A.52.52,0,0,1,19.5,20.14Z" transform="translate(0 0.27)"/><path class="cls-11" d="M19.5,20.14a.52.52,0,0,0,.11-.1h0A.52.52,0,0,1,19.5,20.14Z" transform="translate(0 0.27)"/><path class="cls-8" d="M12.29,24.47l-1.45-3.84-.18.08h0l1.45,3.83h0Z" transform="translate(0 0.27)"/><path class="cls-11" d="M12.29,24.47l-1.45-3.84-.18.08h0l1.45,3.83h0Z" transform="translate(0 0.27)"/><path class="cls-8" d="M23.86,0a20.59,20.59,0,0,1-3.71,13.36A20.26,20.26,0,0,1,18,15.87L19.61,20A24.33,24.33,0,0,0,22,17.6c.26-.3.51-.61.75-.92a24.12,24.12,0,0,0,2-2.95,24.06,24.06,0,0,0,1.53-3.2c.29-.73.55-1.48.77-2.24s.4-1.53.54-2.31A24.36,24.36,0,0,0,28,1.22c0-.4,0-.8,0-1.21H23.86Z" transform="translate(0 0.27)"/><path class="cls-11" d="M23.86,0a20.59,20.59,0,0,1-3.71,13.36A20.26,20.26,0,0,1,18,15.87L19.61,20A24.33,24.33,0,0,0,22,17.6c.26-.3.51-.61.75-.92a24.12,24.12,0,0,0,2-2.95,24.06,24.06,0,0,0,1.53-3.2c.29-.73.55-1.48.77-2.24s.4-1.53.54-2.31A24.36,24.36,0,0,0,28,1.22c0-.4,0-.8,0-1.21H23.86Z" transform="translate(0 0.27)"/><path class="cls-8" d="M10.84,20.63l1.45,3.84c.3-.11.59-.23.88-.36L11.7,20.25C11.41,20.38,11.13,20.52,10.84,20.63Z" transform="translate(0 0.27)"/><path class="cls-11" d="M10.84,20.63l1.45,3.84c.3-.11.59-.23.88-.36L11.7,20.25C11.41,20.38,11.13,20.52,10.84,20.63Z" transform="translate(0 0.27)"/><path class="cls-8" d="M19.5,20.14a.52.52,0,0,0,.11-.1L18,15.87a19,19,0,0,1-2,1.81,20.08,20.08,0,0,1-3.46,2.19c-.28.14-.58.25-.88.38l1.47,3.86c.42-.18.84-.37,1.25-.58A24.32,24.32,0,0,0,19.5,20.14Z" transform="translate(0 0.27)"/><path class="cls-11" d="M19.5,20.14a.52.52,0,0,0,.11-.1L18,15.87a19,19,0,0,1-2,1.81,20.08,20.08,0,0,1-3.46,2.19c-.28.14-.58.25-.88.38l1.47,3.86c.42-.18.84-.37,1.25-.58A24.32,24.32,0,0,0,19.5,20.14Z" transform="translate(0 0.27)"/><path class="cls-9" d="M0,21.75c.21,0,.41.09.62.11-.21,0-.41-.08-.62-.11Z" transform="translate(0 0.27)"/><path class="cls-11" d="M0,21.75c.21,0,.41.09.62.11-.21,0-.41-.08-.62-.11Z" transform="translate(0 0.27)"/><path class="cls-9" d="M2.61,22c-.67,0-1.33-.09-2-.18C1.28,22,1.94,22,2.61,22Z" transform="translate(0 0.27)"/><path class="cls-11" d="M2.61,22c-.67,0-1.33-.09-2-.18C1.28,22,1.94,22,2.61,22Z" transform="translate(0 0.27)"/><path class="cls-9" d="M20.15,13.36A20.59,20.59,0,0,0,23.86,0h0A20.59,20.59,0,0,1,20.15,13.36Z" transform="translate(0 0.27)"/><path class="cls-11" d="M20.15,13.36A20.59,20.59,0,0,0,23.86,0h0A20.59,20.59,0,0,1,20.15,13.36Z" transform="translate(0 0.27)"/><path class="cls-9" d="M16,17.68a20.08,20.08,0,0,1-3.46,2.19A20.08,20.08,0,0,0,16,17.68Z" transform="translate(0 0.27)"/><path class="cls-11" d="M16,17.68a20.08,20.08,0,0,1-3.46,2.19A20.08,20.08,0,0,0,16,17.68Z" transform="translate(0 0.27)"/><path class="cls-10" d="M4.62,22q-1,.06-2,0Q3.62,22.07,4.62,22Z" transform="translate(0 0.27)"/><path class="cls-11" d="M4.62,22q-1,.06-2,0Q3.62,22.07,4.62,22Z" transform="translate(0 0.27)"/><path class="cls-10" d="M0,0V21.75c.21,0,.41.09.62.11.66.09,1.32.15,2,.18s1.34,0,2,0a20.25,20.25,0,0,0,6-1.3L2.81,0Z" transform="translate(0 0.27)"/><path class="cls-11" d="M0,0V21.75c.21,0,.41.09.62.11.66.09,1.32.15,2,.18s1.34,0,2,0a20.25,20.25,0,0,0,6-1.3L2.81,0Z" transform="translate(0 0.27)"/><path class="cls-10" d="M2.81,0l7.85,20.71h0l.18-.08L3,0Z" transform="translate(0 0.27)"/><path class="cls-11" d="M2.81,0l7.85,20.71h0l.18-.08L3,0Z" transform="translate(0 0.27)"/><path class="cls-10" d="M4,0H3l7.83,20.63c.29-.11.57-.25.86-.38Z" transform="translate(0 0.27)"/><path class="cls-11" d="M4,0H3l7.83,20.63c.29-.11.57-.25.86-.38Z" transform="translate(0 0.27)"/><path class="cls-10" d="M23.86,0H12l6,15.87a20.26,20.26,0,0,0,2.12-2.51A20.59,20.59,0,0,0,23.86,0Z" transform="translate(0 0.27)"/><path class="cls-11" d="M23.86,0H12l6,15.87a20.26,20.26,0,0,0,2.12-2.51A20.59,20.59,0,0,0,23.86,0Z" transform="translate(0 0.27)"/><path class="cls-10" d="M4,0,11.7,20.25c.3-.13.6-.24.88-.38A20.08,20.08,0,0,0,16,17.68a19,19,0,0,0,2-1.81L12,0Z" transform="translate(0 0.27)"/><path class="cls-11" d="M4,0,11.7,20.25c.3-.13.6-.24.88-.38A20.08,20.08,0,0,0,16,17.68a19,19,0,0,0,2-1.81L12,0Z" transform="translate(0 0.27)"/><path class="cls-4" d="M19.46,779h0a3.91,3.91,0,0,1,.26.59l22.21,70.78h0L19.72,779.61A3.91,3.91,0,0,0,19.46,779Z" transform="translate(0 0.27)"/><path class="cls-11" d="M19.46,779h0a3.91,3.91,0,0,1,.26.59l22.21,70.78h0L19.72,779.61A3.91,3.91,0,0,0,19.46,779Z" transform="translate(0 0.27)"/><path class="cls-4" d="M0,818.64l3.26,8.6a21.16,21.16,0,0,1,2.25.09,23.47,23.47,0,0,1,2.36.32,24.72,24.72,0,0,1,14.93,9,21.52,21.52,0,0,1,1.4,2,24.22,24.22,0,0,1,2.23,4.47,25.19,25.19,0,0,1,1.07,3.61c.08.4.16.8.22,1.21.13.81.22,1.62.27,2.42H41.93L19.72,779.61a3.91,3.91,0,0,0-.26-.59L0,786.4Z" transform="translate(0 0.27)"/><path class="cls-11" d="M0,818.64l3.26,8.6a21.16,21.16,0,0,1,2.25.09,23.47,23.47,0,0,1,2.36.32,24.72,24.72,0,0,1,14.93,9,21.52,21.52,0,0,1,1.4,2,24.22,24.22,0,0,1,2.23,4.47,25.19,25.19,0,0,1,1.07,3.61c.08.4.16.8.22,1.21.13.81.22,1.62.27,2.42H41.93L19.72,779.61a3.91,3.91,0,0,0-.26-.59L0,786.4Z" transform="translate(0 0.27)"/><path class="cls-4" d="M3.26,827.24,0,818.64v8.84A24,24,0,0,1,3.26,827.24Z" transform="translate(0 0.27)"/><path class="cls-11" d="M3.26,827.24,0,818.64v8.84A24,24,0,0,1,3.26,827.24Z" transform="translate(0 0.27)"/><path class="cls-5" d="M14.58,777.11a3.92,3.92,0,0,1,4.34,1.09,3.53,3.53,0,0,1,.54.82l1.82-.69-2.93-7.72A5.72,5.72,0,0,0,11,767.28L0,771.43v11.21Z" transform="translate(0 0.27)"/><path class="cls-11" d="M14.58,777.11a3.92,3.92,0,0,1,4.34,1.09,3.53,3.53,0,0,1,.54.82l1.82-.69-2.93-7.72A5.72,5.72,0,0,0,11,767.28L0,771.43v11.21Z" transform="translate(0 0.27)"/><polygon class="cls-5" points="14.58 777.38 0 782.91 0 782.91 14.58 777.38"/><polygon class="cls-11" points="14.58 777.38 0 782.91 0 782.91 14.58 777.38"/><path class="cls-5" d="M19.46,779h0a3.53,3.53,0,0,0-.54-.82A3.53,3.53,0,0,1,19.46,779Z" transform="translate(0 0.27)"/><path class="cls-11" d="M19.46,779h0a3.53,3.53,0,0,0-.54-.82A3.53,3.53,0,0,1,19.46,779Z" transform="translate(0 0.27)"/><path class="cls-5" d="M14.58,777.11,0,782.64v3.76L19.46,779a3.53,3.53,0,0,0-.54-.82A3.92,3.92,0,0,0,14.58,777.11Z" transform="translate(0 0.27)"/><path class="cls-11" d="M14.58,777.11,0,782.64v3.76L19.46,779a3.53,3.53,0,0,0-.54-.82A3.92,3.92,0,0,0,14.58,777.11Z" transform="translate(0 0.27)"/><path class="cls-7" d="M28,850.39h0c0-.8-.14-1.61-.27-2.42C27.85,848.78,27.94,849.59,28,850.39Z" transform="translate(0 0.27)"/><path class="cls-11" d="M28,850.39h0c0-.8-.14-1.61-.27-2.42C27.85,848.78,27.94,849.59,28,850.39Z" transform="translate(0 0.27)"/><path class="cls-7" d="M27.5,846.76a25.19,25.19,0,0,0-1.07-3.61,24.22,24.22,0,0,0-2.23-4.47,24.22,24.22,0,0,1,2.23,4.47A25.19,25.19,0,0,1,27.5,846.76Z" transform="translate(0 0.27)"/><path class="cls-11" d="M27.5,846.76a25.19,25.19,0,0,0-1.07-3.61,24.22,24.22,0,0,0-2.23-4.47,24.22,24.22,0,0,1,2.23,4.47A25.19,25.19,0,0,1,27.5,846.76Z" transform="translate(0 0.27)"/><path class="cls-7" d="M5.51,827.33a23.47,23.47,0,0,1,2.36.32A23.47,23.47,0,0,0,5.51,827.33Z" transform="translate(0 0.27)"/><path class="cls-11" d="M5.51,827.33a23.47,23.47,0,0,1,2.36.32A23.47,23.47,0,0,0,5.51,827.33Z" transform="translate(0 0.27)"/><path class="cls-7" d="M22.8,836.69a21.52,21.52,0,0,1,1.4,2A21.52,21.52,0,0,0,22.8,836.69Z" transform="translate(0 0.27)"/><path class="cls-11" d="M22.8,836.69a21.52,21.52,0,0,1,1.4,2A21.52,21.52,0,0,0,22.8,836.69Z" transform="translate(0 0.27)"/><path class="cls-8" d="M16.6,836.16h0l.07.07c.14.11.27.24.41.36.31.28.62.57.91.87l.38.37c.37.4.73.82,1.07,1.24.1.14.2.27.31.4.29.4.58.8.85,1.22l.18.27c.31.49.6,1,.87,1.54l.2.4q.41.83.75,1.71h0a21,21,0,0,1,1.08,4c.09.59.15,1.18.19,1.77H28c0-.8-.14-1.61-.27-2.42-.06-.41-.14-.81-.22-1.21a25.19,25.19,0,0,0-1.07-3.61,24.22,24.22,0,0,0-2.23-4.47,21.52,21.52,0,0,0-1.4-2,24.72,24.72,0,0,0-14.93-9,23.47,23.47,0,0,0-2.36-.32,21.16,21.16,0,0,0-2.25-.09l1.58,4.17A20.57,20.57,0,0,1,16.6,836.16Z" transform="translate(0 0.27)"/><path class="cls-11" d="M16.6,836.16h0l.07.07c.14.11.27.24.41.36.31.28.62.57.91.87l.38.37c.37.4.73.82,1.07,1.24.1.14.2.27.31.4.29.4.58.8.85,1.22l.18.27c.31.49.6,1,.87,1.54l.2.4q.41.83.75,1.71h0a21,21,0,0,1,1.08,4c.09.59.15,1.18.19,1.77H28c0-.8-.14-1.61-.27-2.42-.06-.41-.14-.81-.22-1.21a25.19,25.19,0,0,0-1.07-3.61,24.22,24.22,0,0,0-2.23-4.47,21.52,21.52,0,0,0-1.4-2,24.72,24.72,0,0,0-14.93-9,23.47,23.47,0,0,0-2.36-.32,21.16,21.16,0,0,0-2.25-.09l1.58,4.17A20.57,20.57,0,0,1,16.6,836.16Z" transform="translate(0 0.27)"/><path class="cls-8" d="M0,827.48v4.14a20.2,20.2,0,0,1,4.84-.21l-1.58-4.17A24,24,0,0,0,0,827.48Z" transform="translate(0 0.27)"/><path class="cls-11" d="M0,827.48v4.14a20.2,20.2,0,0,1,4.84-.21l-1.58-4.17A24,24,0,0,0,0,827.48Z" transform="translate(0 0.27)"/><path class="cls-9" d="M0,842.94v2.37L.78,845Z" transform="translate(0 0.27)"/><path class="cls-11" d="M0,842.94v2.37L.78,845Z" transform="translate(0 0.27)"/><path class="cls-9" d="M1,844.93l-1-2.54v.55L.78,845Z" transform="translate(0 0.27)"/><path class="cls-11" d="M1,844.93l-1-2.54v.55L.78,845Z" transform="translate(0 0.27)"/><path class="cls-9" d="M16.67,836.22c.14.11.27.24.41.36C16.94,836.46,16.81,836.33,16.67,836.22Z" transform="translate(0 0.27)"/><path class="cls-11" d="M16.67,836.22c.14.11.27.24.41.36C16.94,836.46,16.81,836.33,16.67,836.22Z" transform="translate(0 0.27)"/><path class="cls-9" d="M20.6,840.68l.18.27Z" transform="translate(0 0.27)"/><path class="cls-11" d="M20.6,840.68l.18.27Z" transform="translate(0 0.27)"/><path class="cls-9" d="M18,837.45l.38.37Z" transform="translate(0 0.27)"/><path class="cls-11" d="M18,837.45l.38.37Z" transform="translate(0 0.27)"/><path class="cls-9" d="M19.44,839.06c.1.14.2.27.31.4C19.64,839.33,19.54,839.2,19.44,839.06Z" transform="translate(0 0.27)"/><path class="cls-11" d="M19.44,839.06c.1.14.2.27.31.4C19.64,839.33,19.54,839.2,19.44,839.06Z" transform="translate(0 0.27)"/><path class="cls-9" d="M21.65,842.49l.2.4Z" transform="translate(0 0.27)"/><path class="cls-11" d="M21.65,842.49l.2.4Z" transform="translate(0 0.27)"/><path class="cls-9" d="M23.87,850.39h0c0-.59-.1-1.18-.19-1.77C23.77,849.21,23.83,849.8,23.87,850.39Z" transform="translate(0 0.27)"/><path class="cls-11" d="M23.87,850.39h0c0-.59-.1-1.18-.19-1.77C23.77,849.21,23.83,849.8,23.87,850.39Z" transform="translate(0 0.27)"/><path class="cls-9" d="M16.6,836.16a20.57,20.57,0,0,0-11.76-4.75l3.71,9.79C13.11,838.63,16.54,836.2,16.6,836.16Z" transform="translate(0 0.27)"/><path class="cls-11" d="M16.6,836.16a20.57,20.57,0,0,0-11.76-4.75l3.71,9.79C13.11,838.63,16.54,836.2,16.6,836.16Z" transform="translate(0 0.27)"/><path class="cls-9" d="M23.68,848.62a21,21,0,0,0-1.08-4h0A21,21,0,0,1,23.68,848.62Z" transform="translate(0 0.27)"/><path class="cls-11" d="M23.68,848.62a21,21,0,0,0-1.08-4h0A21,21,0,0,1,23.68,848.62Z" transform="translate(0 0.27)"/><path class="cls-9" d="M1.83,844.56,0,839.72v2.67l1,2.54Z" transform="translate(0 0.27)"/><path class="cls-11" d="M1.83,844.56,0,839.72v2.67l1,2.54Z" transform="translate(0 0.27)"/><path class="cls-9" d="M1.83,844.56a70.16,70.16,0,0,0,6.72-3.36l-3.71-9.79a20.2,20.2,0,0,0-4.84.21v8.1Z" transform="translate(0 0.27)"/><path class="cls-11" d="M1.83,844.56a70.16,70.16,0,0,0,6.72-3.36l-3.71-9.79a20.2,20.2,0,0,0-4.84.21v8.1Z" transform="translate(0 0.27)"/><path class="cls-10" d="M20.78,841c.31.49.6,1,.87,1.54C21.38,842,21.09,841.44,20.78,841Z" transform="translate(0 0.27)"/><path class="cls-11" d="M20.78,841c.31.49.6,1,.87,1.54C21.38,842,21.09,841.44,20.78,841Z" transform="translate(0 0.27)"/><path class="cls-10" d="M21.85,842.89q.41.83.75,1.71Q22.26,843.71,21.85,842.89Z" transform="translate(0 0.27)"/><path class="cls-11" d="M21.85,842.89q.41.83.75,1.71Q22.26,843.71,21.85,842.89Z" transform="translate(0 0.27)"/><path class="cls-10" d="M17.08,836.58c.31.28.62.57.91.87C17.7,837.15,17.39,836.86,17.08,836.58Z" transform="translate(0 0.27)"/><path class="cls-11" d="M17.08,836.58c.31.28.62.57.91.87C17.7,837.15,17.39,836.86,17.08,836.58Z" transform="translate(0 0.27)"/><path class="cls-10" d="M16.6,836.15h0l.07.06Z" transform="translate(0 0.27)"/><path class="cls-11" d="M16.6,836.15h0l.07.06Z" transform="translate(0 0.27)"/><path class="cls-10" d="M18.37,837.82c.37.4.73.82,1.07,1.24C19.1,838.64,18.74,838.22,18.37,837.82Z" transform="translate(0 0.27)"/><path class="cls-11" d="M18.37,837.82c.37.4.73.82,1.07,1.24C19.1,838.64,18.74,838.22,18.37,837.82Z" transform="translate(0 0.27)"/><path class="cls-10" d="M19.75,839.46c.29.4.58.8.85,1.22C20.33,840.26,20,839.86,19.75,839.46Z" transform="translate(0 0.27)"/><path class="cls-11" d="M19.75,839.46c.29.4.58.8.85,1.22C20.33,840.26,20,839.86,19.75,839.46Z" transform="translate(0 0.27)"/><path class="cls-10" d="M0,845.31v5.08H2.83L.78,845Z" transform="translate(0 0.27)"/><path class="cls-11" d="M0,845.31v5.08H2.83L.78,845Z" transform="translate(0 0.27)"/><path class="cls-10" d="M.78,845l2.05,5.39H3L1,844.93Z" transform="translate(0 0.27)"/><path class="cls-11" d="M.78,845l2.05,5.39H3L1,844.93Z" transform="translate(0 0.27)"/><path class="cls-10" d="M1,844.93,3,850.39H4l-2.21-5.83Z" transform="translate(0 0.27)"/><path class="cls-11" d="M1,844.93,3,850.39H4l-2.21-5.83Z" transform="translate(0 0.27)"/><path class="cls-10" d="M12,850.39H23.87c0-.59-.1-1.18-.19-1.77a21,21,0,0,0-1.08-4h0q-.34-.89-.75-1.71l-.2-.4c-.27-.53-.56-1-.87-1.54l-.18-.27c-.27-.42-.56-.82-.85-1.22-.11-.13-.21-.26-.31-.4-.34-.42-.7-.84-1.07-1.24l-.38-.37c-.29-.3-.6-.59-.91-.87-.14-.12-.27-.25-.41-.36l-.07-.06c-.06,0-3.49,2.47-8,5Z" transform="translate(0 0.27)"/><path class="cls-11" d="M12,850.39H23.87c0-.59-.1-1.18-.19-1.77a21,21,0,0,0-1.08-4h0q-.34-.89-.75-1.71l-.2-.4c-.27-.53-.56-1-.87-1.54l-.18-.27c-.27-.42-.56-.82-.85-1.22-.11-.13-.21-.26-.31-.4-.34-.42-.7-.84-1.07-1.24l-.38-.37c-.29-.3-.6-.59-.91-.87-.14-.12-.27-.25-.41-.36l-.07-.06c-.06,0-3.49,2.47-8,5Z" transform="translate(0 0.27)"/><path class="cls-10" d="M1.83,844.56,4,850.39h8L8.55,841.2A70.16,70.16,0,0,1,1.83,844.56Z" transform="translate(0 0.27)"/><path class="cls-11" d="M1.83,844.56,4,850.39h8L8.55,841.2A70.16,70.16,0,0,1,1.83,844.56Z" transform="translate(0 0.27)"/><polygon class="cls-2" points="834.72 777.64 827.73 780.28 827.73 780.28 834.72 777.64 834.72 777.64"/><polygon class="cls-11" points="834.72 777.64 827.73 780.28 827.73 780.28 834.72 777.64 834.72 777.64"/><path class="cls-2" d="M822.36,744.78l-.1-.28a7.19,7.19,0,0,0-9.26-4.17l-.27.11-39.88,22.14a2.1,2.1,0,0,0-1.22,2.7l1.14,3a2.09,2.09,0,0,0,2.7,1.22l37.95-21.32a2.09,2.09,0,0,1,2.7,1.21l9.55,25.19,7-2.64Z" transform="translate(0 0.27)"/><path class="cls-11" d="M822.36,744.78l-.1-.28a7.19,7.19,0,0,0-9.26-4.17l-.27.11-39.88,22.14a2.1,2.1,0,0,0-1.22,2.7l1.14,3a2.09,2.09,0,0,0,2.7,1.22l37.95-21.32a2.09,2.09,0,0,1,2.7,1.21l9.55,25.19,7-2.64Z" transform="translate(0 0.27)"/><path class="cls-3" d="M845,828.85l.18-.07-13.39-35.34L793.42,808a3.72,3.72,0,0,0,.22.64l19.15,41.76h16.37A24.64,24.64,0,0,1,845,828.85Z" transform="translate(0 0.27)"/><path class="cls-11" d="M845,828.85l.18-.07-13.39-35.34L793.42,808a3.72,3.72,0,0,0,.22.64l19.15,41.76h16.37A24.64,24.64,0,0,1,845,828.85Z" transform="translate(0 0.27)"/><polygon class="cls-4" points="850.39 819 850.39 786.67 839.68 790.73 850.39 819"/><polygon class="cls-11" points="850.39 819 850.39 786.67 839.68 790.73 850.39 819"/><path class="cls-4" d="M832.69,793.11l-.88.33,13.39,35.34.9-.31Z" transform="translate(0 0.27)"/><path class="cls-11" d="M832.69,793.11l-.88.33,13.39,35.34.9-.31Z" transform="translate(0 0.27)"/><path class="cls-4" d="M832.69,793.11l13.41,35.36c.44-.14.88-.28,1.32-.4a26,26,0,0,1,3-.59v-8.75l-10.71-28.27Z" transform="translate(0 0.27)"/><path class="cls-11" d="M832.69,793.11l13.41,35.36c.44-.14.88-.28,1.32-.4a26,26,0,0,1,3-.59v-8.75l-10.71-28.27Z" transform="translate(0 0.27)"/><polygon class="cls-5" points="838.43 787.44 850.39 782.91 850.39 771.69 834.72 777.64 838.43 787.44"/><polygon class="cls-11" points="838.43 787.44 850.39 782.91 850.39 771.69 834.72 777.64 838.43 787.44"/><path class="cls-5" d="M795.82,803.32l35.62-13.5-3.71-9.8-36.2,13.72a5.73,5.73,0,0,0-3.33,7.39l2.93,7.73,2.29-.87A3.93,3.93,0,0,1,795.82,803.32Z" transform="translate(0 0.27)"/><path class="cls-11" d="M795.82,803.32l35.62-13.5-3.71-9.8-36.2,13.72a5.73,5.73,0,0,0-3.33,7.39l2.93,7.73,2.29-.87A3.93,3.93,0,0,1,795.82,803.32Z" transform="translate(0 0.27)"/><rect class="cls-5" x="829.34" y="778.35" width="7.47" height="10.48" transform="translate(-223.66 346.43) rotate(-20.76)"/><rect class="cls-11" x="829.34" y="778.35" width="7.47" height="10.48" transform="translate(-223.66 346.43) rotate(-20.76)"/><polygon class="cls-5" points="850.39 782.91 850.39 782.91 838.43 787.44 838.43 787.44 850.39 782.91"/><polygon class="cls-11" points="850.39 782.91 850.39 782.91 838.43 787.44 838.43 787.44 850.39 782.91"/><path class="cls-5" d="M831.44,789.82h0l-35.62,13.5a3.93,3.93,0,0,0-2.4,4.67l38.39-14.55-1.25-3.29Z" transform="translate(0 0.27)"/><path class="cls-11" d="M831.44,789.82h0l-35.62,13.5a3.93,3.93,0,0,0-2.4,4.67l38.39-14.55-1.25-3.29Z" transform="translate(0 0.27)"/><polygon class="cls-5" points="831.45 790.09 838.43 787.44 838.43 787.44 831.45 790.09 831.45 790.09"/><polygon class="cls-11" points="831.45 790.09 838.43 787.44 838.43 787.44 831.45 790.09 831.45 790.09"/><rect class="cls-5" x="831.15" y="789.87" width="0.94" height="3.52" transform="translate(-226.6 346.44) rotate(-20.76)"/><rect class="cls-11" x="831.15" y="789.87" width="0.94" height="3.52" transform="translate(-226.6 346.44) rotate(-20.76)"/><polygon class="cls-5" points="838.43 787.44 839.68 790.73 850.39 786.67 850.39 782.91 838.43 787.44"/><polygon class="cls-11" points="838.43 787.44 839.68 790.73 850.39 786.67 850.39 782.91 838.43 787.44"/><rect class="cls-5" x="831.83" y="788.38" width="7.47" height="3.52" transform="translate(-225.82 347.74) rotate(-20.76)"/><rect class="cls-11" x="831.83" y="788.38" width="7.47" height="3.52" transform="translate(-225.82 347.74) rotate(-20.76)"/><path class="cls-6" d="M843.58,774l-1.22-3.21a2.39,2.39,0,0,0-3.07-1.39l-6.64,2.52,2.07,5.44Z" transform="translate(0 0.27)"/><path class="cls-11" d="M843.58,774l-1.22-3.21a2.39,2.39,0,0,0-3.07-1.39l-6.64,2.52,2.07,5.44Z" transform="translate(0 0.27)"/><path class="cls-6" d="M810.28,780.41a2.37,2.37,0,0,0-1.38,3.07l1.21,3.21L827.73,780l-2.06-5.45Z" transform="translate(0 0.27)"/><path class="cls-11" d="M810.28,780.41a2.37,2.37,0,0,0-1.38,3.07l1.21,3.21L827.73,780l-2.06-5.45Z" transform="translate(0 0.27)"/><rect class="cls-6" x="826.45" y="773.06" width="7.47" height="5.82" transform="translate(-221.14 344.91) rotate(-20.76)"/><rect class="cls-11" x="826.45" y="773.06" width="7.47" height="5.82" transform="translate(-221.14 344.91) rotate(-20.76)"/><path class="cls-7" d="M833.28,850.2h0a20.53,20.53,0,0,1,13.17-17.51L845,828.85l.18-.07h0l-.18.07a24.64,24.64,0,0,0-15.86,21.54h4.11A1.28,1.28,0,0,1,833.28,850.2Z" transform="translate(0 0.27)"/><path class="cls-11" d="M833.28,850.2h0a20.53,20.53,0,0,1,13.17-17.51L845,828.85l.18-.07h0l-.18.07a24.64,24.64,0,0,0-15.86,21.54h4.11A1.28,1.28,0,0,1,833.28,850.2Z" transform="translate(0 0.27)"/><path class="cls-7" d="M846.1,828.47h0l-.9.31h0Z" transform="translate(0 0.27)"/><path class="cls-11" d="M846.1,828.47h0l-.9.31h0Z" transform="translate(0 0.27)"/><path class="cls-7" d="M847.42,828.07c-.44.12-.88.26-1.32.4h0C846.54,828.33,847,828.19,847.42,828.07Z" transform="translate(0 0.27)"/><path class="cls-11" d="M847.42,828.07c-.44.12-.88.26-1.32.4h0C846.54,828.33,847,828.19,847.42,828.07Z" transform="translate(0 0.27)"/><path class="cls-7" d="M850.39,827.48a26,26,0,0,0-3,.59,26,26,0,0,1,3-.59Z" transform="translate(0 0.27)"/><path class="cls-11" d="M850.39,827.48a26,26,0,0,0-3,.59,26,26,0,0,1,3-.59Z" transform="translate(0 0.27)"/><path class="cls-8" d="M846.66,832.62l-1.46-3.84-.18.07,1.45,3.83h0Z" transform="translate(0 0.27)"/><path class="cls-11" d="M846.66,832.62l-1.46-3.84-.18.07,1.45,3.83h0Z" transform="translate(0 0.27)"/><path class="cls-8" d="M847.56,832.33l-1.46-3.86-.9.31,1.46,3.84C847,832.51,847.26,832.43,847.56,832.33Z" transform="translate(0 0.27)"/><path class="cls-11" d="M847.56,832.33l-1.46-3.86-.9.31,1.46,3.84C847,832.51,847.26,832.43,847.56,832.33Z" transform="translate(0 0.27)"/><path class="cls-8" d="M847.56,832.33a20.55,20.55,0,0,1,2.83-.71v-4.14a26,26,0,0,0-3,.59c-.44.12-.88.26-1.32.4Z" transform="translate(0 0.27)"/><path class="cls-11" d="M847.56,832.33a20.55,20.55,0,0,1,2.83-.71v-4.14a26,26,0,0,0-3,.59c-.44.12-.88.26-1.32.4Z" transform="translate(0 0.27)"/><path class="cls-9" d="M850.39,845.31V843l-3.92-10.34a20.53,20.53,0,0,0-13.17,17.51A61.93,61.93,0,0,1,844.37,847,27.29,27.29,0,0,0,850.39,845.31Z" transform="translate(0 0.27)"/><path class="cls-11" d="M850.39,845.31V843l-3.92-10.34a20.53,20.53,0,0,0-13.17,17.51A61.93,61.93,0,0,1,844.37,847,27.29,27.29,0,0,0,850.39,845.31Z" transform="translate(0 0.27)"/><path class="cls-9" d="M850.39,842.47l-3.73-9.85-.19.06h0L850.39,843Z" transform="translate(0 0.27)"/><path class="cls-11" d="M850.39,842.47l-3.73-9.85-.19.06h0L850.39,843Z" transform="translate(0 0.27)"/><path class="cls-9" d="M850.39,842.47v-2.66l-2.83-7.48c-.3.1-.6.18-.9.29Z" transform="translate(0 0.27)"/><path class="cls-11" d="M850.39,842.47v-2.66l-2.83-7.48c-.3.1-.6.18-.9.29Z" transform="translate(0 0.27)"/><path class="cls-9" d="M850.39,831.62a20.55,20.55,0,0,0-2.83.71l2.83,7.48Z" transform="translate(0 0.27)"/><path class="cls-11" d="M850.39,831.62a20.55,20.55,0,0,0-2.83.71l2.83,7.48Z" transform="translate(0 0.27)"/><path class="cls-10" d="M833.3,850.19h0a1.28,1.28,0,0,0,0,.19h0C833.29,850.33,833.3,850.26,833.3,850.19Z" transform="translate(0 0.27)"/><path class="cls-11" d="M833.3,850.19h0a1.28,1.28,0,0,0,0,.19h0C833.29,850.33,833.3,850.26,833.3,850.19Z" transform="translate(0 0.27)"/><path class="cls-10" d="M850.39,850.39v-5.08a27.29,27.29,0,0,1-6,1.66,61.93,61.93,0,0,0-11.07,3.22c0,.07,0,.14,0,.2Z" transform="translate(0 0.27)"/><path class="cls-11" d="M850.39,850.39v-5.08a27.29,27.29,0,0,1-6,1.66,61.93,61.93,0,0,0-11.07,3.22c0,.07,0,.14,0,.2Z" transform="translate(0 0.27)"/></g></svg>