<svg xmlns="http://www.w3.org/2000/svg" viewBox="0 0 163.56 333.45">
  <defs>
    <style>
      .cloud{fill:#353535}.vuur{fill:#c01818}.niks{fill:none}
    </style>
  </defs>
  <path class="cloud" d="M83.07 1.56l-61.5 9a2.85 2.85 0 0 0-2.86 2.85v4.35a2.86 2.86 0 0 0 2.86 2.86l58.64-8.84a2.86 2.86 0 0 1 2.86 2.86v191.21a2.85 2.85 0 0 0 2.85 2.85h4.47a2.86 2.86 0 0 0 2.86-2.85V11.34a9.78 9.78 0 0 0-9.78-9.78z" transform="translate(0 -1.56)" id="straw"/>
  <path class="cloud" d="M163.56 253.23a30.57 30.57 0 0 0-17.88-27.81 30.56 30.56 0 0 0-37.55-38.9 30.57 30.57 0 0 0-52.66-.06 30.57 30.57 0 0 0-38.88 29.43 30.62 30.62 0 0 0 1.49 9.43 30.58 30.58 0 0 0 1.33 56.38 30.57 30.57 0 0 0 28.9 40.57 30.88 30.88 0 0 0 7.92-1 30.58 30.58 0 0 0 52.33-2 30.6 30.6 0 0 0 37.6-38.37 30.58 30.58 0 0 0 17.4-27.67z" transform="translate(0 -1.56)" id="blob"/>
  <g id="vuur">
    <path class="vuur" d="M95.37 301.44l.9-1.09" transform="translate(0 -1.56)"/>
    <path class="niks" d="M90.46 273.08a10 10 0 0 0 2-1.73 17.73 17.73 0 0 0 2.12-3.06 17.73 17.73 0 0 1-2.12 3.06 10 10 0 0 1-2 1.73zM67.65 289.76a31.37 31.37 0 0 1 1.45 6.62 31.37 31.37 0 0 0-1.45-6.62zM68 308.46zM75.38 274a2.09 2.09 0 0 0 1-.29c.34-.19.66-.35 1-.49-.32.14-.64.3-1 .49a2.09 2.09 0 0 1-1 .29zM84 273.69a11.83 11.83 0 0 0-3-1 11.83 11.83 0 0 1 3 1 6.19 6.19 0 0 0 4.31.36 6.19 6.19 0 0 1-4.31-.36zM96 264.81a20.4 20.4 0 0 1-1.5 3.48 20.4 20.4 0 0 0 1.5-3.48zM80.14 272.63a6.12 6.12 0 0 0-1.83.25 6.12 6.12 0 0 1 1.83-.25zM69.22 297.67c0-.32 0-.65-.08-1 .04.33.05.68.08 1zM64.87 266a8.48 8.48 0 0 0-1.74.68 8.48 8.48 0 0 1 1.74-.68zM72.53 272.11c-2.42-3.43-3.91-5.37-5.49-6 1.58.64 3.07 2.58 5.49 6a4.26 4.26 0 0 0 2.35 1.89 4.26 4.26 0 0 1-2.35-1.89zM56.57 253.23v0zM76.74 327.81c-.59 1.09-1.14 2.2-1.67 3.35.53-1.16 1.08-2.26 1.67-3.35zM88.27 311.76a14.4 14.4 0 0 1 6 2.65 14.55 14.55 0 0 0-6-2.66c-4.2 5-8.31 10.1-11.53 16.06 3.26-5.96 7.33-11.04 11.53-16.05z" transform="translate(0 -1.56)"/>
    <path d="M56.53 135.66a36.18 36.18 0 0 0-.22 4.56 37.72 37.72 0 0 0 2 11.63 46.58 46.58 0 0 1 4.84-3 7.87 7.87 0 0 1 1.74-.67 3.46 3.46 0 0 1 2.17.11c1.58.64 3.07 2.58 5.49 6a4.17 4.17 0 0 0 2.35 1.84 1.7 1.7 0 0 0 .5.05 2.07 2.07 0 0 0 1-.28c.34-.19.66-.36 1-.5a8.42 8.42 0 0 1 1-.34 6.44 6.44 0 0 1 1.83-.24 5.82 5.82 0 0 1 .92.08 11.07 11.07 0 0 1 3 1 6.3 6.3 0 0 0 4.31.36 7.63 7.63 0 0 0 2.12-1 10 10 0 0 0 2-1.73 17.65 17.65 0 0 0 2.12-3.05A20.85 20.85 0 0 0 96 147a24.65 24.65 0 0 0 .79-11.57H56.57a2.51 2.51 0 0 0-.04.23z" transform="translate(0 -1.56)" fill="#fce792"/>
    <path d="M96 147a20.85 20.85 0 0 1-1.5 3.49 17.65 17.65 0 0 1-2.12 3.05 10 10 0 0 1-2 1.73 7.63 7.63 0 0 1-2.12 1 6.3 6.3 0 0 1-4.31-.36 11.07 11.07 0 0 0-3-1 5.82 5.82 0 0 0-.92-.08 6.44 6.44 0 0 0-1.83.24 8.42 8.42 0 0 0-1 .34c-.32.14-.64.31-1 .5a2.07 2.07 0 0 1-1 .28 1.7 1.7 0 0 1-.5-.05 4.17 4.17 0 0 1-2.35-1.84c-2.42-3.43-3.91-5.37-5.49-6a3.46 3.46 0 0 0-2.17-.11 7.87 7.87 0 0 0-1.74.67 46.58 46.58 0 0 0-4.84 3 37.72 37.72 0 0 1-2-11.63 36.18 36.18 0 0 1 .22-4.56 2.51 2.51 0 0 1 0-.27h-6.42a50.2 50.2 0 0 0-.84 8c-.34 10.51.78 21 6.14 30.83a48.93 48.93 0 0 1 4.45-5.57c2.47-2.35 3.8-1 8 3.31a31.51 31.51 0 0 1 1.45 6.62v.32c0 .32 0 .65.08 1a94.86 94.86 0 0 1 .09 10.8c.77 9.07-2 18.6 3.65 28.1a53.34 53.34 0 0 1 2.11-5.41c.53-1.15 1.08-2.26 1.67-3.34 3.22-6 7.33-11 11.53-16.06 2.08-4.51 7.43-7 7.65-12.69 5.06-6.36 5-13.87 4.68-21.38-.33-8.33-.52-16.59 4.84-23.73a7.5 7.5 0 0 0 .48-.72h-9.1A24.65 24.65 0 0 1 96 147z" transform="translate(0 -1.56)" fill="#fab416"/>
    <path class="vuur" d="M105.44 136.11c-5.36 7.14-5.17 15.4-4.84 23.73.3 7.51.38 15-4.68 21.38-.22 5.64-5.57 8.18-7.65 12.69a14.53 14.53 0 0 1 6 2.65 14.53 14.53 0 0 0-6-2.65c-4.2 5-8.31 10.1-11.53 16.06-.59 1.08-1.14 2.19-1.67 3.34a53.34 53.34 0 0 0-2.07 5.41c-5.63-9.5-2.88-19-3.65-28.1a94.86 94.86 0 0 0-.09-10.8c0-.32 0-.65-.08-1v-.32a31.51 31.51 0 0 0-1.45-6.62c-4.19-4.32-5.52-5.66-8-3.31a48.93 48.93 0 0 0-4.45 5.57c-5.36-9.78-6.48-20.32-6.14-30.83a50.2 50.2 0 0 1 .84-8h-8.55c-7.2 22.8-.83 44 10.15 64.49 1.38-2.24 4.27-3.22 2.67-7a8.43 8.43 0 0 1 0-5.21s5.85-4.41 5.86 2.51a27 27 0 0 1-1.48 9.9 2.75 2.75 0 0 0-.15.36s-1.94 2.58-2.12 11.52V213.27c.12 5.65 2.88 12.22 5.58 17.33a54.1 54.1 0 0 0 4.92 8.18l.24.33a48.43 48.43 0 0 0 16.08 13.73c-4.43-12.35-1.47-22 4.56-31.77 4.51-7.28 10.56-13.39 14.65-20.9.46-.56.8-1.14 1.26-1.7 8.4-12.23 12.82-24.76 3.6-38.72-1.77-2.67-2-6.14.5-8.71 2.11-2.17 4.66-1.55 7 .09 5.43 3.72 7.3 2.72 7.8-4.07a24.15 24.15 0 0 0-2.17-11.68h-14.46a7.5 7.5 0 0 1-.48.73zM69.14 296.7v-.32c-.03.1-.01.21 0 .32z" transform="translate(0 -1.56)"/>
  </g>
  <g id="cup">
    <path d="M122 253.23H42.59a5.34 5.34 0 0 1-5.33-5l-11.45-169a5.35 5.35 0 0 1 5.34-5.71h100.73a5.35 5.35 0 0 1 5.34 5.66l-9.85 169a5.34 5.34 0 0 1-5.37 5.05z" transform="translate(0 -1.56)" fill="#dd2929"/>
    <path d="M127.37 248.2l9.85-169a5.35 5.35 0 0 0-5.34-5.66h-50.1v179.69H122a5.34 5.34 0 0 0 5.37-5.03z" transform="translate(0 -1.56)" fill="#bc2321"/>
    <path d="M30.32 57.67H132a7.82 7.82 0 0 1 7.82 7.82v11.26H22.5V65.49a7.82 7.82 0 0 1 7.82-7.82z" fill="#dbdbdb"/>
    <path d="M60.65 49.74h42.27a3.25 3.25 0 0 1 3.24 3.26v4.68H57.4V53a3.25 3.25 0 0 1 3.25-3.26z" fill="#c7c6c6"/>
    <circle cx="81.52" cy="161.81" r="33.57" fill="#e2e1e1"/>
    <path d="M81.52 129.8V197a33.58 33.58 0 0 0 0-67.15z" transform="translate(0 -1.56)" fill="#cfcece"/>
    <circle cx="81.52" cy="161.81" r="27.99" fill="#f4f3f4"/>
    <path d="M105.94 149.72s-21.71 5.7-34 2.86c-3.56-.82-9.31-1.17-15.69-1.24a28 28 0 1 0 49.7-1.62z" transform="translate(0 -1.56)" fill="#5898d2"/>
  </g>
</svg>
