<svg class="header-navigation-item--drink" xmlns="http://www.w3.org/2000/svg" viewBox="0 0 121.12 251.67">
  <path d="M65 0L3.5 9a2.86 2.86 0 0 0-2.85 2.81v4.35A2.86 2.86 0 0 0 3.5 19l58.65-8.84A2.86 2.86 0 0 1 65 13v191.28a2.85 2.85 0 0 0 2.85 2.86h4.47a2.86 2.86 0 0 0 2.86-2.86V9.78A9.78 9.78 0 0 0 65.41 0z" transform="translate(-.65)" fill="#353535" class="straw"/>
  <g id="cup">
    <path d="M104 251.67H24.53a5.35 5.35 0 0 1-5.33-5L7.75 77.66A5.35 5.35 0 0 1 13.09 72h100.73a5.34 5.34 0 0 1 5.34 5.65l-9.85 169a5.34 5.34 0 0 1-5.31 5.02z" transform="translate(-.65)" fill="#dd2828"/>
    <path d="M109.31 246.63l9.85-169a5.34 5.34 0 0 0-5.34-5.63h-50.1v179.67H104a5.34 5.34 0 0 0 5.31-5.04z" transform="translate(-.65)" fill="#bc2020"/>
    <path d="M11.61 57.67H113.3a7.82 7.82 0 0 1 7.82 7.82v11.26H3.79V65.49a7.82 7.82 0 0 1 7.82-7.82z" fill="#dbdbdb"/>
    <path d="M41.93 49.74H84.2A3.25 3.25 0 0 1 87.45 53v4.68H38.69V53a3.25 3.25 0 0 1 3.24-3.26z" fill="#c6c6c6"/>
    <circle cx="62.8" cy="161.81" r="33.57" fill="#e2e2e2"/>
    <path d="M63.45 128.24v67.15a33.58 33.58 0 1 0 0-67.15z" transform="translate(-.65)" fill="#cecece"/>
    <circle cx="62.8" cy="161.81" r="27.99" fill="#f4f4f4"/>
    <path d="M87.88 148.16s-21.71 5.7-34 2.86c-3.56-.82-9.31-1.17-15.69-1.24a28 28 0 1 0 49.7-1.62z" transform="translate(-.65)" fill="#539ae0"/>
  </g>
</svg>
