<svg id="vet" xmlns="http://www.w3.org/2000/svg" viewBox="0 0 83.03 446.91"><defs><style>.cls-1{fill:#b2905f;}.cls-2{fill:#e2c188;}</style></defs><title>fry-side</title><polygon class="cls-1" points="83.03 446.91 3.98 439.28 7.25 421.08 0 397.87 9.85 371.86 0 359.48 5.91 341.41 12.36 313.11 12.37 295.25 38.78 281.52 25.27 276.47 8.46 255.32 1.63 216.09 7.82 187.92 3.71 146.93 7.71 115.73 4.58 85.93 29.78 70.57 4.82 47.84 0 20.33 7.1 3.97 83.03 0 83.03 446.91"/><polygon class="cls-2" points="83.03 446.91 6.26 437.63 9.49 419.72 0 397.87 9.85 368.86 0 359.48 5.91 338.41 12.36 310.11 12.37 292.25 38.78 278.52 27.17 274.79 9.62 254.04 1.63 216.09 7.82 184.92 3.71 143.93 9.62 114.01 4.58 85.93 29.78 67.57 6.02 46.33 0 20.33 7.1 0.97 83.03 0 83.03 446.91"/></svg>