<svg id="Laag_4_kopie" data-name="Laag 4 kopie" xmlns="http://www.w3.org/2000/svg" viewBox="0 0 851.44 851.44"><defs><style>.cls-1,.cls-4{fill:#f2f2f2;}.cls-2{fill:#fcd116;}.cls-3{fill:#e8b407;}.cls-4{opacity:0.69;}</style></defs><title>fry-back</title><g id="Laag_2_kopie" data-name="Laag 2 kopie"><rect class="cls-1" width="851.44" height="851.44"/></g><g id="Laag_1_kopie" data-name="Laag 1 kopie"><polygon class="cls-2" points="257.11 365.42 264.63 371.76 283.75 222.42 270.6 228.59 257.11 365.42"/><polygon class="cls-3" points="264.63 371.76 274.05 366.9 292.87 229.96 283.75 222.42 264.63 371.76"/><polygon class="cls-2" points="454.01 492.86 463.77 494.08 398.51 358.4 390.84 370.74 454.01 492.86"/><polygon class="cls-3" points="463.77 494.08 469.02 484.88 410.26 359.77 398.51 358.4 463.77 494.08"/><polygon class="cls-2" points="491.61 257.06 493.52 266.71 601.78 162.08 587.66 158.68 491.61 257.06"/><polygon class="cls-3" points="493.52 266.71 503.91 268.8 604.19 173.67 601.78 162.08 493.52 266.71"/><polygon class="cls-2" points="616.47 736.49 618.39 746.14 726.65 641.52 712.53 638.12 616.47 736.49"/><polygon class="cls-3" points="618.39 746.14 628.77 748.24 729.05 653.11 726.65 641.52 618.39 746.14"/><polygon class="cls-2" points="443.16 621.93 445.07 631.59 553.33 526.96 539.21 523.56 443.16 621.93"/><polygon class="cls-3" points="445.07 631.59 455.45 633.68 555.73 538.55 553.33 526.96 445.07 631.59"/><polygon class="cls-2" points="193.14 645.16 195.05 654.82 303.31 550.19 289.19 546.79 193.14 645.16"/><polygon class="cls-3" points="195.05 654.82 205.44 656.91 305.72 561.78 303.31 550.19 195.05 654.82"/><polygon class="cls-2" points="636.76 401.52 642.31 409.64 700.84 270.93 686.52 273.34 636.76 401.52"/><polygon class="cls-3" points="642.31 409.64 652.68 407.49 707.59 280.64 700.84 270.93 642.31 409.64"/><polygon class="cls-2" points="315.95 780.4 322.42 785.48 334.07 660.26 323.27 665.8 315.95 780.4"/><polygon class="cls-3" points="322.42 785.48 330.13 781.15 341.9 666.3 334.07 660.26 322.42 785.48"/><polygon class="cls-2" points="88.94 529.78 95.41 534.85 107.06 409.64 96.27 415.18 88.94 529.78"/><polygon class="cls-3" points="95.41 534.85 103.13 530.53 114.89 415.68 107.06 409.64 95.41 534.85"/><polygon class="cls-2" points="658.59 216.22 665.05 221.29 676.71 96.08 665.91 101.61 658.59 216.22"/><polygon class="cls-3" points="665.05 221.29 672.77 216.96 684.54 102.11 676.71 96.08 665.05 221.29"/><polygon class="cls-2" points="227.75 179.84 235.81 178.25 148.59 87.67 145.72 99.46 227.75 179.84"/><polygon class="cls-3" points="235.81 178.25 237.57 169.58 158.26 85.68 148.59 87.67 235.81 178.25"/><polygon class="cls-2" points="32.55 114.44 36.44 119.6 70.5 26.78 61.18 28.81 32.55 114.44"/><polygon class="cls-3" points="36.44 119.6 43.17 117.87 75.23 32.94 70.5 26.78 36.44 119.6"/><polygon class="cls-2" points="753.33 826.73 757.23 831.89 791.28 739.07 781.96 741.1 753.33 826.73"/><polygon class="cls-3" points="757.23 831.89 763.96 830.15 796.02 745.23 791.28 739.07 757.23 831.89"/></g><g id="Laag_3_kopie" data-name="Laag 3 kopie"><polygon class="cls-4" points="796.02 433.93 794.11 424.28 851.44 365.56 851.44 13.38 806.4 56.1 796.02 54.01 794.11 44.36 837.42 0 444.63 0 382.49 57.15 372.14 54.9 370.38 45.21 415.92 0 0 0 0 366.63 39.77 325.91 53.89 329.31 56.29 340.89 0 394.29 0 837.29 40.97 795.34 55.09 798.74 57.49 810.32 14.14 851.44 413.81 851.44 467.95 797.69 482.01 801.31 484.24 812.93 442.36 851.44 851.44 851.44 851.44 393.3 806.4 436.03 796.02 433.93"/><polygon class="cls-2" points="53.89 329.31 39.77 325.91 0 366.63 0 381.38 53.89 329.31"/><polygon class="cls-4" points="53.89 329.31 39.77 325.91 0 366.63 0 381.38 53.89 329.31"/><polygon class="cls-3" points="53.89 329.31 0 381.38 0 394.29 56.29 340.89 53.89 329.31"/><polygon class="cls-4" points="53.89 329.31 0 381.38 0 394.29 56.29 340.89 53.89 329.31"/><polygon class="cls-2" points="796.02 433.93 851.44 380.37 851.44 365.56 794.11 424.28 796.02 433.93"/><polygon class="cls-4" points="796.02 433.93 851.44 380.37 851.44 365.56 794.11 424.28 796.02 433.93"/><polygon class="cls-3" points="796.02 433.93 806.4 436.03 851.44 393.3 851.44 380.37 796.02 433.93"/><polygon class="cls-4" points="796.02 433.93 806.4 436.03 851.44 393.3 851.44 380.37 796.02 433.93"/><polygon class="cls-2" points="372.14 54.9 430.74 0 415.92 0 370.38 45.21 372.14 54.9"/><polygon class="cls-4" points="372.14 54.9 430.74 0 415.92 0 370.38 45.21 372.14 54.9"/><polygon class="cls-3" points="372.14 54.9 382.49 57.15 444.63 0 430.74 0 372.14 54.9"/><polygon class="cls-4" points="372.14 54.9 382.49 57.15 444.63 0 430.74 0 372.14 54.9"/><polygon class="cls-2" points="482.01 801.31 467.95 797.69 413.81 851.44 428.5 851.44 482.01 801.31"/><polygon class="cls-4" points="482.01 801.31 467.95 797.69 413.81 851.44 428.5 851.44 482.01 801.31"/><polygon class="cls-3" points="482.01 801.31 428.5 851.44 442.36 851.44 484.24 812.93 482.01 801.31"/><polygon class="cls-4" points="482.01 801.31 428.5 851.44 442.36 851.44 484.24 812.93 482.01 801.31"/><polygon class="cls-2" points="796.02 54.01 851.44 0.45 851.44 0 837.42 0 794.11 44.36 796.02 54.01"/><polygon class="cls-4" points="796.02 54.01 851.44 0.45 851.44 0 837.42 0 794.11 44.36 796.02 54.01"/><polygon class="cls-3" points="796.02 54.01 806.4 56.1 851.44 13.38 851.44 0.45 796.02 54.01"/><polygon class="cls-4" points="796.02 54.01 806.4 56.1 851.44 13.38 851.44 0.45 796.02 54.01"/><polygon class="cls-2" points="0.55 851.44 55.09 798.74 40.97 795.34 0 837.29 0 851.44 0.55 851.44"/><polygon class="cls-4" points="0.55 851.44 55.09 798.74 40.97 795.34 0 837.29 0 851.44 0.55 851.44"/><polygon class="cls-3" points="55.09 798.74 0.55 851.44 14.14 851.44 57.49 810.32 55.09 798.74"/><polygon class="cls-4" points="55.09 798.74 0.55 851.44 14.14 851.44 57.49 810.32 55.09 798.74"/></g></svg>