<svg id="Laag_1" data-name="Laag 1" xmlns="http://www.w3.org/2000/svg" viewBox="0 0 276.11 9.83"><defs><style>.cls-1{fill:#c0a169;}.cls-2{fill:#9a1735;}.cls-3{fill:#62132a;}</style></defs><title>rails</title><rect class="cls-1" y="2.39" width="276.11" height="3.6" rx="1.8" ry="1.8"/><rect class="cls-2" x="2.53" width="271.15" height="9.83"/><path class="cls-3" d="M274.64,1a7.44,7.44,0,0,0-.27,2.39h.55A7,7,0,0,0,274.64,1Z" transform="translate(-1 -1)"/><path class="cls-3" d="M274.64,10.83c.16,0,.28-1.65.31-3.85h-.61A14.11,14.11,0,0,0,274.64,10.83Z" transform="translate(-1 -1)"/><path class="cls-1" d="M274.92,3.39h-.55c0,.74,0,1.6,0,2.52,0,.37,0,.72,0,1.07H275c0-.35,0-.7,0-1.07C275,5,274.94,4.13,274.92,3.39Z" transform="translate(-1 -1)"/></svg>