<svg id="Laag_1" data-name="Laag 1" xmlns="http://www.w3.org/2000/svg" viewBox="0 0 365.63 121.12"><defs><style>.cls-1{fill:#353535;}.cls-2{fill:#c01818;}.cls-3{fill:none;}.cls-4{fill:#fce792;}.cls-5{fill:#fab416;}.cls-6{fill:#dd2929;}.cls-7{fill:#bc2321;}.cls-8{fill:#dbdbdb;}.cls-9{fill:#c7c6c6;}.cls-10{fill:#e2e1e1;}.cls-11{fill:#cfcece;}.cls-12{fill:#f4f3f4;}.cls-13{fill:#5898d2;}</style></defs><title>rocket</title><path class="cls-1" d="M0,56.76l9,61.5a2.86,2.86,0,0,0,2.86,2.86h4.35A2.86,2.86,0,0,0,19,118.26L10.18,59.62A2.86,2.86,0,0,1,13,56.76H204.28a2.85,2.85,0,0,0,2.86-2.85V49.44a2.86,2.86,0,0,0-2.86-2.86H9.78A9.78,9.78,0,0,0,0,56.36Z"/><path class="cls-2" d="M299.88,44.46l-1.09-.9"/><path class="cls-3" d="M271.52,49.37a9.76,9.76,0,0,0-1.74-1.95,17.6,17.6,0,0,0-3-2.11,17.6,17.6,0,0,1,3,2.11A9.76,9.76,0,0,1,271.52,49.37Z"/><path class="cls-3" d="M288.2,72.18a31.42,31.42,0,0,1,6.61-1.45,31.42,31.42,0,0,0-6.61,1.45Z"/><path class="cls-3" d="M306.89,71.81c0-.43,0-.86,0-1.29h0C306.9,71,306.9,71.38,306.89,71.81Z"/><path class="cls-3" d="M272.44,64.45a2.09,2.09,0,0,0-.29-1c-.19-.34-.35-.66-.49-1,.14.32.3.64.49,1A2.09,2.09,0,0,1,272.44,64.45Z"/><path class="cls-3" d="M272.13,55.8a11.44,11.44,0,0,0-1,3,11.44,11.44,0,0,1,1-3,6.24,6.24,0,0,0,.36-4.31A6.24,6.24,0,0,1,272.13,55.8Z"/><path class="cls-3" d="M263.24,43.8a20.1,20.1,0,0,1,3.49,1.51A20.1,20.1,0,0,0,263.24,43.8Z"/><path class="cls-3" d="M271.07,59.69a6.12,6.12,0,0,0,.25,1.83A6.12,6.12,0,0,1,271.07,59.69Z"/><path class="cls-3" d="M296.11,70.61c-.33,0-.65,0-1,.08C295.46,70.65,295.78,70.64,296.11,70.61Z"/><path class="cls-3" d="M264.42,75a8.4,8.4,0,0,0,.67,1.74A8.4,8.4,0,0,1,264.42,75Z"/><path class="cls-3" d="M270.54,67.3c-3.43,2.42-5.37,3.91-6,5.49.63-1.58,2.57-3.07,6-5.49A4.23,4.23,0,0,0,272.39,65,4.23,4.23,0,0,1,270.54,67.3Z"/><path class="cls-3" d="M251.67,83.26l.28,0-.28,0Z"/><path class="cls-3" d="M326.25,63.09c1.09.59,2.2,1.14,3.35,1.67C328.45,64.23,327.34,63.68,326.25,63.09Z"/><path class="cls-3" d="M310.19,51.56a14.66,14.66,0,0,1,2.65-6,14.66,14.66,0,0,0-2.65,6c5,4.2,10.1,8.31,16.06,11.53C320.29,59.87,315.21,55.76,310.19,51.56Z"/><path class="cls-4" d="M248.44,83.3a36,36,0,0,0,4.56.22,37.66,37.66,0,0,0,11.62-2,46.2,46.2,0,0,1-3-4.84,7.94,7.94,0,0,1-.68-1.74,3.39,3.39,0,0,1,.12-2.17c.63-1.58,2.57-3.07,6-5.49A4.26,4.26,0,0,0,268.88,65a2.83,2.83,0,0,0,.05-.5,2.09,2.09,0,0,0-.29-1c-.19-.34-.35-.66-.49-1a8.42,8.42,0,0,1-.34-.95,6.12,6.12,0,0,1-.25-1.83,7.3,7.3,0,0,1,.08-.92,11.83,11.83,0,0,1,1-3,6.24,6.24,0,0,0,.36-4.31,7.6,7.6,0,0,0-1-2.12,9.76,9.76,0,0,0-1.74-1.95,17.6,17.6,0,0,0-3-2.11,20.1,20.1,0,0,0-3.49-1.51A24.64,24.64,0,0,0,248.16,43V83.26Z"/><path class="cls-5" d="M259.73,43.8a20.1,20.1,0,0,1,3.49,1.51,17.6,17.6,0,0,1,3,2.11A9.76,9.76,0,0,1,268,49.37a7.6,7.6,0,0,1,1,2.12,6.24,6.24,0,0,1-.36,4.31,11.83,11.83,0,0,0-1,3,7.3,7.3,0,0,0-.08.92,6.12,6.12,0,0,0,.25,1.83,8.42,8.42,0,0,0,.34.95c.14.32.3.64.49,1a2.09,2.09,0,0,1,.29,1,2.83,2.83,0,0,1-.05.5A4.26,4.26,0,0,1,267,67.3c-3.44,2.42-5.38,3.91-6,5.49a3.39,3.39,0,0,0-.12,2.17,7.94,7.94,0,0,0,.68,1.74,46.2,46.2,0,0,0,3,4.84,37.66,37.66,0,0,1-11.62,2,36,36,0,0,1-4.56-.22l-.28,0v6.66a50.2,50.2,0,0,0,8,.84c10.51.34,21-.78,30.83-6.14a49.26,49.26,0,0,1-5.58-4.45c-2.35-2.47-1-3.8,3.32-8h0a31.42,31.42,0,0,1,6.61-1.45l.33,0c.32,0,.64,0,1-.08a94.82,94.82,0,0,1,10.8-.09h0c9.06-.77,18.59,2,28.1-3.65a53.34,53.34,0,0,1-5.41-2.11c-1.15-.53-2.26-1.08-3.35-1.67-6-3.22-11-7.33-16.06-11.53-4.51-2.08-7.05-7.43-12.69-7.65-6.35-5.06-13.87-5-21.37-4.68-8.33.33-16.59.52-23.74-4.84a7.5,7.5,0,0,0-.72-.48V43A24.64,24.64,0,0,1,259.73,43.8Z"/><path class="cls-2" d="M248.88,34.39c7.15,5.36,15.41,5.17,23.74,4.84,7.5-.3,15-.38,21.37,4.68,5.64.22,8.18,5.57,12.69,7.65a14.55,14.55,0,0,1,2.66-6,14.55,14.55,0,0,0-2.66,6c5,4.2,10.1,8.31,16.06,11.53,1.09.59,2.2,1.14,3.35,1.67a53.34,53.34,0,0,0,5.41,2.11c-9.51,5.63-19,2.88-28.1,3.65,0,.43,0,.86,0,1.29,0-.43,0-.86,0-1.29a94.82,94.82,0,0,0-10.8.09c-.33,0-.65,0-1,.08l-.33,0a31.42,31.42,0,0,0-6.61,1.45h0c-4.32,4.19-5.67,5.52-3.32,8A49.26,49.26,0,0,0,287,84.62c-9.79,5.36-20.32,6.48-30.83,6.14a50.2,50.2,0,0,1-8-.84V98.4c22.81,7.2,44,.83,64.5-10.15-2.25-1.38-3.23-4.27-7.05-2.67a8.4,8.4,0,0,1-5.2,0s-4.41-5.85,2.5-5.86h0a27,27,0,0,1,9.89,1.53,2.17,2.17,0,0,0,.35.15s2.59,1.94,11.52,2.12l1,0h.39l0,0h0c5.65-.12,12.22-2.88,17.33-5.58A54.1,54.1,0,0,0,351.57,73l.34-.24h0a48.55,48.55,0,0,0,13.73-16.08c-12.36,4.43-22,1.47-31.77-4.56-7.29-4.51-13.4-10.56-20.9-14.65-.57-.46-1.14-.8-1.7-1.26-12.24-8.4-24.77-12.82-38.73-3.6-2.67,1.77-6.14,2-8.7-.5-2.17-2.11-1.55-4.66.08-7,3.72-5.43,2.73-7.3-4.06-7.8a24.17,24.17,0,0,0-11.69,2.17V33.91A7.5,7.5,0,0,1,248.88,34.39Z"/><path class="cls-2" d="M295.13,70.69l-.32,0Z"/><path class="cls-6" d="M251.67,17.79V97.24a5.35,5.35,0,0,1-5,5.33L77.66,114a5.35,5.35,0,0,1-5.7-5.34V8a5.34,5.34,0,0,1,5.65-5.34l169,9.85A5.34,5.34,0,0,1,251.67,17.79Z"/><path class="cls-7" d="M246.63,12.46l-169-9.85A5.34,5.34,0,0,0,72,8v50.1H251.67V17.79A5.34,5.34,0,0,0,246.63,12.46Z"/><path class="cls-8" d="M16.36,49.13h101.7a7.82,7.82,0,0,1,7.82,7.82V68.2a0,0,0,0,1,0,0H8.55a0,0,0,0,1,0,0V56.94A7.82,7.82,0,0,1,16.36,49.13Z" transform="translate(8.55 125.87) rotate(-90)"/><path class="cls-9" d="M32.57,54.09H74.84a3.25,3.25,0,0,1,3.25,3.25V62a0,0,0,0,1,0,0H29.33a0,0,0,0,1,0,0V57.33A3.25,3.25,0,0,1,32.57,54.09Z" transform="translate(-4.34 111.76) rotate(-90)"/><circle class="cls-10" cx="161.81" cy="58.32" r="33.57"/><path class="cls-11" d="M128.24,58.32h67.15a33.58,33.58,0,1,0-67.15,0Z"/><circle class="cls-12" cx="161.81" cy="58.32" r="27.99"/><path class="cls-13" d="M148.16,33.89s5.7,21.71,2.86,34c-.82,3.56-1.17,9.31-1.24,15.69a28,28,0,1,0-1.62-49.7Z"/></svg>