<svg id="Laag_1" data-name="Laag 1" xmlns="http://www.w3.org/2000/svg" viewBox="0 0 20.22 387.96"><defs><style>.cls-1{fill:#fed05d;}.cls-2{fill:#dbaa3b;}.cls-3{fill:#e2b554;}</style></defs><title>rope</title><polygon class="cls-1" points="15.35 119.05 4.87 106.54 4.87 106.62 15.35 119.14 15.35 119.05"/><polygon class="cls-1" points="15.35 52.76 4.87 40.24 4.87 40.33 15.35 52.84 15.35 52.76"/><polygon class="cls-1" points="15.35 185.35 4.87 172.83 4.87 172.92 15.35 185.43 15.35 185.35"/><polygon class="cls-1" points="15.35 251.01 4.87 238.49 4.87 238.58 15.35 251.09 15.35 251.01"/><polygon class="cls-1" points="15.35 317.3 4.87 304.79 4.87 304.87 15.35 317.39 15.35 317.3"/><polygon class="cls-1" points="4.87 364.7 15.35 364.7 15.35 350.56 4.87 338.05 4.87 364.7"/><polygon class="cls-2" points="15.35 350.42 15.35 317.39 4.87 304.87 4.87 337.91 15.35 350.42"/><polygon class="cls-1" points="4.87 337.91 4.87 338.05 15.35 350.56 15.35 350.42 4.87 337.91"/><polygon class="cls-1" points="15.35 284.27 4.87 271.75 4.87 304.79 15.35 317.3 15.35 284.27"/><polygon class="cls-2" points="15.35 284.13 15.35 251.09 4.87 238.58 4.87 271.61 15.35 284.13"/><polygon class="cls-1" points="4.87 271.61 4.87 271.75 15.35 284.27 15.35 284.13 4.87 271.61"/><polygon class="cls-1" points="15.35 218.61 4.87 206.09 4.87 238.49 15.35 251.01 15.35 218.61"/><polygon class="cls-2" points="15.35 217.83 15.35 185.43 4.87 172.92 4.87 205.32 15.35 217.83"/><polygon class="cls-1" points="4.87 205.32 4.87 206.09 15.35 218.61 15.35 217.83 4.87 205.32"/><polygon class="cls-1" points="15.35 152.31 4.87 139.8 4.87 172.83 15.35 185.35 15.35 152.31"/><polygon class="cls-2" points="15.35 152.17 15.35 119.14 4.87 106.62 4.87 139.66 15.35 152.17"/><polygon class="cls-1" points="4.87 139.66 4.87 139.8 15.35 152.31 15.35 152.17 4.87 139.66"/><polygon class="cls-1" points="15.35 86.02 4.87 73.5 4.87 106.54 15.35 119.05 15.35 86.02"/><polygon class="cls-2" points="15.35 85.88 15.35 52.84 4.87 40.33 4.87 73.36 15.35 85.88"/><polygon class="cls-1" points="4.87 73.36 4.87 73.5 15.35 86.02 15.35 85.88 4.87 73.36"/><polygon class="cls-1" points="15.35 19.73 4.87 7.21 4.87 40.24 15.35 52.76 15.35 19.73"/><polygon class="cls-2" points="15.35 0 4.87 0 4.87 7.07 15.35 19.58 15.35 0"/><polygon class="cls-1" points="4.87 7.07 4.87 7.21 15.35 19.73 15.35 19.58 4.87 7.07"/><circle class="cls-2" cx="10.11" cy="364.7" r="10.11"/><path class="cls-3" d="M15.33,374.09c0,4.3-.31,9.16.31,13.36.08.51-.39.72-.47.22-.63-4.29-.36-9.2-.33-13.58,0-.52.49-.52.49,0Z"/><path class="cls-3" d="M14.55,374.09c0,4.3-.31,9.16.31,13.36.08.51-.4.72-.47.22-.63-4.29-.36-9.2-.33-13.58,0-.52.49-.52.49,0Z"/><path class="cls-3" d="M13.66,374.09c0,4.3-.31,9.16.31,13.36.07.51-.4.72-.47.22-.63-4.29-.36-9.2-.33-13.58,0-.52.49-.52.49,0Z"/><path class="cls-3" d="M12.77,374.09c0,4.3-.31,9.16.31,13.36.07.51-.4.72-.47.22-.63-4.29-.37-9.2-.33-13.58,0-.52.49-.52.49,0Z"/><path class="cls-3" d="M11.87,374.09c0,4.3-.3,9.16.32,13.36.07.51-.4.72-.47.22-.63-4.29-.37-9.2-.33-13.58,0-.52.49-.52.48,0Z"/><path class="cls-3" d="M11.09,374.09c0,4.3-.3,9.16.32,13.36.07.51-.4.72-.47.22-.63-4.29-.37-9.2-.33-13.58,0-.52.49-.52.48,0Z"/><path class="cls-3" d="M10.2,374.09c0,4.3-.3,9.16.31,13.36.08.51-.39.72-.47.22-.63-4.29-.36-9.2-.33-13.58,0-.52.5-.52.49,0Z"/><path class="cls-3" d="M9.31,374.09c0,4.3-.3,9.16.31,13.36.08.51-.39.72-.47.22-.63-4.29-.36-9.2-.33-13.58,0-.52.49-.52.49,0Z"/><path class="cls-3" d="M8.59,374.09c0,4.3-.3,9.16.31,13.36.08.51-.39.72-.47.22-.63-4.29-.36-9.2-.33-13.58,0-.52.5-.52.49,0Z"/><path class="cls-3" d="M7.81,374.09c0,4.3-.3,9.16.31,13.36.08.51-.39.72-.47.22-.63-4.29-.36-9.2-.33-13.58,0-.52.49-.52.49,0Z"/><path class="cls-3" d="M6.92,374.09c0,4.3-.31,9.16.31,13.36.07.51-.4.72-.47.22-.63-4.29-.36-9.2-.33-13.58,0-.52.49-.52.49,0Z"/><path class="cls-3" d="M6,374.09c0,4.3-.31,9.16.31,13.36.07.51-.4.72-.47.22-.63-4.29-.36-9.2-.33-13.58,0-.52.49-.52.49,0Z"/><path class="cls-1" d="M4.89,373.39c0,4.3.3,9.16-.31,13.36-.08.51.39.72.47.22.63-4.29.36-9.2.32-13.58,0-.52-.49-.52-.48,0Z"/><path class="cls-1" d="M5.67,373.39c0,4.3.3,9.16-.31,13.36-.08.51.39.72.47.22.63-4.29.36-9.2.33-13.58,0-.52-.5-.52-.49,0Z"/><path class="cls-1" d="M6.56,373.39c0,4.3.31,9.16-.31,13.36-.08.51.39.72.47.22.63-4.29.36-9.2.33-13.58,0-.52-.49-.52-.49,0Z"/><path class="cls-1" d="M7.45,373.39c0,4.3.31,9.16-.31,13.36-.07.51.4.72.47.22.63-4.29.36-9.2.33-13.58,0-.52-.49-.52-.49,0Z"/><path class="cls-1" d="M8.34,373.39c0,4.3.31,9.16-.31,13.36-.07.51.4.72.47.22.63-4.29.37-9.2.33-13.58,0-.52-.49-.52-.49,0Z"/><path class="cls-1" d="M9.12,373.39c0,4.3.31,9.16-.31,13.36-.07.51.4.72.47.22.63-4.29.37-9.2.33-13.58,0-.52-.49-.52-.49,0Z"/><path class="cls-1" d="M10,373.39c0,4.3.3,9.16-.32,13.36-.07.51.4.72.47.22.63-4.29.37-9.2.33-13.58,0-.52-.49-.52-.48,0Z"/><path class="cls-1" d="M10.91,373.39c0,4.3.3,9.16-.31,13.36-.08.51.39.72.47.22.63-4.29.36-9.2.32-13.58,0-.52-.49-.52-.48,0Z"/><path class="cls-1" d="M11.63,373.39c0,4.3.3,9.16-.31,13.36-.08.51.39.72.47.22.62-4.29.36-9.2.32-13.58,0-.52-.49-.52-.48,0Z"/><path class="cls-1" d="M12.41,373.39c0,4.3.3,9.16-.31,13.36-.08.51.39.72.47.22.63-4.29.36-9.2.32-13.58,0-.52-.49-.52-.48,0Z"/><path class="cls-1" d="M13.3,373.39c0,4.3.3,9.16-.31,13.36-.08.51.39.72.47.22.63-4.29.36-9.2.33-13.58,0-.52-.5-.52-.49,0Z"/><path class="cls-1" d="M14.19,373.39c0,4.3.31,9.16-.31,13.36-.07.51.4.72.47.22.63-4.29.36-9.2.33-13.58,0-.52-.49-.52-.49,0Z"/><rect class="cls-1" x="0.53" y="371.32" width="19.15" height="3.49" rx="1.74" ry="1.74"/></svg>