<svg xmlns="http://www.w3.org/2000/svg" viewBox="0 0 185.34 190.71">
  <path class="salad-cloud-1" d="M181.54 108.93a30.57 30.57 0 0 0-17.87-27.81A30.59 30.59 0 0 0 134.61 41a30.21 30.21 0 0 0-8.5 1.21 30.57 30.57 0 0 0-52.66-.06A30.58 30.58 0 0 0 36.07 81a30.58 30.58 0 0 0 1.32 56.38 30.59 30.59 0 0 0 36.82 39.53 30.58 30.58 0 0 0 52.33-2 30.6 30.6 0 0 0 38.94-29.42 30.43 30.43 0 0 0-1.34-8.95 30.58 30.58 0 0 0 17.4-27.61z" transform="translate(-.11)" id="bliob"/>
  <g id="peaches">
    <path class="salad-cloud-2" d="M73.9 28.53s-8.84-8.44-18.06-2.4 10.83 12.42 15.06 8.61 3-6.21 3-6.21z" transform="translate(-.11)"/>
    <path class="salad-cloud-3" d="M74 30s-13.18-3.85-17-1.51c0 0 12.9 2.39 15.92 3.95.1.05.5-.71.78-1.43A6.08 6.08 0 0 0 74 30z" transform="translate(-.11)"/>
    <path class="salad-cloud-2" d="M69.28 29.05s1.89-9.9 11-12.48S79 29.78 74.3 30.42s-5.02-1.37-5.02-1.37z" transform="translate(-.11)"/>
    <path class="salad-cloud-3" d="M69.93 29.91s5.77-10 9.46-11.11c0 0-7.48 9.3-7.56 11.71 0 .1-.68-.05-1.22-.25a4.06 4.06 0 0 1-.68-.35z" transform="translate(-.11)"/>
    <path d="M73.35 27.43a8 8 0 0 1-1.39-6c.6-3.6-2.55-1.05-2.55-1.05a13.92 13.92 0 0 0 1.42 8.26c2.17 3.79 2.52-1.21 2.52-1.21z" transform="translate(-.11)" fill="#8b6324"/>
    <path d="M92.37 46.34c-3.29 8.4-10.3 15.72-20.81 11.66-7.37-2.83-11.16-11.76-8-20.19a18.27 18.27 0 0 1 3.82-6.1c4.1-4.31 12.42-6.94 17.73-4.92 7.43 2.84 9.78 13.09 7.26 19.55z" transform="translate(-.11)" fill="#fed17b"/>
    <path d="M59.05 45.59C62.16 53.75 71.8 60.43 79.48 59c0 0 6.39-9.75 3.28-17.91s-7.64-14.53-14.34-12-12.48 8.34-9.37 16.5z" transform="translate(-.11)" fill="#f6a45b"/>
    <path d="M61.78 33.19S59.53 57.3 81.52 58.45c0 0-8.8 4.48-18.8-6.83-9.81-11.09-.94-18.43-.94-18.43z" transform="translate(-.11)" fill="#f18949"/>
    <path class="salad-cloud-8" d="M74.41 44.88c1.52.43 9.29-3 10.92-4.5 2.3-2.11 2.49-5.64 1.67-4.73-.31.34-2 3.15-2.59 3.68-2.04 1.96-10.94 5.28-10 5.55zM76.92 36.86a19.08 19.08 0 0 0-2.86 1.45 10.85 10.85 0 0 0 2.38-.7.76.76 0 0 0 0 .15.72.72 0 1 0 .48-.91zM81.77 35.35a19.08 19.08 0 0 0-2.86 1.46 11.3 11.3 0 0 0 2.37-.7.77.77 0 0 0 0 .15.72.72 0 1 0 1.38-.44.72.72 0 0 0-.89-.47zM73.63 36.88a1.7 1.7 0 0 0-1.09 2.19c.08.19.4.11.32-.09a1.17 1.17 0 0 1 .27-1.37 2.1 2.1 0 0 1 .41-.31s.24-.12.18-.1c.2-.08.11-.4-.09-.32zM81.56 34.25a1.68 1.68 0 0 1 2.31.77c.08.2-.21.36-.29.17a1.16 1.16 0 0 0-1.16-.78 1.68 1.68 0 0 0-.5.07l-.2.06c-.2.07-.36-.22-.16-.29z" transform="translate(-.11)"/>
  </g>
  <g id="eggplant">
    <circle class="salad-cloud-1" cx="117.24" cy="89.34" r=".62"/>
    <circle class="salad-cloud-1" cx="119.46" cy="89.34" r=".62"/>
    <path d="M117.7 90.22s.64 1.16 1.29 0" stroke="#353535" stroke-miterlimit="10" stroke-width=".41" fill="none"/>
    <path d="M87.94 61.78s-17.79-.16-17.79 22.65 35.78 14.74 35.78 14.74 52.26-7.74 56.59-44.26-28 5.84-74.58 6.87z" transform="translate(-.11)" fill="#7b509c"/>
    <path d="M160.35 41s-9.67 53.12-88.71 50.46c6.74 13.89 34.29 7.68 34.29 7.68s52.26-7.74 56.59-44.26c.94-7.94.14-12.15-2.17-13.88z" transform="translate(-.11)" fill="#6e4b8f"/>
    <path fill="#704091" d="M160.24 41.02v.01-.01z"/>
    <path class="salad-cloud-13" d="M173.52 30.66l-6.88-4.09c.11 3.74-6.76 11.17-8.58 13.07-7.93-3.91-13.68 6.54-9.15 3.88 4.25-2.5 6.75-.69 6.46-.5-2.06 1.32-1.84 6-1.31 6.35 1.36.94 6.49-3.21 6.49-3.21a16.38 16.38 0 0 0 2.35 9.3c1.93-4.38-.67-12.32-.75-12.59 2.38-6.8 11.37-12.21 11.37-12.21z" transform="translate(-.11)"/>
    <path d="M154.33 49.48c1.66.37 6.22-3.32 6.22-3.32a16.38 16.38 0 0 0 2.35 9.3c1.93-4.38-.67-12.32-.75-12.59 2.38-6.8 11.37-12.21 11.37-12.21l-2.21-1.31a81.16 81.16 0 0 0-16.98 20.13z" transform="translate(-.11)" fill="#5c7328"/>
    <path class="salad-cloud-8" d="M136.77 61.38c1.23 1.32 10.86 2.62 13.34 2.08 3.5-.71 5.77-4 4.44-3.64-.51.15-3.86 1.87-4.72 2.06-3.15.71-13.83-1.32-13.06-.5zM144 55a21.56 21.56 0 0 0-3.66-.27 13.83 13.83 0 0 0 2.74.72 1 1 0 0 0-.07.15.83.83 0 1 0 1-.6zM149.62 56.42a21.63 21.63 0 0 0-3.66-.27 12.3 12.3 0 0 0 2.74.72.46.46 0 0 0-.07.16.82.82 0 1 0 1-.61zM140.75 53.1a1.93 1.93 0 0 0-2.36 1.49c0 .24.33.34.37.1a1.32 1.32 0 0 1 1.07-1.17 2.24 2.24 0 0 1 .58-.06h.24c.24 0 .34-.33.1-.37zM150.06 55.22a1.93 1.93 0 0 1 1.8 2.13c0 .24-.42.23-.38 0a1.35 1.35 0 0 0-.67-1.45 2.74 2.74 0 0 0-.53-.23l-.28-.07c-.23 0-.22-.42 0-.38z" transform="translate(-.11)"/>
  </g>
  <g id="saladdd">
    <path class="salad-cloud-15" d="M165.45 42.82c-2.15 1.51-4.17.73-4.62-1.84-.09-.51-.33-.59-.7-.74a2.65 2.65 0 0 1-.6-4.78c.58-.41.54-.68.28-1.22-1.08-2.22.26-4.2 2.72-4.05.44 0 .83.21.79-.54a2.77 2.77 0 0 1 1.66-3 3 3 0 0 1 3.77 1.11c.48-1.38 1.14-2.46 2.7-2.33a2.69 2.69 0 0 1 2.6 2.1 2.09 2.09 0 0 1 .21 1.85c-.34 1.46-.66 2.93-1 4.39-.52 2.24-1 4.49-1.55 6.73a5.34 5.34 0 0 1-.69 1.92 1.91 1.91 0 0 1-1.48.84 5.1 5.1 0 0 1-2.5-.74c-.72-.52-1.04.23-1.59.3z" transform="translate(-.11)"/>
    <path class="salad-cloud-16" d="M184.33 42.92c.22-1-.65-1.72-.66-2.5s1.55-.92 1.6-2a3.85 3.85 0 0 1 .16-.75c-.46-.43-.67 0-.87.29s-.36.22-.49.08c.52-.73-.43-1.13-.52-1.71.45-.08 1.09.68 1.22-.36-.16-.14-.3-.34-.49-.4-1.16-.38-1.34-1-.85-2.13a2.66 2.66 0 0 0-1.82-3.57 3.09 3.09 0 0 0-2.39.24 1.85 1.85 0 0 1-.07-.47A2.29 2.29 0 0 0 178 27a2.71 2.71 0 0 0-3 .17c-.26.18-.48.53-.89.35 0 2.13-.84 4.11-1.2 6.18-.55 2.36-1.09 4.72-1.64 7.09a3 3 0 0 1-.65 1.63 2.34 2.34 0 0 0 1.22 1.38c.61.14 1.21.66 1.79.49 1-.29 1.45.17 1.89.88 1.23 2.23 3.45 2.46 4.89.47a.94.94 0 0 1 1-.47 2.65 2.65 0 0 0 2.92-2.25z" transform="translate(-.11)"/>
    <path class="salad-cloud-17" d="M165.45 42.82l.74-.88c.16-.19.4-.5.58-.17.58 1.06 1.71.86 2.58 1.22-.47.32-.85.6-.36 1.27a19 19 0 0 1 1 1.9 2.09 2.09 0 0 1 .06 1.26c-.47 2.21-1 4.42-1.54 6.6-.16.63-.35 1.45-1.36.87-1.27-.08-1.59-.73-1.21-1.9.52-1.63 1-3.27 1.46-4.91a5.73 5.73 0 0 0-1.95-5.26z" transform="translate(-.11)"/>
    <path class="salad-cloud-18" d="M167.16 54.89c.5.11.8 0 .92-.58.55-2.45 1.12-4.91 1.71-7.36a1.4 1.4 0 0 0-.28-1.06 11.67 11.67 0 0 0 2-1 .92.92 0 0 0 .38-1.25c1 .11 1.89.81 2.87 0 .21-.17.35.11.4.32.1.4.19.81.29 1.21a5.28 5.28 0 0 0-4.12 3.83c-.21 1.4-.47 2.79-.67 4.18-.36 2.41-1.19 2.82-3.5 1.71z" transform="translate(-.11)"/>
    <path class="salad-cloud-19" d="M184 38.1c.16-1-.83-1.42-1.26-2.09.74-.72 1.38.69 2-.07a1.81 1.81 0 0 1 .66 1.7c-.66-.08-.55.5-.74.84s-.32.46-.6.31-.06-.45-.06-.69z" transform="translate(-.11)"/>
    <path class="salad-cloud-20" d="M171.9 43.59c.16.37.61.26.93.65-1.1.61-1.76 2-3.32 1.65l-1.41-2.77c.45-.23.88.16 1.25-.13a1.39 1.39 0 0 0 1.21-.6c.72.1.69 1.03 1.34 1.2z" transform="translate(-.11)"/>
    <path class="salad-cloud-21" d="M182.44 33.44c-.11.34-.13.93-.7.82s-.41-.66-.29-1.06a1.61 1.61 0 0 0-.77-2c-.21-.14-.5-.26-.31-.57s.45-.2.7-.13a2.52 2.52 0 0 1 1.37 2.94z" transform="translate(-.11)"/>
    <path class="salad-cloud-22" d="M51.16 55.61c-2.16-4.44-2-8.75 1.26-12.55 1.28-1.48 1.38-3 .22-4-3.32-2.88-3.7-7-5.12-10.72-.78-6.85 4.21-11 10.69-8.61 1.34.49 3.48 1.54 4.5-.56 2.26-4.7 6.51-4.49 10.66-4.7 3.48 3.08 9.77 18 9.53 22.48a14.68 14.68 0 0 1-4.9 7.52c-1.82 1.38-2.15 2.83-1.17 4.76.47 2.55 1.27 5.19-1.87 6.71-1.17.09-1.75-.81-2.44-1.51-2.43-2.46-4.06-1.53-5.28 1.22-.28.62.12-.13-.2.47-1.5 2.88-2.1 7.49-5.77 7.45-4.18 0-7.5-3.23-9.5-7.2a1.92 1.92 0 0 0-.61-.76zM102.33 55.79c-2.16-4.44-2-8.74 1.26-12.54 1.27-1.48 1.38-3 .22-4-3.33-2.88-3.71-7-5.12-10.72-.79-6.85 4.21-11 10.69-8.62 1.33.5 3.48 1.55 4.49-.55 2.27-4.7 6.52-4.49 10.67-4.7 3.47 3.08 9.76 18 9.52 22.47a14.52 14.52 0 0 1-4.87 7.48C127.37 46 127 47.49 128 49.42c.47 2.54 1.27 5.18-1.88 6.71-1.17.08-1.74-.81-2.43-1.51-2.43-2.47-4.06-1.53-5.29 1.22-.27.61.12-.14-.19.46-1.51 2.89-2.11 7.49-5.77 7.45-4.18 0-7.5-3.23-9.5-7.2a2.09 2.09 0 0 0-.61-.76z" transform="translate(-.11)"/>
    <path d="M81.77 37.76c.21-3.95.28-7.82-3.74-10.27a2.74 2.74 0 0 1-1.22-2c.4-4.16-2-7.38-3.44-10.93.38-.55.64-1.36 1.16-1.61 5.83-2.86 11.71-5.3 15.58-11.24 1.54-2.36 5-.33 7.28 1.13a9.37 9.37 0 0 1 4.7 8.44c-.21 3.75.85 5.91 4.2 7.87 3.86 2.26 4 6.06.88 9.34a43.68 43.68 0 0 1-4.64 3.78c-1.49-2.74.73-4.52 1.7-6.62-2.64 2.06-5.27 4.31-9 2.69-3-1.34-2.63-4.3-2.75-5.78a9.83 9.83 0 0 1-.72 3.33z" transform="translate(-.11)" fill="#357d32"/>
    <path d="M81.77 37.76c.71-4.91 3.85-7.69 7.8-10.45 2.7-1.89 2-6.15 2.16-9.84 2.29.85 1.71 2.5 1.86 4 .23 2.18-.61 4.84 2.37 6.07 2.74 1.15 4.42-1 6.43-1.95 1-.48 1.54-1.72 2.47-2.38a1.53 1.53 0 0 1 2.24.31 1.29 1.29 0 0 1-.58 2.07c-2.83 1.33-3 4.21-4 6.61a1.24 1.24 0 0 0 .2.45c9.11 8.16 9.12 11.5 0 19.43-3.75-2-7.56-3.68-12-2.1-4-1.28-8-2.15-12.15-.63a3 3 0 0 1-3.26-.68c0-1.32-3-2.69.06-4s4.48-4.42 6.4-6.91z" transform="translate(-.11)" fill="#207332"/>
    <path class="salad-cloud-25" d="M177.55 25.43a13.32 13.32 0 0 1-.08 9.17c-3.14 9.25-9.19 15.5-19.08 17.41a11.59 11.59 0 0 1-6.43-.55c-.78-1.31.28-2 1-2.67 5.61-5.16 10.79-10.76 16.32-16 2.16-2.05 4.18-4.25 6.2-6.44a2.12 2.12 0 0 1 2.07-.92z" transform="translate(-.11)"/>
    <path class="salad-cloud-13" d="M177.55 25.43c-2.1 1-3.39 3-4.89 4.54-3 3.18-6.21 6.11-9.28 9.19-2.51 2.51-4.92 5.12-7.41 7.63-.93.94-2 1.76-3 2.63a2.34 2.34 0 0 0-1 2c-1.35-.35-1-1.58-1.13-2.43-1-6.79 1.61-12.38 6.24-17.1 4.16-4.24 9.15-7 15.21-7.39 1.76-.07 3.71-.36 5.26.93z" transform="translate(-.11)"/>
    <path class="salad-cloud-25" d="M46.55 36.27a8 8 0 0 1 5.5.35c5.45 2.18 9 6 9.83 12a7.09 7.09 0 0 1-.54 3.85c-.81.42-1.19-.24-1.57-.7-2.92-3.53-6.11-6.82-9.07-10.3-1.16-1.37-2.42-2.65-3.67-3.93a1.29 1.29 0 0 1-.48-1.27z" transform="translate(-.11)"/>
    <path class="salad-cloud-13" d="M46.55 36.27a10.47 10.47 0 0 0 2.57 3.08c1.81 1.9 3.46 3.92 5.21 5.87 1.43 1.58 2.91 3.11 4.34 4.69.53.59 1 1.24 1.48 1.87a1.42 1.42 0 0 0 1.19.69c-.25.8-1 .55-1.49.59-4.11.37-7.38-1.36-10.06-4.29a13.81 13.81 0 0 1-3.95-9.36c0-1.07-.12-2.23.71-3.14z" transform="translate(-.11)"/>
    <path class="salad-cloud-15" d="M82.62 43.2c-.29 2.61-2.22 3.6-4.44 2.23-.44-.26-.66-.13-1 0a2.65 2.65 0 0 1-4-2.71c.08-.71-.15-.86-.73-1-2.37-.67-3-3-1.22-4.72.31-.31.7-.48.12-1a2.77 2.77 0 0 1-1.19-3.26 3 3 0 0 1 3.33-2.09c-.71-1.27-1.08-2.48.05-3.56a2.68 2.68 0 0 1 3.29-.56 2.09 2.09 0 0 1 1.53 1.07c.87 1.22 1.76 2.43 2.61 3.67 1.34 1.87 2.69 3.74 4 5.62a5.54 5.54 0 0 1 1 1.78 2 2 0 0 1-.35 1.67 5.06 5.06 0 0 1-2.22 1.38c-.85.28-.48 1.03-.78 1.48z" transform="translate(-.11)"/>
    <path class="salad-cloud-16" d="M95.2 29.12c-.6-.83-1.72-.66-2.3-1.16s.33-1.77-.47-2.55a5.41 5.41 0 0 1-.43-.61c-.62.06-.46.49-.36.84s-.07.41-.26.42c-.2-.87-1.13-.43-1.62-.74.24-.39 1.23-.37.53-1.16a2 2 0 0 0-.62.11c-1 .61-1.61.37-2.16-.77a2.65 2.65 0 0 0-3.88-1 3 3 0 0 0-1.4 1.94 2.1 2.1 0 0 1-.4-.26 2.3 2.3 0 0 0-2.75-.87 2.71 2.71 0 0 0-1.89 2.39c0 .31.08.71-.33.9 1.57 1.44 2.53 3.35 3.83 5l4.23 5.92a3 3 0 0 1 .79 1.57 2.33 2.33 0 0 0 1.85 0c.5-.36 1.29-.47 1.55-1 .43-.93 1.09-1 1.91-.83 2.48.55 4.13-1 3.59-3.36a.94.94 0 0 1 .33-1.08 2.63 2.63 0 0 0 .26-3.7z" transform="translate(-.11)"/>
    <path class="salad-cloud-17" d="M82.62 43.2c-.06-.38-.12-.76-.17-1.14s-.11-.63.26-.55c1.18.27 1.77-.71 2.62-1.13-.07.57-.11 1 .71 1.12a17.76 17.76 0 0 1 2.1.5 2.12 2.12 0 0 1 1 .79c1.35 1.82 2.67 3.65 3.92 5.52.37.55.86 1.23-.25 1.6-.9.9-1.6.7-2.22-.35-.88-1.47-1.79-2.91-2.71-4.35a5.75 5.75 0 0 0-5.26-2.01z" transform="translate(-.11)"/>
    <path class="salad-cloud-18" d="M92.79 49.91a.66.66 0 0 0 .21-1.07c-1.47-2-2.94-4.09-4.38-6.16a1.41 1.41 0 0 0-1-.49 12.42 12.42 0 0 0 .55-2.2.94.94 0 0 0-.69-1.12c.71-.64 1.86-.88 1.92-2.14 0-.26.31-.18.5-.08l1.1.59a5.26 5.26 0 0 0 .18 5.67c.91 1.08 1.77 2.19 2.68 3.27 1.54 1.82 1.29 2.73-1.07 3.73z" transform="translate(-.11)"/>
    <path class="salad-cloud-19" d="M91.37 26.18c-.66-.8-1.62-.32-2.41-.44 0-1 1.44-.58 1.3-1.58a1.8 1.8 0 0 1 1.74.64c-.49.44 0 .74.14 1.1s.13.55-.16.66-.44-.2-.61-.38z" transform="translate(-.11)"/>
    <path class="salad-cloud-20" d="M87.47 38.87c.38.13.6-.28 1.1-.26-.27 1.23.31 2.61-1 3.58l-3-.78c.13-.49.7-.56.73-1a1.36 1.36 0 0 0 .35-1.3c.58-.5 1.26.13 1.82-.24z" transform="translate(-.11)"/>
    <path class="salad-cloud-21" d="M86.85 24.26c.18.31.61.71.15 1.06s-.76-.13-1-.48a1.62 1.62 0 0 0-2-.73c-.24.07-.52.2-.63-.14s.15-.47.37-.61a2.52 2.52 0 0 1 3.11.9z" transform="translate(-.11)"/>
    <path d="M136.47 37.45c-.32-.31-.91-.52-.69-1a1.52 1.52 0 0 1 1.09-.68c4-.45 7-2.53 9.47-5.7a11.56 11.56 0 0 0 2.07-10c-1.56-7-6.53-10.46-13.17-10.72a11.32 11.32 0 0 0-9.25 4.1 8 8 0 0 1-.84.39 7.83 7.83 0 0 1-.57-.72 11.37 11.37 0 0 0-6.42-7.83c-6-2.75-12-1.91-16.59 3.66a11.58 11.58 0 0 0-2.64 9.86c.77 3.93 2.49 7.13 5.9 9.35a1.54 1.54 0 0 1 .66 1.1c0 .52-.64.45-1.06.58a12.72 12.72 0 0 0-8.14 7.06c-3.12 6.48 1.88 16.46 10.48 16.47 4 0 7.29-1.79 10.07-4.55 1.25 3.72 3.34 6.78 7 8.59 7.68 3.86 16.64-2.8 16.76-10a12.74 12.74 0 0 0-4.13-9.96zm-9.87 15.49c-.94-.08-2 .08-2.48-1.11-.15-.49-.14-1.07-.73-1.31a1.75 1.75 0 0 1-2.7-.34 10.35 10.35 0 0 1-2-3c-.23-.56-.47-1.34-1.22-1.24-.61-.42-1.18.17-1.64.56a10.35 10.35 0 0 1-3.08 1.79 1.76 1.76 0 0 1-2.57-.9c-.64-.06-.89.47-1.24.84-.94.86-1.84.22-2.71-.12-5.09-2-7.82-9.76-3.51-14.35a8.73 8.73 0 0 1 5.28-3.22c.49-.13 1.16-.11 1.32-.7s-.47-1-.9-1.41a5.52 5.52 0 0 0-.55-.4 10.27 10.27 0 0 1-4.35-9.41c.35-6.17 7.07-10.56 11.67-8.94 4 .27 6.27 2.78 8.16 5.89a1.26 1.26 0 0 0 .69 1.31.92.92 0 0 0 .33.11.83.83 0 0 0 .36.05 1.24 1.24 0 0 0 1.19-.86c3.09-1.92 6.29-3.12 10-1.59 4.83.62 8.86 7.56 6.4 13.24a10.28 10.28 0 0 1-8.12 6.44 5.2 5.2 0 0 0-.67.11c-.56.16-1.3.14-1.44.86s.48.88.86 1.22a8.61 8.61 0 0 1 3.25 5.25c1.8 6.04-4.15 11.72-9.6 11.23z" transform="translate(-.11)" fill="#f8e48d"/>
    <path class="salad-cloud-27" d="M91.79 44.34a15.11 15.11 0 0 0 1.35 4 15.64 15.64 0 0 1-1.26-3.62c-.03-.13-.07-.25-.09-.38zM91.61 39.87a15.55 15.55 0 0 0-.09 1.72 6.16 6.16 0 0 0 .09-1.72zM92.8 35.32a14 14 0 0 0-1.12 3.92 18.05 18.05 0 0 1 1.12-3.92zM93.88 49.68a10.72 10.72 0 0 0 1.23 1.71 15.73 15.73 0 0 1-1.23-1.71z" transform="translate(-.11)"/>
    <path class="salad-cloud-28" d="M143.17 52.63a5.19 5.19 0 0 0-.38.79c.14-.27.26-.53.38-.79zM137.33 39.33c-2.62-3.31-2.62-3.31 1.42-4.56 7.25-2.25 10.76-8.67 8.71-15.94-1.71-6.09-9.29-10.16-14.83-8.45a33.8 33.8 0 0 0-6.08 2.94 1.08 1.08 0 0 1-1.36.37 1.09 1.09 0 0 1-1.06-.95A33.78 33.78 0 0 0 120 7.39c-4.19-4-12.78-3.79-17 .88-5.1 5.57-4.85 12.88.61 18.15 3 2.93 3 2.93-.78 4.71-4.3 2-6.73 5.38-6.77 10.1-.06 5.11 2.51 8.77 7.14 10.85 3.72 1.63 7.23.45 10.55-1.5 1-.61 1.77-1.66 2.93-2.09a1.14 1.14 0 0 1 .22.07h.24c.84.91 1 2.17 1.67 3.18 2.09 3.24 4.7 5.86 8.75 6.08 5.06.27 9-1.87 11.28-6.46 2.08-4.2 1.43-8.31-1.51-12.03z" transform="translate(-.11)"/>
    <path class="salad-cloud-27" d="M93.88 49.68c-.28-.45-.52-.9-.74-1.34a13.41 13.41 0 0 0 .74 1.34zM91.64 39.5a2.31 2.31 0 0 0 0 .37c0-.22 0-.44.07-.64-.04.09-.06.18-.07.27z" transform="translate(-.11)"/>
    <path class="salad-cloud-28" d="M116.94 56.81s.19.21.45.47zM137.33 39.33c-2.62-3.31-2.62-3.31 1.42-4.56 7.25-2.25 10.76-8.67 8.71-15.94-1.71-6.09-9.29-10.16-14.83-8.45a33.8 33.8 0 0 0-6.08 2.94 1.08 1.08 0 0 1-1.36.37 1.09 1.09 0 0 1-1.06-.95A33.78 33.78 0 0 0 120 7.39c-4.19-4-12.78-3.79-17 .88-5.1 5.57-4.85 12.88.61 18.15 3 2.93 3 2.93-.78 4.71-4.3 2-6.73 5.38-6.77 10.1-.06 5.11 2.51 8.77 7.14 10.85 3.72 1.63 7.23.45 10.55-1.5 1-.61 1.77-1.66 2.93-2.09a1.14 1.14 0 0 1 .22.07h.24c.84.91 1 2.17 1.67 3.18 2.09 3.24 4.7 5.86 8.75 6.08 5.06.27 9-1.87 11.28-6.46 2.08-4.2 1.43-8.31-1.51-12.03z" transform="translate(-.11)"/>
    <path class="salad-cloud-27" d="M112.92 56c-.23.07-.45.16-.67.25zM103.52 56.67h.28l-.27-.07zM116.93 56.79z" transform="translate(-.11)"/>
    <path class="salad-cloud-27" d="M143.68 37.39c5.84-3.42 8.61-8.64 8.79-15.32a17.73 17.73 0 0 0-7.07-13.26 17.52 17.52 0 0 0-9.19-3.25 11 11 0 0 0-6.1.92 5.67 5.67 0 0 1-3.37.67A5.63 5.63 0 0 1 124 5a11 11 0 0 0-5-3.57 17.52 17.52 0 0 0-9.67-1.19 17.74 17.74 0 0 0-12.28 8.67c-2.84 6.05-2.72 12 1 17.63a1.5 1.5 0 0 1-.41 2.46 15.9 15.9 0 0 0-4.84 6.37 18.05 18.05 0 0 0-1.12 3.91c0 .2-.05.42-.07.64a6.16 6.16 0 0 1-.09 1.72 15.13 15.13 0 0 0 .27 2.75c0 .13.06.25.09.38a15.64 15.64 0 0 0 1.26 3.62c.22.44.46.89.74 1.34a15.73 15.73 0 0 0 1.23 1.71 18.38 18.38 0 0 0 3.46 3.22 13.32 13.32 0 0 0 5 2l.27.07a19 19 0 0 0 8.45-.47c.22-.09.44-.18.67-.25a4.67 4.67 0 0 1 2.29-.31 4.44 4.44 0 0 1 1.72 1.11l.45.47a19.27 19.27 0 0 0 8.18 4.61 12.64 12.64 0 0 0 5 .32 17.87 17.87 0 0 0 5.62-1.85 17.5 17.5 0 0 0 6.61-6.94 5.19 5.19 0 0 1 .38-.79 14.74 14.74 0 0 0 .68-1.86 16.11 16.11 0 0 0-.91-11.07c-.56-1.12-.37-1.7.7-2.31zm-19.88 20c-3.62-1.81-5.71-4.87-7-8.59-2.78 2.76-6 4.56-10.07 4.55-8.6 0-13.6-10-10.48-16.47a12.72 12.72 0 0 1 8.14-7.06c.42-.13 1-.06 1.06-.58a1.54 1.54 0 0 0-.66-1.1c-3.41-2.22-5.13-5.42-5.9-9.35A11.58 11.58 0 0 1 101.57 9c4.55-5.57 10.54-6.41 16.59-3.66a11.35 11.35 0 0 1 6.19 7 6 6 0 0 0 .18.65 1.21 1.21 0 0 1 0 .18v.05c.13.32.31.62.53.67s.51-.13.77-.35h.07l.12-.14a6.8 6.8 0 0 0 .48-.52 11.31 11.31 0 0 1 8.65-3.44c6.64.26 11.61 3.7 13.17 10.72a11.56 11.56 0 0 1-2.07 10c-2.45 3.17-5.43 5.25-9.47 5.7a1.52 1.52 0 0 0-1.09.68c-.22.48.37.69.69 1a12.74 12.74 0 0 1 4.09 10c-.03 7.07-8.99 13.73-16.67 9.87z" transform="translate(-.11)"/>
    <path class="salad-cloud-29" d="M8.47 30.3a21.16 21.16 0 0 0 8.78-.3c1.18-.33 2.06-1.49 3.43-1.2-.87 1.49-1.74 3-2.6 4.46-1.94.92-3.8 2-6.06 2.12-1.39.06-2.83.38-3.81-.87s-.49-2.86.26-4.21z" transform="translate(-.11)"/>
    <path class="salad-cloud-30" d="M23.88 16.38a2.37 2.37 0 0 0-.68-1.5c-.89-1 0-2.15-.19-3.24-.27-1.79-1.32-2.93-2.87-2.83a2.3 2.3 0 0 0-2 1.21c-.39.7-.79 1.39-1.22 2.15-.83-1.36-1.9-2.45-2.58-3.85a2.05 2.05 0 0 0-3-1.05c-1.33.59-1.43 1.67-1.17 2.82.2.94.87 1.75.95 2.8a2.62 2.62 0 0 1-2.65-1.07A22.63 22.63 0 0 0 5.79 9a2.9 2.9 0 0 0-4.23 0 2.91 2.91 0 0 0 .25 4.23 23.38 23.38 0 0 0 2.94 2.59 2.63 2.63 0 0 1 1.19 2.59c-1.06 0-1.9-.66-2.84-.82-1.17-.2-2.24-.05-2.76 1.3a2 2 0 0 0 1.18 2.91c1.42.62 2.57 1.65 4 2.41l-2.14 1.27a2.27 2.27 0 0 0-1.12 2c0 1.55 1.16 2.55 3 2.74 1.09.12 2.18-.8 3.25 0a2.39 2.39 0 0 0 1.52.61 14.19 14.19 0 0 0 10.69-2.14 1.07 1.07 0 0 1 .54-.68h.31a1.93 1.93 0 0 1 0-.24 1.07 1.07 0 0 1 .67-.64 14.18 14.18 0 0 0 1.64-10.75z" transform="translate(-.11)"/>
    <path class="salad-cloud-29" d="M23.23 14.88a21 21 0 0 1 .08 8.8c-.28 1.19-1.39 2.12-1 3.47l4.33-2.8c.84-2 1.84-3.89 1.84-6.15 0-1.39.26-2.84-1-3.77s-2.93-.35-4.25.45z" transform="translate(-.11)"/>
    <path class="salad-cloud-31" d="M48.34 54.66l4.19 1c-1.57-4.08-2-8.19-2.72-12.25-1.4-8-4-15.24-12-19.1-.58-.28-1.15-.53-1.72-.76A13.12 13.12 0 0 0 34.6 23a11.59 11.59 0 0 0-4.75-.54 11.09 11.09 0 0 0-8 4.31c-.09.11-.18.23-.26.35a.84.84 0 0 0 0 1c.62.43 1.41.54 1.94 1.14 1.67 1.88 3.68 3.41 5.51 5.12C36 41.06 43 47.89 50.48 54.24c-.81-.13-1.64-.63-2.14.42z" transform="translate(-.11)"/>
    <path class="salad-cloud-32" d="M49.56 52.81C45.68 49.37 41.71 46 38 42.39c-4.71-4.68-9.83-8.9-14.46-13.65a2.54 2.54 0 0 0-.54-.44l-1.49-1.16-.4.72c-.31 0-.52.28-.72.58-.33.57-.72 1.1-1.1 1.65a7.52 7.52 0 0 0-1 1.88 11.77 11.77 0 0 0-.76 6.11 12 12 0 0 0 2.29 5.37A22.69 22.69 0 0 0 33 52.12a110.4 110.4 0 0 0 15.33 2.54c.75-.56 1.65 0 2.47-.21a6.35 6.35 0 0 0-1.24-1.64z" transform="translate(-.11)"/>
    <path class="salad-cloud-29" d="M150 25.11a16 16 0 0 0-.92 6.59c.1.93.84 1.73.45 2.71l-3-2.52a11.86 11.86 0 0 1-.79-4.8c.14-1 .09-2.15 1.15-2.72s2.18.01 3.11.74z" transform="translate(-.11)"/>
    <path class="salad-cloud-30" d="M158.33 38.43a1.8 1.8 0 0 0 1.21-.31c.88-.53 1.61.27 2.44.29 1.37 0 2.36-.61 2.49-1.78a1.71 1.71 0 0 0-.64-1.63c-.47-.39-.93-.78-1.45-1.2 1.13-.44 2.08-1.09 3.21-1.42a1.54 1.54 0 0 0 1.17-2.07c-.26-1.07-1-1.28-1.94-1.25a13.07 13.07 0 0 1-2.21.34 2 2 0 0 1 1.14-1.82 17.1 17.1 0 0 0 2.46-1.66 2.21 2.21 0 0 0 .6-3.15 2.2 2.2 0 0 0-3.19-.38 17.93 17.93 0 0 0-2.32 1.85 2 2 0 0 1-2.08.55c.16-.79.74-1.33 1-2a1.64 1.64 0 0 0-.6-2.23 1.54 1.54 0 0 0-2.33.5c-.65 1-1.56 1.7-2.31 2.64-.26-.62-.49-1.18-.71-1.74a1.74 1.74 0 0 0-1.37-1.1c-1.16-.23-2.06.53-2.44 1.84-.23.8.31 1.74-.45 2.42a1.76 1.76 0 0 0-.66 1.06 10.7 10.7 0 0 0 .19 8.24.87.87 0 0 1 .43.5.91.91 0 0 1 0 .23h.18a.78.78 0 0 1 .39.58 10.71 10.71 0 0 0 7.79 2.7z" transform="translate(-.11)"/>
    <path class="salad-cloud-29" d="M159.53 38.14a16 16 0 0 1-6.53-1.09c-.85-.37-1.4-1.32-2.45-1.24l1.51 3.6a12 12 0 0 0 4.35 2.18c1 .18 2.08.57 2.94-.28s.65-2.07.18-3.17z" transform="translate(-.11)"/>
    <path class="salad-cloud-31" d="M126.58 51.63l-1.29 3a47.48 47.48 0 0 1 9.48-.42c6.16 0 11.88-.93 15.83-6.46.28-.39.54-.79.79-1.18a8.27 8.27 0 0 0 .57-1 8.86 8.86 0 0 0 1-3.47 8.41 8.41 0 0 0-2.16-6.57 1.7 1.7 0 0 0-.22-.24.64.64 0 0 0-.74-.15c-.4.4-.59 1-1.1 1.29-1.63 1-3 2.29-4.55 3.43-5.9 4.43-11.91 8.72-17.62 13.46.24-.63.73-1.18.01-1.69z" transform="translate(-.11)"/>
    <path class="salad-cloud-32" d="M127.8 52.78c3.07-2.44 6.08-5 9.29-7.22 4.1-2.89 7.92-6.16 12.07-9a2.11 2.11 0 0 0 .41-.37l1.06-1-.49-.4c0-.23-.14-.42-.34-.61-.38-.32-.72-.68-1.08-1a5.56 5.56 0 0 0-1.28-1 8.87 8.87 0 0 0-4.44-1.34 9 9 0 0 0-4.31 1 17.16 17.16 0 0 0-8.18 8.7 82.87 82.87 0 0 0-3.91 11.09c.32.63-.21 1.23-.17 1.87a4.94 4.94 0 0 0 1.37-.72z" transform="translate(-.11)"/>
    <path fill="#d8d8d8" d="M53.78 104.64v10.99H144.83V104.64H53.78z"/>
    <path d="M53.89 104.64h91.05v.2c23.55-12.28 39.17-33.84 39.17-58.4h-169c-.02 24.42 15.44 45.89 38.78 58.2z" transform="translate(-.11)" fill="#eaeaea"/>
  </g>
</svg>
