<svg id="Laag_1" data-name="Laag 1" xmlns="http://www.w3.org/2000/svg" viewBox="0 0 36.16 93.19"><defs><style>.cls-1{fill:#4b252a;}.cls-2{fill:#f3a13f;}.cls-3{fill:#e1843a;}.cls-4{fill:#fefdfd;}.cls-5{fill:#f9cd4d;}.cls-6{fill:#f4ebb8;}.cls-7{fill:#f4eab8;}.cls-8{fill:#eab047;}</style></defs><title>small-beer</title><path class="cls-1" d="M19.67,96.47a29,29,0,0,1-4.15,0c-8.87-1.1-9.12-1.76-8.62-10.6.66-11.9-.69-23.76-1.48-35.61-.63-9.43-.73-19-2.76-28.2C1,14.28,7.21,12.07,10,7.43a1.66,1.66,0,0,1,1.17-.79c4.3.13,7.91-2.38,11.92-3.1S30.29,4.82,32.2,8.2a15,15,0,0,0,4.1,4.74,5.79,5.79,0,0,1,2.19,5.48c-.88,8.65-1.92,17.29-2.66,25.95-1,12.21-1.91,24.43-2.06,36.69a72.33,72.33,0,0,0,.47,9.07c.31,2.7-.39,4.23-3.26,5C27.43,96,23.94,96.9,19.67,96.47Z" transform="translate(-2.37 -3.4)"/><path class="cls-2" d="M24.73,81.25c-4,0-8,0-12,.15-1.88.06-2.55-.6-2.53-2.5.19-12.72-1.24-25.35-2.31-38-.21-2.48.35-3.43,3-3.32,5.56.22,11.13.13,16.7.17,1.26,1.31.88,2.89.78,4.45-.65,9.87-2.05,19.68-1.87,29.61C26.61,75,26.55,78.33,24.73,81.25Z" transform="translate(-2.37 -3.4)"/><path class="cls-3" d="M24.73,81.25c1.05-13.53.89-27.15,2.87-40.61a21.55,21.55,0,0,0,0-2.9c5.58-.29,5.43-.31,4.89,5.12-1.1,11-1.79,22-2,33C30.4,81.53,30.37,81.53,24.73,81.25Z" transform="translate(-2.37 -3.4)"/><path class="cls-4" d="M7.34,20.17C5,17.93,5,16.7,7.79,15.6a3.43,3.43,0,0,0,2.59-3c.35-2.18,2.27-3.86,4.1-3.07,3.06,1.3,4.68-.49,6.69-1.83a1.89,1.89,0,0,1,1.38-.28c1.64.35,9.31,8.61,9.47,10.24s-.23,2.87-2.28,2.81C22.27,20.29,14.8,20.88,7.34,20.17Z" transform="translate(-2.37 -3.4)"/><path class="cls-4" d="M28.34,33.85,9.47,34c-1.14,0-2.25,0-2.19-1.6.1-2.66-1-5.24-.56-7.92,7-.71,14-.13,21-.31a1.72,1.72,0,0,1,2,2C29.52,28.76,30.15,31.54,28.34,33.85Z" transform="translate(-2.37 -3.4)"/><path class="cls-5" d="M22.57,92.86a57,57,0,0,1-8.65-.4c-3.78-.41-4-2.44-3.66-5.44.21-1.69.85-2.3,2.51-2.25,4,.12,8,.13,12,.18C26.79,89.4,26.12,91.84,22.57,92.86Z" transform="translate(-2.37 -3.4)"/><path class="cls-6" d="M7.34,20.17c7,0,14.06,0,21.09-.1,1,0,2.36.46,2.77-1a2.72,2.72,0,0,0-1.33-3.45c-2.59-1-3.71-2.92-4.69-5.29a3.93,3.93,0,0,0-4-2.6c4.65-1.77,7.58-.47,8.67,4.2.46,1.94,1.63,2.43,3.19,2.89a2.77,2.77,0,0,1,2,3,2.47,2.47,0,0,1-2.49,2.61C24.16,20.65,15.74,21.27,7.34,20.17Z" transform="translate(-2.37 -3.4)"/><path class="cls-7" d="M28.34,33.85c0-1.56,0-3.13.07-4.7.18-4.62.19-4.61-4.69-4.62-5.67,0-11.33,0-17-.06,2.62-1.3,5.39-.47,8.08-.54,5.44-.13,10.9.19,16.33-.05,3-.13,3.58,1,3.05,3.57a8.37,8.37,0,0,0-.29,2.15C34.17,33.83,31.84,34.59,28.34,33.85Z" transform="translate(-2.37 -3.4)"/><path class="cls-8" d="M22.57,92.86C26.5,91.1,24.08,87.6,24.75,85a10.42,10.42,0,0,1,2.15-.12c1.45.19,3.7-.93,3.66,2,0,2.22,1.16,5-2.65,5.5C26.13,92.55,24.41,93.14,22.57,92.86Z" transform="translate(-2.37 -3.4)"/></svg>