<svg id="Laag_1" data-name="Laag 1" xmlns="http://www.w3.org/2000/svg" viewBox="0 0 275.71 412.15"><defs><style>.cls-1{fill:#f4b4a4;}.cls-2{fill:#881719;}.cls-3{fill:#c28789;}.cls-4{fill:#b87c7e;}.cls-5{fill:#a9251e;}.cls-6{fill:#fcfcfb;}.cls-7{fill:#eca08c;}.cls-8{fill:#ce685a;}.cls-9{fill:#ef9885;}.cls-10{fill:#f1a895;}.cls-11{fill:#fefdfd;}</style></defs><title>steak</title><path class="cls-1" d="M171.36,4c2.33,1.24,5,.8,7.39,1a116.86,116.86,0,0,1,29.78,6.35,79.7,79.7,0,0,1,27,15.81c.52.48,1.23.87,1.23,1.74-1.22.92-2.22.06-3.19-.47-14.53-8.08-30.35-11.19-46.74-12.26-39-2.53-73.09,9.34-102.31,34.9C60,72.62,43,99.24,34.57,130.94a134,134,0,0,0-4.52,30.62c-.09,2.84-.57,5.65-.6,8.51-.23,20.63,2,41.06,5.16,61.4,4,25.45,9.2,50.65,14.32,75.89,2.62,12.92,4.84,25.94,9.49,38.36,6.07,16.24,14.93,30.51,29.25,40.79,11.66,8.36,24.81,12.32,39.12,12.75,8.2.24,16.2-1.07,24.17-2.61a42.5,42.5,0,0,0,18.67-8.92c1.36-1.09,2.52-2.65,4.57-2.49-3.62,7.69-9.26,13.64-16,18.7s-14.55,7.12-22.78,8.31c-4.76.7-9.51,1.48-14.32,1.81C110.8,415.17,101,413,91.55,409.12c-13-5.28-23.18-14.05-31.34-25.3-11-15.18-17-32.47-20.68-50.62-5-24.83-10.09-49.64-14.55-74.58-3.27-18.28-6.2-36.61-8-55.11-.92-9.24-1.62-18.52-1.79-27.76-.71-39,8.37-75.27,31.41-107.44,13.07-18.24,28.59-33.8,47.86-45.47A132,132,0,0,1,128.65,8.2a9.18,9.18,0,0,1,3.4-.6c1,.12.66-.51.77-.93,4.55-1.49,9.3-1.41,14-1.84,2.91-.27,5.85-.19,8.74-.71Z" transform="translate(0 -4.03)"/><path class="cls-2" d="M132.79,7.37a1.08,1.08,0,0,0,.28.15c.33.07.41.31.11.4-3.53,1-7.13,1.87-10.62,3C88.86,22.28,63.61,44.22,44.2,73.47c-18.09,27.27-27,57.33-27.88,90-.69,26,2.33,51.58,6.49,77.1C28,272.29,34.47,303.78,41,335.26c3.92,19,10.63,36.9,23.16,52.09Q85.29,413,118.66,413.73a23,23,0,0,1,2.46.33l-10.05,2-15.2.09c-6.81-.72-13.45-1.88-19.88-4.55C59.9,405,48.23,393.49,39.39,378.83c-7.88-13.08-12.7-27.37-15.69-42.24-5.1-25.35-10.28-50.69-14.88-76.14C5.91,244.36,3.27,228.21,1.48,212a187.91,187.91,0,0,1-1-20.83c-.19-2.28.34-4.59-.36-6.84L0,167.18c.71-2,.11-4,.29-6C.08,140,4.91,120,13.47,100.78A173.64,173.64,0,0,1,53.92,43.59C73.85,25.05,97.09,12.86,124,7.83c1.55-.29,3.08-.74,4.63-1S131.52,6.22,132.79,7.37Z" transform="translate(0 -4.03)"/><path class="cls-3" d="M.69,191.33a1.25,1.25,0,0,1-.51-.09l0-7C1.14,186.56.81,189,.69,191.33Z" transform="translate(0 -4.03)"/><path class="cls-4" d="M0,160.84a1.84,1.84,0,0,1,.51-.1c.14,2.17.57,4.36-.47,6.44Z" transform="translate(0 -4.03)"/><path class="cls-5" d="M174.2,385.24c-7,6.14-14.7,10.76-24,12.6-15.46,3.06-30.78,3.67-45.88-1.66-19-6.71-32.12-20-41.27-37.61C55.63,344.35,52.15,329,49.11,313.41c-5-25.75-10.56-51.41-14.74-77.32-3.6-22.31-6.18-44.7-5.75-67.37C29.38,128,43.87,92.85,71.17,62.87c21.06-23.13,46.62-38.76,77.42-45.07,25.4-5.21,50.55-4,75.06,5,4.52,1.67,8.76,4.08,13.12,6.14C249,37,259.15,47,265.28,60.38c13.36,29.15,14.39,58.53.2,87.79-4.22,8.7-8.92,17.18-13.4,25.76-2.57,1.43-4.28-.78-6.06-1.28a24.69,24.69,0,0,1,3.56,2.29c.61.52,1.45,1.05.68,2.07-7.89,15-16,29.91-24.44,44.61-2.88,1.5-3.29-1.72-4.7-2.45.68,1.86,4.13,2.46,2.92,5.62-1.66,3-3.12,6.22-5,9.12-7.5,11.46-10.76,24.36-13.17,37.61-2.37,13-2.34,26.23-3.56,39.34-2.08,22.24-7.16,43.65-19.16,62.92A104.17,104.17,0,0,1,174.2,385.24Z" transform="translate(0 -4.03)"/><path class="cls-2" d="M89.87,200.85a287.17,287.17,0,0,1,38.48,3.37,427.34,427.34,0,0,1,53.48,11.25,135.23,135.23,0,0,1,17,6.52,10.77,10.77,0,0,1,2.16,1.82c2.06,1.69,1.15,2.89-.73,3.71a15.9,15.9,0,0,1-6.12,1.25,246.47,246.47,0,0,1-26.5-.58c-7.7-.66-15.37-1.87-23-3a387.34,387.34,0,0,1-42.82-8.64c-8.82-2.29-17.7-4.54-25.74-9.08a8.45,8.45,0,0,1-1.56-1.07c-2.22-2-1.88-3.54.94-4.49,3.77-1.26,7.68-1.06,11.56-1.08Z" transform="translate(0 -4.03)"/><path class="cls-2" d="M165.25,274c-15.34,0-32-2.46-48.61-5.73-9.28-1.83-18.43-4.12-27.5-6.73a75.43,75.43,0,0,1-14.47-6.12c-1.53-.82-2.87-1.95-2.52-4,.32-1.82,1.88-2.08,3.34-2.37a70.41,70.41,0,0,1,20.35-.9c6.57.63,13.14,1.13,19.7,1.93a270.21,270.21,0,0,1,56.4,12.66,44.54,44.54,0,0,1,9.38,4.47c1.36.86,2.52,1.87,2.16,3.47s-1.91,2.1-3.39,2.47C175.73,274.22,171.29,273.73,165.25,274Z" transform="translate(0 -4.03)"/><path class="cls-2" d="M96.13,289.49c11.57-.43,23.67,1.69,35.73,3.95a122.66,122.66,0,0,1,25.9,7.64A75.77,75.77,0,0,1,165,305a3.5,3.5,0,0,1,1.79,3.45c-.1,1.66-1.38,2.18-2.73,2.64-7.29,2.48-14.84,1.7-22.25,1.39a141.91,141.91,0,0,1-19.33-2.19c-11.18-2-22.26-4.43-32.87-8.49-3.37-1.28-6.84-2.76-9.48-5.45-2.1-2.13-1.74-3.7,1-5.09,4-2.07,8.39-1.72,12.7-1.74Z" transform="translate(0 -4.03)"/><path class="cls-6" d="M202.58,109.62c-10.69-.47-20.05-3.93-26.83-12.61-8.12-10.39-4.14-22.28,8.52-26,12.29-3.62,27.94,1.66,35.37,11.94,7.31,10.11,3.8,21.21-8,25.26A26.83,26.83,0,0,1,202.58,109.62Z" transform="translate(0 -4.03)"/><path class="cls-7" d="M265.11,95.92c-.82-12.25-5.17-23.32-11-33.9a71.32,71.32,0,0,1,12.09,44.57c-1.36-.15-.78-1.22-.83-1.89C265.21,101.78,265.62,98.83,265.11,95.92Z" transform="translate(0 -4.03)"/><path class="cls-8" d="M265.11,95.92c1.16,2.27.28,4.71.6,7.06.17,1.2-.38,2.51.53,3.61.12,5.46-2.56,17.7-5.26,22.9C264.64,118.56,265.54,107.32,265.11,95.92Z" transform="translate(0 -4.03)"/><path class="cls-9" d="M244.86,50q-5.19-5.25-10.39-10.49A47.12,47.12,0,0,1,245.24,49.6C245.35,50,245.24,50.1,244.86,50Z" transform="translate(0 -4.03)"/><path class="cls-10" d="M245.24,49.6a16.08,16.08,0,0,1,4.48,6.61L244.86,50A.88.88,0,0,0,245.24,49.6Z" transform="translate(0 -4.03)"/><path class="cls-5" d="M201.07,103.89c-7.31-.43-13.8-2.78-18.64-8.57-6.36-7.61-3.1-17,6.6-19.09a24,24,0,0,1,21,5.32c4.22,3.48,6.93,8,5.4,13.59s-6.2,7.61-11.48,8.46C203,103.75,202.06,103.79,201.07,103.89Z" transform="translate(0 -4.03)"/><path class="cls-11" d="M196,80.9a14.37,14.37,0,0,1,11.17,5.48c3.76,4.77,1.93,10.18-3.91,11.75-4.58,1.23-8.78.14-12.61-2.44s-5.4-6.36-4.33-9.66S190.67,80.91,196,80.9Z" transform="translate(0 -4.03)"/></svg>