<svg xmlns="http://www.w3.org/2000/svg" viewBox="0 0 210.52 387.92">
  <defs>
    <style>
      .cls-2{fill:#aa271f}
    </style>
  </defs>
  <g id="Laag_1" data-name="Laag 1">
    <path d="M186.93 99.32c-3.25-3.68-3.91-9-2.35-14.52-5.68.88-10.88-.41-14.13-4.08a13 13 0 0 1-3.15-8.1 13.06 13.06 0 0 1-7.66-4.1 13.84 13.84 0 0 1-3.07-10.7 13.8 13.8 0 0 1-10.25-4.34c-2.74-3.08-3.65-7.32-3-11.87-4.6.14-8.69-1.27-11.42-4.36-6.09-6.86-3.15-19.43 6.48-28.43A90.5 90.5 0 0 0 92 2.06C54.81 6.42 25.37 32.81 14.27 67.29A100.05 100.05 0 0 0 9.49 99c-10.76 80.05-29.64 291.07 58.06 288.77 46.31-1.21 76-75.55 79.34-109 9.29-92.36 39.92-134.56 39.92-134.56a99.15 99.15 0 0 0 10.31-40.52 13.84 13.84 0 0 1-10.19-4.37z" transform="translate(0 .13)" fill="#88181a"/>
    <path class="cls-2" d="M186.93 99.32c-3.25-3.68-3.91-9-2.35-14.52-5.68.88-10.88-.41-14.13-4.08a13 13 0 0 1-3.15-8.1 13.06 13.06 0 0 1-7.66-4.1 13.84 13.84 0 0 1-3.07-10.7 13.8 13.8 0 0 1-10.25-4.34c-2.74-3.08-3.65-7.32-3-11.87-4.6.14-8.69-1.27-11.42-4.36-6.24-7-3-20.06 7.18-29.1a35.19 35.19 0 0 1 5.1-3.74A90.63 90.63 0 0 0 105.31.49C68.13 4.85 38.7 31.25 27.59 65.73a99.73 99.73 0 0 0-4.77 31.69C12.06 177.49-6.82 388.5 80.88 386.21c46.3-1.21 76-75.55 79.34-109 9.29-92.36 39.91-134.56 39.91-134.56a99.16 99.16 0 0 0 10.37-42.55c-8.9 4.9-18.5 4.9-23.57-.78z" transform="translate(0 .13)"/>
    <path d="M36.33 95.84a99.67 99.67 0 0 1 4.78-31.68c10.43-32.37 37-57.61 71-64.19q-3.37.14-6.78.53C68.13 4.85 38.7 31.25 27.59 65.73a99.73 99.73 0 0 0-4.77 31.69C12.06 177.49-6.82 388.5 80.88 386.21a44.42 44.42 0 0 0 10.64-1.59C7.12 382.24 25.7 175 36.33 95.84z" transform="translate(0 .13)" fill="#f4b4a4"/>
    <path d="M98.07 291.37c-14.41-.5 21-125.63-15.63-169.71-22.81-27.45 40.34-28.81 40.34-28.81s52.15.86 22.34 32c-37.53 39.25-32.64 167.02-47.05 166.52z" transform="translate(0 .13)" fill="#fffefe"/>
  </g>
  <path class="cls-2" d="M209.83 86.37c-4.62-39.43-31.29-70.69-65.61-82a35.19 35.19 0 0 0-5.1 3.74l-.7.67c-9.63 9-12.57 21.57-6.48 28.43 2.73 3.09 6.82 4.5 11.42 4.36-.69 4.55.22 8.79 3 11.87a13.8 13.8 0 0 0 10.25 4.34 13.84 13.84 0 0 0 3.07 10.7 13.06 13.06 0 0 0 7.66 4.1 13 13 0 0 0 3.15 8.1c3.25 3.67 8.45 5 14.13 4.08-1.56 5.53-.9 10.84 2.35 14.52a13.84 13.84 0 0 0 10.19 4.35 26.4 26.4 0 0 0 13.38-3.59 102.33 102.33 0 0 0-.71-13.67z" transform="translate(0 .13)" class="bite" data-name="Laag 2"/>
</svg>
